<svg xmlns="http://www.w3.org/2000/svg" viewBox="0 0 512 512" width="512" height="512"><path fill="#000" d="M86,0h212v1h-212zM86,1h212v1h-212zM86,2h212v1h-212zM82,3h220v1h-220zM78,4h228v1h-228zM75,5h234v1h-234zM72,6h240v1h-240zM69,7h246v1h-246zM66,8h251v1h-251zM64,9h256v1h-256zM62,10h260v1h-260zM60,11h264v1h-264zM58,12h268v1h-268zM56,13h272v1h-272zM54,14h276v1h-276zM53,15h278v1h-278zM51,16h282v1h-282zM49,17h286v1h-286zM48,18h288v1h-288zM46,19h292v1h-292zM45,20h294v1h-294zM44,21h296v1h-296zM42,22h300v1h-300zM41,23h302v1h-302zM40,24h304v1h-304zM39,25h307v1h-307zM37,26h310v1h-310zM36,27h312v1h-312zM35,28h314v1h-314zM34,29h316v1h-316zM33,30h318v1h-318zM32,31h320v1h-320zM31,32h322v1h-322zM30,33h324v1h-324zM29,34h326v1h-326zM28,35h328v1h-328zM27,36h330v1h-330zM26,37h332v1h-332zM26,38h332v1h-332zM25,39h334v1h-334zM24,40h336v1h-336zM23,41h338v1h-338zM22,42h78v1h-78zM284,42h78v1h-78zM22,43h71v1h-71zM291,43h71v1h-71zM21,44h68v1h-68zM295,44h68v1h-68zM20,45h66v1h-66zM298,45h66v1h-66zM19,46h64v1h-64zM301,46h64v1h-64zM19,47h62v1h-62zM303,47h62v1h-62zM18,48h61v1h-61zM305,48h61v1h-61zM17,49h60v1h-60zM307,49h60v1h-60zM17,50h58v1h-58zM309,50h58v1h-58zM16,51h57v1h-57zM311,51h57v1h-57zM16,52h56v1h-56zM312,52h56v1h-56zM15,53h55v1h-55zM314,53h55v1h-55zM14,54h55v1h-55zM315,54h55v1h-55zM14,55h53v1h-53zM317,55h53v1h-53zM13,56h53v1h-53zM318,56h53v1h-53zM13,57h52v1h-52zM319,57h52v1h-52zM12,58h52v1h-52zM320,58h52v1h-52zM12,59h51v1h-51zM321,59h51v1h-51zM11,60h51v1h-51zM322,60h51v1h-51zM11,61h50v1h-50zM323,61h50v1h-50zM10,62h50v1h-50zM324,62h50v1h-50zM10,63h49v1h-49zM325,63h49v1h-49zM9,64h49v1h-49zM326,64h49v1h-49zM9,65h48v1h-48zM327,65h48v1h-48zM9,66h47v1h-47zM328,66h48v1h-48zM8,67h47v1h-47zM329,67h47v1h-47zM8,68h47v1h-47zM329,68h47v1h-47zM7,69h47v1h-47zM330,69h47v1h-47zM7,70h46v1h-46zM331,70h46v1h-46zM7,71h46v1h-46zM331,71h46v1h-46zM6,72h46v1h-46zM332,72h46v1h-46zM6,73h45v1h-45zM333,73h45v1h-45zM6,74h45v1h-45zM333,74h45v1h-45zM5,75h45v1h-45zM334,75h45v1h-45zM5,76h45v1h-45zM334,76h45v1h-45zM5,77h44v1h-44zM335,77h44v1h-44zM4,78h45v1h-45zM335,78h45v1h-45zM4,79h44v1h-44zM336,79h44v1h-44zM4,80h44v1h-44zM336,80h44v1h-44zM4,81h43v1h-43zM337,81h43v1h-43zM3,82h44v1h-44zM337,82h44v1h-44zM3,83h43v1h-43zM338,83h43v1h-43zM3,84h43v1h-43zM338,84h43v1h-43zM3,85h43v1h-43zM338,85h43v1h-43zM0,86h45v1h-45zM339,86h43v1h-43zM0,87h45v1h-45zM339,87h43v1h-43zM0,88h45v1h-45zM339,88h43v1h-43zM0,89h44v1h-44zM340,89h42v1h-42zM0,90h44v1h-44zM340,90h42v1h-42zM0,91h44v1h-44zM340,91h42v1h-42zM0,92h44v1h-44zM340,92h43v1h-43zM0,93h43v1h-43zM341,93h42v1h-42zM0,94h43v1h-43zM341,94h42v1h-42zM0,95h43v1h-43zM341,95h42v1h-42zM0,96h43v1h-43zM341,96h42v1h-42zM0,97h43v1h-43zM341,97h42v1h-42zM0,98h43v1h-43zM341,98h42v1h-42zM0,99h43v1h-43zM341,99h42v1h-42zM0,100h42v1h-42zM342,100h41v1h-41zM0,101h42v1h-42zM342,101h41v1h-41zM0,102h42v1h-42zM342,102h41v1h-41zM0,103h42v1h-42zM342,103h41v1h-41zM0,104h42v1h-42zM342,104h41v1h-41zM0,105h42v1h-42zM342,105h41v1h-41zM0,106h42v1h-42zM342,106h42v1h-42zM0,107h42v1h-42zM103,107h178v1h-178zM342,107h42v1h-42zM0,108h42v1h-42zM100,108h184v1h-184zM342,108h42v1h-42zM0,109h42v1h-42zM97,109h190v1h-190zM342,109h42v1h-42zM0,110h42v1h-42zM96,110h192v1h-192zM342,110h42v1h-42zM0,111h42v1h-42zM94,111h196v1h-196zM342,111h42v1h-42zM0,112h42v1h-42zM93,112h198v1h-198zM342,112h42v1h-42zM0,113h42v1h-42zM92,113h200v1h-200zM342,113h42v1h-42zM0,114h42v1h-42zM91,114h202v1h-202zM342,114h42v1h-42zM0,115h42v1h-42zM90,115h204v1h-204zM342,115h42v1h-42zM0,116h42v1h-42zM89,116h206v1h-206zM342,116h42v1h-42zM0,117h42v1h-42zM89,117h206v1h-206zM342,117h42v1h-42zM0,118h42v1h-42zM88,118h208v1h-208zM342,118h42v1h-42zM0,119h42v1h-42zM88,119h208v1h-208zM342,119h42v1h-42zM0,120h42v1h-42zM87,120h210v1h-210zM342,120h42v1h-42zM0,121h42v1h-42zM87,121h210v1h-210zM342,121h42v1h-42zM0,122h42v1h-42zM87,122h210v1h-210zM342,122h42v1h-42zM0,123h42v1h-42zM86,123h212v1h-212zM342,123h42v1h-42zM0,124h42v1h-42zM86,124h212v1h-212zM342,124h42v1h-42zM0,125h42v1h-42zM86,125h212v1h-212zM342,125h42v1h-42zM0,126h42v1h-42zM86,126h212v1h-212zM342,126h42v1h-42zM0,127h42v1h-42zM86,127h212v1h-212zM342,127h42v1h-42zM0,128h42v1h-42zM86,128h212v1h-212zM342,128h42v1h-42zM0,129h42v1h-42zM86,129h212v1h-212zM342,129h42v1h-42zM0,130h42v1h-42zM86,130h212v1h-212zM342,130h42v1h-42zM0,131h42v1h-42zM86,131h212v1h-212zM342,131h42v1h-42zM0,132h42v1h-42zM86,132h212v1h-212zM342,132h42v1h-42zM0,133h42v1h-42zM87,133h210v1h-210zM342,133h42v1h-42zM0,134h42v1h-42zM87,134h210v1h-210zM342,134h42v1h-42zM0,135h42v1h-42zM87,135h210v1h-210zM342,135h42v1h-42zM0,136h42v1h-42zM88,136h208v1h-208zM342,136h42v1h-42zM0,137h42v1h-42zM88,137h208v1h-208zM342,137h42v1h-42zM0,138h42v1h-42zM89,138h206v1h-206zM342,138h42v1h-42zM0,139h42v1h-42zM89,139h206v1h-206zM342,139h42v1h-42zM0,140h42v1h-42zM90,140h204v1h-204zM342,140h42v1h-42zM0,141h42v1h-42zM91,141h202v1h-202zM342,141h42v1h-42zM0,142h42v1h-42zM92,142h200v1h-200zM342,142h42v1h-42zM0,143h42v1h-42zM93,143h198v1h-198zM342,143h42v1h-42zM0,144h42v1h-42zM94,144h196v1h-196zM342,144h42v1h-42zM0,145h42v1h-42zM96,145h192v1h-192zM342,145h42v1h-42zM0,146h42v1h-42zM97,146h190v1h-190zM342,146h42v1h-42zM0,147h42v1h-42zM100,147h184v1h-184zM342,147h42v1h-42zM0,148h42v1h-42zM103,148h178v1h-178zM342,148h42v1h-42zM0,149h42v1h-42zM342,149h41v1h-41zM0,150h42v1h-42zM342,150h41v1h-41zM0,151h42v1h-42zM342,151h41v1h-41zM0,152h42v1h-42zM342,152h41v1h-41zM0,153h42v1h-42zM342,153h41v1h-41zM0,154h42v1h-42zM343,154h40v1h-40zM0,155h42v1h-42zM343,155h39v1h-39zM0,156h42v1h-42zM343,156h39v1h-39zM0,157h42v1h-42zM344,157h38v1h-38zM0,158h42v1h-42zM344,158h37v1h-37zM0,159h42v1h-42zM345,159h36v1h-36zM0,160h42v1h-42zM345,160h35v1h-35zM0,161h42v1h-42zM346,161h33v1h-33zM0,162h42v1h-42zM347,162h32v1h-32zM0,163h42v1h-42zM348,163h30v1h-30zM0,164h42v1h-42zM349,164h28v1h-28zM0,165h42v1h-42zM350,165h26v1h-26zM0,166h42v1h-42zM351,166h23v1h-23zM0,167h42v1h-42zM353,167h20v1h-20zM0,168h42v1h-42zM355,168h16v1h-16zM0,169h42v1h-42zM358,169h10v1h-10zM0,170h42v1h-42zM0,171h42v1h-42zM0,172h42v1h-42zM0,173h42v1h-42zM0,174h42v1h-42zM0,175h42v1h-42zM0,176h42v1h-42zM0,177h42v1h-42zM0,178h42v1h-42zM0,179h42v1h-42zM0,180h42v1h-42zM0,181h42v1h-42zM0,182h42v1h-42zM0,183h42v1h-42zM0,184h42v1h-42zM0,185h42v1h-42zM0,186h42v1h-42zM0,187h42v1h-42zM0,188h42v1h-42zM0,189h42v1h-42zM0,190h42v1h-42zM0,191h42v1h-42zM0,192h42v1h-42zM0,193h42v1h-42zM0,194h42v1h-42zM0,195h42v1h-42zM0,196h42v1h-42zM0,197h42v1h-42zM0,198h42v1h-42zM0,199h42v1h-42zM0,200h42v1h-42zM0,201h42v1h-42zM0,202h42v1h-42zM0,203h42v1h-42zM0,204h42v1h-42zM0,205h42v1h-42zM0,206h42v1h-42zM0,207h42v1h-42zM0,208h42v1h-42zM0,209h42v1h-42zM0,210h42v1h-42zM0,211h42v1h-42zM0,212h42v1h-42zM0,213h42v1h-42zM0,214h42v1h-42zM102,214h95v1h-95zM349,214h28v1h-28zM0,215h42v1h-42zM99,215h101v1h-101zM340,215h45v1h-45zM0,216h42v1h-42zM97,216h105v1h-105zM335,216h55v1h-55zM0,217h42v1h-42zM95,217h109v1h-109zM330,217h65v1h-65zM0,218h42v1h-42zM94,218h111v1h-111zM326,218h74v1h-74zM0,219h42v1h-42zM93,219h113v1h-113zM322,219h81v1h-81zM0,220h42v1h-42zM92,220h115v1h-115zM319,220h88v1h-88zM0,221h42v1h-42zM91,221h117v1h-117zM316,221h94v1h-94zM0,222h42v1h-42zM90,222h119v1h-119zM313,222h99v1h-99zM0,223h42v1h-42zM89,223h120v1h-120zM310,223h105v1h-105zM0,224h42v1h-42zM89,224h121v1h-121zM308,224h110v1h-110zM0,225h42v1h-42zM88,225h123v1h-123zM305,225h115v1h-115zM0,226h42v1h-42zM88,226h123v1h-123zM303,226h119v1h-119zM0,227h42v1h-42zM87,227h124v1h-124zM301,227h124v1h-124zM0,228h42v1h-42zM87,228h125v1h-125zM298,228h129v1h-129zM0,229h42v1h-42zM87,229h125v1h-125zM297,229h132v1h-132zM0,230h42v1h-42zM86,230h126v1h-126zM295,230h136v1h-136zM0,231h42v1h-42zM86,231h127v1h-127zM293,231h140v1h-140zM0,232h42v1h-42zM86,232h127v1h-127zM291,232h144v1h-144zM0,233h42v1h-42zM86,233h127v1h-127zM289,233h147v1h-147zM0,234h42v1h-42zM86,234h127v1h-127zM287,234h151v1h-151zM0,235h42v1h-42zM86,235h127v1h-127zM286,235h154v1h-154zM0,236h42v1h-42zM86,236h127v1h-127zM284,236h157v1h-157zM0,237h42v1h-42zM86,237h127v1h-127zM283,237h160v1h-160zM0,238h42v1h-42zM86,238h126v1h-126zM281,238h163v1h-163zM0,239h42v1h-42zM86,239h126v1h-126zM279,239h167v1h-167zM0,240h42v1h-42zM87,240h125v1h-125zM278,240h169v1h-169zM0,241h42v1h-42zM87,241h125v1h-125zM277,241h172v1h-172zM0,242h42v1h-42zM87,242h124v1h-124zM275,242h175v1h-175zM0,243h42v1h-42zM88,243h123v1h-123zM274,243h178v1h-178zM0,244h42v1h-42zM88,244h122v1h-122zM272,244h181v1h-181zM0,245h42v1h-42zM89,245h121v1h-121zM271,245h183v1h-183zM0,246h42v1h-42zM90,246h119v1h-119zM270,246h185v1h-185zM0,247h42v1h-42zM90,247h118v1h-118zM269,247h188v1h-188zM0,248h42v1h-42zM91,248h116v1h-116zM267,248h191v1h-191zM0,249h42v1h-42zM92,249h114v1h-114zM266,249h193v1h-193zM0,250h42v1h-42zM93,250h112v1h-112zM265,250h195v1h-195zM0,251h42v1h-42zM95,251h109v1h-109zM264,251h197v1h-197zM0,252h42v1h-42zM96,252h106v1h-106zM263,252h199v1h-199zM0,253h42v1h-42zM98,253h103v1h-103zM262,253h202v1h-202zM0,254h42v1h-42zM101,254h97v1h-97zM261,254h204v1h-204zM0,255h42v1h-42zM106,255h86v1h-86zM260,255h206v1h-206zM0,256h42v1h-42zM259,256h89v1h-89zM377,256h90v1h-90zM0,257h42v1h-42zM258,257h84v1h-84zM383,257h85v1h-85zM0,258h42v1h-42zM257,258h80v1h-80zM388,258h81v1h-81zM0,259h42v1h-42zM256,259h77v1h-77zM392,259h78v1h-78zM0,260h42v1h-42zM255,260h75v1h-75zM395,260h76v1h-76zM0,261h42v1h-42zM254,261h73v1h-73zM398,261h74v1h-74zM0,262h42v1h-42zM253,262h71v1h-71zM401,262h71v1h-71zM0,263h42v1h-42zM252,263h70v1h-70zM403,263h70v1h-70zM0,264h42v1h-42zM251,264h68v1h-68zM406,264h68v1h-68zM0,265h42v1h-42zM250,265h67v1h-67zM408,265h67v1h-67zM0,266h42v1h-42zM249,266h66v1h-66zM410,266h66v1h-66zM0,267h42v1h-42zM248,267h65v1h-65zM412,267h65v1h-65zM0,268h42v1h-42zM248,268h63v1h-63zM414,268h64v1h-64zM0,269h42v1h-42zM247,269h63v1h-63zM416,269h62v1h-62zM0,270h42v1h-42zM246,270h62v1h-62zM418,270h61v1h-61zM0,271h42v1h-42zM245,271h61v1h-61zM419,271h61v1h-61zM0,272h42v1h-42zM245,272h60v1h-60zM421,272h60v1h-60zM0,273h42v1h-42zM244,273h59v1h-59zM422,273h60v1h-60zM0,274h42v1h-42zM243,274h59v1h-59zM424,274h58v1h-58zM0,275h42v1h-42zM242,275h58v1h-58zM425,275h58v1h-58zM0,276h42v1h-42zM242,276h57v1h-57zM427,276h57v1h-57zM0,277h42v1h-42zM241,277h56v1h-56zM428,277h56v1h-56zM0,278h42v1h-42zM240,278h56v1h-56zM356,278h13v1h-13zM429,278h56v1h-56zM0,279h42v1h-42zM239,279h56v1h-56zM353,279h19v1h-19zM430,279h56v1h-56zM0,280h42v1h-42zM239,280h55v1h-55zM350,280h25v1h-25zM432,280h55v1h-55zM0,281h42v1h-42zM238,281h55v1h-55zM348,281h29v1h-29zM433,281h54v1h-54zM0,282h42v1h-42zM237,282h54v1h-54zM346,282h33v1h-33zM434,282h54v1h-54zM0,283h42v1h-42zM237,283h53v1h-53zM345,283h35v1h-35zM435,283h53v1h-53zM0,284h42v1h-42zM236,284h53v1h-53zM344,284h38v1h-38zM436,284h53v1h-53zM0,285h42v1h-42zM236,285h52v1h-52zM342,285h41v1h-41zM437,285h53v1h-53zM0,286h42v1h-42zM235,286h52v1h-52zM341,286h43v1h-43zM438,286h52v1h-52zM0,287h42v1h-42zM234,287h52v1h-52zM340,287h45v1h-45zM439,287h52v1h-52zM0,288h42v1h-42zM234,288h51v1h-51zM339,288h47v1h-47zM440,288h51v1h-51zM0,289h42v1h-42zM233,289h51v1h-51zM338,289h49v1h-49zM441,289h51v1h-51zM0,290h42v1h-42zM233,290h50v1h-50zM338,290h50v1h-50zM442,290h51v1h-51zM0,291h42v1h-42zM232,291h50v1h-50zM337,291h51v1h-51zM443,291h50v1h-50zM0,292h42v1h-42zM232,292h50v1h-50zM336,292h53v1h-53zM444,292h50v1h-50zM0,293h42v1h-42zM231,293h50v1h-50zM336,293h54v1h-54zM445,293h49v1h-49zM0,294h42v1h-42zM231,294h49v1h-49zM335,294h55v1h-55zM445,294h50v1h-50zM0,295h42v1h-42zM230,295h49v1h-49zM335,295h56v1h-56zM446,295h49v1h-49zM0,296h42v1h-42zM230,296h48v1h-48zM334,296h57v1h-57zM447,296h49v1h-49zM0,297h42v1h-42zM229,297h48v1h-48zM334,297h58v1h-58zM448,297h48v1h-48zM0,298h42v1h-42zM228,298h49v1h-49zM333,298h59v1h-59zM449,298h48v1h-48zM0,299h42v1h-42zM228,299h48v1h-48zM333,299h59v1h-59zM449,299h48v1h-48zM0,300h42v1h-42zM228,300h47v1h-47zM333,300h60v1h-60zM450,300h48v1h-48zM0,301h42v1h-42zM227,301h48v1h-48zM332,301h61v1h-61zM451,301h47v1h-47zM0,302h42v1h-42zM227,302h47v1h-47zM332,302h61v1h-61zM451,302h48v1h-48zM0,303h42v1h-42zM226,303h47v1h-47zM332,303h62v1h-62zM452,303h47v1h-47zM0,304h42v1h-42zM226,304h47v1h-47zM332,304h62v1h-62zM453,304h47v1h-47zM0,305h42v1h-42zM225,305h47v1h-47zM331,305h63v1h-63zM453,305h47v1h-47zM0,306h42v1h-42zM225,306h46v1h-46zM331,306h63v1h-63zM454,306h46v1h-46zM0,307h42v1h-42zM225,307h46v1h-46zM331,307h63v1h-63zM455,307h46v1h-46zM0,308h42v1h-42zM224,308h46v1h-46zM331,308h63v1h-63zM455,308h46v1h-46zM0,309h42v1h-42zM224,309h46v1h-46zM331,309h63v1h-63zM456,309h46v1h-46zM0,310h42v1h-42zM223,310h46v1h-46zM331,310h63v1h-63zM456,310h46v1h-46zM0,311h42v1h-42zM223,311h45v1h-45zM331,311h63v1h-63zM457,311h45v1h-45zM0,312h42v1h-42zM223,312h45v1h-45zM331,312h63v1h-63zM457,312h46v1h-46zM0,313h42v1h-42zM222,313h45v1h-45zM332,313h62v1h-62zM458,313h45v1h-45zM0,314h42v1h-42zM222,314h45v1h-45zM332,314h62v1h-62zM458,314h45v1h-45zM0,315h42v1h-42zM222,315h44v1h-44zM332,315h62v1h-62zM459,315h45v1h-45zM0,316h42v1h-42zM221,316h45v1h-45zM332,316h61v1h-61zM459,316h45v1h-45zM0,317h42v1h-42zM221,317h44v1h-44zM332,317h61v1h-61zM460,317h44v1h-44zM0,318h42v1h-42zM221,318h44v1h-44zM333,318h60v1h-60zM460,318h45v1h-45zM0,319h42v1h-42zM220,319h45v1h-45zM333,319h59v1h-59zM461,319h44v1h-44zM0,320h42v1h-42zM106,320h44v1h-44zM220,320h44v1h-44zM333,320h59v1h-59zM461,320h44v1h-44zM0,321h42v1h-42zM101,321h54v1h-54zM220,321h44v1h-44zM334,321h58v1h-58zM462,321h44v1h-44zM0,322h42v1h-42zM98,322h60v1h-60zM219,322h44v1h-44zM334,322h57v1h-57zM462,322h44v1h-44zM0,323h42v1h-42zM96,323h64v1h-64zM219,323h44v1h-44zM335,323h56v1h-56zM462,323h44v1h-44zM0,324h42v1h-42zM95,324h66v1h-66zM219,324h43v1h-43zM335,324h55v1h-55zM463,324h43v1h-43zM0,325h42v1h-42zM93,325h70v1h-70zM219,325h43v1h-43zM336,325h54v1h-54zM463,325h44v1h-44zM0,326h42v1h-42zM92,326h72v1h-72zM218,326h44v1h-44zM336,326h53v1h-53zM464,326h43v1h-43zM0,327h42v1h-42zM91,327h74v1h-74zM218,327h43v1h-43zM337,327h51v1h-51zM464,327h43v1h-43zM0,328h42v1h-42zM90,328h76v1h-76zM218,328h43v1h-43zM338,328h49v1h-49zM464,328h43v1h-43zM0,329h42v1h-42zM90,329h76v1h-76zM218,329h43v1h-43zM339,329h48v1h-48zM465,329h43v1h-43zM0,330h42v1h-42zM89,330h78v1h-78zM217,330h43v1h-43zM340,330h46v1h-46zM465,330h43v1h-43zM0,331h42v1h-42zM88,331h80v1h-80zM217,331h43v1h-43zM340,331h45v1h-45zM465,331h43v1h-43zM0,332h42v1h-42zM88,332h80v1h-80zM217,332h43v1h-43zM342,332h42v1h-42zM466,332h42v1h-42zM0,333h42v1h-42zM87,333h82v1h-82zM217,333h42v1h-42zM343,333h40v1h-40zM466,333h43v1h-43zM0,334h42v1h-42zM87,334h82v1h-82zM217,334h42v1h-42zM344,334h37v1h-37zM466,334h43v1h-43zM0,335h42v1h-42zM87,335h82v1h-82zM216,335h43v1h-43zM345,335h35v1h-35zM466,335h43v1h-43zM0,336h42v1h-42zM86,336h84v1h-84zM216,336h43v1h-43zM347,336h31v1h-31zM467,336h42v1h-42zM0,337h42v1h-42zM86,337h84v1h-84zM216,337h42v1h-42zM349,337h27v1h-27zM467,337h42v1h-42zM0,338h42v1h-42zM86,338h84v1h-84zM216,338h42v1h-42zM351,338h23v1h-23zM467,338h42v1h-42zM0,339h42v1h-42zM86,339h84v1h-84zM216,339h42v1h-42zM354,339h17v1h-17zM467,339h45v1h-45zM0,340h42v1h-42zM86,340h84v1h-84zM216,340h42v1h-42zM359,340h8v1h-8zM468,340h44v1h-44zM0,341h42v1h-42zM86,341h84v1h-84zM215,341h43v1h-43zM468,341h44v1h-44zM0,342h42v1h-42zM86,342h84v1h-84zM215,342h42v1h-42zM468,342h44v1h-44zM0,343h42v1h-42zM86,343h84v1h-84zM215,343h42v1h-42zM468,343h44v1h-44zM0,344h42v1h-42zM86,344h84v1h-84zM215,344h42v1h-42zM468,344h44v1h-44zM0,345h42v1h-42zM86,345h84v1h-84zM215,345h42v1h-42zM468,345h44v1h-44zM0,346h42v1h-42zM87,346h82v1h-82zM215,346h42v1h-42zM469,346h43v1h-43zM0,347h42v1h-42zM87,347h82v1h-82zM215,347h42v1h-42zM469,347h43v1h-43zM0,348h42v1h-42zM87,348h82v1h-82zM215,348h41v1h-41zM469,348h43v1h-43zM0,349h42v1h-42zM88,349h80v1h-80zM214,349h42v1h-42zM469,349h43v1h-43zM0,350h42v1h-42zM88,350h80v1h-80zM214,350h42v1h-42zM469,350h43v1h-43zM0,351h42v1h-42zM89,351h78v1h-78zM214,351h42v1h-42zM469,351h43v1h-43zM0,352h42v1h-42zM89,352h78v1h-78zM214,352h42v1h-42zM469,352h43v1h-43zM0,353h42v1h-42zM90,353h76v1h-76zM214,353h42v1h-42zM469,353h43v1h-43zM0,354h42v1h-42zM91,354h74v1h-74zM214,354h42v1h-42zM469,354h43v1h-43zM0,355h42v1h-42zM92,355h72v1h-72zM214,355h42v1h-42zM470,355h42v1h-42zM0,356h42v1h-42zM93,356h70v1h-70zM214,356h42v1h-42zM470,356h42v1h-42zM0,357h42v1h-42zM94,357h68v1h-68zM214,357h42v1h-42zM470,357h42v1h-42zM0,358h42v1h-42zM95,358h66v1h-66zM214,358h42v1h-42zM470,358h42v1h-42zM0,359h42v1h-42zM97,359h62v1h-62zM214,359h42v1h-42zM470,359h42v1h-42zM0,360h42v1h-42zM99,360h58v1h-58zM214,360h42v1h-42zM470,360h42v1h-42zM0,361h42v1h-42zM102,361h52v1h-52zM214,361h42v1h-42zM470,361h42v1h-42zM0,362h42v1h-42zM214,362h42v1h-42zM470,362h42v1h-42zM0,363h42v1h-42zM214,363h42v1h-42zM359,363h7v1h-7zM470,363h42v1h-42zM0,364h42v1h-42zM214,364h42v1h-42zM356,364h14v1h-14zM470,364h42v1h-42zM0,365h42v1h-42zM214,365h42v1h-42zM353,365h19v1h-19zM470,365h42v1h-42zM0,366h42v1h-42zM214,366h42v1h-42zM352,366h22v1h-22zM470,366h42v1h-42zM0,367h42v1h-42zM214,367h42v1h-42zM350,367h25v1h-25zM470,367h42v1h-42zM0,368h42v1h-42zM214,368h42v1h-42zM349,368h27v1h-27zM470,368h42v1h-42zM0,369h42v1h-42zM214,369h42v1h-42zM348,369h29v1h-29zM470,369h42v1h-42zM0,370h42v1h-42zM214,370h42v1h-42zM347,370h31v1h-31zM470,370h42v1h-42zM0,371h42v1h-42zM214,371h42v1h-42zM346,371h33v1h-33zM469,371h43v1h-43zM0,372h42v1h-42zM214,372h42v1h-42zM345,372h35v1h-35zM469,372h43v1h-43zM0,373h42v1h-42zM214,373h42v1h-42zM345,373h35v1h-35zM469,373h43v1h-43zM0,374h42v1h-42zM214,374h42v1h-42zM344,374h37v1h-37zM469,374h43v1h-43zM0,375h42v1h-42zM214,375h42v1h-42zM344,375h38v1h-38zM469,375h43v1h-43zM0,376h42v1h-42zM215,376h41v1h-41zM343,376h39v1h-39zM469,376h43v1h-43zM0,377h42v1h-42zM215,377h42v1h-42zM343,377h39v1h-39zM469,377h43v1h-43zM0,378h42v1h-42zM215,378h42v1h-42zM343,378h40v1h-40zM469,378h43v1h-43zM0,379h42v1h-42zM215,379h42v1h-42zM342,379h41v1h-41zM469,379h43v1h-43zM0,380h42v1h-42zM215,380h42v1h-42zM342,380h41v1h-41zM468,380h44v1h-44zM0,381h42v1h-42zM215,381h42v1h-42zM342,381h41v1h-41zM468,381h44v1h-44zM0,382h42v1h-42zM215,382h42v1h-42zM342,382h41v1h-41zM468,382h44v1h-44zM0,383h42v1h-42zM215,383h43v1h-43zM342,383h41v1h-41zM468,383h44v1h-44zM0,384h42v1h-42zM215,384h43v1h-43zM342,384h42v1h-42zM468,384h44v1h-44zM0,385h42v1h-42zM216,385h42v1h-42zM342,385h42v1h-42zM467,385h45v1h-45zM0,386h42v1h-42zM216,386h42v1h-42zM342,386h42v1h-42zM467,386h45v1h-45zM0,387h42v1h-42zM216,387h42v1h-42zM342,387h42v1h-42zM467,387h42v1h-42zM0,388h42v1h-42zM216,388h43v1h-43zM342,388h42v1h-42zM467,388h42v1h-42zM0,389h42v1h-42zM216,389h43v1h-43zM342,389h42v1h-42zM466,389h43v1h-43zM0,390h42v1h-42zM217,390h42v1h-42zM342,390h42v1h-42zM466,390h43v1h-43zM0,391h42v1h-42zM217,391h42v1h-42zM342,391h42v1h-42zM466,391h43v1h-43zM0,392h42v1h-42zM217,392h43v1h-43zM342,392h42v1h-42zM466,392h42v1h-42zM0,393h42v1h-42zM217,393h43v1h-43zM342,393h42v1h-42zM465,393h43v1h-43zM0,394h42v1h-42zM217,394h43v1h-43zM342,394h42v1h-42zM465,394h43v1h-43zM0,395h42v1h-42zM218,395h43v1h-43zM342,395h42v1h-42zM465,395h43v1h-43zM0,396h42v1h-42zM218,396h43v1h-43zM342,396h42v1h-42zM464,396h44v1h-44zM0,397h42v1h-42zM218,397h43v1h-43zM342,397h42v1h-42zM464,397h43v1h-43zM0,398h42v1h-42zM218,398h44v1h-44zM342,398h42v1h-42zM464,398h43v1h-43zM0,399h42v1h-42zM218,399h44v1h-44zM342,399h42v1h-42zM463,399h44v1h-44zM0,400h42v1h-42zM219,400h43v1h-43zM342,400h42v1h-42zM463,400h44v1h-44zM0,401h42v1h-42zM219,401h44v1h-44zM342,401h42v1h-42zM463,401h43v1h-43zM0,402h42v1h-42zM219,402h44v1h-44zM342,402h42v1h-42zM462,402h44v1h-44zM0,403h42v1h-42zM220,403h44v1h-44zM342,403h42v1h-42zM462,403h44v1h-44zM0,404h42v1h-42zM220,404h44v1h-44zM342,404h42v1h-42zM461,404h44v1h-44zM0,405h42v1h-42zM220,405h44v1h-44zM342,405h42v1h-42zM461,405h44v1h-44zM0,406h42v1h-42zM220,406h45v1h-45zM342,406h42v1h-42zM461,406h44v1h-44zM0,407h42v1h-42zM221,407h44v1h-44zM342,407h42v1h-42zM460,407h45v1h-45zM0,408h42v1h-42zM221,408h45v1h-45zM342,408h42v1h-42zM460,408h44v1h-44zM0,409h42v1h-42zM221,409h45v1h-45zM342,409h42v1h-42zM459,409h45v1h-45zM0,410h42v1h-42zM222,410h45v1h-45zM342,410h42v1h-42zM459,410h44v1h-44zM0,411h42v1h-42zM222,411h45v1h-45zM342,411h42v1h-42zM458,411h45v1h-45zM0,412h43v1h-43zM223,412h45v1h-45zM342,412h42v1h-42zM458,412h45v1h-45zM0,413h43v1h-43zM223,413h45v1h-45zM342,413h42v1h-42zM457,413h45v1h-45zM0,414h43v1h-43zM223,414h46v1h-46zM342,414h42v1h-42zM457,414h45v1h-45zM0,415h43v1h-43zM224,415h45v1h-45zM342,415h42v1h-42zM456,415h46v1h-46zM0,416h43v1h-43zM224,416h46v1h-46zM342,416h42v1h-42zM455,416h46v1h-46zM0,417h43v1h-43zM224,417h47v1h-47zM342,417h42v1h-42zM455,417h46v1h-46zM0,418h43v1h-43zM225,418h46v1h-46zM342,418h42v1h-42zM454,418h46v1h-46zM0,419h44v1h-44zM225,419h47v1h-47zM342,419h42v1h-42zM454,419h46v1h-46zM0,420h44v1h-44zM226,420h46v1h-46zM342,420h42v1h-42zM453,420h47v1h-47zM0,421h44v1h-44zM226,421h47v1h-47zM342,421h42v1h-42zM452,421h47v1h-47zM0,422h44v1h-44zM227,422h47v1h-47zM342,422h42v1h-42zM452,422h47v1h-47zM0,423h45v1h-45zM227,423h47v1h-47zM342,423h42v1h-42zM451,423h47v1h-47zM0,424h45v1h-45zM227,424h48v1h-48zM342,424h42v1h-42zM450,424h48v1h-48zM0,425h45v1h-45zM228,425h48v1h-48zM342,425h42v1h-42zM450,425h47v1h-47zM3,426h43v1h-43zM228,426h48v1h-48zM342,426h42v1h-42zM449,426h48v1h-48zM3,427h43v1h-43zM229,427h48v1h-48zM342,427h41v1h-41zM448,427h48v1h-48zM3,428h43v1h-43zM229,428h49v1h-49zM342,428h41v1h-41zM447,428h49v1h-49zM3,429h44v1h-44zM230,429h49v1h-49zM342,429h41v1h-41zM446,429h49v1h-49zM4,430h43v1h-43zM230,430h50v1h-50zM342,430h41v1h-41zM446,430h49v1h-49zM4,431h44v1h-44zM231,431h49v1h-49zM342,431h41v1h-41zM445,431h49v1h-49zM4,432h44v1h-44zM231,432h50v1h-50zM343,432h40v1h-40zM444,432h50v1h-50zM4,433h45v1h-45zM232,433h50v1h-50zM343,433h39v1h-39zM443,433h50v1h-50zM5,434h44v1h-44zM232,434h51v1h-51zM343,434h39v1h-39zM442,434h51v1h-51zM5,435h45v1h-45zM233,435h51v1h-51zM344,435h37v1h-37zM441,435h51v1h-51zM5,436h45v1h-45zM234,436h51v1h-51zM344,436h37v1h-37zM440,436h52v1h-52zM6,437h45v1h-45zM234,437h52v1h-52zM345,437h35v1h-35zM439,437h52v1h-52zM6,438h45v1h-45zM235,438h52v1h-52zM346,438h34v1h-34zM438,438h53v1h-53zM6,439h46v1h-46zM235,439h53v1h-53zM346,439h33v1h-33zM437,439h53v1h-53zM7,440h46v1h-46zM236,440h53v1h-53zM347,440h31v1h-31zM436,440h53v1h-53zM7,441h46v1h-46zM237,441h53v1h-53zM348,441h29v1h-29zM435,441h54v1h-54zM7,442h47v1h-47zM237,442h54v1h-54zM349,442h27v1h-27zM434,442h54v1h-54zM8,443h47v1h-47zM238,443h54v1h-54zM351,443h24v1h-24zM433,443h54v1h-54zM8,444h47v1h-47zM239,444h54v1h-54zM352,444h21v1h-21zM432,444h55v1h-55zM9,445h47v1h-47zM239,445h56v1h-56zM354,445h17v1h-17zM431,445h55v1h-55zM9,446h48v1h-48zM240,446h56v1h-56zM357,446h12v1h-12zM429,446h56v1h-56zM9,447h49v1h-49zM241,447h56v1h-56zM362,447h1v1h-1zM428,447h57v1h-57zM10,448h49v1h-49zM241,448h57v1h-57zM427,448h57v1h-57zM10,449h50v1h-50zM242,449h58v1h-58zM426,449h57v1h-57zM11,450h50v1h-50zM243,450h58v1h-58zM424,450h59v1h-59zM11,451h51v1h-51zM243,451h60v1h-60zM423,451h59v1h-59zM12,452h51v1h-51zM244,452h60v1h-60zM421,452h60v1h-60zM12,453h52v1h-52zM245,453h61v1h-61zM420,453h60v1h-60zM13,454h52v1h-52zM246,454h61v1h-61zM418,454h61v1h-61zM13,455h53v1h-53zM247,455h62v1h-62zM416,455h63v1h-63zM14,456h53v1h-53zM247,456h64v1h-64zM415,456h63v1h-63zM14,457h55v1h-55zM248,457h65v1h-65zM413,457h64v1h-64zM15,458h55v1h-55zM249,458h66v1h-66zM411,458h65v1h-65zM16,459h56v1h-56zM250,459h67v1h-67zM409,459h66v1h-66zM16,460h57v1h-57zM251,460h68v1h-68zM407,460h68v1h-68zM17,461h58v1h-58zM252,461h69v1h-69zM404,461h70v1h-70zM17,462h60v1h-60zM253,462h71v1h-71zM402,462h71v1h-71zM18,463h61v1h-61zM254,463h72v1h-72zM399,463h73v1h-73zM19,464h62v1h-62zM254,464h75v1h-75zM396,464h75v1h-75zM19,465h64v1h-64zM255,465h77v1h-77zM393,465h77v1h-77zM20,466h66v1h-66zM256,466h80v1h-80zM389,466h80v1h-80zM21,467h68v1h-68zM257,467h83v1h-83zM385,467h83v1h-83zM22,468h71v1h-71zM258,468h88v1h-88zM380,468h87v1h-87zM22,469h78v1h-78zM259,469h96v1h-96zM371,469h95v1h-95zM23,470h174v1h-174zM260,470h205v1h-205zM24,471h176v1h-176zM261,471h203v1h-203zM25,472h177v1h-177zM263,472h200v1h-200zM26,473h178v1h-178zM264,473h198v1h-198zM26,474h179v1h-179zM265,474h196v1h-196zM27,475h179v1h-179zM266,475h193v1h-193zM28,476h179v1h-179zM267,476h191v1h-191zM29,477h179v1h-179zM268,477h189v1h-189zM30,478h179v1h-179zM270,478h186v1h-186zM31,479h178v1h-178zM271,479h184v1h-184zM32,480h178v1h-178zM272,480h181v1h-181zM33,481h178v1h-178zM273,481h179v1h-179zM34,482h177v1h-177zM275,482h176v1h-176zM35,483h176v1h-176zM276,483h173v1h-173zM36,484h176v1h-176zM278,484h170v1h-170zM37,485h175v1h-175zM279,485h167v1h-167zM39,486h173v1h-173zM280,486h165v1h-165zM40,487h173v1h-173zM282,487h161v1h-161zM41,488h172v1h-172zM284,488h158v1h-158zM42,489h171v1h-171zM285,489h155v1h-155zM44,490h169v1h-169zM287,490h152v1h-152zM45,491h168v1h-168zM289,491h148v1h-148zM46,492h167v1h-167zM290,492h145v1h-145zM48,493h165v1h-165zM292,493h141v1h-141zM49,494h163v1h-163zM294,494h137v1h-137zM51,495h161v1h-161zM296,495h133v1h-133zM53,496h159v1h-159zM298,496h129v1h-129zM54,497h158v1h-158zM300,497h125v1h-125zM56,498h155v1h-155zM302,498h121v1h-121zM58,499h153v1h-153zM304,499h117v1h-117zM60,500h150v1h-150zM307,500h111v1h-111zM62,501h148v1h-148zM309,501h107v1h-107zM64,502h145v1h-145zM312,502h101v1h-101zM67,503h141v1h-141zM315,503h95v1h-95zM69,504h138v1h-138zM318,504h89v1h-89zM72,505h134v1h-134zM321,505h83v1h-83zM75,506h130v1h-130zM325,506h76v1h-76zM78,507h126v1h-126zM329,507h68v1h-68zM82,508h120v1h-120zM333,508h59v1h-59zM86,509h115v1h-115zM339,509h48v1h-48zM86,510h115v1h-115zM339,510h48v1h-48zM86,511h115v1h-115zM339,511h48v1h-48z"/></svg>