<svg xmlns="http://www.w3.org/2000/svg" viewBox="0 0 512 512" width="512" height="512"><path fill="#000" d="M241,128h12v1h-12zM238,129h18v1h-18zM236,130h22v1h-22zM235,131h25v1h-25zM233,132h28v1h-28zM232,133h30v1h-30zM231,134h32v1h-32zM230,135h34v1h-34zM229,136h36v1h-36zM228,137h37v1h-37zM227,138h39v1h-39zM226,139h40v1h-40zM225,140h42v1h-42zM224,141h43v1h-43zM223,142h45v1h-45zM222,143h46v1h-46zM221,144h47v1h-47zM220,145h49v1h-49zM219,146h50v1h-50zM218,147h51v1h-51zM217,148h52v1h-52zM216,149h53v1h-53zM215,150h54v1h-54zM214,151h55v1h-55zM213,152h56v1h-56zM212,153h56v1h-56zM211,154h57v1h-57zM210,155h58v1h-58zM209,156h59v1h-59zM208,157h59v1h-59zM207,158h60v1h-60zM206,159h60v1h-60zM205,160h61v1h-61zM204,161h61v1h-61zM203,162h61v1h-61zM202,163h62v1h-62zM201,164h62v1h-62zM200,165h62v1h-62zM199,166h62v1h-62zM198,167h62v1h-62zM197,168h62v1h-62zM196,169h62v1h-62zM195,170h62v1h-62zM194,171h62v1h-62zM193,172h62v1h-62zM192,173h62v1h-62zM191,174h62v1h-62zM190,175h62v1h-62zM189,176h62v1h-62zM188,177h62v1h-62zM187,178h62v1h-62zM186,179h62v1h-62zM185,180h62v1h-62zM184,181h62v1h-62zM183,182h62v1h-62zM182,183h62v1h-62zM181,184h62v1h-62zM180,185h62v1h-62zM179,186h62v1h-62zM178,187h62v1h-62zM177,188h62v1h-62zM176,189h62v1h-62zM175,190h62v1h-62zM174,191h62v1h-62zM173,192h62v1h-62zM172,193h62v1h-62zM171,194h62v1h-62zM170,195h62v1h-62zM169,196h62v1h-62zM168,197h62v1h-62zM167,198h62v1h-62zM166,199h62v1h-62zM165,200h62v1h-62zM164,201h62v1h-62zM163,202h62v1h-62zM162,203h62v1h-62zM161,204h62v1h-62zM160,205h62v1h-62zM159,206h62v1h-62zM158,207h62v1h-62zM157,208h62v1h-62zM156,209h62v1h-62zM155,210h62v1h-62zM154,211h62v1h-62zM153,212h62v1h-62zM152,213h62v1h-62zM151,214h62v1h-62zM150,215h62v1h-62zM149,216h62v1h-62zM148,217h62v1h-62zM147,218h62v1h-62zM146,219h62v1h-62zM145,220h62v1h-62zM144,221h62v1h-62zM143,222h62v1h-62zM142,223h62v1h-62zM141,224h62v1h-62zM140,225h62v1h-62zM140,226h61v1h-61zM139,227h61v1h-61zM138,228h61v1h-61zM137,229h61v1h-61zM136,230h62v1h-62zM135,231h63v1h-63zM135,232h63v1h-63zM134,233h64v1h-64zM134,234h274v1h-274zM133,235h279v1h-279zM132,236h283v1h-283zM132,237h285v1h-285zM131,238h287v1h-287zM131,239h288v1h-288zM131,240h290v1h-290zM130,241h291v1h-291zM130,242h292v1h-292zM130,243h293v1h-293zM129,244h295v1h-295zM129,245h295v1h-295zM129,246h296v1h-296zM129,247h296v1h-296zM128,248h298v1h-298zM128,249h298v1h-298zM128,250h298v1h-298zM128,251h299v1h-299zM128,252h299v1h-299zM128,253h299v1h-299zM128,254h299v1h-299zM128,255h299v1h-299zM128,256h299v1h-299zM128,257h299v1h-299zM128,258h299v1h-299zM128,259h299v1h-299zM128,260h299v1h-299zM128,261h298v1h-298zM128,262h298v1h-298zM128,263h298v1h-298zM129,264h296v1h-296zM129,265h296v1h-296zM129,266h295v1h-295zM129,267h295v1h-295zM130,268h293v1h-293zM130,269h292v1h-292zM130,270h291v1h-291zM131,271h289v1h-289zM131,272h288v1h-288zM132,273h286v1h-286zM132,274h285v1h-285zM133,275h282v1h-282zM133,276h279v1h-279zM134,277h274v1h-274zM134,278h64v1h-64zM135,279h63v1h-63zM136,280h62v1h-62zM136,281h62v1h-62zM137,282h61v1h-61zM138,283h61v1h-61zM139,284h61v1h-61zM140,285h61v1h-61zM141,286h61v1h-61zM142,287h61v1h-61zM143,288h61v1h-61zM144,289h61v1h-61zM145,290h61v1h-61zM146,291h61v1h-61zM147,292h61v1h-61zM148,293h61v1h-61zM149,294h61v1h-61zM150,295h61v1h-61zM151,296h61v1h-61zM152,297h61v1h-61zM153,298h61v1h-61zM154,299h61v1h-61zM155,300h61v1h-61zM156,301h61v1h-61zM157,302h61v1h-61zM158,303h61v1h-61zM159,304h61v1h-61zM160,305h61v1h-61zM161,306h61v1h-61zM162,307h61v1h-61zM163,308h61v1h-61zM164,309h61v1h-61zM165,310h61v1h-61zM166,311h61v1h-61zM167,312h61v1h-61zM168,313h61v1h-61zM169,314h61v1h-61zM170,315h61v1h-61zM171,316h61v1h-61zM172,317h61v1h-61zM173,318h61v1h-61zM174,319h61v1h-61zM175,320h61v1h-61zM176,321h61v1h-61zM177,322h61v1h-61zM178,323h61v1h-61zM179,324h61v1h-61zM180,325h61v1h-61zM181,326h61v1h-61zM182,327h61v1h-61zM183,328h61v1h-61zM184,329h61v1h-61zM185,330h61v1h-61zM186,331h61v1h-61zM187,332h61v1h-61zM188,333h61v1h-61zM189,334h61v1h-61zM190,335h61v1h-61zM191,336h61v1h-61zM192,337h61v1h-61zM193,338h61v1h-61zM194,339h61v1h-61zM195,340h61v1h-61zM196,341h61v1h-61zM197,342h61v1h-61zM198,343h61v1h-61zM199,344h61v1h-61zM200,345h61v1h-61zM201,346h61v1h-61zM202,347h61v1h-61zM203,348h61v1h-61zM204,349h61v1h-61zM205,350h60v1h-60zM206,351h60v1h-60zM207,352h59v1h-59zM208,353h59v1h-59zM209,354h58v1h-58zM210,355h58v1h-58zM211,356h57v1h-57zM212,357h56v1h-56zM213,358h55v1h-55zM214,359h55v1h-55zM215,360h54v1h-54zM216,361h53v1h-53zM217,362h52v1h-52zM218,363h51v1h-51zM219,364h50v1h-50zM220,365h49v1h-49zM221,366h47v1h-47zM222,367h46v1h-46zM223,368h45v1h-45zM224,369h44v1h-44zM225,370h42v1h-42zM226,371h41v1h-41zM226,372h40v1h-40zM228,373h38v1h-38zM228,374h37v1h-37zM229,375h35v1h-35zM231,376h33v1h-33zM231,377h32v1h-32zM233,378h29v1h-29zM234,379h27v1h-27zM235,380h24v1h-24zM237,381h21v1h-21zM239,382h16v1h-16zM242,383h10v1h-10z"/></svg>