<svg xmlns="http://www.w3.org/2000/svg" viewBox="0 0 512 512" width="512" height="512"><path fill="#000" d="M103,0h306v1h-306zM103,1h306v1h-306zM103,2h306v1h-306zM100,3h312v1h-312zM96,4h320v1h-320zM93,5h326v1h-326zM90,6h332v1h-332zM88,7h336v1h-336zM85,8h342v1h-342zM83,9h346v1h-346zM81,10h350v1h-350zM79,11h354v1h-354zM77,12h358v1h-358zM75,13h362v1h-362zM74,14h364v1h-364zM72,15h368v1h-368zM70,16h372v1h-372zM69,17h374v1h-374zM67,18h378v1h-378zM66,19h380v1h-380zM65,20h382v1h-382zM63,21h386v1h-386zM62,22h388v1h-388zM61,23h390v1h-390zM59,24h393v1h-393zM58,25h396v1h-396zM57,26h398v1h-398zM56,27h400v1h-400zM55,28h402v1h-402zM54,29h404v1h-404zM53,30h406v1h-406zM52,31h408v1h-408zM51,32h410v1h-410zM50,33h412v1h-412zM49,34h414v1h-414zM48,35h416v1h-416zM47,36h418v1h-418zM46,37h420v1h-420zM46,38h420v1h-420zM45,39h422v1h-422zM44,40h424v1h-424zM43,41h426v1h-426zM42,42h428v1h-428zM42,43h428v1h-428zM41,44h430v1h-430zM40,45h432v1h-432zM40,46h432v1h-432zM39,47h434v1h-434zM38,48h436v1h-436zM38,49h436v1h-436zM37,50h438v1h-438zM36,51h440v1h-440zM36,52h440v1h-440zM35,53h442v1h-442zM35,54h442v1h-442zM34,55h444v1h-444zM33,56h445v1h-445zM33,57h446v1h-446zM32,58h448v1h-448zM32,59h448v1h-448zM31,60h450v1h-450zM31,61h450v1h-450zM31,62h450v1h-450zM30,63h452v1h-452zM30,64h452v1h-452zM29,65h454v1h-454zM29,66h454v1h-454zM28,67h456v1h-456zM28,68h456v1h-456zM28,69h456v1h-456zM27,70h458v1h-458zM27,71h458v1h-458zM27,72h458v1h-458zM26,73h460v1h-460zM26,74h460v1h-460zM26,75h460v1h-460zM25,76h462v1h-462zM25,77h462v1h-462zM25,78h462v1h-462zM24,79h464v1h-464zM24,80h464v1h-464zM24,81h464v1h-464zM24,82h464v1h-464zM24,83h464v1h-464zM23,84h466v1h-466zM23,85h466v1h-466zM23,86h466v1h-466zM23,87h466v1h-466zM23,88h466v1h-466zM22,89h468v1h-468zM22,90h468v1h-468zM22,91h468v1h-468zM22,92h468v1h-468zM22,93h468v1h-468zM22,94h468v1h-468zM22,95h468v1h-468zM21,96h470v1h-470zM21,97h470v1h-470zM21,98h470v1h-470zM21,99h470v1h-470zM21,100h470v1h-470zM21,101h470v1h-470zM21,102h470v1h-470zM21,103h470v1h-470zM21,104h470v1h-470zM21,105h470v1h-470zM21,106h470v1h-470zM21,107h470v1h-470zM21,108h470v1h-470zM21,109h470v1h-470zM21,110h470v1h-470zM21,111h470v1h-470zM21,112h470v1h-470zM21,113h470v1h-470zM21,114h470v1h-470zM21,115h470v1h-470zM21,116h470v1h-470zM21,117h470v1h-470zM21,118h470v1h-470zM21,119h470v1h-470zM21,120h470v1h-470zM21,121h470v1h-470zM21,122h470v1h-470zM21,123h470v1h-470zM21,124h470v1h-470zM21,125h470v1h-470zM21,126h470v1h-470zM21,127h470v1h-470zM21,128h470v1h-470zM21,129h470v1h-470zM21,130h470v1h-470zM21,131h470v1h-470zM21,132h470v1h-470zM21,133h470v1h-470zM21,134h470v1h-470zM21,135h470v1h-470zM21,136h470v1h-470zM21,137h470v1h-470zM21,138h470v1h-470zM21,139h470v1h-470zM21,140h470v1h-470zM21,141h470v1h-470zM21,142h470v1h-470zM21,143h470v1h-470zM21,144h470v1h-470zM21,145h470v1h-470zM21,146h470v1h-470zM21,147h470v1h-470zM21,148h470v1h-470zM21,149h470v1h-470zM21,150h470v1h-470zM21,151h470v1h-470zM21,152h470v1h-470zM21,153h470v1h-470zM21,154h470v1h-470zM21,155h470v1h-470zM21,156h470v1h-470zM21,157h470v1h-470zM21,158h470v1h-470zM21,159h470v1h-470zM21,160h470v1h-470zM21,161h470v1h-470zM21,162h470v1h-470zM21,163h470v1h-470zM21,164h470v1h-470zM21,165h470v1h-470zM21,166h470v1h-470zM21,167h470v1h-470zM21,168h470v1h-470zM21,169h470v1h-470zM21,170h470v1h-470zM21,171h470v1h-470zM21,172h470v1h-470zM21,173h470v1h-470zM21,174h470v1h-470zM21,175h470v1h-470zM21,176h470v1h-470zM21,177h470v1h-470zM21,178h470v1h-470zM21,179h470v1h-470zM21,180h470v1h-470zM21,181h470v1h-470zM21,182h470v1h-470zM21,183h470v1h-470zM21,184h470v1h-470zM21,185h470v1h-470zM21,186h470v1h-470zM21,187h470v1h-470zM21,188h470v1h-470zM21,189h470v1h-470zM21,190h470v1h-470zM21,191h470v1h-470zM21,192h470v1h-470zM21,193h470v1h-470zM21,194h470v1h-470zM21,195h470v1h-470zM21,196h470v1h-470zM21,197h470v1h-470zM21,198h470v1h-470zM21,199h470v1h-470zM21,200h470v1h-470zM21,201h470v1h-470zM21,202h470v1h-470zM21,203h470v1h-470zM21,204h470v1h-470zM21,205h470v1h-470zM21,206h470v1h-470zM21,207h470v1h-470zM21,208h470v1h-470zM21,209h470v1h-470zM21,210h470v1h-470zM21,211h470v1h-470zM21,212h470v1h-470zM21,213h470v1h-470zM21,214h470v1h-470zM21,215h470v1h-470zM21,216h470v1h-470zM21,217h470v1h-470zM21,218h470v1h-470zM21,219h470v1h-470zM21,220h470v1h-470zM21,221h470v1h-470zM21,222h470v1h-470zM21,223h470v1h-470zM21,224h470v1h-470zM21,225h470v1h-470zM21,226h470v1h-470zM21,227h470v1h-470zM21,228h470v1h-470zM21,229h470v1h-470zM21,230h470v1h-470zM21,231h470v1h-470zM21,232h470v1h-470zM21,233h470v1h-470zM21,234h470v1h-470zM21,235h470v1h-470zM21,236h470v1h-470zM21,237h470v1h-470zM21,238h470v1h-470zM21,239h470v1h-470zM21,240h470v1h-470zM21,241h470v1h-470zM21,242h470v1h-470zM21,243h470v1h-470zM21,244h470v1h-470zM21,245h470v1h-470zM21,246h470v1h-470zM21,247h470v1h-470zM21,248h470v1h-470zM21,249h470v1h-470zM21,250h470v1h-470zM21,251h470v1h-470zM21,252h470v1h-470zM21,253h470v1h-470zM21,254h470v1h-470zM21,255h470v1h-470zM21,256h470v1h-470zM21,257h470v1h-470zM21,258h470v1h-470zM21,259h470v1h-470zM21,260h470v1h-470zM21,261h470v1h-470zM21,262h470v1h-470zM21,263h470v1h-470zM21,264h470v1h-470zM21,265h470v1h-470zM21,266h470v1h-470zM21,267h470v1h-470zM21,268h470v1h-470zM21,269h470v1h-470zM21,270h470v1h-470zM21,271h470v1h-470zM21,272h470v1h-470zM21,273h470v1h-470zM21,274h470v1h-470zM21,275h470v1h-470zM21,276h470v1h-470zM21,277h470v1h-470zM21,278h470v1h-470zM21,279h470v1h-470zM21,280h470v1h-470zM21,281h470v1h-470zM21,282h470v1h-470zM21,283h470v1h-470zM21,284h470v1h-470zM21,285h470v1h-470zM21,286h470v1h-470zM21,287h470v1h-470zM21,288h470v1h-470zM21,289h470v1h-470zM21,290h470v1h-470zM21,291h470v1h-470zM21,292h470v1h-470zM21,293h470v1h-470zM21,294h470v1h-470zM21,295h470v1h-470zM21,296h470v1h-470zM21,297h470v1h-470zM21,298h470v1h-470zM21,299h470v1h-470zM21,300h470v1h-470zM21,301h470v1h-470zM21,302h470v1h-470zM21,303h470v1h-470zM21,304h470v1h-470zM21,305h470v1h-470zM21,306h470v1h-470zM21,307h470v1h-470zM21,308h470v1h-470zM21,309h470v1h-470zM21,310h470v1h-470zM21,311h470v1h-470zM21,312h470v1h-470zM21,313h470v1h-470zM21,314h470v1h-470zM21,315h470v1h-470zM21,316h470v1h-470zM21,317h470v1h-470zM21,318h470v1h-470zM21,319h470v1h-470zM21,320h470v1h-470zM21,321h470v1h-470zM21,322h470v1h-470zM21,323h470v1h-470zM21,324h470v1h-470zM21,325h470v1h-470zM21,326h470v1h-470zM21,327h470v1h-470zM21,328h470v1h-470zM21,329h470v1h-470zM21,330h470v1h-470zM21,331h470v1h-470zM21,332h470v1h-470zM21,333h470v1h-470zM21,334h470v1h-470zM21,335h470v1h-470zM21,336h470v1h-470zM21,337h470v1h-470zM21,338h470v1h-470zM21,339h470v1h-470zM21,340h470v1h-470zM21,341h470v1h-470zM21,342h470v1h-470zM21,343h470v1h-470zM21,344h470v1h-470zM21,345h470v1h-470zM21,346h470v1h-470zM21,347h470v1h-470zM21,348h470v1h-470zM21,349h470v1h-470zM21,350h470v1h-470zM21,351h470v1h-470zM21,352h470v1h-470zM21,353h470v1h-470zM21,354h470v1h-470zM21,355h470v1h-470zM21,356h470v1h-470zM21,357h470v1h-470zM21,358h470v1h-470zM21,359h470v1h-470zM21,360h470v1h-470zM21,361h470v1h-470zM21,362h470v1h-470zM21,363h470v1h-470zM21,364h470v1h-470zM21,365h470v1h-470zM21,366h470v1h-470zM21,367h232v1h-232zM259,367h232v1h-232zM21,368h231v1h-231zM260,368h231v1h-231zM21,369h230v1h-230zM261,369h230v1h-230zM21,370h229v1h-229zM262,370h229v1h-229zM21,371h228v1h-228zM263,371h228v1h-228zM21,372h227v1h-227zM264,372h227v1h-227zM21,373h226v1h-226zM265,373h226v1h-226zM21,374h225v1h-225zM266,374h225v1h-225zM21,375h224v1h-224zM267,375h224v1h-224zM21,376h223v1h-223zM268,376h223v1h-223zM21,377h222v1h-222zM269,377h222v1h-222zM21,378h221v1h-221zM270,378h221v1h-221zM21,379h220v1h-220zM271,379h220v1h-220zM21,380h219v1h-219zM272,380h219v1h-219zM21,381h218v1h-218zM273,381h218v1h-218zM21,382h217v1h-217zM274,382h217v1h-217zM21,383h216v1h-216zM275,383h216v1h-216zM21,384h215v1h-215zM276,384h215v1h-215zM21,385h214v1h-214zM277,385h214v1h-214zM21,386h213v1h-213zM278,386h213v1h-213zM21,387h212v1h-212zM279,387h212v1h-212zM21,388h211v1h-211zM280,388h211v1h-211zM21,389h210v1h-210zM281,389h210v1h-210zM21,390h209v1h-209zM282,390h209v1h-209zM21,391h208v1h-208zM283,391h208v1h-208zM21,392h207v1h-207zM284,392h207v1h-207zM21,393h206v1h-206zM285,393h206v1h-206zM21,394h205v1h-205zM286,394h205v1h-205zM21,395h204v1h-204zM287,395h204v1h-204zM21,396h203v1h-203zM288,396h203v1h-203zM21,397h202v1h-202zM289,397h202v1h-202zM21,398h201v1h-201zM290,398h201v1h-201zM21,399h200v1h-200zM291,399h200v1h-200zM21,400h199v1h-199zM292,400h199v1h-199zM21,401h198v1h-198zM293,401h198v1h-198zM21,402h197v1h-197zM294,402h197v1h-197zM21,403h196v1h-196zM295,403h196v1h-196zM21,404h195v1h-195zM296,404h195v1h-195zM21,405h194v1h-194zM297,405h194v1h-194zM21,406h193v1h-193zM298,406h193v1h-193zM21,407h192v1h-192zM299,407h192v1h-192zM21,408h191v1h-191zM300,408h191v1h-191zM21,409h190v1h-190zM301,409h190v1h-190zM21,410h189v1h-189zM302,410h189v1h-189zM21,411h188v1h-188zM303,411h188v1h-188zM21,412h187v1h-187zM304,412h187v1h-187zM21,413h186v1h-186zM305,413h186v1h-186zM21,414h185v1h-185zM306,414h185v1h-185zM21,415h184v1h-184zM307,415h184v1h-184zM21,416h183v1h-183zM308,416h183v1h-183zM21,417h182v1h-182zM309,417h182v1h-182zM21,418h181v1h-181zM310,418h181v1h-181zM21,419h180v1h-180zM311,419h180v1h-180zM21,420h179v1h-179zM313,420h178v1h-178zM21,421h178v1h-178zM314,421h177v1h-177zM21,422h177v1h-177zM315,422h176v1h-176zM21,423h176v1h-176zM316,423h175v1h-175zM21,424h174v1h-174zM317,424h174v1h-174zM21,425h173v1h-173zM318,425h173v1h-173zM21,426h172v1h-172zM319,426h172v1h-172zM21,427h171v1h-171zM320,427h171v1h-171zM21,428h170v1h-170zM321,428h170v1h-170zM21,429h169v1h-169zM322,429h169v1h-169zM21,430h168v1h-168zM323,430h168v1h-168zM21,431h167v1h-167zM324,431h167v1h-167zM21,432h166v1h-166zM325,432h166v1h-166zM21,433h165v1h-165zM326,433h165v1h-165zM21,434h164v1h-164zM327,434h164v1h-164zM21,435h163v1h-163zM328,435h163v1h-163zM21,436h162v1h-162zM329,436h162v1h-162zM21,437h161v1h-161zM330,437h161v1h-161zM21,438h160v1h-160zM331,438h160v1h-160zM21,439h159v1h-159zM332,439h159v1h-159zM21,440h158v1h-158zM333,440h158v1h-158zM21,441h157v1h-157zM334,441h157v1h-157zM21,442h156v1h-156zM335,442h156v1h-156zM21,443h155v1h-155zM336,443h155v1h-155zM21,444h154v1h-154zM337,444h154v1h-154zM21,445h153v1h-153zM338,445h153v1h-153zM21,446h152v1h-152zM339,446h152v1h-152zM21,447h151v1h-151zM340,447h151v1h-151zM21,448h150v1h-150zM341,448h150v1h-150zM21,449h149v1h-149zM342,449h149v1h-149zM21,450h148v1h-148zM343,450h148v1h-148zM21,451h147v1h-147zM344,451h147v1h-147zM22,452h145v1h-145zM345,452h145v1h-145zM22,453h144v1h-144zM346,453h144v1h-144zM22,454h143v1h-143zM347,454h143v1h-143zM22,455h142v1h-142zM348,455h142v1h-142zM22,456h141v1h-141zM349,456h141v1h-141zM22,457h140v1h-140zM350,457h140v1h-140zM23,458h138v1h-138zM351,458h138v1h-138zM23,459h137v1h-137zM352,459h137v1h-137zM23,460h136v1h-136zM353,460h136v1h-136zM23,461h135v1h-135zM354,461h135v1h-135zM24,462h133v1h-133zM355,462h133v1h-133zM24,463h132v1h-132zM356,463h132v1h-132zM24,464h131v1h-131zM357,464h131v1h-131zM25,465h129v1h-129zM358,465h129v1h-129zM25,466h128v1h-128zM359,466h128v1h-128zM26,467h126v1h-126zM360,467h126v1h-126zM26,468h125v1h-125zM361,468h125v1h-125zM26,469h124v1h-124zM362,469h124v1h-124zM27,470h122v1h-122zM363,470h122v1h-122zM27,471h121v1h-121zM364,471h121v1h-121zM28,472h119v1h-119zM365,472h119v1h-119zM28,473h118v1h-118zM366,473h118v1h-118zM29,474h116v1h-116zM367,474h116v1h-116zM29,475h115v1h-115zM368,475h115v1h-115zM30,476h113v1h-113zM369,476h113v1h-113zM31,477h111v1h-111zM370,477h111v1h-111zM31,478h110v1h-110zM371,478h110v1h-110zM32,479h108v1h-108zM372,479h108v1h-108zM33,480h106v1h-106zM373,480h106v1h-106zM33,481h105v1h-105zM374,481h105v1h-105zM34,482h103v1h-103zM375,482h103v1h-103zM35,483h101v1h-101zM376,483h101v1h-101zM36,484h99v1h-99zM377,484h99v1h-99zM37,485h97v1h-97zM378,485h98v1h-98zM37,486h96v1h-96zM379,486h96v1h-96zM38,487h94v1h-94zM380,487h94v1h-94zM39,488h92v1h-92zM381,488h92v1h-92zM40,489h90v1h-90zM382,489h90v1h-90zM41,490h88v1h-88zM383,490h88v1h-88zM42,491h86v1h-86zM384,491h86v1h-86zM44,492h83v1h-83zM385,492h83v1h-83zM45,493h81v1h-81zM386,493h81v1h-81zM46,494h78v1h-78zM388,494h78v1h-78zM47,495h76v1h-76zM389,495h76v1h-76zM49,496h73v1h-73zM390,496h73v1h-73zM51,497h69v1h-69zM392,497h70v1h-70zM52,498h67v1h-67zM393,498h67v1h-67zM54,499h63v1h-63zM395,499h63v1h-63zM56,500h59v1h-59zM397,500h59v1h-59zM58,501h55v1h-55zM399,501h55v1h-55zM60,502h51v1h-51zM401,502h51v1h-51zM63,503h45v1h-45zM404,503h45v1h-45zM65,504h41v1h-41zM406,504h41v1h-41zM69,505h34v1h-34zM410,505h33v1h-33zM73,506h25v1h-25zM414,506h25v1h-25zM79,507h13v1h-13zM420,507h13v1h-13z"/></svg>