<svg xmlns="http://www.w3.org/2000/svg" viewBox="0 0 512 512" width="512" height="512"><path fill="#000" d="M103,0h306v1h-306zM103,1h306v1h-306zM103,2h306v1h-306zM99,3h314v1h-314zM96,4h320v1h-320zM93,5h326v1h-326zM90,6h332v1h-332zM88,7h336v1h-336zM85,8h342v1h-342zM83,9h346v1h-346zM81,10h350v1h-350zM79,11h354v1h-354zM77,12h358v1h-358zM75,13h362v1h-362zM74,14h364v1h-364zM72,15h368v1h-368zM70,16h372v1h-372zM69,17h374v1h-374zM67,18h378v1h-378zM66,19h380v1h-380zM64,20h383v1h-383zM63,21h386v1h-386zM62,22h388v1h-388zM61,23h390v1h-390zM59,24h394v1h-394zM58,25h396v1h-396zM57,26h398v1h-398zM56,27h400v1h-400zM55,28h402v1h-402zM54,29h404v1h-404zM53,30h406v1h-406zM52,31h408v1h-408zM51,32h410v1h-410zM50,33h412v1h-412zM49,34h414v1h-414zM48,35h416v1h-416zM47,36h418v1h-418zM46,37h420v1h-420zM45,38h422v1h-422zM45,39h422v1h-422zM44,40h424v1h-424zM43,41h426v1h-426zM42,42h428v1h-428zM42,43h78v1h-78zM392,43h78v1h-78zM41,44h73v1h-73zM398,44h73v1h-73zM40,45h70v1h-70zM402,45h70v1h-70zM39,46h68v1h-68zM405,46h68v1h-68zM39,47h66v1h-66zM407,47h66v1h-66zM38,48h64v1h-64zM410,48h64v1h-64zM38,49h62v1h-62zM412,49h62v1h-62zM37,50h61v1h-61zM414,50h61v1h-61zM36,51h60v1h-60zM416,51h60v1h-60zM36,52h59v1h-59zM417,52h59v1h-59zM35,53h58v1h-58zM419,53h58v1h-58zM35,54h57v1h-57zM420,54h57v1h-57zM34,55h56v1h-56zM422,55h56v1h-56zM33,56h56v1h-56zM423,56h56v1h-56zM33,57h55v1h-55zM424,57h55v1h-55zM32,58h54v1h-54zM426,58h54v1h-54zM32,59h53v1h-53zM427,59h53v1h-53zM31,60h53v1h-53zM428,60h53v1h-53zM31,61h52v1h-52zM429,61h52v1h-52zM31,62h51v1h-51zM430,62h51v1h-51zM30,63h51v1h-51zM431,63h51v1h-51zM30,64h50v1h-50zM432,64h50v1h-50zM29,65h51v1h-51zM433,65h50v1h-50zM29,66h50v1h-50zM433,66h50v1h-50zM28,67h50v1h-50zM434,67h50v1h-50zM28,68h49v1h-49zM435,68h49v1h-49zM28,69h48v1h-48zM436,69h48v1h-48zM27,70h49v1h-49zM436,70h49v1h-49zM27,71h48v1h-48zM437,71h48v1h-48zM27,72h47v1h-47zM438,72h47v1h-47zM26,73h48v1h-48zM438,73h48v1h-48zM26,74h47v1h-47zM439,74h47v1h-47zM26,75h47v1h-47zM439,75h47v1h-47zM25,76h47v1h-47zM440,76h47v1h-47zM25,77h46v1h-46zM441,77h46v1h-46zM25,78h46v1h-46zM441,78h46v1h-46zM24,79h46v1h-46zM442,79h46v1h-46zM24,80h46v1h-46zM442,80h46v1h-46zM24,81h46v1h-46zM442,81h46v1h-46zM24,82h45v1h-45zM443,82h45v1h-45zM23,83h46v1h-46zM443,83h45v1h-45zM23,84h45v1h-45zM444,84h45v1h-45zM23,85h45v1h-45zM444,85h45v1h-45zM23,86h45v1h-45zM444,86h45v1h-45zM23,87h44v1h-44zM445,87h44v1h-44zM23,88h44v1h-44zM445,88h44v1h-44zM22,89h45v1h-45zM445,89h45v1h-45zM22,90h44v1h-44zM446,90h44v1h-44zM22,91h44v1h-44zM446,91h44v1h-44zM22,92h44v1h-44zM446,92h44v1h-44zM22,93h44v1h-44zM446,93h44v1h-44zM22,94h44v1h-44zM446,94h44v1h-44zM22,95h43v1h-43zM447,95h43v1h-43zM21,96h44v1h-44zM447,96h44v1h-44zM21,97h44v1h-44zM447,97h44v1h-44zM21,98h44v1h-44zM447,98h44v1h-44zM21,99h44v1h-44zM447,99h44v1h-44zM21,100h44v1h-44zM447,100h44v1h-44zM21,101h44v1h-44zM447,101h44v1h-44zM21,102h44v1h-44zM448,102h43v1h-43zM21,103h43v1h-43zM448,103h43v1h-43zM21,104h43v1h-43zM448,104h43v1h-43zM21,105h43v1h-43zM448,105h43v1h-43zM21,106h43v1h-43zM448,106h43v1h-43zM21,107h43v1h-43zM448,107h43v1h-43zM21,108h43v1h-43zM448,108h43v1h-43zM21,109h43v1h-43zM448,109h43v1h-43zM21,110h43v1h-43zM448,110h43v1h-43zM21,111h43v1h-43zM448,111h43v1h-43zM21,112h43v1h-43zM448,112h43v1h-43zM21,113h43v1h-43zM448,113h43v1h-43zM21,114h43v1h-43zM448,114h43v1h-43zM21,115h43v1h-43zM448,115h43v1h-43zM21,116h43v1h-43zM448,116h43v1h-43zM21,117h43v1h-43zM448,117h43v1h-43zM21,118h43v1h-43zM448,118h43v1h-43zM21,119h43v1h-43zM448,119h43v1h-43zM21,120h43v1h-43zM448,120h43v1h-43zM21,121h43v1h-43zM448,121h43v1h-43zM21,122h43v1h-43zM448,122h43v1h-43zM21,123h43v1h-43zM448,123h43v1h-43zM21,124h43v1h-43zM448,124h43v1h-43zM21,125h43v1h-43zM448,125h43v1h-43zM21,126h43v1h-43zM448,126h43v1h-43zM21,127h43v1h-43zM448,127h43v1h-43zM21,128h43v1h-43zM448,128h43v1h-43zM21,129h43v1h-43zM448,129h43v1h-43zM21,130h43v1h-43zM448,130h43v1h-43zM21,131h43v1h-43zM448,131h43v1h-43zM21,132h43v1h-43zM448,132h43v1h-43zM21,133h43v1h-43zM448,133h43v1h-43zM21,134h43v1h-43zM448,134h43v1h-43zM21,135h43v1h-43zM448,135h43v1h-43zM21,136h43v1h-43zM448,136h43v1h-43zM21,137h43v1h-43zM448,137h43v1h-43zM21,138h43v1h-43zM448,138h43v1h-43zM21,139h43v1h-43zM448,139h43v1h-43zM21,140h43v1h-43zM448,140h43v1h-43zM21,141h43v1h-43zM448,141h43v1h-43zM21,142h43v1h-43zM448,142h43v1h-43zM21,143h43v1h-43zM448,143h43v1h-43zM21,144h43v1h-43zM448,144h43v1h-43zM21,145h43v1h-43zM448,145h43v1h-43zM21,146h43v1h-43zM448,146h43v1h-43zM21,147h43v1h-43zM448,147h43v1h-43zM21,148h43v1h-43zM448,148h43v1h-43zM21,149h43v1h-43zM448,149h43v1h-43zM21,150h43v1h-43zM448,150h43v1h-43zM21,151h43v1h-43zM448,151h43v1h-43zM21,152h43v1h-43zM448,152h43v1h-43zM21,153h43v1h-43zM448,153h43v1h-43zM21,154h43v1h-43zM448,154h43v1h-43zM21,155h43v1h-43zM448,155h43v1h-43zM21,156h43v1h-43zM448,156h43v1h-43zM21,157h43v1h-43zM448,157h43v1h-43zM21,158h43v1h-43zM448,158h43v1h-43zM21,159h43v1h-43zM448,159h43v1h-43zM21,160h43v1h-43zM448,160h43v1h-43zM21,161h43v1h-43zM448,161h43v1h-43zM21,162h43v1h-43zM448,162h43v1h-43zM21,163h43v1h-43zM448,163h43v1h-43zM21,164h43v1h-43zM448,164h43v1h-43zM21,165h43v1h-43zM448,165h43v1h-43zM21,166h43v1h-43zM448,166h43v1h-43zM21,167h43v1h-43zM448,167h43v1h-43zM21,168h43v1h-43zM448,168h43v1h-43zM21,169h43v1h-43zM448,169h43v1h-43zM21,170h43v1h-43zM448,170h43v1h-43zM21,171h43v1h-43zM448,171h43v1h-43zM21,172h43v1h-43zM448,172h43v1h-43zM21,173h43v1h-43zM448,173h43v1h-43zM21,174h43v1h-43zM448,174h43v1h-43zM21,175h43v1h-43zM448,175h43v1h-43zM21,176h43v1h-43zM448,176h43v1h-43zM21,177h43v1h-43zM448,177h43v1h-43zM21,178h43v1h-43zM448,178h43v1h-43zM21,179h43v1h-43zM448,179h43v1h-43zM21,180h43v1h-43zM448,180h43v1h-43zM21,181h43v1h-43zM448,181h43v1h-43zM21,182h43v1h-43zM448,182h43v1h-43zM21,183h43v1h-43zM448,183h43v1h-43zM21,184h43v1h-43zM448,184h43v1h-43zM21,185h43v1h-43zM448,185h43v1h-43zM21,186h43v1h-43zM448,186h43v1h-43zM21,187h43v1h-43zM448,187h43v1h-43zM21,188h43v1h-43zM448,188h43v1h-43zM21,189h43v1h-43zM448,189h43v1h-43zM21,190h43v1h-43zM448,190h43v1h-43zM21,191h43v1h-43zM448,191h43v1h-43zM21,192h43v1h-43zM448,192h43v1h-43zM21,193h43v1h-43zM448,193h43v1h-43zM21,194h43v1h-43zM448,194h43v1h-43zM21,195h43v1h-43zM448,195h43v1h-43zM21,196h43v1h-43zM448,196h43v1h-43zM21,197h43v1h-43zM448,197h43v1h-43zM21,198h43v1h-43zM448,198h43v1h-43zM21,199h43v1h-43zM448,199h43v1h-43zM21,200h43v1h-43zM448,200h43v1h-43zM21,201h43v1h-43zM448,201h43v1h-43zM21,202h43v1h-43zM448,202h43v1h-43zM21,203h43v1h-43zM448,203h43v1h-43zM21,204h43v1h-43zM448,204h43v1h-43zM21,205h43v1h-43zM448,205h43v1h-43zM21,206h43v1h-43zM448,206h43v1h-43zM21,207h43v1h-43zM448,207h43v1h-43zM21,208h43v1h-43zM448,208h43v1h-43zM21,209h43v1h-43zM448,209h43v1h-43zM21,210h43v1h-43zM448,210h43v1h-43zM21,211h43v1h-43zM448,211h43v1h-43zM21,212h43v1h-43zM448,212h43v1h-43zM21,213h43v1h-43zM448,213h43v1h-43zM21,214h43v1h-43zM448,214h43v1h-43zM21,215h43v1h-43zM448,215h43v1h-43zM21,216h43v1h-43zM448,216h43v1h-43zM21,217h43v1h-43zM448,217h43v1h-43zM21,218h43v1h-43zM448,218h43v1h-43zM21,219h43v1h-43zM448,219h43v1h-43zM21,220h43v1h-43zM448,220h43v1h-43zM21,221h43v1h-43zM448,221h43v1h-43zM21,222h43v1h-43zM448,222h43v1h-43zM21,223h43v1h-43zM448,223h43v1h-43zM21,224h43v1h-43zM448,224h43v1h-43zM21,225h43v1h-43zM448,225h43v1h-43zM21,226h43v1h-43zM448,226h43v1h-43zM21,227h43v1h-43zM448,227h43v1h-43zM21,228h43v1h-43zM448,228h43v1h-43zM21,229h43v1h-43zM448,229h43v1h-43zM21,230h43v1h-43zM448,230h43v1h-43zM21,231h43v1h-43zM448,231h43v1h-43zM21,232h43v1h-43zM448,232h43v1h-43zM21,233h43v1h-43zM448,233h43v1h-43zM21,234h43v1h-43zM448,234h43v1h-43zM21,235h43v1h-43zM448,235h43v1h-43zM21,236h43v1h-43zM448,236h43v1h-43zM21,237h43v1h-43zM448,237h43v1h-43zM21,238h43v1h-43zM448,238h43v1h-43zM21,239h43v1h-43zM448,239h43v1h-43zM21,240h43v1h-43zM448,240h43v1h-43zM21,241h43v1h-43zM448,241h43v1h-43zM21,242h43v1h-43zM448,242h43v1h-43zM21,243h43v1h-43zM448,243h43v1h-43zM21,244h43v1h-43zM448,244h43v1h-43zM21,245h43v1h-43zM448,245h43v1h-43zM21,246h43v1h-43zM448,246h43v1h-43zM21,247h43v1h-43zM448,247h43v1h-43zM21,248h43v1h-43zM448,248h43v1h-43zM21,249h43v1h-43zM448,249h43v1h-43zM21,250h43v1h-43zM448,250h43v1h-43zM21,251h43v1h-43zM448,251h43v1h-43zM21,252h43v1h-43zM448,252h43v1h-43zM21,253h43v1h-43zM448,253h43v1h-43zM21,254h43v1h-43zM448,254h43v1h-43zM21,255h43v1h-43zM448,255h43v1h-43zM21,256h43v1h-43zM448,256h43v1h-43zM21,257h43v1h-43zM448,257h43v1h-43zM21,258h43v1h-43zM448,258h43v1h-43zM21,259h43v1h-43zM448,259h43v1h-43zM21,260h43v1h-43zM448,260h43v1h-43zM21,261h43v1h-43zM448,261h43v1h-43zM21,262h43v1h-43zM448,262h43v1h-43zM21,263h43v1h-43zM448,263h43v1h-43zM21,264h43v1h-43zM448,264h43v1h-43zM21,265h43v1h-43zM448,265h43v1h-43zM21,266h43v1h-43zM448,266h43v1h-43zM21,267h43v1h-43zM448,267h43v1h-43zM21,268h43v1h-43zM448,268h43v1h-43zM21,269h43v1h-43zM448,269h43v1h-43zM21,270h43v1h-43zM448,270h43v1h-43zM21,271h43v1h-43zM448,271h43v1h-43zM21,272h43v1h-43zM448,272h43v1h-43zM21,273h43v1h-43zM448,273h43v1h-43zM21,274h43v1h-43zM448,274h43v1h-43zM21,275h43v1h-43zM448,275h43v1h-43zM21,276h43v1h-43zM448,276h43v1h-43zM21,277h43v1h-43zM448,277h43v1h-43zM21,278h43v1h-43zM448,278h43v1h-43zM21,279h43v1h-43zM448,279h43v1h-43zM21,280h43v1h-43zM448,280h43v1h-43zM21,281h43v1h-43zM448,281h43v1h-43zM21,282h43v1h-43zM448,282h43v1h-43zM21,283h43v1h-43zM448,283h43v1h-43zM21,284h43v1h-43zM448,284h43v1h-43zM21,285h43v1h-43zM448,285h43v1h-43zM21,286h43v1h-43zM448,286h43v1h-43zM21,287h43v1h-43zM448,287h43v1h-43zM21,288h43v1h-43zM448,288h43v1h-43zM21,289h43v1h-43zM448,289h43v1h-43zM21,290h43v1h-43zM448,290h43v1h-43zM21,291h43v1h-43zM448,291h43v1h-43zM21,292h43v1h-43zM448,292h43v1h-43zM21,293h43v1h-43zM448,293h43v1h-43zM21,294h43v1h-43zM448,294h43v1h-43zM21,295h43v1h-43zM448,295h43v1h-43zM21,296h43v1h-43zM448,296h43v1h-43zM21,297h43v1h-43zM448,297h43v1h-43zM21,298h43v1h-43zM448,298h43v1h-43zM21,299h43v1h-43zM448,299h43v1h-43zM21,300h43v1h-43zM448,300h43v1h-43zM21,301h43v1h-43zM448,301h43v1h-43zM21,302h43v1h-43zM448,302h43v1h-43zM21,303h43v1h-43zM448,303h43v1h-43zM21,304h43v1h-43zM448,304h43v1h-43zM21,305h43v1h-43zM448,305h43v1h-43zM21,306h43v1h-43zM448,306h43v1h-43zM21,307h43v1h-43zM448,307h43v1h-43zM21,308h43v1h-43zM448,308h43v1h-43zM21,309h43v1h-43zM448,309h43v1h-43zM21,310h43v1h-43zM448,310h43v1h-43zM21,311h43v1h-43zM448,311h43v1h-43zM21,312h43v1h-43zM252,312h9v1h-9zM448,312h43v1h-43zM21,313h43v1h-43zM248,313h16v1h-16zM448,313h43v1h-43zM21,314h43v1h-43zM246,314h20v1h-20zM448,314h43v1h-43zM21,315h43v1h-43zM244,315h24v1h-24zM448,315h43v1h-43zM21,316h43v1h-43zM243,316h26v1h-26zM448,316h43v1h-43zM21,317h43v1h-43zM242,317h29v1h-29zM448,317h43v1h-43zM21,318h43v1h-43zM241,318h31v1h-31zM448,318h43v1h-43zM21,319h43v1h-43zM240,319h33v1h-33zM448,319h43v1h-43zM21,320h43v1h-43zM239,320h35v1h-35zM448,320h43v1h-43zM21,321h43v1h-43zM238,321h37v1h-37zM448,321h43v1h-43zM21,322h43v1h-43zM237,322h39v1h-39zM448,322h43v1h-43zM21,323h43v1h-43zM236,323h41v1h-41zM448,323h43v1h-43zM21,324h43v1h-43zM235,324h43v1h-43zM448,324h43v1h-43zM21,325h43v1h-43zM234,325h45v1h-45zM448,325h43v1h-43zM21,326h43v1h-43zM233,326h47v1h-47zM448,326h43v1h-43zM21,327h43v1h-43zM232,327h49v1h-49zM448,327h43v1h-43zM21,328h43v1h-43zM231,328h51v1h-51zM448,328h43v1h-43zM21,329h43v1h-43zM230,329h53v1h-53zM448,329h43v1h-43zM21,330h43v1h-43zM229,330h55v1h-55zM448,330h43v1h-43zM21,331h43v1h-43zM228,331h57v1h-57zM448,331h43v1h-43zM21,332h43v1h-43zM227,332h59v1h-59zM448,332h43v1h-43zM21,333h43v1h-43zM226,333h61v1h-61zM448,333h43v1h-43zM21,334h43v1h-43zM225,334h63v1h-63zM448,334h43v1h-43zM21,335h43v1h-43zM224,335h65v1h-65zM448,335h43v1h-43zM21,336h43v1h-43zM223,336h67v1h-67zM448,336h43v1h-43zM21,337h43v1h-43zM222,337h69v1h-69zM448,337h43v1h-43zM21,338h43v1h-43zM221,338h71v1h-71zM448,338h43v1h-43zM21,339h43v1h-43zM219,339h74v1h-74zM448,339h43v1h-43zM21,340h43v1h-43zM218,340h76v1h-76zM448,340h43v1h-43zM21,341h43v1h-43zM217,341h78v1h-78zM448,341h43v1h-43zM21,342h43v1h-43zM216,342h80v1h-80zM448,342h43v1h-43zM21,343h43v1h-43zM215,343h82v1h-82zM448,343h43v1h-43zM21,344h43v1h-43zM214,344h84v1h-84zM448,344h43v1h-43zM21,345h43v1h-43zM213,345h86v1h-86zM448,345h43v1h-43zM21,346h43v1h-43zM212,346h88v1h-88zM448,346h43v1h-43zM21,347h43v1h-43zM211,347h90v1h-90zM448,347h43v1h-43zM21,348h43v1h-43zM210,348h92v1h-92zM448,348h43v1h-43zM21,349h43v1h-43zM209,349h94v1h-94zM448,349h43v1h-43zM21,350h43v1h-43zM208,350h96v1h-96zM448,350h43v1h-43zM21,351h43v1h-43zM207,351h98v1h-98zM448,351h43v1h-43zM21,352h43v1h-43zM206,352h100v1h-100zM448,352h43v1h-43zM21,353h43v1h-43zM205,353h102v1h-102zM448,353h43v1h-43zM21,354h43v1h-43zM204,354h104v1h-104zM448,354h43v1h-43zM21,355h43v1h-43zM203,355h106v1h-106zM448,355h43v1h-43zM21,356h43v1h-43zM202,356h108v1h-108zM448,356h43v1h-43zM21,357h43v1h-43zM201,357h110v1h-110zM448,357h43v1h-43zM21,358h43v1h-43zM200,358h112v1h-112zM448,358h43v1h-43zM21,359h43v1h-43zM199,359h114v1h-114zM448,359h43v1h-43zM21,360h43v1h-43zM198,360h116v1h-116zM448,360h43v1h-43zM21,361h43v1h-43zM197,361h118v1h-118zM448,361h43v1h-43zM21,362h43v1h-43zM196,362h120v1h-120zM448,362h43v1h-43zM21,363h43v1h-43zM195,363h122v1h-122zM448,363h43v1h-43zM21,364h43v1h-43zM194,364h124v1h-124zM448,364h43v1h-43zM21,365h43v1h-43zM193,365h126v1h-126zM448,365h43v1h-43zM21,366h43v1h-43zM192,366h128v1h-128zM448,366h43v1h-43zM21,367h43v1h-43zM191,367h62v1h-62zM259,367h62v1h-62zM448,367h43v1h-43zM21,368h43v1h-43zM190,368h62v1h-62zM260,368h62v1h-62zM448,368h43v1h-43zM21,369h43v1h-43zM189,369h62v1h-62zM261,369h62v1h-62zM448,369h43v1h-43zM21,370h43v1h-43zM188,370h62v1h-62zM262,370h62v1h-62zM448,370h43v1h-43zM21,371h43v1h-43zM187,371h62v1h-62zM263,371h62v1h-62zM448,371h43v1h-43zM21,372h43v1h-43zM186,372h62v1h-62zM264,372h62v1h-62zM448,372h43v1h-43zM21,373h43v1h-43zM185,373h62v1h-62zM265,373h62v1h-62zM448,373h43v1h-43zM21,374h43v1h-43zM184,374h62v1h-62zM266,374h62v1h-62zM448,374h43v1h-43zM21,375h43v1h-43zM183,375h62v1h-62zM267,375h62v1h-62zM448,375h43v1h-43zM21,376h43v1h-43zM182,376h62v1h-62zM268,376h62v1h-62zM448,376h43v1h-43zM21,377h43v1h-43zM181,377h62v1h-62zM269,377h62v1h-62zM448,377h43v1h-43zM21,378h43v1h-43zM180,378h62v1h-62zM270,378h62v1h-62zM448,378h43v1h-43zM21,379h43v1h-43zM179,379h62v1h-62zM271,379h62v1h-62zM448,379h43v1h-43zM21,380h43v1h-43zM178,380h62v1h-62zM272,380h62v1h-62zM448,380h43v1h-43zM21,381h43v1h-43zM177,381h62v1h-62zM273,381h62v1h-62zM448,381h43v1h-43zM21,382h43v1h-43zM176,382h62v1h-62zM274,382h62v1h-62zM448,382h43v1h-43zM21,383h43v1h-43zM175,383h62v1h-62zM275,383h62v1h-62zM448,383h43v1h-43zM21,384h43v1h-43zM174,384h62v1h-62zM276,384h62v1h-62zM448,384h43v1h-43zM21,385h43v1h-43zM173,385h62v1h-62zM277,385h62v1h-62zM448,385h43v1h-43zM21,386h43v1h-43zM172,386h62v1h-62zM278,386h62v1h-62zM448,386h43v1h-43zM21,387h43v1h-43zM171,387h62v1h-62zM279,387h62v1h-62zM448,387h43v1h-43zM21,388h43v1h-43zM170,388h62v1h-62zM280,388h62v1h-62zM448,388h43v1h-43zM21,389h43v1h-43zM169,389h62v1h-62zM281,389h62v1h-62zM448,389h43v1h-43zM21,390h43v1h-43zM168,390h62v1h-62zM282,390h62v1h-62zM448,390h43v1h-43zM21,391h43v1h-43zM167,391h62v1h-62zM283,391h62v1h-62zM448,391h43v1h-43zM21,392h43v1h-43zM166,392h62v1h-62zM284,392h62v1h-62zM448,392h43v1h-43zM21,393h43v1h-43zM165,393h62v1h-62zM285,393h62v1h-62zM448,393h43v1h-43zM21,394h43v1h-43zM164,394h62v1h-62zM286,394h62v1h-62zM448,394h43v1h-43zM21,395h43v1h-43zM163,395h62v1h-62zM287,395h62v1h-62zM448,395h43v1h-43zM21,396h43v1h-43zM162,396h62v1h-62zM288,396h62v1h-62zM448,396h43v1h-43zM21,397h43v1h-43zM161,397h62v1h-62zM289,397h62v1h-62zM448,397h43v1h-43zM21,398h43v1h-43zM160,398h62v1h-62zM290,398h62v1h-62zM448,398h43v1h-43zM21,399h43v1h-43zM159,399h62v1h-62zM291,399h62v1h-62zM448,399h43v1h-43zM21,400h43v1h-43zM158,400h62v1h-62zM292,400h62v1h-62zM448,400h43v1h-43zM21,401h43v1h-43zM157,401h62v1h-62zM293,401h62v1h-62zM448,401h43v1h-43zM21,402h43v1h-43zM156,402h62v1h-62zM294,402h62v1h-62zM448,402h43v1h-43zM21,403h43v1h-43zM155,403h62v1h-62zM295,403h62v1h-62zM448,403h43v1h-43zM21,404h43v1h-43zM154,404h62v1h-62zM296,404h62v1h-62zM448,404h43v1h-43zM21,405h43v1h-43zM153,405h62v1h-62zM297,405h62v1h-62zM448,405h43v1h-43zM21,406h43v1h-43zM152,406h62v1h-62zM298,406h62v1h-62zM448,406h43v1h-43zM21,407h43v1h-43zM151,407h62v1h-62zM299,407h62v1h-62zM448,407h43v1h-43zM21,408h43v1h-43zM150,408h62v1h-62zM300,408h62v1h-62zM448,408h43v1h-43zM21,409h43v1h-43zM149,409h62v1h-62zM302,409h61v1h-61zM448,409h43v1h-43zM21,410h43v1h-43zM148,410h62v1h-62zM303,410h61v1h-61zM448,410h43v1h-43zM21,411h43v1h-43zM147,411h62v1h-62zM304,411h61v1h-61zM448,411h43v1h-43zM21,412h43v1h-43zM146,412h62v1h-62zM305,412h61v1h-61zM448,412h43v1h-43zM21,413h43v1h-43zM145,413h62v1h-62zM306,413h61v1h-61zM448,413h43v1h-43zM21,414h43v1h-43zM144,414h62v1h-62zM307,414h61v1h-61zM448,414h43v1h-43zM21,415h43v1h-43zM143,415h62v1h-62zM308,415h61v1h-61zM448,415h43v1h-43zM21,416h43v1h-43zM142,416h62v1h-62zM309,416h61v1h-61zM448,416h43v1h-43zM21,417h43v1h-43zM141,417h62v1h-62zM310,417h61v1h-61zM448,417h43v1h-43zM21,418h43v1h-43zM140,418h62v1h-62zM311,418h61v1h-61zM448,418h43v1h-43zM21,419h43v1h-43zM139,419h61v1h-61zM312,419h61v1h-61zM448,419h43v1h-43zM21,420h43v1h-43zM138,420h61v1h-61zM313,420h61v1h-61zM448,420h43v1h-43zM21,421h43v1h-43zM137,421h61v1h-61zM314,421h61v1h-61zM448,421h43v1h-43zM21,422h43v1h-43zM136,422h61v1h-61zM315,422h61v1h-61zM448,422h43v1h-43zM21,423h43v1h-43zM135,423h61v1h-61zM316,423h61v1h-61zM448,423h43v1h-43zM21,424h43v1h-43zM134,424h61v1h-61zM317,424h61v1h-61zM448,424h43v1h-43zM21,425h43v1h-43zM133,425h61v1h-61zM318,425h61v1h-61zM448,425h43v1h-43zM21,426h43v1h-43zM132,426h61v1h-61zM319,426h61v1h-61zM448,426h43v1h-43zM21,427h43v1h-43zM131,427h61v1h-61zM320,427h61v1h-61zM448,427h43v1h-43zM21,428h43v1h-43zM130,428h61v1h-61zM321,428h61v1h-61zM448,428h43v1h-43zM21,429h43v1h-43zM129,429h61v1h-61zM322,429h61v1h-61zM448,429h43v1h-43zM21,430h43v1h-43zM128,430h61v1h-61zM323,430h61v1h-61zM448,430h43v1h-43zM21,431h43v1h-43zM127,431h61v1h-61zM324,431h61v1h-61zM448,431h43v1h-43zM21,432h43v1h-43zM126,432h61v1h-61zM325,432h61v1h-61zM448,432h43v1h-43zM21,433h43v1h-43zM125,433h61v1h-61zM326,433h61v1h-61zM448,433h43v1h-43zM21,434h43v1h-43zM124,434h61v1h-61zM327,434h61v1h-61zM448,434h43v1h-43zM21,435h43v1h-43zM123,435h61v1h-61zM328,435h61v1h-61zM448,435h43v1h-43zM21,436h43v1h-43zM122,436h61v1h-61zM329,436h61v1h-61zM448,436h43v1h-43zM21,437h43v1h-43zM121,437h61v1h-61zM330,437h61v1h-61zM448,437h43v1h-43zM21,438h43v1h-43zM120,438h61v1h-61zM331,438h61v1h-61zM448,438h43v1h-43zM21,439h43v1h-43zM119,439h61v1h-61zM332,439h61v1h-61zM448,439h43v1h-43zM21,440h43v1h-43zM118,440h61v1h-61zM333,440h61v1h-61zM448,440h43v1h-43zM21,441h43v1h-43zM117,441h61v1h-61zM334,441h61v1h-61zM448,441h43v1h-43zM21,442h43v1h-43zM116,442h61v1h-61zM335,442h61v1h-61zM448,442h43v1h-43zM21,443h43v1h-43zM115,443h61v1h-61zM336,443h61v1h-61zM448,443h43v1h-43zM21,444h43v1h-43zM114,444h61v1h-61zM337,444h61v1h-61zM448,444h43v1h-43zM21,445h43v1h-43zM113,445h61v1h-61zM338,445h61v1h-61zM448,445h43v1h-43zM21,446h43v1h-43zM112,446h61v1h-61zM339,446h61v1h-61zM448,446h43v1h-43zM21,447h43v1h-43zM111,447h61v1h-61zM340,447h61v1h-61zM448,447h43v1h-43zM21,448h43v1h-43zM110,448h61v1h-61zM341,448h61v1h-61zM448,448h43v1h-43zM21,449h43v1h-43zM109,449h61v1h-61zM342,449h61v1h-61zM448,449h43v1h-43zM21,450h43v1h-43zM108,450h61v1h-61zM343,450h61v1h-61zM448,450h43v1h-43zM21,451h43v1h-43zM107,451h61v1h-61zM344,451h61v1h-61zM448,451h43v1h-43zM21,452h43v1h-43zM106,452h61v1h-61zM345,452h61v1h-61zM448,452h43v1h-43zM21,453h44v1h-44zM105,453h61v1h-61zM346,453h61v1h-61zM447,453h44v1h-44zM21,454h44v1h-44zM104,454h61v1h-61zM347,454h61v1h-61zM447,454h44v1h-44zM21,455h44v1h-44zM103,455h61v1h-61zM348,455h61v1h-61zM447,455h44v1h-44zM21,456h44v1h-44zM102,456h61v1h-61zM349,456h61v1h-61zM447,456h44v1h-44zM21,457h45v1h-45zM101,457h61v1h-61zM350,457h61v1h-61zM446,457h45v1h-45zM21,458h45v1h-45zM100,458h61v1h-61zM351,458h61v1h-61zM446,458h45v1h-45zM21,459h45v1h-45zM99,459h61v1h-61zM352,459h61v1h-61zM446,459h45v1h-45zM22,460h45v1h-45zM98,460h61v1h-61zM353,460h61v1h-61zM445,460h45v1h-45zM22,461h46v1h-46zM97,461h61v1h-61zM354,461h61v1h-61zM444,461h46v1h-46zM22,462h46v1h-46zM96,462h61v1h-61zM355,462h61v1h-61zM444,462h46v1h-46zM22,463h47v1h-47zM95,463h61v1h-61zM356,463h61v1h-61zM443,463h47v1h-47zM22,464h48v1h-48zM94,464h61v1h-61zM357,464h61v1h-61zM442,464h48v1h-48zM23,465h49v1h-49zM92,465h62v1h-62zM358,465h62v1h-62zM440,465h49v1h-49zM23,466h50v1h-50zM91,466h62v1h-62zM359,466h62v1h-62zM439,466h50v1h-50zM23,467h52v1h-52zM89,467h63v1h-63zM360,467h63v1h-63zM437,467h52v1h-52zM23,468h55v1h-55zM86,468h65v1h-65zM361,468h65v1h-65zM433,468h56v1h-56zM24,469h126v1h-126zM362,469h126v1h-126zM24,470h125v1h-125zM363,470h125v1h-125zM24,471h124v1h-124zM364,471h124v1h-124zM25,472h122v1h-122zM365,472h122v1h-122zM25,473h121v1h-121zM366,473h121v1h-121zM25,474h120v1h-120zM367,474h120v1h-120zM26,475h118v1h-118zM368,475h118v1h-118zM26,476h117v1h-117zM369,476h117v1h-117zM27,477h115v1h-115zM370,477h115v1h-115zM27,478h114v1h-114zM371,478h114v1h-114zM28,479h112v1h-112zM372,479h112v1h-112zM28,480h111v1h-111zM373,480h111v1h-111zM29,481h109v1h-109zM374,481h109v1h-109zM29,482h108v1h-108zM375,482h108v1h-108zM30,483h106v1h-106zM376,483h106v1h-106zM31,484h104v1h-104zM377,484h104v1h-104zM31,485h103v1h-103zM378,485h103v1h-103zM32,486h101v1h-101zM379,486h101v1h-101zM33,487h99v1h-99zM380,487h99v1h-99zM33,488h98v1h-98zM381,488h98v1h-98zM34,489h96v1h-96zM382,489h96v1h-96zM35,490h94v1h-94zM383,490h94v1h-94zM36,491h92v1h-92zM384,491h92v1h-92zM37,492h90v1h-90zM385,492h90v1h-90zM38,493h88v1h-88zM386,493h88v1h-88zM39,494h86v1h-86zM387,494h86v1h-86zM40,495h84v1h-84zM388,495h84v1h-84zM41,496h82v1h-82zM389,496h82v1h-82zM42,497h80v1h-80zM390,497h80v1h-80zM43,498h78v1h-78zM391,498h78v1h-78zM45,499h74v1h-74zM393,499h75v1h-75zM46,500h72v1h-72zM394,500h72v1h-72zM47,501h70v1h-70zM395,501h70v1h-70zM49,502h66v1h-66zM397,502h66v1h-66zM50,503h64v1h-64zM398,503h64v1h-64zM52,504h60v1h-60zM400,504h60v1h-60zM54,505h56v1h-56zM402,505h56v1h-56zM56,506h52v1h-52zM404,506h52v1h-52zM58,507h48v1h-48zM406,507h48v1h-48zM61,508h43v1h-43zM409,508h42v1h-42zM64,509h37v1h-37zM412,509h36v1h-36zM64,510h37v1h-37zM412,510h36v1h-36zM64,511h37v1h-37zM412,511h36v1h-36z"/></svg>