<svg xmlns="http://www.w3.org/2000/svg" viewBox="0 0 512 512" width="512" height="512"><path fill="#000" d="M96,21h320v1h-320zM89,22h334v1h-334zM84,23h344v1h-344zM79,24h354v1h-354zM76,25h360v1h-360zM73,26h366v1h-366zM70,27h372v1h-372zM67,28h378v1h-378zM65,29h382v1h-382zM63,30h386v1h-386zM60,31h392v1h-392zM58,32h396v1h-396zM56,33h400v1h-400zM55,34h402v1h-402zM53,35h406v1h-406zM51,36h410v1h-410zM50,37h412v1h-412zM48,38h416v1h-416zM47,39h418v1h-418zM45,40h422v1h-422zM44,41h424v1h-424zM42,42h428v1h-428zM41,43h430v1h-430zM40,44h432v1h-432zM39,45h434v1h-434zM37,46h438v1h-438zM36,47h440v1h-440zM35,48h442v1h-442zM34,49h444v1h-444zM33,50h446v1h-446zM32,51h448v1h-448zM31,52h450v1h-450zM30,53h452v1h-452zM29,54h454v1h-454zM28,55h456v1h-456zM27,56h458v1h-458zM26,57h460v1h-460zM25,58h462v1h-462zM25,59h463v1h-463zM24,60h464v1h-464zM23,61h466v1h-466zM22,62h468v1h-468zM21,63h470v1h-470zM21,64h82v1h-82zM409,64h82v1h-82zM20,65h75v1h-75zM417,65h75v1h-75zM19,66h71v1h-71zM422,66h71v1h-71zM18,67h69v1h-69zM425,67h69v1h-69zM18,68h66v1h-66zM428,68h66v1h-66zM17,69h65v1h-65zM430,69h65v1h-65zM16,70h63v1h-63zM433,70h63v1h-63zM16,71h61v1h-61zM435,71h61v1h-61zM15,72h61v1h-61zM436,72h61v1h-61zM15,73h59v1h-59zM438,73h59v1h-59zM14,74h58v1h-58zM440,74h58v1h-58zM13,75h58v1h-58zM441,75h58v1h-58zM13,76h56v1h-56zM443,76h56v1h-56zM12,77h56v1h-56zM444,77h56v1h-56zM12,78h55v1h-55zM445,78h55v1h-55zM11,79h55v1h-55zM446,79h55v1h-55zM11,80h53v1h-53zM448,80h53v1h-53zM10,81h53v1h-53zM449,81h53v1h-53zM10,82h52v1h-52zM450,82h52v1h-52zM9,83h52v1h-52zM451,83h52v1h-52zM9,84h51v1h-51zM452,84h51v1h-51zM8,85h51v1h-51zM453,85h51v1h-51zM8,86h50v1h-50zM454,86h50v1h-50zM8,87h50v1h-50zM454,87h50v1h-50zM7,88h50v1h-50zM455,88h50v1h-50zM7,89h49v1h-49zM456,89h49v1h-49zM6,90h49v1h-49zM457,90h49v1h-49zM6,91h49v1h-49zM457,91h49v1h-49zM6,92h48v1h-48zM458,92h48v1h-48zM5,93h48v1h-48zM459,93h48v1h-48zM5,94h48v1h-48zM459,94h48v1h-48zM5,95h47v1h-47zM460,95h47v1h-47zM4,96h47v1h-47zM461,96h47v1h-47zM4,97h47v1h-47zM461,97h47v1h-47zM4,98h46v1h-46zM462,98h46v1h-46zM4,99h46v1h-46zM462,99h46v1h-46zM3,100h46v1h-46zM463,100h46v1h-46zM3,101h46v1h-46zM463,101h46v1h-46zM3,102h45v1h-45zM464,102h45v1h-45zM0,103h48v1h-48zM464,103h45v1h-45zM0,104h48v1h-48zM464,104h48v1h-48zM0,105h47v1h-47zM465,105h47v1h-47zM0,106h47v1h-47zM465,106h47v1h-47zM0,107h46v1h-46zM466,107h46v1h-46zM0,108h46v1h-46zM466,108h46v1h-46zM0,109h46v1h-46zM466,109h46v1h-46zM0,110h45v1h-45zM467,110h45v1h-45zM0,111h45v1h-45zM467,111h45v1h-45zM0,112h45v1h-45zM467,112h45v1h-45zM0,113h45v1h-45zM467,113h45v1h-45zM0,114h44v1h-44zM468,114h44v1h-44zM0,115h44v1h-44zM468,115h44v1h-44zM0,116h44v1h-44zM468,116h44v1h-44zM0,117h44v1h-44zM468,117h44v1h-44zM0,118h44v1h-44zM468,118h44v1h-44zM0,119h44v1h-44zM468,119h44v1h-44zM0,120h43v1h-43zM468,120h44v1h-44zM0,121h43v1h-43zM469,121h43v1h-43zM0,122h43v1h-43zM469,122h43v1h-43zM0,123h43v1h-43zM469,123h43v1h-43zM0,124h43v1h-43zM469,124h43v1h-43zM0,125h43v1h-43zM469,125h43v1h-43zM0,126h43v1h-43zM469,126h43v1h-43zM0,127h43v1h-43zM469,127h43v1h-43zM0,128h43v1h-43zM469,128h43v1h-43zM0,129h43v1h-43zM469,129h43v1h-43zM0,130h43v1h-43zM469,130h43v1h-43zM0,131h43v1h-43zM469,131h43v1h-43zM0,132h43v1h-43zM469,132h43v1h-43zM0,133h43v1h-43zM469,133h43v1h-43zM0,134h43v1h-43zM469,134h43v1h-43zM0,135h43v1h-43zM469,135h43v1h-43zM0,136h43v1h-43zM469,136h43v1h-43zM0,137h43v1h-43zM469,137h43v1h-43zM0,138h43v1h-43zM469,138h43v1h-43zM0,139h43v1h-43zM469,139h43v1h-43zM0,140h43v1h-43zM469,140h43v1h-43zM0,141h43v1h-43zM469,141h43v1h-43zM0,142h43v1h-43zM469,142h43v1h-43zM0,143h43v1h-43zM469,143h43v1h-43zM0,144h43v1h-43zM469,144h43v1h-43zM0,145h43v1h-43zM469,145h43v1h-43zM0,146h43v1h-43zM469,146h43v1h-43zM0,147h43v1h-43zM469,147h43v1h-43zM0,148h43v1h-43zM469,148h43v1h-43zM0,149h43v1h-43zM469,149h43v1h-43zM0,150h43v1h-43zM469,150h43v1h-43zM0,151h43v1h-43zM469,151h43v1h-43zM0,152h43v1h-43zM469,152h43v1h-43zM0,153h43v1h-43zM469,153h43v1h-43zM0,154h43v1h-43zM469,154h43v1h-43zM0,155h43v1h-43zM469,155h43v1h-43zM0,156h43v1h-43zM469,156h43v1h-43zM0,157h43v1h-43zM469,157h43v1h-43zM0,158h43v1h-43zM469,158h43v1h-43zM0,159h43v1h-43zM469,159h43v1h-43zM0,160h43v1h-43zM469,160h43v1h-43zM0,161h43v1h-43zM469,161h43v1h-43zM0,162h43v1h-43zM469,162h43v1h-43zM0,163h43v1h-43zM469,163h43v1h-43zM0,164h43v1h-43zM469,164h43v1h-43zM0,165h43v1h-43zM469,165h43v1h-43zM0,166h43v1h-43zM469,166h43v1h-43zM0,167h43v1h-43zM469,167h43v1h-43zM0,168h43v1h-43zM469,168h43v1h-43zM0,169h43v1h-43zM469,169h43v1h-43zM0,170h43v1h-43zM469,170h43v1h-43zM0,171h43v1h-43zM469,171h43v1h-43zM0,172h43v1h-43zM469,172h43v1h-43zM0,173h43v1h-43zM469,173h43v1h-43zM0,174h43v1h-43zM469,174h43v1h-43zM0,175h43v1h-43zM469,175h43v1h-43zM0,176h43v1h-43zM469,176h43v1h-43zM0,177h43v1h-43zM469,177h43v1h-43zM0,178h43v1h-43zM469,178h43v1h-43zM0,179h43v1h-43zM469,179h43v1h-43zM0,180h43v1h-43zM469,180h43v1h-43zM0,181h43v1h-43zM469,181h43v1h-43zM0,182h43v1h-43zM469,182h43v1h-43zM0,183h43v1h-43zM469,183h43v1h-43zM0,184h43v1h-43zM469,184h43v1h-43zM0,185h43v1h-43zM469,185h43v1h-43zM0,186h43v1h-43zM469,186h43v1h-43zM0,187h43v1h-43zM469,187h43v1h-43zM0,188h43v1h-43zM469,188h43v1h-43zM0,189h43v1h-43zM469,189h43v1h-43zM0,190h43v1h-43zM469,190h43v1h-43zM0,191h43v1h-43zM469,191h43v1h-43zM0,192h43v1h-43zM469,192h43v1h-43zM0,193h43v1h-43zM469,193h43v1h-43zM0,194h43v1h-43zM469,194h43v1h-43zM0,195h43v1h-43zM469,195h43v1h-43zM0,196h43v1h-43zM469,196h43v1h-43zM0,197h43v1h-43zM469,197h43v1h-43zM0,198h43v1h-43zM469,198h43v1h-43zM0,199h43v1h-43zM469,199h43v1h-43zM0,200h43v1h-43zM469,200h43v1h-43zM0,201h43v1h-43zM469,201h43v1h-43zM0,202h43v1h-43zM469,202h43v1h-43zM0,203h43v1h-43zM469,203h43v1h-43zM0,204h43v1h-43zM469,204h43v1h-43zM0,205h43v1h-43zM469,205h43v1h-43zM0,206h43v1h-43zM469,206h43v1h-43zM0,207h43v1h-43zM469,207h43v1h-43zM0,208h43v1h-43zM469,208h43v1h-43zM0,209h43v1h-43zM469,209h43v1h-43zM0,210h43v1h-43zM469,210h43v1h-43zM0,211h43v1h-43zM469,211h43v1h-43zM0,212h43v1h-43zM469,212h43v1h-43zM0,213h43v1h-43zM469,213h43v1h-43zM0,214h43v1h-43zM469,214h43v1h-43zM0,215h43v1h-43zM469,215h43v1h-43zM0,216h43v1h-43zM469,216h43v1h-43zM0,217h43v1h-43zM469,217h43v1h-43zM0,218h43v1h-43zM469,218h43v1h-43zM0,219h43v1h-43zM469,219h43v1h-43zM0,220h43v1h-43zM469,220h43v1h-43zM0,221h43v1h-43zM469,221h43v1h-43zM0,222h43v1h-43zM469,222h43v1h-43zM0,223h43v1h-43zM469,223h43v1h-43zM0,224h43v1h-43zM469,224h43v1h-43zM0,225h43v1h-43zM469,225h43v1h-43zM0,226h43v1h-43zM469,226h43v1h-43zM0,227h43v1h-43zM469,227h43v1h-43zM0,228h43v1h-43zM469,228h43v1h-43zM0,229h43v1h-43zM469,229h43v1h-43zM0,230h43v1h-43zM469,230h43v1h-43zM0,231h43v1h-43zM469,231h43v1h-43zM0,232h43v1h-43zM469,232h43v1h-43zM0,233h43v1h-43zM469,233h43v1h-43zM0,234h43v1h-43zM469,234h43v1h-43zM0,235h43v1h-43zM469,235h43v1h-43zM0,236h43v1h-43zM469,236h43v1h-43zM0,237h43v1h-43zM469,237h43v1h-43zM0,238h43v1h-43zM469,238h43v1h-43zM0,239h43v1h-43zM469,239h43v1h-43zM0,240h43v1h-43zM469,240h43v1h-43zM0,241h43v1h-43zM469,241h43v1h-43zM0,242h43v1h-43zM469,242h43v1h-43zM0,243h43v1h-43zM469,243h43v1h-43zM0,244h43v1h-43zM469,244h43v1h-43zM0,245h43v1h-43zM469,245h43v1h-43zM0,246h43v1h-43zM469,246h43v1h-43zM0,247h43v1h-43zM469,247h43v1h-43zM0,248h43v1h-43zM469,248h43v1h-43zM0,249h43v1h-43zM469,249h43v1h-43zM0,250h43v1h-43zM469,250h43v1h-43zM0,251h43v1h-43zM469,251h43v1h-43zM0,252h43v1h-43zM469,252h43v1h-43zM0,253h43v1h-43zM469,253h43v1h-43zM0,254h43v1h-43zM469,254h43v1h-43zM0,255h43v1h-43zM469,255h43v1h-43zM0,256h43v1h-43zM469,256h43v1h-43zM0,257h43v1h-43zM469,257h43v1h-43zM0,258h43v1h-43zM469,258h43v1h-43zM0,259h43v1h-43zM469,259h43v1h-43zM0,260h43v1h-43zM469,260h43v1h-43zM0,261h43v1h-43zM469,261h43v1h-43zM0,262h43v1h-43zM469,262h43v1h-43zM0,263h43v1h-43zM469,263h43v1h-43zM0,264h43v1h-43zM469,264h43v1h-43zM0,265h43v1h-43zM469,265h43v1h-43zM0,266h43v1h-43zM469,266h43v1h-43zM0,267h43v1h-43zM469,267h43v1h-43zM0,268h43v1h-43zM469,268h43v1h-43zM0,269h43v1h-43zM469,269h43v1h-43zM0,270h43v1h-43zM469,270h43v1h-43zM0,271h43v1h-43zM469,271h43v1h-43zM0,272h43v1h-43zM469,272h43v1h-43zM0,273h43v1h-43zM469,273h43v1h-43zM0,274h43v1h-43zM469,274h43v1h-43zM0,275h43v1h-43zM469,275h43v1h-43zM0,276h43v1h-43zM469,276h43v1h-43zM0,277h512v1h-512zM0,278h512v1h-512zM0,279h512v1h-512zM0,280h512v1h-512zM0,281h512v1h-512zM0,282h512v1h-512zM0,283h512v1h-512zM0,284h512v1h-512zM0,285h512v1h-512zM0,286h512v1h-512zM0,287h512v1h-512zM0,288h512v1h-512zM0,289h512v1h-512zM0,290h512v1h-512zM0,291h512v1h-512zM0,292h512v1h-512zM0,293h512v1h-512zM0,294h512v1h-512zM0,295h512v1h-512zM0,296h512v1h-512zM0,297h512v1h-512zM0,298h512v1h-512zM0,299h512v1h-512zM0,300h512v1h-512zM0,301h512v1h-512zM0,302h512v1h-512zM0,303h512v1h-512zM0,304h512v1h-512zM0,305h512v1h-512zM0,306h512v1h-512zM0,307h512v1h-512zM0,308h512v1h-512zM0,309h512v1h-512zM0,310h512v1h-512zM0,311h512v1h-512zM0,312h512v1h-512zM0,313h512v1h-512zM0,314h512v1h-512zM0,315h512v1h-512zM0,316h512v1h-512zM0,317h512v1h-512zM0,318h512v1h-512zM0,319h512v1h-512zM0,320h49v1h-49zM463,320h49v1h-49zM0,321h49v1h-49zM463,321h49v1h-49zM0,322h49v1h-49zM463,322h49v1h-49zM3,323h46v1h-46zM463,323h46v1h-46zM3,324h46v1h-46zM463,324h46v1h-46zM3,325h46v1h-46zM463,325h46v1h-46zM3,326h47v1h-47zM462,326h47v1h-47zM4,327h46v1h-46zM462,327h46v1h-46zM4,328h47v1h-47zM461,328h47v1h-47zM4,329h47v1h-47zM461,329h47v1h-47zM4,330h48v1h-48zM460,330h48v1h-48zM5,331h47v1h-47zM460,331h47v1h-47zM5,332h48v1h-48zM459,332h48v1h-48zM5,333h49v1h-49zM458,333h48v1h-48zM6,334h48v1h-48zM458,334h48v1h-48zM6,335h49v1h-49zM457,335h49v1h-49zM7,336h49v1h-49zM456,336h49v1h-49zM7,337h50v1h-50zM455,337h50v1h-50zM7,338h50v1h-50zM455,338h50v1h-50zM8,339h50v1h-50zM454,339h50v1h-50zM8,340h51v1h-51zM453,340h51v1h-51zM9,341h51v1h-51zM452,341h51v1h-51zM9,342h52v1h-52zM451,342h52v1h-52zM10,343h52v1h-52zM450,343h52v1h-52zM10,344h53v1h-53zM449,344h53v1h-53zM10,345h54v1h-54zM448,345h54v1h-54zM11,346h54v1h-54zM447,346h54v1h-54zM11,347h55v1h-55zM446,347h55v1h-55zM12,348h55v1h-55zM445,348h55v1h-55zM13,349h56v1h-56zM443,349h56v1h-56zM13,350h57v1h-57zM442,350h57v1h-57zM14,351h58v1h-58zM440,351h58v1h-58zM14,352h59v1h-59zM439,352h59v1h-59zM15,353h60v1h-60zM437,353h60v1h-60zM15,354h62v1h-62zM436,354h61v1h-61zM16,355h62v1h-62zM434,355h62v1h-62zM17,356h64v1h-64zM432,356h63v1h-63zM17,357h66v1h-66zM429,357h66v1h-66zM18,358h67v1h-67zM427,358h67v1h-67zM19,359h69v1h-69zM424,359h69v1h-69zM19,360h73v1h-73zM420,360h73v1h-73zM20,361h77v1h-77zM415,361h77v1h-77zM21,362h470v1h-470zM22,363h468v1h-468zM22,364h468v1h-468zM23,365h466v1h-466zM24,366h464v1h-464zM25,367h462v1h-462zM26,368h460v1h-460zM27,369h458v1h-458zM27,370h458v1h-458zM28,371h456v1h-456zM29,372h454v1h-454zM30,373h452v1h-452zM31,374h450v1h-450zM32,375h448v1h-448zM33,376h446v1h-446zM34,377h444v1h-444zM36,378h441v1h-441zM37,379h438v1h-438zM38,380h436v1h-436zM39,381h434v1h-434zM40,382h432v1h-432zM42,383h428v1h-428zM43,384h426v1h-426zM44,385h424v1h-424zM46,386h420v1h-420zM47,387h418v1h-418zM49,388h414v1h-414zM50,389h412v1h-412zM52,390h408v1h-408zM54,391h405v1h-405zM55,392h402v1h-402zM57,393h398v1h-398zM59,394h394v1h-394zM61,395h390v1h-390zM63,396h386v1h-386zM66,397h380v1h-380zM68,398h376v1h-376zM71,399h370v1h-370zM74,400h364v1h-364zM77,401h358v1h-358zM81,402h350v1h-350zM85,403h342v1h-342zM91,404h330v1h-330zM100,405h312v1h-312zM234,406h44v1h-44zM234,407h44v1h-44zM234,408h44v1h-44zM234,409h44v1h-44zM234,410h44v1h-44zM234,411h44v1h-44zM234,412h44v1h-44zM234,413h44v1h-44zM234,414h44v1h-44zM234,415h44v1h-44zM234,416h44v1h-44zM234,417h44v1h-44zM234,418h44v1h-44zM234,419h44v1h-44zM234,420h44v1h-44zM234,421h44v1h-44zM234,422h44v1h-44zM234,423h44v1h-44zM234,424h44v1h-44zM234,425h44v1h-44zM234,426h44v1h-44zM234,427h44v1h-44zM234,428h44v1h-44zM234,429h44v1h-44zM234,430h44v1h-44zM234,431h44v1h-44zM234,432h44v1h-44zM234,433h44v1h-44zM234,434h44v1h-44zM234,435h44v1h-44zM234,436h44v1h-44zM234,437h44v1h-44zM234,438h44v1h-44zM234,439h44v1h-44zM234,440h44v1h-44zM234,441h44v1h-44zM234,442h44v1h-44zM234,443h44v1h-44zM234,444h44v1h-44zM234,445h44v1h-44zM234,446h44v1h-44zM234,447h44v1h-44zM143,448h226v1h-226zM141,449h230v1h-230zM139,450h234v1h-234zM137,451h238v1h-238zM136,452h240v1h-240zM135,453h242v1h-242zM134,454h244v1h-244zM133,455h246v1h-246zM132,456h248v1h-248zM131,457h250v1h-250zM131,458h250v1h-250zM130,459h252v1h-252zM130,460h252v1h-252zM129,461h254v1h-254zM129,462h254v1h-254zM128,463h256v1h-256zM128,464h256v1h-256zM128,465h256v1h-256zM128,466h256v1h-256zM128,467h256v1h-256zM128,468h256v1h-256zM128,469h256v1h-256zM128,470h256v1h-256zM128,471h256v1h-256zM128,472h256v1h-256zM128,473h256v1h-256zM128,474h256v1h-256zM129,475h254v1h-254zM129,476h254v1h-254zM129,477h254v1h-254zM130,478h252v1h-252zM130,479h252v1h-252zM131,480h250v1h-250zM131,481h250v1h-250zM132,482h248v1h-248zM133,483h246v1h-246zM134,484h244v1h-244zM135,485h242v1h-242zM136,486h240v1h-240zM138,487h237v1h-237zM139,488h234v1h-234zM141,489h230v1h-230zM145,490h222v1h-222z"/></svg>