<svg xmlns="http://www.w3.org/2000/svg" viewBox="0 0 512 512" width="512" height="512"><path fill="#000" d="M245,0h22v1h-22zM245,1h22v1h-22zM245,2h22v1h-22zM244,3h24v1h-24zM242,4h28v1h-28zM241,5h30v1h-30zM240,6h32v1h-32zM239,7h34v1h-34zM239,8h34v1h-34zM238,9h36v1h-36zM237,10h38v1h-38zM237,11h38v1h-38zM236,12h40v1h-40zM236,13h40v1h-40zM235,14h42v1h-42zM235,15h42v1h-42zM235,16h42v1h-42zM235,17h42v1h-42zM234,18h44v1h-44zM234,19h44v1h-44zM234,20h44v1h-44zM234,21h44v1h-44zM234,22h44v1h-44zM234,23h44v1h-44zM234,24h44v1h-44zM234,25h44v1h-44zM234,26h44v1h-44zM234,27h44v1h-44zM234,28h44v1h-44zM234,29h44v1h-44zM234,30h44v1h-44zM234,31h44v1h-44zM234,32h44v1h-44zM234,33h44v1h-44zM234,34h44v1h-44zM234,35h44v1h-44zM234,36h44v1h-44zM234,37h44v1h-44zM234,38h44v1h-44zM234,39h44v1h-44zM234,40h44v1h-44zM234,41h44v1h-44zM234,42h44v1h-44zM234,43h44v1h-44zM234,44h44v1h-44zM234,45h44v1h-44zM234,46h44v1h-44zM234,47h44v1h-44zM234,48h44v1h-44zM234,49h44v1h-44zM234,50h44v1h-44zM234,51h44v1h-44zM234,52h44v1h-44zM234,53h44v1h-44zM234,54h44v1h-44zM234,55h44v1h-44zM234,56h44v1h-44zM234,57h44v1h-44zM234,58h44v1h-44zM234,59h44v1h-44zM234,60h44v1h-44zM234,61h44v1h-44zM234,62h44v1h-44zM234,63h44v1h-44zM234,64h44v1h-44zM234,65h44v1h-44zM234,66h44v1h-44zM234,67h44v1h-44zM234,68h44v1h-44zM234,69h44v1h-44zM234,70h44v1h-44zM234,71h44v1h-44zM234,72h44v1h-44zM234,73h44v1h-44zM234,74h44v1h-44zM234,75h44v1h-44zM234,76h44v1h-44zM234,77h44v1h-44zM234,78h44v1h-44zM234,79h44v1h-44zM234,80h44v1h-44zM234,81h44v1h-44zM234,82h44v1h-44zM234,83h44v1h-44zM234,84h44v1h-44zM234,85h44v1h-44zM234,86h44v1h-44zM234,87h44v1h-44zM234,88h44v1h-44zM234,89h44v1h-44zM234,90h44v1h-44zM234,91h44v1h-44zM234,92h44v1h-44zM234,93h44v1h-44zM234,94h44v1h-44zM234,95h44v1h-44zM234,96h44v1h-44zM234,97h44v1h-44zM234,98h44v1h-44zM234,99h44v1h-44zM234,100h44v1h-44zM234,101h44v1h-44zM234,102h44v1h-44zM234,103h44v1h-44zM234,104h44v1h-44zM234,105h44v1h-44zM234,106h44v1h-44zM234,107h44v1h-44zM234,108h44v1h-44zM234,109h44v1h-44zM234,110h44v1h-44zM234,111h44v1h-44zM234,112h44v1h-44zM234,113h44v1h-44zM234,114h44v1h-44zM234,115h44v1h-44zM234,116h44v1h-44zM234,117h44v1h-44zM234,118h44v1h-44zM234,119h44v1h-44zM234,120h44v1h-44zM234,121h44v1h-44zM234,122h44v1h-44zM234,123h44v1h-44zM234,124h44v1h-44zM234,125h44v1h-44zM234,126h44v1h-44zM234,127h44v1h-44zM234,128h44v1h-44zM234,129h44v1h-44zM234,130h44v1h-44zM234,131h44v1h-44zM234,132h44v1h-44zM234,133h44v1h-44zM234,134h44v1h-44zM234,135h44v1h-44zM234,136h44v1h-44zM234,137h44v1h-44zM234,138h44v1h-44zM234,139h44v1h-44zM234,140h44v1h-44zM234,141h44v1h-44zM234,142h44v1h-44zM234,143h44v1h-44zM234,144h44v1h-44zM234,145h44v1h-44zM234,146h44v1h-44zM234,147h44v1h-44zM234,148h44v1h-44zM234,149h44v1h-44zM234,150h44v1h-44zM234,151h44v1h-44zM234,152h44v1h-44zM234,153h44v1h-44zM234,154h44v1h-44zM234,155h44v1h-44zM234,156h44v1h-44zM234,157h44v1h-44zM234,158h44v1h-44zM234,159h44v1h-44zM234,160h44v1h-44zM234,161h44v1h-44zM234,162h44v1h-44zM234,163h44v1h-44zM234,164h44v1h-44zM234,165h44v1h-44zM234,166h44v1h-44zM234,167h44v1h-44zM234,168h44v1h-44zM234,169h44v1h-44zM234,170h44v1h-44zM234,171h44v1h-44zM234,172h44v1h-44zM234,173h44v1h-44zM234,174h44v1h-44zM234,175h44v1h-44zM234,176h44v1h-44zM234,177h44v1h-44zM234,178h44v1h-44zM234,179h44v1h-44zM234,180h44v1h-44zM234,181h44v1h-44zM234,182h44v1h-44zM234,183h44v1h-44zM234,184h44v1h-44zM234,185h44v1h-44zM234,186h44v1h-44zM234,187h44v1h-44zM234,188h44v1h-44zM234,189h44v1h-44zM234,190h44v1h-44zM234,191h44v1h-44zM234,192h44v1h-44zM234,193h44v1h-44zM234,194h44v1h-44zM234,195h44v1h-44zM234,196h44v1h-44zM234,197h44v1h-44zM234,198h44v1h-44zM234,199h44v1h-44zM234,200h44v1h-44zM234,201h44v1h-44zM234,202h44v1h-44zM234,203h44v1h-44zM234,204h44v1h-44zM234,205h44v1h-44zM234,206h44v1h-44zM234,207h44v1h-44zM234,208h44v1h-44zM234,209h44v1h-44zM234,210h44v1h-44zM234,211h44v1h-44zM234,212h44v1h-44zM234,213h44v1h-44zM234,214h44v1h-44zM234,215h44v1h-44zM234,216h44v1h-44zM234,217h44v1h-44zM234,218h44v1h-44zM234,219h44v1h-44zM234,220h44v1h-44zM234,221h44v1h-44zM234,222h44v1h-44zM234,223h44v1h-44zM234,224h44v1h-44zM234,225h44v1h-44zM234,226h44v1h-44zM234,227h44v1h-44zM234,228h44v1h-44zM234,229h44v1h-44zM234,230h44v1h-44zM234,231h44v1h-44zM234,232h44v1h-44zM234,233h44v1h-44zM234,234h44v1h-44zM234,235h44v1h-44zM234,236h44v1h-44zM234,237h44v1h-44zM234,238h44v1h-44zM234,239h44v1h-44zM234,240h44v1h-44zM234,241h44v1h-44zM234,242h44v1h-44zM234,243h44v1h-44zM234,244h44v1h-44zM234,245h44v1h-44zM234,246h44v1h-44zM234,247h44v1h-44zM234,248h44v1h-44zM234,249h44v1h-44zM234,250h44v1h-44zM234,251h44v1h-44zM234,252h44v1h-44zM234,253h44v1h-44zM234,254h44v1h-44zM234,255h44v1h-44zM234,256h44v1h-44zM234,257h44v1h-44zM234,258h44v1h-44zM234,259h44v1h-44zM234,260h44v1h-44zM234,261h44v1h-44zM234,262h44v1h-44zM234,263h44v1h-44zM234,264h44v1h-44zM234,265h44v1h-44zM234,266h44v1h-44zM234,267h44v1h-44zM234,268h44v1h-44zM234,269h44v1h-44zM234,270h44v1h-44zM234,271h44v1h-44zM234,272h44v1h-44zM234,273h44v1h-44zM234,274h44v1h-44zM234,275h44v1h-44zM234,276h44v1h-44zM234,277h44v1h-44zM234,278h44v1h-44zM234,279h44v1h-44zM234,280h44v1h-44zM155,281h4v1h-4zM234,281h44v1h-44zM150,282h14v1h-14zM234,282h44v1h-44zM350,282h8v1h-8zM148,283h19v1h-19zM234,283h44v1h-44zM346,283h16v1h-16zM146,284h22v1h-22zM234,284h44v1h-44zM344,284h20v1h-20zM145,285h25v1h-25zM234,285h44v1h-44zM342,285h24v1h-24zM143,286h28v1h-28zM234,286h44v1h-44zM341,286h26v1h-26zM142,287h30v1h-30zM234,287h44v1h-44zM340,287h28v1h-28zM141,288h32v1h-32zM234,288h44v1h-44zM339,288h30v1h-30zM140,289h34v1h-34zM234,289h44v1h-44zM338,289h32v1h-32zM140,290h35v1h-35zM234,290h44v1h-44zM337,290h34v1h-34zM139,291h37v1h-37zM234,291h44v1h-44zM336,291h36v1h-36zM138,292h39v1h-39zM234,292h44v1h-44zM335,292h37v1h-37zM138,293h40v1h-40zM234,293h44v1h-44zM334,293h39v1h-39zM137,294h42v1h-42zM234,294h44v1h-44zM333,294h41v1h-41zM137,295h43v1h-43zM234,295h44v1h-44zM332,295h42v1h-42zM137,296h44v1h-44zM234,296h44v1h-44zM331,296h43v1h-43zM136,297h46v1h-46zM234,297h44v1h-44zM330,297h45v1h-45zM136,298h47v1h-47zM234,298h44v1h-44zM329,298h46v1h-46zM136,299h48v1h-48zM234,299h44v1h-44zM328,299h47v1h-47zM136,300h49v1h-49zM234,300h44v1h-44zM327,300h48v1h-48zM136,301h50v1h-50zM234,301h44v1h-44zM326,301h50v1h-50zM136,302h51v1h-51zM234,302h44v1h-44zM325,302h51v1h-51zM136,303h52v1h-52zM234,303h44v1h-44zM324,303h52v1h-52zM136,304h53v1h-53zM234,304h44v1h-44zM323,304h53v1h-53zM136,305h54v1h-54zM234,305h44v1h-44zM322,305h54v1h-54zM136,306h55v1h-55zM234,306h44v1h-44zM321,306h54v1h-54zM136,307h56v1h-56zM234,307h44v1h-44zM320,307h55v1h-55zM136,308h57v1h-57zM234,308h44v1h-44zM319,308h56v1h-56zM137,309h57v1h-57zM234,309h44v1h-44zM318,309h57v1h-57zM137,310h58v1h-58zM234,310h44v1h-44zM317,310h58v1h-58zM137,311h59v1h-59zM234,311h44v1h-44zM316,311h58v1h-58zM138,312h59v1h-59zM234,312h44v1h-44zM315,312h59v1h-59zM138,313h60v1h-60zM234,313h44v1h-44zM314,313h59v1h-59zM139,314h60v1h-60zM234,314h44v1h-44zM313,314h60v1h-60zM140,315h60v1h-60zM234,315h44v1h-44zM312,315h60v1h-60zM140,316h61v1h-61zM234,316h44v1h-44zM311,316h61v1h-61zM141,317h61v1h-61zM234,317h44v1h-44zM310,317h61v1h-61zM142,318h61v1h-61zM234,318h44v1h-44zM309,318h61v1h-61zM143,319h61v1h-61zM234,319h44v1h-44zM308,319h61v1h-61zM144,320h61v1h-61zM234,320h44v1h-44zM307,320h61v1h-61zM145,321h61v1h-61zM234,321h44v1h-44zM306,321h61v1h-61zM146,322h61v1h-61zM234,322h44v1h-44zM305,322h61v1h-61zM147,323h61v1h-61zM234,323h44v1h-44zM304,323h61v1h-61zM148,324h61v1h-61zM234,324h44v1h-44zM303,324h61v1h-61zM149,325h61v1h-61zM234,325h44v1h-44zM302,325h61v1h-61zM150,326h61v1h-61zM234,326h44v1h-44zM301,326h61v1h-61zM151,327h61v1h-61zM234,327h44v1h-44zM300,327h61v1h-61zM152,328h61v1h-61zM234,328h44v1h-44zM299,328h61v1h-61zM153,329h61v1h-61zM234,329h44v1h-44zM298,329h61v1h-61zM154,330h61v1h-61zM234,330h44v1h-44zM297,330h61v1h-61zM155,331h61v1h-61zM234,331h44v1h-44zM296,331h61v1h-61zM156,332h61v1h-61zM234,332h44v1h-44zM295,332h61v1h-61zM157,333h61v1h-61zM234,333h44v1h-44zM294,333h61v1h-61zM158,334h61v1h-61zM234,334h44v1h-44zM293,334h61v1h-61zM159,335h61v1h-61zM234,335h44v1h-44zM292,335h61v1h-61zM160,336h61v1h-61zM234,336h44v1h-44zM291,336h61v1h-61zM161,337h61v1h-61zM234,337h44v1h-44zM290,337h61v1h-61zM162,338h61v1h-61zM234,338h44v1h-44zM289,338h61v1h-61zM163,339h61v1h-61zM234,339h44v1h-44zM288,339h61v1h-61zM164,340h61v1h-61zM234,340h44v1h-44zM287,340h61v1h-61zM17,341h9v1h-9zM165,341h61v1h-61zM234,341h44v1h-44zM286,341h61v1h-61zM486,341h9v1h-9zM13,342h16v1h-16zM166,342h61v1h-61zM234,342h44v1h-44zM285,342h61v1h-61zM483,342h16v1h-16zM11,343h21v1h-21zM167,343h61v1h-61zM234,343h44v1h-44zM284,343h61v1h-61zM480,343h21v1h-21zM10,344h23v1h-23zM168,344h61v1h-61zM234,344h44v1h-44zM283,344h61v1h-61zM479,344h24v1h-24zM8,345h27v1h-27zM169,345h174v1h-174zM477,345h27v1h-27zM7,346h29v1h-29zM170,346h172v1h-172zM476,346h29v1h-29zM6,347h31v1h-31zM171,347h170v1h-170zM475,347h31v1h-31zM5,348h33v1h-33zM172,348h168v1h-168zM474,348h33v1h-33zM4,349h35v1h-35zM173,349h166v1h-166zM473,349h35v1h-35zM3,350h36v1h-36zM174,350h164v1h-164zM473,350h36v1h-36zM3,351h37v1h-37zM175,351h162v1h-162zM472,351h37v1h-37zM0,352h40v1h-40zM176,352h160v1h-160zM471,352h41v1h-41zM0,353h41v1h-41zM177,353h158v1h-158zM471,353h41v1h-41zM0,354h41v1h-41zM178,354h156v1h-156zM471,354h41v1h-41zM0,355h42v1h-42zM179,355h154v1h-154zM470,355h42v1h-42zM0,356h42v1h-42zM180,356h152v1h-152zM470,356h42v1h-42zM0,357h42v1h-42zM181,357h150v1h-150zM470,357h42v1h-42zM0,358h43v1h-43zM182,358h148v1h-148zM469,358h43v1h-43zM0,359h43v1h-43zM183,359h146v1h-146zM469,359h43v1h-43zM0,360h43v1h-43zM184,360h144v1h-144zM469,360h43v1h-43zM0,361h43v1h-43zM185,361h142v1h-142zM469,361h43v1h-43zM0,362h43v1h-43zM186,362h140v1h-140zM469,362h43v1h-43zM0,363h43v1h-43zM187,363h138v1h-138zM469,363h43v1h-43zM0,364h43v1h-43zM188,364h136v1h-136zM469,364h43v1h-43zM0,365h43v1h-43zM189,365h134v1h-134zM469,365h43v1h-43zM0,366h43v1h-43zM190,366h132v1h-132zM469,366h43v1h-43zM0,367h43v1h-43zM191,367h130v1h-130zM469,367h43v1h-43zM0,368h43v1h-43zM192,368h128v1h-128zM469,368h43v1h-43zM0,369h43v1h-43zM193,369h126v1h-126zM469,369h43v1h-43zM0,370h43v1h-43zM194,370h124v1h-124zM469,370h43v1h-43zM0,371h43v1h-43zM195,371h122v1h-122zM469,371h43v1h-43zM0,372h43v1h-43zM196,372h120v1h-120zM469,372h43v1h-43zM0,373h43v1h-43zM197,373h118v1h-118zM469,373h43v1h-43zM0,374h43v1h-43zM198,374h116v1h-116zM469,374h43v1h-43zM0,375h43v1h-43zM199,375h114v1h-114zM469,375h43v1h-43zM0,376h43v1h-43zM200,376h112v1h-112zM469,376h43v1h-43zM0,377h43v1h-43zM201,377h110v1h-110zM469,377h43v1h-43zM0,378h43v1h-43zM202,378h108v1h-108zM469,378h43v1h-43zM0,379h43v1h-43zM203,379h106v1h-106zM469,379h43v1h-43zM0,380h43v1h-43zM204,380h104v1h-104zM469,380h43v1h-43zM0,381h43v1h-43zM205,381h102v1h-102zM469,381h43v1h-43zM0,382h43v1h-43zM206,382h100v1h-100zM469,382h43v1h-43zM0,383h43v1h-43zM207,383h98v1h-98zM469,383h43v1h-43zM0,384h43v1h-43zM208,384h96v1h-96zM469,384h43v1h-43zM0,385h43v1h-43zM209,385h94v1h-94zM469,385h43v1h-43zM0,386h43v1h-43zM210,386h92v1h-92zM469,386h43v1h-43zM0,387h43v1h-43zM211,387h90v1h-90zM469,387h43v1h-43zM0,388h43v1h-43zM212,388h88v1h-88zM469,388h43v1h-43zM0,389h43v1h-43zM213,389h86v1h-86zM469,389h43v1h-43zM0,390h43v1h-43zM214,390h84v1h-84zM469,390h43v1h-43zM0,391h43v1h-43zM216,391h80v1h-80zM469,391h43v1h-43zM0,392h43v1h-43zM217,392h78v1h-78zM469,392h43v1h-43zM0,393h43v1h-43zM218,393h76v1h-76zM469,393h43v1h-43zM0,394h43v1h-43zM220,394h72v1h-72zM469,394h43v1h-43zM0,395h43v1h-43zM221,395h70v1h-70zM469,395h43v1h-43zM0,396h43v1h-43zM223,396h66v1h-66zM469,396h43v1h-43zM0,397h43v1h-43zM225,397h62v1h-62zM469,397h43v1h-43zM0,398h43v1h-43zM226,398h60v1h-60zM469,398h43v1h-43zM0,399h43v1h-43zM228,399h56v1h-56zM469,399h43v1h-43zM0,400h43v1h-43zM231,400h50v1h-50zM469,400h43v1h-43zM0,401h43v1h-43zM233,401h46v1h-46zM469,401h43v1h-43zM0,402h43v1h-43zM236,402h40v1h-40zM469,402h43v1h-43zM0,403h43v1h-43zM239,403h34v1h-34zM469,403h43v1h-43zM0,404h43v1h-43zM243,404h26v1h-26zM469,404h43v1h-43zM0,405h43v1h-43zM251,405h10v1h-10zM469,405h43v1h-43zM0,406h43v1h-43zM469,406h43v1h-43zM0,407h43v1h-43zM469,407h43v1h-43zM0,408h43v1h-43zM469,408h43v1h-43zM0,409h43v1h-43zM469,409h43v1h-43zM0,410h43v1h-43zM469,410h43v1h-43zM0,411h43v1h-43zM469,411h43v1h-43zM0,412h43v1h-43zM469,412h43v1h-43zM0,413h43v1h-43zM469,413h43v1h-43zM0,414h43v1h-43zM469,414h43v1h-43zM0,415h43v1h-43zM469,415h43v1h-43zM0,416h43v1h-43zM469,416h43v1h-43zM0,417h43v1h-43zM469,417h43v1h-43zM0,418h43v1h-43zM469,418h43v1h-43zM0,419h43v1h-43zM469,419h43v1h-43zM0,420h43v1h-43zM469,420h43v1h-43zM0,421h43v1h-43zM469,421h43v1h-43zM0,422h43v1h-43zM469,422h43v1h-43zM0,423h43v1h-43zM469,423h43v1h-43zM0,424h43v1h-43zM469,424h43v1h-43zM0,425h43v1h-43zM469,425h43v1h-43zM0,426h43v1h-43zM469,426h43v1h-43zM0,427h43v1h-43zM469,427h43v1h-43zM0,428h43v1h-43zM469,428h43v1h-43zM0,429h43v1h-43zM469,429h43v1h-43zM0,430h43v1h-43zM469,430h43v1h-43zM0,431h43v1h-43zM469,431h43v1h-43zM0,432h43v1h-43zM469,432h43v1h-43zM0,433h43v1h-43zM469,433h43v1h-43zM0,434h43v1h-43zM469,434h43v1h-43zM0,435h43v1h-43zM469,435h43v1h-43zM0,436h43v1h-43zM469,436h43v1h-43zM0,437h43v1h-43zM469,437h43v1h-43zM0,438h43v1h-43zM469,438h43v1h-43zM0,439h43v1h-43zM469,439h43v1h-43zM0,440h43v1h-43zM469,440h43v1h-43zM0,441h43v1h-43zM469,441h43v1h-43zM0,442h43v1h-43zM469,442h43v1h-43zM0,443h43v1h-43zM469,443h43v1h-43zM0,444h43v1h-43zM469,444h43v1h-43zM0,445h43v1h-43zM469,445h43v1h-43zM0,446h43v1h-43zM469,446h43v1h-43zM0,447h43v1h-43zM469,447h43v1h-43zM0,448h43v1h-43zM469,448h43v1h-43zM0,449h43v1h-43zM469,449h43v1h-43zM0,450h43v1h-43zM469,450h43v1h-43zM0,451h43v1h-43zM469,451h43v1h-43zM0,452h44v1h-44zM468,452h44v1h-44zM0,453h44v1h-44zM468,453h44v1h-44zM0,454h44v1h-44zM468,454h44v1h-44zM0,455h44v1h-44zM468,455h44v1h-44zM0,456h45v1h-45zM467,456h45v1h-45zM0,457h45v1h-45zM467,457h45v1h-45zM0,458h46v1h-46zM466,458h46v1h-46zM0,459h46v1h-46zM466,459h46v1h-46zM0,460h47v1h-47zM465,460h47v1h-47zM0,461h48v1h-48zM464,461h48v1h-48zM0,462h49v1h-49zM463,462h49v1h-49zM0,463h50v1h-50zM462,463h50v1h-50zM0,464h51v1h-51zM461,464h51v1h-51zM0,465h52v1h-52zM460,465h52v1h-52zM0,466h54v1h-54zM458,466h54v1h-54zM3,467h53v1h-53zM456,467h53v1h-53zM3,468h57v1h-57zM452,468h57v1h-57zM3,469h506v1h-506zM4,470h504v1h-504zM4,471h504v1h-504zM4,472h504v1h-504zM5,473h502v1h-502zM5,474h502v1h-502zM6,475h500v1h-500zM6,476h500v1h-500zM7,477h498v1h-498zM7,478h498v1h-498zM8,479h496v1h-496zM8,480h495v1h-495zM9,481h494v1h-494zM10,482h492v1h-492zM10,483h492v1h-492zM11,484h490v1h-490zM12,485h488v1h-488zM12,486h487v1h-487zM13,487h486v1h-486zM14,488h484v1h-484zM15,489h482v1h-482zM16,490h480v1h-480zM17,491h478v1h-478zM18,492h476v1h-476zM18,493h476v1h-476zM20,494h472v1h-472zM21,495h470v1h-470zM22,496h468v1h-468zM23,497h466v1h-466zM24,498h464v1h-464zM26,499h461v1h-461zM27,500h458v1h-458zM28,501h456v1h-456zM30,502h452v1h-452zM32,503h449v1h-449zM33,504h446v1h-446zM35,505h442v1h-442zM37,506h438v1h-438zM40,507h433v1h-433zM42,508h428v1h-428zM45,509h422v1h-422zM45,510h422v1h-422zM45,511h422v1h-422z"/></svg>