<svg xmlns="http://www.w3.org/2000/svg" viewBox="0 0 512 512" width="512" height="512"><path fill="#000" d="M82,0h121v1h-121zM288,0h179v1h-179zM82,1h121v1h-121zM288,1h179v1h-179zM82,2h121v1h-121zM288,2h179v1h-179zM78,3h126v1h-126zM286,3h184v1h-184zM75,4h131v1h-131zM285,4h188v1h-188zM72,5h135v1h-135zM284,5h191v1h-191zM69,6h139v1h-139zM283,6h194v1h-194zM66,7h143v1h-143zM282,7h197v1h-197zM64,8h145v1h-145zM281,8h199v1h-199zM62,9h148v1h-148zM280,9h202v1h-202zM60,10h151v1h-151zM280,10h204v1h-204zM58,11h153v1h-153zM279,11h206v1h-206zM56,12h156v1h-156zM279,12h207v1h-207zM54,13h158v1h-158zM278,13h210v1h-210zM52,14h161v1h-161zM278,14h211v1h-211zM51,15h162v1h-162zM278,15h212v1h-212zM49,16h164v1h-164zM278,16h213v1h-213zM48,17h165v1h-165zM277,17h215v1h-215zM46,18h168v1h-168zM277,18h216v1h-216zM45,19h169v1h-169zM277,19h217v1h-217zM43,20h171v1h-171zM277,20h218v1h-218zM42,21h172v1h-172zM277,21h219v1h-219zM41,22h173v1h-173zM277,22h220v1h-220zM39,23h175v1h-175zM277,23h221v1h-221zM38,24h175v1h-175zM277,24h222v1h-222zM37,25h176v1h-176zM277,25h222v1h-222zM36,26h177v1h-177zM278,26h222v1h-222zM35,27h178v1h-178zM278,27h223v1h-223zM34,28h178v1h-178zM278,28h224v1h-224zM33,29h179v1h-179zM279,29h223v1h-223zM32,30h180v1h-180zM279,30h224v1h-224zM31,31h180v1h-180zM280,31h224v1h-224zM30,32h181v1h-181zM280,32h224v1h-224zM29,33h181v1h-181zM281,33h224v1h-224zM28,34h181v1h-181zM281,34h224v1h-224zM27,35h181v1h-181zM282,35h224v1h-224zM26,36h182v1h-182zM283,36h223v1h-223zM25,37h181v1h-181zM284,37h223v1h-223zM24,38h181v1h-181zM285,38h222v1h-222zM23,39h181v1h-181zM287,39h221v1h-221zM23,40h179v1h-179zM289,40h219v1h-219zM22,41h178v1h-178zM291,41h217v1h-217zM21,42h176v1h-176zM294,42h215v1h-215zM20,43h79v1h-79zM434,43h75v1h-75zM20,44h73v1h-73zM434,44h75v1h-75zM19,45h70v1h-70zM434,45h78v1h-78zM18,46h68v1h-68zM434,46h78v1h-78zM18,47h65v1h-65zM434,47h78v1h-78zM17,48h64v1h-64zM433,48h79v1h-79zM16,49h63v1h-63zM432,49h80v1h-80zM16,50h61v1h-61zM431,50h81v1h-81zM15,51h60v1h-60zM430,51h82v1h-82zM14,52h59v1h-59zM429,52h83v1h-83zM14,53h58v1h-58zM428,53h84v1h-84zM13,54h57v1h-57zM427,54h85v1h-85zM13,55h56v1h-56zM426,55h86v1h-86zM12,56h56v1h-56zM425,56h87v1h-87zM12,57h54v1h-54zM424,57h88v1h-88zM11,58h54v1h-54zM423,58h89v1h-89zM11,59h53v1h-53zM422,59h90v1h-90zM10,60h53v1h-53zM421,60h91v1h-91zM10,61h52v1h-52zM420,61h92v1h-92zM9,62h52v1h-52zM419,62h93v1h-93zM9,63h51v1h-51zM418,63h94v1h-94zM8,64h51v1h-51zM417,64h95v1h-95zM8,65h50v1h-50zM416,65h96v1h-96zM7,66h50v1h-50zM415,66h97v1h-97zM7,67h50v1h-50zM414,67h98v1h-98zM7,68h49v1h-49zM413,68h99v1h-99zM6,69h49v1h-49zM412,69h100v1h-100zM6,70h48v1h-48zM411,70h101v1h-101zM6,71h48v1h-48zM410,71h102v1h-102zM5,72h48v1h-48zM409,72h103v1h-103zM5,73h47v1h-47zM408,73h104v1h-104zM5,74h47v1h-47zM407,74h105v1h-105zM4,75h47v1h-47zM406,75h106v1h-106zM4,76h47v1h-47zM405,76h107v1h-107zM4,77h46v1h-46zM404,77h108v1h-108zM3,78h47v1h-47zM403,78h61v1h-61zM469,78h43v1h-43zM3,79h46v1h-46zM402,79h61v1h-61zM469,79h43v1h-43zM3,80h46v1h-46zM401,80h61v1h-61zM469,80h43v1h-43zM3,81h45v1h-45zM400,81h61v1h-61zM469,81h43v1h-43zM0,82h48v1h-48zM399,82h61v1h-61zM469,82h43v1h-43zM0,83h47v1h-47zM398,83h61v1h-61zM469,83h43v1h-43zM0,84h47v1h-47zM397,84h61v1h-61zM469,84h43v1h-43zM0,85h47v1h-47zM396,85h61v1h-61zM469,85h43v1h-43zM0,86h46v1h-46zM395,86h61v1h-61zM469,86h43v1h-43zM0,87h46v1h-46zM394,87h61v1h-61zM469,87h43v1h-43zM0,88h46v1h-46zM393,88h61v1h-61zM469,88h43v1h-43zM0,89h45v1h-45zM392,89h61v1h-61zM469,89h43v1h-43zM0,90h45v1h-45zM391,90h61v1h-61zM469,90h43v1h-43zM0,91h45v1h-45zM390,91h61v1h-61zM469,91h43v1h-43zM0,92h45v1h-45zM389,92h61v1h-61zM469,92h43v1h-43zM0,93h44v1h-44zM388,93h61v1h-61zM469,93h43v1h-43zM0,94h44v1h-44zM387,94h61v1h-61zM469,94h43v1h-43zM0,95h44v1h-44zM386,95h61v1h-61zM469,95h43v1h-43zM0,96h44v1h-44zM385,96h61v1h-61zM469,96h43v1h-43zM0,97h44v1h-44zM384,97h61v1h-61zM469,97h43v1h-43zM0,98h44v1h-44zM383,98h61v1h-61zM469,98h43v1h-43zM0,99h43v1h-43zM382,99h61v1h-61zM469,99h43v1h-43zM0,100h43v1h-43zM381,100h61v1h-61zM469,100h43v1h-43zM0,101h43v1h-43zM380,101h61v1h-61zM469,101h43v1h-43zM0,102h43v1h-43zM379,102h61v1h-61zM469,102h43v1h-43zM0,103h43v1h-43zM378,103h61v1h-61zM469,103h43v1h-43zM0,104h43v1h-43zM377,104h61v1h-61zM469,104h43v1h-43zM0,105h43v1h-43zM376,105h61v1h-61zM469,105h43v1h-43zM0,106h43v1h-43zM375,106h61v1h-61zM469,106h43v1h-43zM0,107h43v1h-43zM374,107h61v1h-61zM469,107h43v1h-43zM0,108h43v1h-43zM373,108h61v1h-61zM469,108h43v1h-43zM0,109h43v1h-43zM372,109h61v1h-61zM469,109h43v1h-43zM0,110h43v1h-43zM371,110h61v1h-61zM469,110h43v1h-43zM0,111h43v1h-43zM370,111h61v1h-61zM469,111h43v1h-43zM0,112h43v1h-43zM369,112h61v1h-61zM469,112h43v1h-43zM0,113h43v1h-43zM368,113h61v1h-61zM469,113h43v1h-43zM0,114h43v1h-43zM367,114h61v1h-61zM469,114h43v1h-43zM0,115h43v1h-43zM366,115h61v1h-61zM469,115h43v1h-43zM0,116h43v1h-43zM365,116h61v1h-61zM469,116h43v1h-43zM0,117h43v1h-43zM364,117h61v1h-61zM469,117h43v1h-43zM0,118h43v1h-43zM363,118h61v1h-61zM469,118h43v1h-43zM0,119h43v1h-43zM362,119h61v1h-61zM469,119h43v1h-43zM0,120h43v1h-43zM361,120h61v1h-61zM469,120h43v1h-43zM0,121h43v1h-43zM360,121h61v1h-61zM469,121h43v1h-43zM0,122h43v1h-43zM359,122h61v1h-61zM469,122h43v1h-43zM0,123h43v1h-43zM358,123h61v1h-61zM469,123h43v1h-43zM0,124h43v1h-43zM357,124h61v1h-61zM469,124h43v1h-43zM0,125h43v1h-43zM356,125h61v1h-61zM469,125h43v1h-43zM0,126h43v1h-43zM355,126h61v1h-61zM469,126h43v1h-43zM0,127h43v1h-43zM354,127h61v1h-61zM469,127h43v1h-43zM0,128h43v1h-43zM353,128h61v1h-61zM469,128h43v1h-43zM0,129h43v1h-43zM352,129h61v1h-61zM469,129h43v1h-43zM0,130h43v1h-43zM351,130h61v1h-61zM469,130h43v1h-43zM0,131h43v1h-43zM350,131h61v1h-61zM469,131h43v1h-43zM0,132h43v1h-43zM349,132h61v1h-61zM469,132h43v1h-43zM0,133h43v1h-43zM348,133h61v1h-61zM469,133h43v1h-43zM0,134h43v1h-43zM347,134h61v1h-61zM469,134h43v1h-43zM0,135h43v1h-43zM346,135h61v1h-61zM469,135h43v1h-43zM0,136h43v1h-43zM345,136h61v1h-61zM469,136h43v1h-43zM0,137h43v1h-43zM344,137h61v1h-61zM469,137h43v1h-43zM0,138h43v1h-43zM343,138h61v1h-61zM469,138h43v1h-43zM0,139h43v1h-43zM342,139h61v1h-61zM469,139h43v1h-43zM0,140h43v1h-43zM341,140h61v1h-61zM469,140h43v1h-43zM0,141h43v1h-43zM340,141h61v1h-61zM469,141h43v1h-43zM0,142h43v1h-43zM339,142h61v1h-61zM469,142h43v1h-43zM0,143h43v1h-43zM338,143h61v1h-61zM469,143h43v1h-43zM0,144h43v1h-43zM337,144h61v1h-61zM469,144h43v1h-43zM0,145h43v1h-43zM336,145h61v1h-61zM469,145h43v1h-43zM0,146h43v1h-43zM335,146h61v1h-61zM469,146h43v1h-43zM0,147h43v1h-43zM334,147h61v1h-61zM469,147h43v1h-43zM0,148h43v1h-43zM333,148h61v1h-61zM469,148h43v1h-43zM0,149h43v1h-43zM332,149h61v1h-61zM469,149h43v1h-43zM0,150h43v1h-43zM331,150h61v1h-61zM469,150h43v1h-43zM0,151h43v1h-43zM330,151h61v1h-61zM469,151h43v1h-43zM0,152h43v1h-43zM329,152h61v1h-61zM469,152h43v1h-43zM0,153h43v1h-43zM328,153h61v1h-61zM469,153h43v1h-43zM0,154h43v1h-43zM327,154h61v1h-61zM469,154h43v1h-43zM0,155h43v1h-43zM326,155h61v1h-61zM469,155h43v1h-43zM0,156h43v1h-43zM325,156h61v1h-61zM469,156h43v1h-43zM0,157h43v1h-43zM324,157h61v1h-61zM469,157h43v1h-43zM0,158h43v1h-43zM323,158h61v1h-61zM469,158h43v1h-43zM0,159h43v1h-43zM322,159h61v1h-61zM469,159h43v1h-43zM0,160h43v1h-43zM321,160h61v1h-61zM469,160h43v1h-43zM0,161h43v1h-43zM320,161h61v1h-61zM469,161h43v1h-43zM0,162h43v1h-43zM319,162h61v1h-61zM469,162h43v1h-43zM0,163h43v1h-43zM318,163h61v1h-61zM469,163h43v1h-43zM0,164h43v1h-43zM317,164h61v1h-61zM469,164h43v1h-43zM0,165h43v1h-43zM316,165h61v1h-61zM469,165h43v1h-43zM0,166h43v1h-43zM315,166h61v1h-61zM469,166h43v1h-43zM0,167h43v1h-43zM314,167h61v1h-61zM469,167h43v1h-43zM0,168h43v1h-43zM313,168h61v1h-61zM469,168h43v1h-43zM0,169h43v1h-43zM312,169h61v1h-61zM469,169h43v1h-43zM0,170h43v1h-43zM311,170h61v1h-61zM469,170h43v1h-43zM0,171h43v1h-43zM310,171h61v1h-61zM469,171h43v1h-43zM0,172h43v1h-43zM309,172h61v1h-61zM469,172h43v1h-43zM0,173h43v1h-43zM308,173h61v1h-61zM469,173h43v1h-43zM0,174h43v1h-43zM307,174h61v1h-61zM469,174h43v1h-43zM0,175h43v1h-43zM306,175h61v1h-61zM469,175h43v1h-43zM0,176h43v1h-43zM305,176h61v1h-61zM469,176h43v1h-43zM0,177h43v1h-43zM304,177h61v1h-61zM469,177h43v1h-43zM0,178h43v1h-43zM303,178h61v1h-61zM469,178h43v1h-43zM0,179h43v1h-43zM302,179h61v1h-61zM469,179h43v1h-43zM0,180h43v1h-43zM301,180h61v1h-61zM469,180h43v1h-43zM0,181h43v1h-43zM300,181h61v1h-61zM469,181h43v1h-43zM0,182h43v1h-43zM299,182h61v1h-61zM469,182h43v1h-43zM0,183h43v1h-43zM298,183h61v1h-61zM469,183h43v1h-43zM0,184h43v1h-43zM297,184h61v1h-61zM469,184h43v1h-43zM0,185h43v1h-43zM296,185h61v1h-61zM469,185h43v1h-43zM0,186h43v1h-43zM295,186h61v1h-61zM469,186h43v1h-43zM0,187h43v1h-43zM294,187h61v1h-61zM469,187h43v1h-43zM0,188h43v1h-43zM293,188h61v1h-61zM469,188h43v1h-43zM0,189h43v1h-43zM292,189h61v1h-61zM469,189h43v1h-43zM0,190h43v1h-43zM291,190h61v1h-61zM469,190h43v1h-43zM0,191h43v1h-43zM290,191h61v1h-61zM469,191h43v1h-43zM0,192h43v1h-43zM289,192h61v1h-61zM469,192h43v1h-43zM0,193h43v1h-43zM288,193h61v1h-61zM469,193h43v1h-43zM0,194h43v1h-43zM287,194h61v1h-61zM469,194h43v1h-43zM0,195h43v1h-43zM286,195h61v1h-61zM469,195h43v1h-43zM0,196h43v1h-43zM285,196h61v1h-61zM469,196h43v1h-43zM0,197h43v1h-43zM284,197h61v1h-61zM469,197h43v1h-43zM0,198h43v1h-43zM283,198h61v1h-61zM469,198h43v1h-43zM0,199h43v1h-43zM282,199h61v1h-61zM469,199h43v1h-43zM0,200h43v1h-43zM281,200h61v1h-61zM469,200h43v1h-43zM0,201h43v1h-43zM280,201h61v1h-61zM469,201h43v1h-43zM0,202h43v1h-43zM279,202h61v1h-61zM469,202h43v1h-43zM0,203h43v1h-43zM278,203h61v1h-61zM469,203h43v1h-43zM0,204h43v1h-43zM277,204h61v1h-61zM469,204h43v1h-43zM0,205h43v1h-43zM276,205h61v1h-61zM469,205h43v1h-43zM0,206h43v1h-43zM275,206h61v1h-61zM469,206h43v1h-43zM0,207h43v1h-43zM274,207h61v1h-61zM469,207h43v1h-43zM0,208h43v1h-43zM273,208h61v1h-61zM469,208h43v1h-43zM0,209h43v1h-43zM272,209h61v1h-61zM469,209h43v1h-43zM0,210h43v1h-43zM271,210h61v1h-61zM469,210h43v1h-43zM0,211h43v1h-43zM270,211h61v1h-61zM469,211h43v1h-43zM0,212h43v1h-43zM269,212h61v1h-61zM469,212h43v1h-43zM0,213h43v1h-43zM268,213h61v1h-61zM469,213h43v1h-43zM0,214h43v1h-43zM267,214h61v1h-61zM469,214h43v1h-43zM0,215h43v1h-43zM266,215h61v1h-61zM469,215h43v1h-43zM0,216h43v1h-43zM265,216h61v1h-61zM469,216h43v1h-43zM0,217h43v1h-43zM264,217h61v1h-61zM469,217h43v1h-43zM0,218h43v1h-43zM263,218h61v1h-61zM470,218h42v1h-42zM0,219h43v1h-43zM262,219h61v1h-61zM470,219h42v1h-42zM0,220h43v1h-43zM261,220h61v1h-61zM470,220h42v1h-42zM0,221h43v1h-43zM260,221h61v1h-61zM471,221h41v1h-41zM0,222h43v1h-43zM259,222h61v1h-61zM471,222h41v1h-41zM0,223h43v1h-43zM258,223h61v1h-61zM472,223h40v1h-40zM0,224h43v1h-43zM257,224h61v1h-61zM472,224h37v1h-37zM0,225h43v1h-43zM256,225h61v1h-61zM473,225h36v1h-36zM0,226h43v1h-43zM255,226h61v1h-61zM473,226h35v1h-35zM0,227h43v1h-43zM254,227h61v1h-61zM474,227h33v1h-33zM0,228h43v1h-43zM253,228h61v1h-61zM475,228h31v1h-31zM0,229h43v1h-43zM252,229h61v1h-61zM476,229h29v1h-29zM0,230h43v1h-43zM251,230h61v1h-61zM477,230h27v1h-27zM0,231h43v1h-43zM250,231h61v1h-61zM479,231h24v1h-24zM0,232h43v1h-43zM249,232h61v1h-61zM481,232h20v1h-20zM0,233h43v1h-43zM248,233h61v1h-61zM483,233h16v1h-16zM0,234h43v1h-43zM247,234h61v1h-61zM486,234h9v1h-9zM0,235h43v1h-43zM246,235h61v1h-61zM0,236h43v1h-43zM245,236h61v1h-61zM0,237h43v1h-43zM244,237h61v1h-61zM0,238h43v1h-43zM243,238h61v1h-61zM0,239h43v1h-43zM242,239h61v1h-61zM0,240h43v1h-43zM241,240h61v1h-61zM0,241h43v1h-43zM240,241h61v1h-61zM0,242h43v1h-43zM239,242h61v1h-61zM0,243h43v1h-43zM238,243h61v1h-61zM0,244h43v1h-43zM237,244h61v1h-61zM0,245h43v1h-43zM236,245h61v1h-61zM0,246h43v1h-43zM235,246h61v1h-61zM0,247h43v1h-43zM234,247h61v1h-61zM0,248h43v1h-43zM233,248h61v1h-61zM0,249h43v1h-43zM232,249h61v1h-61zM0,250h43v1h-43zM231,250h61v1h-61zM0,251h43v1h-43zM230,251h61v1h-61zM0,252h43v1h-43zM229,252h61v1h-61zM0,253h43v1h-43zM228,253h61v1h-61zM0,254h43v1h-43zM227,254h61v1h-61zM0,255h43v1h-43zM226,255h61v1h-61zM0,256h43v1h-43zM225,256h61v1h-61zM0,257h43v1h-43zM224,257h61v1h-61zM0,258h43v1h-43zM223,258h61v1h-61zM0,259h43v1h-43zM222,259h61v1h-61zM0,260h43v1h-43zM221,260h61v1h-61zM0,261h43v1h-43zM220,261h61v1h-61zM0,262h43v1h-43zM219,262h61v1h-61zM0,263h43v1h-43zM218,263h61v1h-61zM0,264h43v1h-43zM217,264h61v1h-61zM0,265h43v1h-43zM216,265h61v1h-61zM0,266h43v1h-43zM215,266h61v1h-61zM0,267h43v1h-43zM214,267h61v1h-61zM0,268h43v1h-43zM213,268h61v1h-61zM0,269h43v1h-43zM212,269h61v1h-61zM0,270h43v1h-43zM211,270h61v1h-61zM0,271h43v1h-43zM210,271h61v1h-61zM0,272h43v1h-43zM209,272h61v1h-61zM0,273h43v1h-43zM208,273h61v1h-61zM0,274h43v1h-43zM207,274h61v1h-61zM0,275h43v1h-43zM206,275h61v1h-61zM0,276h43v1h-43zM205,276h61v1h-61zM0,277h43v1h-43zM204,277h61v1h-61zM0,278h43v1h-43zM203,278h61v1h-61zM0,279h43v1h-43zM202,279h61v1h-61zM0,280h43v1h-43zM201,280h61v1h-61zM0,281h43v1h-43zM200,281h61v1h-61zM0,282h43v1h-43zM199,282h61v1h-61zM0,283h43v1h-43zM198,283h61v1h-61zM0,284h43v1h-43zM197,284h61v1h-61zM0,285h43v1h-43zM196,285h61v1h-61zM0,286h43v1h-43zM195,286h61v1h-61zM0,287h43v1h-43zM194,287h61v1h-61zM0,288h43v1h-43zM193,288h61v1h-61zM0,289h43v1h-43zM192,289h61v1h-61zM0,290h43v1h-43zM191,290h61v1h-61zM0,291h43v1h-43zM190,291h61v1h-61zM0,292h43v1h-43zM189,292h61v1h-61zM0,293h43v1h-43zM188,293h61v1h-61zM0,294h43v1h-43zM187,294h61v1h-61zM0,295h43v1h-43zM186,295h61v1h-61zM0,296h43v1h-43zM185,296h61v1h-61zM0,297h43v1h-43zM184,297h61v1h-61zM0,298h43v1h-43zM184,298h60v1h-60zM488,298h6v1h-6zM0,299h43v1h-43zM183,299h60v1h-60zM484,299h14v1h-14zM0,300h43v1h-43zM183,300h59v1h-59zM481,300h19v1h-19zM0,301h43v1h-43zM182,301h59v1h-59zM479,301h23v1h-23zM0,302h43v1h-43zM182,302h58v1h-58zM478,302h25v1h-25zM0,303h43v1h-43zM182,303h57v1h-57zM477,303h28v1h-28zM0,304h43v1h-43zM182,304h56v1h-56zM475,304h31v1h-31zM0,305h43v1h-43zM181,305h56v1h-56zM475,305h32v1h-32zM0,306h43v1h-43zM181,306h55v1h-55zM474,306h34v1h-34zM0,307h43v1h-43zM181,307h54v1h-54zM473,307h35v1h-35zM0,308h43v1h-43zM181,308h53v1h-53zM472,308h37v1h-37zM0,309h43v1h-43zM181,309h52v1h-52zM472,309h40v1h-40zM0,310h43v1h-43zM181,310h51v1h-51zM471,310h41v1h-41zM0,311h43v1h-43zM181,311h50v1h-50zM471,311h41v1h-41zM0,312h43v1h-43zM181,312h49v1h-49zM470,312h42v1h-42zM0,313h43v1h-43zM181,313h48v1h-48zM470,313h42v1h-42zM0,314h43v1h-43zM182,314h46v1h-46zM470,314h42v1h-42zM0,315h43v1h-43zM182,315h45v1h-45zM469,315h43v1h-43zM0,316h43v1h-43zM182,316h44v1h-44zM469,316h43v1h-43zM0,317h43v1h-43zM183,317h42v1h-42zM469,317h43v1h-43zM0,318h43v1h-43zM183,318h41v1h-41zM469,318h43v1h-43zM0,319h43v1h-43zM184,319h39v1h-39zM469,319h43v1h-43zM0,320h43v1h-43zM184,320h38v1h-38zM469,320h43v1h-43zM0,321h43v1h-43zM185,321h36v1h-36zM469,321h43v1h-43zM0,322h43v1h-43zM185,322h35v1h-35zM469,322h43v1h-43zM0,323h43v1h-43zM186,323h33v1h-33zM469,323h43v1h-43zM0,324h43v1h-43zM187,324h31v1h-31zM469,324h43v1h-43zM0,325h43v1h-43zM188,325h29v1h-29zM469,325h43v1h-43zM0,326h43v1h-43zM189,326h27v1h-27zM469,326h43v1h-43zM0,327h43v1h-43zM191,327h24v1h-24zM469,327h43v1h-43zM0,328h43v1h-43zM193,328h20v1h-20zM469,328h43v1h-43zM0,329h43v1h-43zM195,329h16v1h-16zM469,329h43v1h-43zM0,330h43v1h-43zM198,330h9v1h-9zM469,330h43v1h-43zM0,331h43v1h-43zM469,331h43v1h-43zM0,332h43v1h-43zM469,332h43v1h-43zM0,333h43v1h-43zM469,333h43v1h-43zM0,334h43v1h-43zM469,334h43v1h-43zM0,335h43v1h-43zM469,335h43v1h-43zM0,336h43v1h-43zM469,336h43v1h-43zM0,337h43v1h-43zM469,337h43v1h-43zM0,338h43v1h-43zM469,338h43v1h-43zM0,339h43v1h-43zM469,339h43v1h-43zM0,340h43v1h-43zM469,340h43v1h-43zM0,341h43v1h-43zM469,341h43v1h-43zM0,342h43v1h-43zM469,342h43v1h-43zM0,343h43v1h-43zM469,343h43v1h-43zM0,344h43v1h-43zM469,344h43v1h-43zM0,345h43v1h-43zM469,345h43v1h-43zM0,346h43v1h-43zM469,346h43v1h-43zM0,347h43v1h-43zM469,347h43v1h-43zM0,348h43v1h-43zM469,348h43v1h-43zM0,349h43v1h-43zM469,349h43v1h-43zM0,350h43v1h-43zM469,350h43v1h-43zM0,351h43v1h-43zM469,351h43v1h-43zM0,352h43v1h-43zM469,352h43v1h-43zM0,353h43v1h-43zM469,353h43v1h-43zM0,354h43v1h-43zM469,354h43v1h-43zM0,355h43v1h-43zM469,355h43v1h-43zM0,356h43v1h-43zM469,356h43v1h-43zM0,357h43v1h-43zM469,357h43v1h-43zM0,358h43v1h-43zM469,358h43v1h-43zM0,359h43v1h-43zM469,359h43v1h-43zM0,360h43v1h-43zM469,360h43v1h-43zM0,361h43v1h-43zM469,361h43v1h-43zM0,362h43v1h-43zM469,362h43v1h-43zM0,363h43v1h-43zM469,363h43v1h-43zM0,364h43v1h-43zM469,364h43v1h-43zM0,365h43v1h-43zM469,365h43v1h-43zM0,366h43v1h-43zM469,366h43v1h-43zM0,367h43v1h-43zM469,367h43v1h-43zM0,368h43v1h-43zM469,368h43v1h-43zM0,369h43v1h-43zM469,369h43v1h-43zM0,370h43v1h-43zM469,370h43v1h-43zM0,371h43v1h-43zM469,371h43v1h-43zM0,372h43v1h-43zM469,372h43v1h-43zM0,373h43v1h-43zM469,373h43v1h-43zM0,374h43v1h-43zM469,374h43v1h-43zM0,375h43v1h-43zM469,375h43v1h-43zM0,376h43v1h-43zM469,376h43v1h-43zM0,377h43v1h-43zM469,377h43v1h-43zM0,378h43v1h-43zM469,378h43v1h-43zM0,379h43v1h-43zM469,379h43v1h-43zM0,380h43v1h-43zM469,380h43v1h-43zM0,381h43v1h-43zM469,381h43v1h-43zM0,382h43v1h-43zM469,382h43v1h-43zM0,383h43v1h-43zM469,383h43v1h-43zM0,384h43v1h-43zM469,384h43v1h-43zM0,385h43v1h-43zM469,385h43v1h-43zM0,386h43v1h-43zM469,386h43v1h-43zM0,387h43v1h-43zM469,387h43v1h-43zM0,388h43v1h-43zM469,388h43v1h-43zM0,389h43v1h-43zM469,389h43v1h-43zM0,390h43v1h-43zM469,390h43v1h-43zM0,391h43v1h-43zM469,391h43v1h-43zM0,392h43v1h-43zM469,392h43v1h-43zM0,393h43v1h-43zM469,393h43v1h-43zM0,394h43v1h-43zM469,394h43v1h-43zM0,395h43v1h-43zM469,395h43v1h-43zM0,396h43v1h-43zM469,396h43v1h-43zM0,397h43v1h-43zM469,397h43v1h-43zM0,398h43v1h-43zM469,398h43v1h-43zM0,399h43v1h-43zM469,399h43v1h-43zM0,400h43v1h-43zM469,400h43v1h-43zM0,401h43v1h-43zM469,401h43v1h-43zM0,402h43v1h-43zM469,402h43v1h-43zM0,403h43v1h-43zM469,403h43v1h-43zM0,404h43v1h-43zM469,404h43v1h-43zM0,405h43v1h-43zM469,405h43v1h-43zM0,406h43v1h-43zM469,406h43v1h-43zM0,407h43v1h-43zM469,407h43v1h-43zM0,408h43v1h-43zM469,408h43v1h-43zM0,409h43v1h-43zM469,409h43v1h-43zM0,410h43v1h-43zM469,410h43v1h-43zM0,411h43v1h-43zM469,411h43v1h-43zM0,412h43v1h-43zM469,412h43v1h-43zM0,413h44v1h-44zM468,413h44v1h-44zM0,414h44v1h-44zM468,414h44v1h-44zM0,415h44v1h-44zM468,415h44v1h-44zM0,416h44v1h-44zM468,416h44v1h-44zM0,417h44v1h-44zM468,417h44v1h-44zM0,418h44v1h-44zM468,418h44v1h-44zM0,419h45v1h-45zM467,419h45v1h-45zM0,420h45v1h-45zM467,420h45v1h-45zM0,421h45v1h-45zM467,421h45v1h-45zM0,422h45v1h-45zM467,422h45v1h-45zM0,423h46v1h-46zM466,423h46v1h-46zM0,424h46v1h-46zM466,424h46v1h-46zM0,425h46v1h-46zM466,425h46v1h-46zM0,426h47v1h-47zM465,426h47v1h-47zM0,427h47v1h-47zM465,427h47v1h-47zM0,428h47v1h-47zM465,428h47v1h-47zM0,429h48v1h-48zM464,429h48v1h-48zM3,430h45v1h-45zM464,430h45v1h-45zM3,431h46v1h-46zM463,431h46v1h-46zM3,432h46v1h-46zM463,432h46v1h-46zM3,433h47v1h-47zM462,433h47v1h-47zM4,434h46v1h-46zM462,434h46v1h-46zM4,435h47v1h-47zM461,435h47v1h-47zM4,436h47v1h-47zM461,436h47v1h-47zM5,437h47v1h-47zM460,437h47v1h-47zM5,438h47v1h-47zM460,438h47v1h-47zM5,439h48v1h-48zM459,439h48v1h-48zM6,440h48v1h-48zM458,440h48v1h-48zM6,441h48v1h-48zM458,441h48v1h-48zM6,442h49v1h-49zM457,442h49v1h-49zM7,443h49v1h-49zM456,443h49v1h-49zM7,444h50v1h-50zM455,444h50v1h-50zM7,445h50v1h-50zM455,445h50v1h-50zM8,446h50v1h-50zM454,446h50v1h-50zM8,447h51v1h-51zM453,447h51v1h-51zM9,448h51v1h-51zM452,448h51v1h-51zM9,449h52v1h-52zM451,449h52v1h-52zM10,450h52v1h-52zM450,450h52v1h-52zM10,451h53v1h-53zM449,451h53v1h-53zM11,452h53v1h-53zM448,452h53v1h-53zM11,453h54v1h-54zM447,453h54v1h-54zM12,454h54v1h-54zM446,454h54v1h-54zM12,455h56v1h-56zM444,455h56v1h-56zM13,456h56v1h-56zM443,456h56v1h-56zM13,457h57v1h-57zM442,457h57v1h-57zM14,458h58v1h-58zM440,458h58v1h-58zM14,459h59v1h-59zM439,459h59v1h-59zM15,460h60v1h-60zM437,460h60v1h-60zM16,461h61v1h-61zM435,461h61v1h-61zM16,462h63v1h-63zM433,462h63v1h-63zM17,463h64v1h-64zM431,463h64v1h-64zM18,464h65v1h-65zM429,464h65v1h-65zM18,465h68v1h-68zM426,465h68v1h-68zM19,466h70v1h-70zM423,466h70v1h-70zM20,467h73v1h-73zM419,467h73v1h-73zM20,468h79v1h-79zM413,468h79v1h-79zM21,469h470v1h-470zM22,470h468v1h-468zM23,471h466v1h-466zM23,472h466v1h-466zM24,473h464v1h-464zM25,474h462v1h-462zM26,475h460v1h-460zM27,476h458v1h-458zM28,477h456v1h-456zM29,478h454v1h-454zM30,479h452v1h-452zM31,480h450v1h-450zM32,481h448v1h-448zM33,482h446v1h-446zM34,483h444v1h-444zM35,484h442v1h-442zM36,485h440v1h-440zM37,486h438v1h-438zM38,487h436v1h-436zM39,488h434v1h-434zM41,489h430v1h-430zM42,490h428v1h-428zM43,491h426v1h-426zM45,492h422v1h-422zM46,493h420v1h-420zM48,494h416v1h-416zM49,495h414v1h-414zM51,496h410v1h-410zM52,497h408v1h-408zM54,498h404v1h-404zM56,499h400v1h-400zM58,500h396v1h-396zM60,501h392v1h-392zM62,502h388v1h-388zM64,503h384v1h-384zM67,504h379v1h-379zM69,505h374v1h-374zM72,506h368v1h-368zM75,507h362v1h-362zM78,508h356v1h-356zM82,509h348v1h-348zM82,510h348v1h-348zM82,511h348v1h-348z"/></svg>