<svg xmlns="http://www.w3.org/2000/svg" viewBox="0 0 512 512" width="512" height="512"><path fill="#000" d="M82,0h348v1h-348zM82,1h348v1h-348zM82,2h348v1h-348zM78,3h356v1h-356zM75,4h362v1h-362zM72,5h368v1h-368zM69,6h374v1h-374zM67,7h379v1h-379zM64,8h384v1h-384zM62,9h388v1h-388zM60,10h392v1h-392zM58,11h396v1h-396zM56,12h400v1h-400zM54,13h404v1h-404zM52,14h408v1h-408zM51,15h410v1h-410zM49,16h414v1h-414zM48,17h416v1h-416zM46,18h420v1h-420zM45,19h422v1h-422zM43,20h426v1h-426zM42,21h428v1h-428zM41,22h430v1h-430zM39,23h434v1h-434zM38,24h436v1h-436zM37,25h438v1h-438zM36,26h440v1h-440zM35,27h442v1h-442zM34,28h444v1h-444zM33,29h446v1h-446zM32,30h448v1h-448zM31,31h450v1h-450zM30,32h452v1h-452zM29,33h454v1h-454zM28,34h456v1h-456zM27,35h458v1h-458zM26,36h460v1h-460zM25,37h462v1h-462zM24,38h464v1h-464zM23,39h466v1h-466zM23,40h466v1h-466zM22,41h468v1h-468zM21,42h470v1h-470zM20,43h79v1h-79zM413,43h79v1h-79zM20,44h73v1h-73zM419,44h73v1h-73zM19,45h70v1h-70zM423,45h70v1h-70zM18,46h68v1h-68zM426,46h68v1h-68zM18,47h65v1h-65zM429,47h65v1h-65zM17,48h64v1h-64zM431,48h64v1h-64zM16,49h63v1h-63zM433,49h63v1h-63zM16,50h61v1h-61zM435,50h61v1h-61zM15,51h60v1h-60zM437,51h60v1h-60zM14,52h59v1h-59zM439,52h59v1h-59zM14,53h58v1h-58zM440,53h58v1h-58zM13,54h57v1h-57zM442,54h57v1h-57zM13,55h56v1h-56zM443,55h56v1h-56zM12,56h56v1h-56zM444,56h56v1h-56zM12,57h54v1h-54zM446,57h54v1h-54zM11,58h54v1h-54zM447,58h54v1h-54zM11,59h53v1h-53zM448,59h53v1h-53zM10,60h53v1h-53zM449,60h53v1h-53zM10,61h52v1h-52zM450,61h52v1h-52zM9,62h52v1h-52zM451,62h52v1h-52zM9,63h51v1h-51zM452,63h51v1h-51zM8,64h51v1h-51zM89,64h14v1h-14zM174,64h15v1h-15zM453,64h51v1h-51zM8,65h50v1h-50zM85,65h22v1h-22zM171,65h21v1h-21zM454,65h50v1h-50zM7,66h50v1h-50zM83,66h26v1h-26zM168,66h27v1h-27zM455,66h50v1h-50zM7,67h50v1h-50zM81,67h30v1h-30zM166,67h31v1h-31zM455,67h50v1h-50zM7,68h49v1h-49zM79,68h34v1h-34zM164,68h34v1h-34zM456,68h49v1h-49zM6,69h49v1h-49zM77,69h38v1h-38zM163,69h37v1h-37zM457,69h49v1h-49zM6,70h48v1h-48zM76,70h40v1h-40zM161,70h40v1h-40zM458,70h48v1h-48zM6,71h48v1h-48zM75,71h42v1h-42zM160,71h42v1h-42zM458,71h48v1h-48zM5,72h48v1h-48zM74,72h44v1h-44zM159,72h45v1h-45zM459,72h48v1h-48zM5,73h47v1h-47zM73,73h46v1h-46zM158,73h47v1h-47zM460,73h47v1h-47zM5,74h47v1h-47zM72,74h48v1h-48zM157,74h48v1h-48zM460,74h47v1h-47zM4,75h47v1h-47zM71,75h50v1h-50zM156,75h50v1h-50zM461,75h47v1h-47zM4,76h47v1h-47zM70,76h52v1h-52zM156,76h51v1h-51zM461,76h47v1h-47zM4,77h46v1h-46zM69,77h54v1h-54zM155,77h53v1h-53zM462,77h46v1h-46zM3,78h47v1h-47zM69,78h54v1h-54zM154,78h55v1h-55zM462,78h47v1h-47zM3,79h46v1h-46zM68,79h56v1h-56zM154,79h55v1h-55zM463,79h46v1h-46zM3,80h46v1h-46zM68,80h56v1h-56zM153,80h57v1h-57zM463,80h46v1h-46zM3,81h45v1h-45zM67,81h58v1h-58zM152,81h58v1h-58zM464,81h45v1h-45zM0,82h48v1h-48zM67,82h58v1h-58zM152,82h59v1h-59zM464,82h48v1h-48zM0,83h47v1h-47zM66,83h60v1h-60zM151,83h60v1h-60zM465,83h47v1h-47zM0,84h47v1h-47zM66,84h60v1h-60zM151,84h61v1h-61zM465,84h47v1h-47zM0,85h47v1h-47zM65,85h62v1h-62zM151,85h61v1h-61zM465,85h47v1h-47zM0,86h46v1h-46zM65,86h62v1h-62zM150,86h62v1h-62zM466,86h46v1h-46zM0,87h46v1h-46zM65,87h62v1h-62zM150,87h63v1h-63zM466,87h46v1h-46zM0,88h46v1h-46zM65,88h62v1h-62zM150,88h63v1h-63zM466,88h46v1h-46zM0,89h45v1h-45zM64,89h64v1h-64zM150,89h63v1h-63zM467,89h45v1h-45zM0,90h45v1h-45zM64,90h64v1h-64zM149,90h64v1h-64zM467,90h45v1h-45zM0,91h45v1h-45zM64,91h64v1h-64zM149,91h64v1h-64zM467,91h45v1h-45zM0,92h45v1h-45zM64,92h64v1h-64zM149,92h65v1h-65zM467,92h45v1h-45zM0,93h44v1h-44zM64,93h64v1h-64zM149,93h65v1h-65zM468,93h44v1h-44zM0,94h44v1h-44zM64,94h64v1h-64zM149,94h65v1h-65zM468,94h44v1h-44zM0,95h44v1h-44zM64,95h64v1h-64zM149,95h65v1h-65zM468,95h44v1h-44zM0,96h44v1h-44zM64,96h64v1h-64zM149,96h65v1h-65zM468,96h44v1h-44zM0,97h44v1h-44zM64,97h64v1h-64zM149,97h65v1h-65zM468,97h44v1h-44zM0,98h44v1h-44zM64,98h64v1h-64zM149,98h65v1h-65zM468,98h44v1h-44zM0,99h43v1h-43zM64,99h64v1h-64zM149,99h65v1h-65zM469,99h43v1h-43zM0,100h43v1h-43zM64,100h64v1h-64zM149,100h64v1h-64zM469,100h43v1h-43zM0,101h43v1h-43zM64,101h64v1h-64zM149,101h64v1h-64zM469,101h43v1h-43zM0,102h43v1h-43zM64,102h64v1h-64zM150,102h63v1h-63zM469,102h43v1h-43zM0,103h43v1h-43zM65,103h62v1h-62zM150,103h63v1h-63zM469,103h43v1h-43zM0,104h43v1h-43zM65,104h62v1h-62zM150,104h63v1h-63zM469,104h43v1h-43zM0,105h43v1h-43zM65,105h62v1h-62zM150,105h62v1h-62zM469,105h43v1h-43zM0,106h43v1h-43zM65,106h62v1h-62zM151,106h61v1h-61zM469,106h43v1h-43zM0,107h43v1h-43zM66,107h60v1h-60zM151,107h61v1h-61zM469,107h43v1h-43zM0,108h43v1h-43zM66,108h60v1h-60zM151,108h60v1h-60zM469,108h43v1h-43zM0,109h43v1h-43zM67,109h58v1h-58zM152,109h59v1h-59zM469,109h43v1h-43zM0,110h43v1h-43zM67,110h58v1h-58zM152,110h58v1h-58zM469,110h43v1h-43zM0,111h43v1h-43zM68,111h56v1h-56zM153,111h57v1h-57zM469,111h43v1h-43zM0,112h43v1h-43zM68,112h56v1h-56zM154,112h55v1h-55zM469,112h43v1h-43zM0,113h43v1h-43zM69,113h54v1h-54zM154,113h55v1h-55zM469,113h43v1h-43zM0,114h43v1h-43zM69,114h54v1h-54zM155,114h53v1h-53zM469,114h43v1h-43zM0,115h43v1h-43zM70,115h52v1h-52zM156,115h51v1h-51zM469,115h43v1h-43zM0,116h43v1h-43zM71,116h50v1h-50zM156,116h50v1h-50zM469,116h43v1h-43zM0,117h43v1h-43zM72,117h48v1h-48zM157,117h48v1h-48zM469,117h43v1h-43zM0,118h43v1h-43zM73,118h46v1h-46zM158,118h47v1h-47zM469,118h43v1h-43zM0,119h43v1h-43zM74,119h44v1h-44zM159,119h45v1h-45zM469,119h43v1h-43zM0,120h43v1h-43zM75,120h42v1h-42zM160,120h42v1h-42zM469,120h43v1h-43zM0,121h43v1h-43zM76,121h40v1h-40zM161,121h40v1h-40zM469,121h43v1h-43zM0,122h43v1h-43zM77,122h38v1h-38zM163,122h37v1h-37zM469,122h43v1h-43zM0,123h43v1h-43zM79,123h34v1h-34zM164,123h34v1h-34zM469,123h43v1h-43zM0,124h43v1h-43zM81,124h30v1h-30zM166,124h31v1h-31zM469,124h43v1h-43zM0,125h43v1h-43zM83,125h26v1h-26zM168,125h27v1h-27zM469,125h43v1h-43zM0,126h43v1h-43zM85,126h22v1h-22zM171,126h21v1h-21zM469,126h43v1h-43zM0,127h43v1h-43zM89,127h14v1h-14zM174,127h15v1h-15zM469,127h43v1h-43zM0,128h43v1h-43zM469,128h43v1h-43zM0,129h43v1h-43zM469,129h43v1h-43zM0,130h43v1h-43zM469,130h43v1h-43zM0,131h43v1h-43zM469,131h43v1h-43zM0,132h43v1h-43zM469,132h43v1h-43zM0,133h43v1h-43zM469,133h43v1h-43zM0,134h43v1h-43zM469,134h43v1h-43zM0,135h43v1h-43zM469,135h43v1h-43zM0,136h43v1h-43zM469,136h43v1h-43zM0,137h43v1h-43zM469,137h43v1h-43zM0,138h43v1h-43zM469,138h43v1h-43zM0,139h43v1h-43zM469,139h43v1h-43zM0,140h43v1h-43zM469,140h43v1h-43zM0,141h43v1h-43zM469,141h43v1h-43zM0,142h43v1h-43zM469,142h43v1h-43zM0,143h43v1h-43zM469,143h43v1h-43zM0,144h43v1h-43zM469,144h43v1h-43zM0,145h43v1h-43zM469,145h43v1h-43zM0,146h43v1h-43zM469,146h43v1h-43zM0,147h43v1h-43zM469,147h43v1h-43zM0,148h43v1h-43zM469,148h43v1h-43zM0,149h512v1h-512zM0,150h512v1h-512zM0,151h512v1h-512zM0,152h512v1h-512zM0,153h512v1h-512zM0,154h512v1h-512zM0,155h512v1h-512zM0,156h512v1h-512zM0,157h512v1h-512zM0,158h512v1h-512zM0,159h512v1h-512zM0,160h512v1h-512zM0,161h512v1h-512zM0,162h512v1h-512zM0,163h512v1h-512zM0,164h512v1h-512zM0,165h512v1h-512zM0,166h512v1h-512zM0,167h512v1h-512zM0,168h512v1h-512zM0,169h512v1h-512zM0,170h512v1h-512zM0,171h512v1h-512zM0,172h512v1h-512zM0,173h512v1h-512zM0,174h512v1h-512zM0,175h512v1h-512zM0,176h512v1h-512zM0,177h512v1h-512zM0,178h512v1h-512zM0,179h512v1h-512zM0,180h512v1h-512zM0,181h512v1h-512zM0,182h512v1h-512zM0,183h512v1h-512zM0,184h512v1h-512zM0,185h512v1h-512zM0,186h512v1h-512zM0,187h512v1h-512zM0,188h512v1h-512zM0,189h512v1h-512zM0,190h512v1h-512zM0,191h512v1h-512zM0,192h43v1h-43zM469,192h43v1h-43zM0,193h43v1h-43zM469,193h43v1h-43zM0,194h43v1h-43zM469,194h43v1h-43zM0,195h43v1h-43zM469,195h43v1h-43zM0,196h43v1h-43zM469,196h43v1h-43zM0,197h43v1h-43zM469,197h43v1h-43zM0,198h43v1h-43zM469,198h43v1h-43zM0,199h43v1h-43zM469,199h43v1h-43zM0,200h43v1h-43zM469,200h43v1h-43zM0,201h43v1h-43zM469,201h43v1h-43zM0,202h43v1h-43zM469,202h43v1h-43zM0,203h43v1h-43zM469,203h43v1h-43zM0,204h43v1h-43zM469,204h43v1h-43zM0,205h43v1h-43zM469,205h43v1h-43zM0,206h43v1h-43zM469,206h43v1h-43zM0,207h43v1h-43zM469,207h43v1h-43zM0,208h43v1h-43zM469,208h43v1h-43zM0,209h43v1h-43zM469,209h43v1h-43zM0,210h43v1h-43zM469,210h43v1h-43zM0,211h43v1h-43zM469,211h43v1h-43zM0,212h43v1h-43zM469,212h43v1h-43zM0,213h43v1h-43zM469,213h43v1h-43zM0,214h43v1h-43zM469,214h43v1h-43zM0,215h43v1h-43zM469,215h43v1h-43zM0,216h43v1h-43zM469,216h43v1h-43zM0,217h43v1h-43zM469,217h43v1h-43zM0,218h43v1h-43zM469,218h43v1h-43zM0,219h43v1h-43zM469,219h43v1h-43zM0,220h43v1h-43zM469,220h43v1h-43zM0,221h43v1h-43zM469,221h43v1h-43zM0,222h43v1h-43zM469,222h43v1h-43zM0,223h43v1h-43zM469,223h43v1h-43zM0,224h43v1h-43zM469,224h43v1h-43zM0,225h43v1h-43zM469,225h43v1h-43zM0,226h43v1h-43zM469,226h43v1h-43zM0,227h43v1h-43zM469,227h43v1h-43zM0,228h43v1h-43zM469,228h43v1h-43zM0,229h43v1h-43zM469,229h43v1h-43zM0,230h43v1h-43zM469,230h43v1h-43zM0,231h43v1h-43zM469,231h43v1h-43zM0,232h43v1h-43zM469,232h43v1h-43zM0,233h43v1h-43zM469,233h43v1h-43zM0,234h43v1h-43zM189,234h6v1h-6zM469,234h43v1h-43zM0,235h43v1h-43zM185,235h14v1h-14zM469,235h43v1h-43zM0,236h43v1h-43zM183,236h18v1h-18zM469,236h43v1h-43zM0,237h43v1h-43zM181,237h22v1h-22zM469,237h43v1h-43zM0,238h43v1h-43zM179,238h26v1h-26zM469,238h43v1h-43zM0,239h43v1h-43zM178,239h28v1h-28zM470,239h42v1h-42zM0,240h43v1h-43zM177,240h30v1h-30zM470,240h42v1h-42zM0,241h43v1h-43zM176,241h32v1h-32zM470,241h42v1h-42zM0,242h43v1h-43zM175,242h34v1h-34zM470,242h42v1h-42zM0,243h43v1h-43zM174,243h36v1h-36zM471,243h41v1h-41zM0,244h43v1h-43zM174,244h36v1h-36zM471,244h41v1h-41zM0,245h43v1h-43zM173,245h38v1h-38zM472,245h37v1h-37zM0,246h43v1h-43zM173,246h38v1h-38zM472,246h37v1h-37zM0,247h43v1h-43zM172,247h40v1h-40zM473,247h35v1h-35zM0,248h43v1h-43zM172,248h40v1h-40zM474,248h33v1h-33zM0,249h43v1h-43zM171,249h42v1h-42zM475,249h31v1h-31zM0,250h43v1h-43zM171,250h42v1h-42zM476,250h29v1h-29zM0,251h43v1h-43zM171,251h42v1h-42zM477,251h27v1h-27zM0,252h43v1h-43zM171,252h42v1h-42zM478,252h25v1h-25zM0,253h43v1h-43zM170,253h44v1h-44zM480,253h21v1h-21zM0,254h43v1h-43zM170,254h44v1h-44zM482,254h17v1h-17zM0,255h43v1h-43zM170,255h44v1h-44zM485,255h12v1h-12zM0,256h43v1h-43zM170,256h44v1h-44zM349,256h27v1h-27zM0,257h43v1h-43zM170,257h44v1h-44zM343,257h40v1h-40zM0,258h43v1h-43zM170,258h44v1h-44zM338,258h49v1h-49zM0,259h43v1h-43zM170,259h44v1h-44zM334,259h57v1h-57zM0,260h43v1h-43zM170,260h44v1h-44zM331,260h64v1h-64zM0,261h43v1h-43zM170,261h44v1h-44zM328,261h70v1h-70zM0,262h43v1h-43zM170,262h44v1h-44zM325,262h75v1h-75zM0,263h43v1h-43zM170,263h44v1h-44zM323,263h80v1h-80zM0,264h43v1h-43zM170,264h44v1h-44zM320,264h85v1h-85zM0,265h43v1h-43zM170,265h44v1h-44zM318,265h90v1h-90zM0,266h43v1h-43zM170,266h44v1h-44zM316,266h94v1h-94zM0,267h43v1h-43zM170,267h44v1h-44zM314,267h98v1h-98zM0,268h43v1h-43zM170,268h44v1h-44zM312,268h102v1h-102zM0,269h43v1h-43zM170,269h44v1h-44zM310,269h105v1h-105zM0,270h43v1h-43zM170,270h44v1h-44zM308,270h109v1h-109zM0,271h43v1h-43zM170,271h44v1h-44zM307,271h112v1h-112zM0,272h43v1h-43zM170,272h44v1h-44zM305,272h115v1h-115zM0,273h43v1h-43zM170,273h44v1h-44zM304,273h118v1h-118zM0,274h43v1h-43zM170,274h44v1h-44zM302,274h121v1h-121zM0,275h43v1h-43zM170,275h44v1h-44zM301,275h124v1h-124zM0,276h43v1h-43zM170,276h44v1h-44zM299,276h127v1h-127zM0,277h43v1h-43zM170,277h44v1h-44zM298,277h129v1h-129zM0,278h43v1h-43zM170,278h44v1h-44zM297,278h132v1h-132zM0,279h43v1h-43zM170,279h44v1h-44zM295,279h135v1h-135zM0,280h43v1h-43zM170,280h44v1h-44zM294,280h137v1h-137zM0,281h43v1h-43zM170,281h44v1h-44zM293,281h139v1h-139zM0,282h43v1h-43zM170,282h44v1h-44zM292,282h141v1h-141zM0,283h43v1h-43zM170,283h44v1h-44zM291,283h144v1h-144zM0,284h43v1h-43zM170,284h44v1h-44zM290,284h146v1h-146zM0,285h43v1h-43zM170,285h44v1h-44zM289,285h148v1h-148zM0,286h43v1h-43zM170,286h44v1h-44zM288,286h150v1h-150zM0,287h43v1h-43zM170,287h44v1h-44zM287,287h152v1h-152zM0,288h43v1h-43zM170,288h44v1h-44zM286,288h154v1h-154zM0,289h43v1h-43zM170,289h44v1h-44zM285,289h156v1h-156zM0,290h43v1h-43zM170,290h44v1h-44zM284,290h158v1h-158zM0,291h43v1h-43zM170,291h44v1h-44zM283,291h160v1h-160zM0,292h43v1h-43zM170,292h44v1h-44zM282,292h161v1h-161zM0,293h43v1h-43zM170,293h44v1h-44zM281,293h163v1h-163zM0,294h43v1h-43zM170,294h44v1h-44zM280,294h165v1h-165zM0,295h43v1h-43zM170,295h44v1h-44zM279,295h167v1h-167zM0,296h43v1h-43zM170,296h44v1h-44zM279,296h168v1h-168zM0,297h43v1h-43zM170,297h44v1h-44zM278,297h169v1h-169zM0,298h43v1h-43zM104,298h6v1h-6zM170,298h44v1h-44zM277,298h171v1h-171zM0,299h43v1h-43zM100,299h14v1h-14zM170,299h44v1h-44zM276,299h79v1h-79zM370,299h79v1h-79zM0,300h43v1h-43zM97,300h19v1h-19zM170,300h44v1h-44zM276,300h73v1h-73zM376,300h74v1h-74zM0,301h43v1h-43zM95,301h23v1h-23zM170,301h44v1h-44zM275,301h70v1h-70zM380,301h70v1h-70zM0,302h43v1h-43zM94,302h25v1h-25zM170,302h44v1h-44zM274,302h68v1h-68zM383,302h68v1h-68zM0,303h43v1h-43zM93,303h28v1h-28zM170,303h44v1h-44zM274,303h65v1h-65zM386,303h66v1h-66zM0,304h43v1h-43zM91,304h31v1h-31zM170,304h44v1h-44zM273,304h64v1h-64zM388,304h64v1h-64zM0,305h43v1h-43zM91,305h32v1h-32zM170,305h44v1h-44zM272,305h63v1h-63zM391,305h62v1h-62zM0,306h43v1h-43zM90,306h34v1h-34zM170,306h44v1h-44zM272,306h61v1h-61zM393,306h61v1h-61zM0,307h43v1h-43zM89,307h35v1h-35zM170,307h44v1h-44zM271,307h60v1h-60zM394,307h60v1h-60zM0,308h43v1h-43zM88,308h37v1h-37zM170,308h44v1h-44zM270,308h59v1h-59zM396,308h59v1h-59zM0,309h43v1h-43zM88,309h38v1h-38zM170,309h44v1h-44zM270,309h58v1h-58zM398,309h57v1h-57zM0,310h43v1h-43zM87,310h39v1h-39zM170,310h44v1h-44zM269,310h57v1h-57zM399,310h57v1h-57zM0,311h43v1h-43zM87,311h40v1h-40zM170,311h44v1h-44zM269,311h56v1h-56zM400,311h57v1h-57zM0,312h43v1h-43zM86,312h41v1h-41zM170,312h44v1h-44zM268,312h56v1h-56zM402,312h55v1h-55zM0,313h43v1h-43zM86,313h41v1h-41zM170,313h44v1h-44zM268,313h54v1h-54zM403,313h55v1h-55zM0,314h43v1h-43zM86,314h42v1h-42zM170,314h44v1h-44zM267,314h54v1h-54zM404,314h54v1h-54zM0,315h43v1h-43zM85,315h43v1h-43zM170,315h44v1h-44zM267,315h53v1h-53zM405,315h54v1h-54zM0,316h43v1h-43zM85,316h43v1h-43zM170,316h44v1h-44zM266,316h53v1h-53zM406,316h53v1h-53zM0,317h43v1h-43zM85,317h43v1h-43zM170,317h44v1h-44zM266,317h52v1h-52zM407,317h53v1h-53zM0,318h43v1h-43zM85,318h43v1h-43zM170,318h44v1h-44zM265,318h52v1h-52zM408,318h52v1h-52zM0,319h43v1h-43zM85,319h43v1h-43zM170,319h44v1h-44zM265,319h51v1h-51zM409,319h52v1h-52zM0,320h43v1h-43zM85,320h43v1h-43zM170,320h44v1h-44zM264,320h51v1h-51zM410,320h51v1h-51zM0,321h43v1h-43zM85,321h43v1h-43zM170,321h44v1h-44zM264,321h50v1h-50zM411,321h50v1h-50zM0,322h43v1h-43zM85,322h43v1h-43zM170,322h44v1h-44zM263,322h50v1h-50zM412,322h50v1h-50zM0,323h43v1h-43zM85,323h43v1h-43zM170,323h44v1h-44zM263,323h50v1h-50zM413,323h49v1h-49zM0,324h43v1h-43zM85,324h43v1h-43zM170,324h44v1h-44zM263,324h49v1h-49zM413,324h50v1h-50zM0,325h43v1h-43zM85,325h43v1h-43zM170,325h44v1h-44zM262,325h49v1h-49zM414,325h49v1h-49zM0,326h43v1h-43zM85,326h43v1h-43zM170,326h44v1h-44zM262,326h48v1h-48zM415,326h48v1h-48zM0,327h43v1h-43zM85,327h43v1h-43zM170,327h44v1h-44zM262,327h48v1h-48zM416,327h48v1h-48zM0,328h43v1h-43zM85,328h43v1h-43zM170,328h44v1h-44zM261,328h48v1h-48zM416,328h48v1h-48zM0,329h43v1h-43zM85,329h43v1h-43zM170,329h44v1h-44zM261,329h47v1h-47zM417,329h47v1h-47zM0,330h43v1h-43zM85,330h43v1h-43zM170,330h44v1h-44zM261,330h47v1h-47zM418,330h47v1h-47zM0,331h43v1h-43zM85,331h43v1h-43zM170,331h44v1h-44zM260,331h47v1h-47zM418,331h47v1h-47zM0,332h43v1h-43zM85,332h43v1h-43zM170,332h44v1h-44zM260,332h47v1h-47zM419,332h46v1h-46zM0,333h43v1h-43zM85,333h43v1h-43zM170,333h44v1h-44zM260,333h46v1h-46zM419,333h47v1h-47zM0,334h43v1h-43zM85,334h43v1h-43zM170,334h44v1h-44zM259,334h47v1h-47zM420,334h46v1h-46zM0,335h43v1h-43zM85,335h43v1h-43zM170,335h44v1h-44zM259,335h46v1h-46zM420,335h46v1h-46zM0,336h43v1h-43zM85,336h43v1h-43zM170,336h44v1h-44zM259,336h46v1h-46zM421,336h45v1h-45zM0,337h43v1h-43zM85,337h43v1h-43zM170,337h44v1h-44zM259,337h45v1h-45zM421,337h46v1h-46zM0,338h43v1h-43zM85,338h43v1h-43zM170,338h44v1h-44zM258,338h46v1h-46zM422,338h45v1h-45zM0,339h43v1h-43zM85,339h43v1h-43zM170,339h44v1h-44zM258,339h45v1h-45zM422,339h45v1h-45zM0,340h43v1h-43zM85,340h43v1h-43zM170,340h44v1h-44zM258,340h45v1h-45zM422,340h45v1h-45zM0,341h43v1h-43zM85,341h43v1h-43zM170,341h44v1h-44zM258,341h45v1h-45zM423,341h45v1h-45zM0,342h43v1h-43zM85,342h43v1h-43zM170,342h44v1h-44zM258,342h44v1h-44zM423,342h45v1h-45zM0,343h43v1h-43zM85,343h43v1h-43zM170,343h44v1h-44zM257,343h45v1h-45zM423,343h45v1h-45zM0,344h43v1h-43zM85,344h43v1h-43zM170,344h44v1h-44zM257,344h45v1h-45zM424,344h44v1h-44zM0,345h43v1h-43zM85,345h43v1h-43zM170,345h44v1h-44zM257,345h44v1h-44zM424,345h44v1h-44zM0,346h43v1h-43zM85,346h43v1h-43zM170,346h44v1h-44zM257,346h44v1h-44zM424,346h44v1h-44zM0,347h43v1h-43zM85,347h43v1h-43zM170,347h44v1h-44zM257,347h44v1h-44zM424,347h45v1h-45zM0,348h43v1h-43zM85,348h43v1h-43zM170,348h44v1h-44zM257,348h44v1h-44zM425,348h44v1h-44zM0,349h43v1h-43zM85,349h43v1h-43zM170,349h44v1h-44zM256,349h44v1h-44zM425,349h44v1h-44zM0,350h43v1h-43zM85,350h43v1h-43zM170,350h44v1h-44zM256,350h44v1h-44zM425,350h44v1h-44zM0,351h43v1h-43zM85,351h43v1h-43zM170,351h44v1h-44zM256,351h44v1h-44zM425,351h44v1h-44zM0,352h43v1h-43zM85,352h43v1h-43zM170,352h44v1h-44zM256,352h44v1h-44zM425,352h44v1h-44zM0,353h43v1h-43zM85,353h43v1h-43zM170,353h44v1h-44zM256,353h44v1h-44zM426,353h43v1h-43zM0,354h43v1h-43zM85,354h43v1h-43zM170,354h44v1h-44zM256,354h44v1h-44zM426,354h43v1h-43zM0,355h43v1h-43zM85,355h43v1h-43zM170,355h44v1h-44zM256,355h43v1h-43zM426,355h43v1h-43zM0,356h43v1h-43zM85,356h43v1h-43zM170,356h44v1h-44zM256,356h43v1h-43zM426,356h44v1h-44zM0,357h43v1h-43zM85,357h43v1h-43zM170,357h44v1h-44zM256,357h43v1h-43zM426,357h44v1h-44zM0,358h43v1h-43zM85,358h43v1h-43zM170,358h44v1h-44zM256,358h43v1h-43zM426,358h44v1h-44zM0,359h43v1h-43zM85,359h43v1h-43zM170,359h44v1h-44zM256,359h43v1h-43zM426,359h44v1h-44zM0,360h43v1h-43zM85,360h43v1h-43zM170,360h44v1h-44zM256,360h43v1h-43zM426,360h44v1h-44zM0,361h43v1h-43zM85,361h43v1h-43zM170,361h44v1h-44zM256,361h43v1h-43zM426,361h44v1h-44zM0,362h43v1h-43zM85,362h43v1h-43zM170,362h44v1h-44zM256,362h43v1h-43zM426,362h44v1h-44zM0,363h43v1h-43zM85,363h43v1h-43zM170,363h44v1h-44zM256,363h43v1h-43zM426,363h44v1h-44zM0,364h43v1h-43zM85,364h43v1h-43zM170,364h44v1h-44zM256,364h43v1h-43zM426,364h44v1h-44zM0,365h43v1h-43zM85,365h43v1h-43zM170,365h44v1h-44zM256,365h43v1h-43zM426,365h44v1h-44zM0,366h43v1h-43zM85,366h43v1h-43zM171,366h42v1h-42zM256,366h43v1h-43zM426,366h44v1h-44zM0,367h43v1h-43zM86,367h42v1h-42zM171,367h42v1h-42zM256,367h43v1h-43zM426,367h44v1h-44zM0,368h43v1h-43zM86,368h42v1h-42zM171,368h42v1h-42zM256,368h43v1h-43zM426,368h44v1h-44zM0,369h43v1h-43zM86,369h41v1h-41zM171,369h42v1h-42zM256,369h43v1h-43zM426,369h43v1h-43zM0,370h44v1h-44zM86,370h41v1h-41zM172,370h40v1h-40zM256,370h44v1h-44zM426,370h43v1h-43zM0,371h44v1h-44zM87,371h39v1h-39zM172,371h40v1h-40zM256,371h44v1h-44zM426,371h43v1h-43zM0,372h44v1h-44zM87,372h39v1h-39zM173,372h38v1h-38zM256,372h44v1h-44zM426,372h43v1h-43zM0,373h44v1h-44zM88,373h37v1h-37zM173,373h38v1h-38zM256,373h44v1h-44zM425,373h44v1h-44zM0,374h44v1h-44zM88,374h37v1h-37zM174,374h36v1h-36zM256,374h44v1h-44zM425,374h44v1h-44zM0,375h44v1h-44zM89,375h35v1h-35zM175,375h34v1h-34zM256,375h44v1h-44zM425,375h44v1h-44zM0,376h45v1h-45zM90,376h33v1h-33zM175,376h34v1h-34zM257,376h44v1h-44zM425,376h44v1h-44zM0,377h45v1h-45zM91,377h31v1h-31zM176,377h32v1h-32zM257,377h44v1h-44zM425,377h44v1h-44zM0,378h45v1h-45zM92,378h29v1h-29zM177,378h30v1h-30zM257,378h44v1h-44zM424,378h45v1h-45zM0,379h45v1h-45zM93,379h27v1h-27zM178,379h28v1h-28zM257,379h44v1h-44zM424,379h44v1h-44zM0,380h46v1h-46zM94,380h25v1h-25zM180,380h24v1h-24zM257,380h45v1h-45zM424,380h44v1h-44zM0,381h46v1h-46zM96,381h21v1h-21zM181,381h22v1h-22zM257,381h45v1h-45zM423,381h45v1h-45zM0,382h46v1h-46zM98,382h17v1h-17zM183,382h18v1h-18zM257,382h45v1h-45zM423,382h45v1h-45zM0,383h47v1h-47zM101,383h12v1h-12zM186,383h12v1h-12zM258,383h45v1h-45zM423,383h45v1h-45zM0,384h47v1h-47zM258,384h45v1h-45zM422,384h45v1h-45zM0,385h47v1h-47zM258,385h45v1h-45zM422,385h45v1h-45zM0,386h48v1h-48zM258,386h46v1h-46zM422,386h45v1h-45zM3,387h45v1h-45zM259,387h45v1h-45zM421,387h46v1h-46zM3,388h46v1h-46zM259,388h46v1h-46zM421,388h45v1h-45zM3,389h46v1h-46zM259,389h46v1h-46zM420,389h46v1h-46zM3,390h46v1h-46zM259,390h46v1h-46zM420,390h46v1h-46zM4,391h46v1h-46zM260,391h46v1h-46zM419,391h47v1h-47zM4,392h46v1h-46zM260,392h46v1h-46zM419,392h46v1h-46zM4,393h47v1h-47zM260,393h47v1h-47zM418,393h47v1h-47zM4,394h48v1h-48zM260,394h48v1h-48zM418,394h47v1h-47zM5,395h47v1h-47zM261,395h47v1h-47zM417,395h47v1h-47zM5,396h48v1h-48zM261,396h48v1h-48zM417,396h47v1h-47zM5,397h48v1h-48zM261,397h48v1h-48zM416,397h48v1h-48zM6,398h48v1h-48zM262,398h48v1h-48zM415,398h48v1h-48zM6,399h49v1h-49zM262,399h49v1h-49zM414,399h49v1h-49zM7,400h49v1h-49zM263,400h49v1h-49zM414,400h49v1h-49zM7,401h49v1h-49zM263,401h49v1h-49zM413,401h49v1h-49zM7,402h50v1h-50zM263,402h50v1h-50zM412,402h50v1h-50zM8,403h50v1h-50zM264,403h50v1h-50zM411,403h50v1h-50zM8,404h51v1h-51zM264,404h51v1h-51zM410,404h51v1h-51zM9,405h51v1h-51zM265,405h51v1h-51zM410,405h51v1h-51zM9,406h52v1h-52zM265,406h52v1h-52zM409,406h51v1h-51zM10,407h52v1h-52zM266,407h52v1h-52zM408,407h52v1h-52zM10,408h53v1h-53zM266,408h53v1h-53zM407,408h52v1h-52zM10,409h54v1h-54zM266,409h54v1h-54zM406,409h53v1h-53zM11,410h54v1h-54zM267,410h54v1h-54zM404,410h54v1h-54zM11,411h55v1h-55zM267,411h55v1h-55zM403,411h55v1h-55zM12,412h55v1h-55zM268,412h55v1h-55zM402,412h55v1h-55zM12,413h57v1h-57zM268,413h57v1h-57zM401,413h56v1h-56zM13,414h57v1h-57zM269,414h57v1h-57zM399,414h57v1h-57zM14,415h57v1h-57zM270,415h57v1h-57zM398,415h58v1h-58zM14,416h59v1h-59zM270,416h59v1h-59zM397,416h58v1h-58zM15,417h59v1h-59zM271,417h59v1h-59zM395,417h59v1h-59zM15,418h61v1h-61zM271,418h61v1h-61zM393,418h61v1h-61zM16,419h62v1h-62zM272,419h62v1h-62zM391,419h63v1h-63zM17,420h63v1h-63zM273,420h63v1h-63zM389,420h65v1h-65zM17,421h65v1h-65zM273,421h65v1h-65zM387,421h67v1h-67zM18,422h67v1h-67zM274,422h67v1h-67zM384,422h70v1h-70zM19,423h69v1h-69zM275,423h69v1h-69zM381,423h73v1h-73zM19,424h73v1h-73zM275,424h73v1h-73zM378,424h77v1h-77zM20,425h77v1h-77zM276,425h77v1h-77zM373,425h83v1h-83zM21,426h195v1h-195zM277,426h180v1h-180zM22,427h198v1h-198zM278,427h180v1h-180zM22,428h201v1h-201zM278,428h181v1h-181zM23,429h202v1h-202zM279,429h181v1h-181zM24,430h202v1h-202zM280,430h181v1h-181zM25,431h202v1h-202zM281,431h181v1h-181zM26,432h203v1h-203zM282,432h181v1h-181zM27,433h202v1h-202zM283,433h181v1h-181zM27,434h203v1h-203zM283,434h182v1h-182zM28,435h203v1h-203zM284,435h182v1h-182zM29,436h203v1h-203zM285,436h182v1h-182zM30,437h202v1h-202zM286,437h182v1h-182zM31,438h202v1h-202zM287,438h182v1h-182zM32,439h201v1h-201zM288,439h182v1h-182zM33,440h201v1h-201zM289,440h182v1h-182zM34,441h200v1h-200zM290,441h182v1h-182zM35,442h199v1h-199zM291,442h182v1h-182zM37,443h198v1h-198zM293,443h181v1h-181zM38,444h197v1h-197zM294,444h181v1h-181zM39,445h196v1h-196zM295,445h181v1h-181zM40,446h195v1h-195zM296,446h181v1h-181zM42,447h193v1h-193zM298,447h180v1h-180zM43,448h192v1h-192zM299,448h180v1h-180zM44,449h191v1h-191zM300,449h180v1h-180zM46,450h189v1h-189zM302,450h179v1h-179zM47,451h188v1h-188zM303,451h179v1h-179zM49,452h186v1h-186zM305,452h178v1h-178zM50,453h184v1h-184zM306,453h178v1h-178zM52,454h182v1h-182zM308,454h109v1h-109zM424,454h61v1h-61zM54,455h180v1h-180zM310,455h106v1h-106zM425,455h61v1h-61zM55,456h178v1h-178zM311,456h103v1h-103zM426,456h61v1h-61zM57,457h176v1h-176zM313,457h99v1h-99zM427,457h61v1h-61zM59,458h173v1h-173zM315,458h95v1h-95zM428,458h61v1h-61zM61,459h171v1h-171zM317,459h91v1h-91zM429,459h61v1h-61zM63,460h168v1h-168zM319,460h87v1h-87zM430,460h61v1h-61zM66,461h164v1h-164zM322,461h81v1h-81zM431,461h61v1h-61zM68,462h161v1h-161zM324,462h77v1h-77zM432,462h61v1h-61zM71,463h157v1h-157zM327,463h71v1h-71zM433,463h61v1h-61zM74,464h153v1h-153zM330,464h65v1h-65zM434,464h61v1h-61zM77,465h149v1h-149zM333,465h59v1h-59zM435,465h61v1h-61zM81,466h144v1h-144zM337,466h51v1h-51zM436,466h61v1h-61zM85,467h138v1h-138zM341,467h43v1h-43zM437,467h61v1h-61zM91,468h129v1h-129zM347,468h32v1h-32zM438,468h61v1h-61zM100,469h116v1h-116zM356,469h13v1h-13zM439,469h61v1h-61zM440,470h61v1h-61zM441,471h61v1h-61zM442,472h61v1h-61zM443,473h61v1h-61zM444,474h61v1h-61zM445,475h61v1h-61zM446,476h61v1h-61zM447,477h61v1h-61zM448,478h61v1h-61zM449,479h60v1h-60zM450,480h62v1h-62zM451,481h61v1h-61zM452,482h60v1h-60zM453,483h59v1h-59zM454,484h58v1h-58zM455,485h57v1h-57zM456,486h56v1h-56zM457,487h55v1h-55zM458,488h54v1h-54zM459,489h53v1h-53zM460,490h52v1h-52zM461,491h51v1h-51zM462,492h50v1h-50zM463,493h49v1h-49zM464,494h48v1h-48zM465,495h47v1h-47zM466,496h46v1h-46zM467,497h45v1h-45zM468,498h44v1h-44zM469,499h43v1h-43zM470,500h42v1h-42zM471,501h38v1h-38zM472,502h37v1h-37zM473,503h35v1h-35zM474,504h33v1h-33zM475,505h31v1h-31zM476,506h29v1h-29zM477,507h27v1h-27zM478,508h25v1h-25zM480,509h21v1h-21zM480,510h21v1h-21zM480,511h21v1h-21z"/></svg>