<svg xmlns="http://www.w3.org/2000/svg" viewBox="0 0 512 512" width="512" height="512"><path fill="#000" d="M126,69h19v1h-19zM367,69h19v1h-19zM118,70h34v1h-34zM360,70h34v1h-34zM112,71h45v1h-45zM355,71h45v1h-45zM108,72h52v1h-52zM352,72h52v1h-52zM104,73h60v1h-60zM348,73h60v1h-60zM100,74h67v1h-67zM345,74h66v1h-66zM97,75h72v1h-72zM343,75h72v1h-72zM95,76h77v1h-77zM340,76h77v1h-77zM92,77h82v1h-82zM338,77h82v1h-82zM90,78h87v1h-87zM335,78h87v1h-87zM87,79h92v1h-92zM333,79h92v1h-92zM85,80h96v1h-96zM331,80h96v1h-96zM83,81h101v1h-101zM328,81h101v1h-101zM81,82h105v1h-105zM326,82h105v1h-105zM79,83h110v1h-110zM323,83h110v1h-110zM77,84h114v1h-114zM321,84h113v1h-113zM76,85h118v1h-118zM318,85h118v1h-118zM74,86h123v1h-123zM315,86h123v1h-123zM73,87h127v1h-127zM312,87h127v1h-127zM71,88h132v1h-132zM309,88h132v1h-132zM69,89h139v1h-139zM304,89h138v1h-138zM68,90h145v1h-145zM299,90h145v1h-145zM67,91h153v1h-153zM292,91h153v1h-153zM65,92h381v1h-381zM64,93h384v1h-384zM63,94h386v1h-386zM62,95h388v1h-388zM60,96h391v1h-391zM59,97h393v1h-393zM58,98h395v1h-395zM57,99h398v1h-398zM56,100h400v1h-400zM55,101h402v1h-402zM54,102h404v1h-404zM53,103h406v1h-406zM52,104h408v1h-408zM51,105h410v1h-410zM50,106h411v1h-411zM49,107h413v1h-413zM48,108h415v1h-415zM47,109h417v1h-417zM47,110h418v1h-418zM46,111h420v1h-420zM45,112h421v1h-421zM44,113h423v1h-423zM44,114h424v1h-424zM43,115h426v1h-426zM42,116h427v1h-427zM41,117h429v1h-429zM41,118h430v1h-430zM40,119h432v1h-432zM39,120h433v1h-433zM39,121h434v1h-434zM38,122h435v1h-435zM37,123h437v1h-437zM37,124h438v1h-438zM36,125h439v1h-439zM36,126h440v1h-440zM35,127h441v1h-441zM35,128h442v1h-442zM34,129h444v1h-444zM33,130h445v1h-445zM33,131h446v1h-446zM32,132h447v1h-447zM32,133h448v1h-448zM31,134h449v1h-449zM31,135h450v1h-450zM31,136h450v1h-450zM30,137h451v1h-451zM30,138h452v1h-452zM29,139h453v1h-453zM29,140h454v1h-454zM28,141h455v1h-455zM28,142h456v1h-456zM28,143h110v1h-110zM147,143h256v1h-256zM413,143h71v1h-71zM27,144h108v1h-108zM151,144h248v1h-248zM417,144h67v1h-67zM27,145h106v1h-106zM153,145h243v1h-243zM420,145h65v1h-65zM27,146h104v1h-104zM155,146h239v1h-239zM422,146h63v1h-63zM26,147h104v1h-104zM156,147h236v1h-236zM424,147h61v1h-61zM26,148h102v1h-102zM157,148h234v1h-234zM425,148h61v1h-61zM26,149h101v1h-101zM158,149h231v1h-231zM427,149h59v1h-59zM25,150h101v1h-101zM159,150h229v1h-229zM428,150h58v1h-58zM25,151h101v1h-101zM160,151h227v1h-227zM429,151h58v1h-58zM25,152h100v1h-100zM161,152h225v1h-225zM430,152h57v1h-57zM24,153h100v1h-100zM161,153h224v1h-224zM431,153h56v1h-56zM24,154h100v1h-100zM162,154h222v1h-222zM432,154h56v1h-56zM24,155h99v1h-99zM162,155h221v1h-221zM433,155h55v1h-55zM24,156h99v1h-99zM163,156h220v1h-220zM433,156h55v1h-55zM23,157h99v1h-99zM163,157h219v1h-219zM434,157h54v1h-54zM23,158h99v1h-99zM163,158h219v1h-219zM434,158h55v1h-55zM23,159h99v1h-99zM164,159h217v1h-217zM435,159h54v1h-54zM23,160h99v1h-99zM164,160h217v1h-217zM435,160h54v1h-54zM23,161h99v1h-99zM164,161h216v1h-216zM436,161h53v1h-53zM22,162h100v1h-100zM164,162h216v1h-216zM436,162h54v1h-54zM22,163h99v1h-99zM164,163h215v1h-215zM437,163h53v1h-53zM22,164h99v1h-99zM164,164h215v1h-215zM437,164h53v1h-53zM22,165h99v1h-99zM164,165h215v1h-215zM437,165h53v1h-53zM22,166h99v1h-99zM164,166h215v1h-215zM437,166h53v1h-53zM21,167h100v1h-100zM164,167h214v1h-214zM438,167h53v1h-53zM21,168h100v1h-100zM164,168h214v1h-214zM438,168h53v1h-53zM21,169h100v1h-100zM164,169h214v1h-214zM438,169h53v1h-53zM21,170h100v1h-100zM164,170h214v1h-214zM438,170h53v1h-53zM21,171h100v1h-100zM164,171h214v1h-214zM438,171h53v1h-53zM21,172h100v1h-100zM164,172h214v1h-214zM438,172h53v1h-53zM20,173h101v1h-101zM164,173h214v1h-214zM438,173h54v1h-54zM20,174h101v1h-101zM164,174h214v1h-214zM438,174h54v1h-54zM20,175h101v1h-101zM164,175h214v1h-214zM438,175h54v1h-54zM20,176h101v1h-101zM164,176h214v1h-214zM438,176h54v1h-54zM20,177h101v1h-101zM164,177h214v1h-214zM438,177h54v1h-54zM19,178h102v1h-102zM164,178h214v1h-214zM438,178h55v1h-55zM19,179h102v1h-102zM164,179h215v1h-215zM437,179h56v1h-56zM19,180h102v1h-102zM164,180h215v1h-215zM437,180h56v1h-56zM19,181h102v1h-102zM164,181h215v1h-215zM437,181h56v1h-56zM19,182h102v1h-102zM164,182h215v1h-215zM437,182h56v1h-56zM19,183h102v1h-102zM164,183h216v1h-216zM436,183h57v1h-57zM18,184h103v1h-103zM164,184h216v1h-216zM436,184h58v1h-58zM18,185h103v1h-103zM164,185h216v1h-216zM435,185h59v1h-59zM18,186h103v1h-103zM164,186h217v1h-217zM435,186h59v1h-59zM18,187h103v1h-103zM164,187h217v1h-217zM435,187h59v1h-59zM18,188h103v1h-103zM164,188h218v1h-218zM434,188h60v1h-60zM18,189h103v1h-103zM164,189h219v1h-219zM433,189h61v1h-61zM17,190h104v1h-104zM164,190h219v1h-219zM433,190h62v1h-62zM17,191h74v1h-74zM194,191h190v1h-190zM432,191h63v1h-63zM17,192h70v1h-70zM198,192h187v1h-187zM431,192h64v1h-64zM17,193h68v1h-68zM201,193h185v1h-185zM430,193h65v1h-65zM17,194h66v1h-66zM203,194h184v1h-184zM429,194h66v1h-66zM17,195h65v1h-65zM204,195h184v1h-184zM428,195h67v1h-67zM16,196h64v1h-64zM205,196h184v1h-184zM427,196h69v1h-69zM16,197h63v1h-63zM206,197h184v1h-184zM426,197h70v1h-70zM16,198h62v1h-62zM207,198h185v1h-185zM424,198h72v1h-72zM16,199h62v1h-62zM208,199h185v1h-185zM423,199h73v1h-73zM16,200h61v1h-61zM209,200h186v1h-186zM421,200h75v1h-75zM16,201h60v1h-60zM209,201h189v1h-189zM418,201h78v1h-78zM15,202h61v1h-61zM210,202h191v1h-191zM415,202h82v1h-82zM15,203h60v1h-60zM210,203h287v1h-287zM15,204h60v1h-60zM211,204h286v1h-286zM15,205h59v1h-59zM211,205h286v1h-286zM15,206h59v1h-59zM211,206h286v1h-286zM15,207h59v1h-59zM212,207h285v1h-285zM14,208h60v1h-60zM212,208h286v1h-286zM14,209h59v1h-59zM212,209h286v1h-286zM14,210h59v1h-59zM212,210h286v1h-286zM14,211h59v1h-59zM212,211h286v1h-286zM14,212h59v1h-59zM212,212h286v1h-286zM14,213h59v1h-59zM212,213h286v1h-286zM14,214h59v1h-59zM212,214h286v1h-286zM13,215h60v1h-60zM212,215h287v1h-287zM13,216h61v1h-61zM212,216h287v1h-287zM13,217h61v1h-61zM212,217h287v1h-287zM13,218h61v1h-61zM212,218h287v1h-287zM13,219h61v1h-61zM211,219h288v1h-288zM13,220h62v1h-62zM211,220h288v1h-288zM13,221h62v1h-62zM210,221h289v1h-289zM12,222h64v1h-64zM210,222h143v1h-143zM365,222h135v1h-135zM12,223h64v1h-64zM209,223h140v1h-140zM369,223h131v1h-131zM12,224h65v1h-65zM209,224h137v1h-137zM371,224h129v1h-129zM12,225h65v1h-65zM208,225h136v1h-136zM373,225h127v1h-127zM12,226h66v1h-66zM207,226h136v1h-136zM375,226h125v1h-125zM12,227h67v1h-67zM206,227h135v1h-135zM376,227h124v1h-124zM12,228h68v1h-68zM205,228h135v1h-135zM378,228h122v1h-122zM11,229h70v1h-70zM204,229h135v1h-135zM379,229h122v1h-122zM11,230h72v1h-72zM203,230h135v1h-135zM380,230h121v1h-121zM11,231h74v1h-74zM201,231h136v1h-136zM381,231h120v1h-120zM11,232h76v1h-76zM199,232h137v1h-137zM382,232h119v1h-119zM11,233h79v1h-79zM195,233h140v1h-140zM383,233h118v1h-118zM11,234h110v1h-110zM164,234h170v1h-170zM383,234h118v1h-118zM11,235h110v1h-110zM164,235h169v1h-169zM384,235h117v1h-117zM10,236h111v1h-111zM164,236h169v1h-169zM385,236h117v1h-117zM10,237h111v1h-111zM164,237h168v1h-168zM385,237h117v1h-117zM10,238h111v1h-111zM164,238h168v1h-168zM386,238h116v1h-116zM10,239h111v1h-111zM164,239h167v1h-167zM386,239h116v1h-116zM10,240h111v1h-111zM164,240h167v1h-167zM387,240h115v1h-115zM10,241h111v1h-111zM164,241h166v1h-166zM387,241h115v1h-115zM10,242h111v1h-111zM164,242h166v1h-166zM387,242h115v1h-115zM10,243h111v1h-111zM164,243h166v1h-166zM388,243h114v1h-114zM9,244h112v1h-112zM164,244h166v1h-166zM388,244h115v1h-115zM9,245h112v1h-112zM164,245h165v1h-165zM388,245h115v1h-115zM9,246h112v1h-112zM164,246h165v1h-165zM388,246h115v1h-115zM9,247h112v1h-112zM164,247h165v1h-165zM389,247h114v1h-114zM9,248h112v1h-112zM164,248h165v1h-165zM389,248h114v1h-114zM9,249h112v1h-112zM164,249h165v1h-165zM389,249h114v1h-114zM9,250h112v1h-112zM164,250h165v1h-165zM389,250h114v1h-114zM9,251h112v1h-112zM164,251h165v1h-165zM389,251h114v1h-114zM8,252h113v1h-113zM164,252h165v1h-165zM389,252h115v1h-115zM8,253h113v1h-113zM164,253h165v1h-165zM389,253h115v1h-115zM8,254h113v1h-113zM164,254h165v1h-165zM389,254h115v1h-115zM8,255h113v1h-113zM164,255h165v1h-165zM389,255h115v1h-115zM8,256h113v1h-113zM164,256h165v1h-165zM388,256h116v1h-116zM8,257h113v1h-113zM164,257h165v1h-165zM388,257h116v1h-116zM8,258h113v1h-113zM164,258h165v1h-165zM388,258h116v1h-116zM8,259h113v1h-113zM164,259h166v1h-166zM388,259h116v1h-116zM7,260h114v1h-114zM164,260h166v1h-166zM388,260h117v1h-117zM7,261h114v1h-114zM164,261h166v1h-166zM387,261h118v1h-118zM7,262h115v1h-115zM164,262h166v1h-166zM387,262h118v1h-118zM7,263h115v1h-115zM164,263h167v1h-167zM387,263h118v1h-118zM7,264h115v1h-115zM164,264h167v1h-167zM386,264h119v1h-119zM7,265h115v1h-115zM164,265h168v1h-168zM386,265h119v1h-119zM7,266h115v1h-115zM163,266h169v1h-169zM385,266h120v1h-120zM7,267h115v1h-115zM163,267h170v1h-170zM385,267h120v1h-120zM7,268h116v1h-116zM163,268h170v1h-170zM384,268h121v1h-121zM7,269h116v1h-116zM162,269h172v1h-172zM383,269h123v1h-123zM6,270h118v1h-118zM162,270h173v1h-173zM383,270h123v1h-123zM6,271h118v1h-118zM161,271h175v1h-175zM382,271h124v1h-124zM6,272h119v1h-119zM161,272h176v1h-176zM381,272h125v1h-125zM6,273h120v1h-120zM160,273h178v1h-178zM380,273h126v1h-126zM6,274h120v1h-120zM159,274h180v1h-180zM379,274h127v1h-127zM6,275h121v1h-121zM158,275h182v1h-182zM378,275h128v1h-128zM6,276h122v1h-122zM157,276h184v1h-184zM376,276h130v1h-130zM6,277h123v1h-123zM156,277h187v1h-187zM375,277h131v1h-131zM6,278h125v1h-125zM155,278h189v1h-189zM373,278h133v1h-133zM6,279h126v1h-126zM153,279h193v1h-193zM371,279h136v1h-136zM5,280h129v1h-129zM151,280h198v1h-198zM369,280h138v1h-138zM5,281h133v1h-133zM148,281h205v1h-205zM365,281h142v1h-142zM5,282h502v1h-502zM5,283h502v1h-502zM5,284h502v1h-502zM5,285h502v1h-502zM5,286h502v1h-502zM5,287h502v1h-502zM5,288h502v1h-502zM5,289h502v1h-502zM4,290h504v1h-504zM4,291h504v1h-504zM4,292h504v1h-504zM4,293h504v1h-504zM4,294h504v1h-504zM4,295h504v1h-504zM4,296h504v1h-504zM4,297h504v1h-504zM4,298h504v1h-504zM4,299h504v1h-504zM4,300h504v1h-504zM4,301h504v1h-504zM4,302h505v1h-505zM3,303h506v1h-506zM3,304h506v1h-506zM3,305h506v1h-506zM3,306h506v1h-506zM3,307h506v1h-506zM3,308h506v1h-506zM3,309h506v1h-506zM3,310h506v1h-506zM3,311h506v1h-506zM3,312h506v1h-506zM3,313h506v1h-506zM3,314h506v1h-506zM3,315h506v1h-506zM0,316h512v1h-512zM0,317h512v1h-512zM0,318h512v1h-512zM0,319h512v1h-512zM0,320h512v1h-512zM0,321h512v1h-512zM0,322h512v1h-512zM0,323h512v1h-512zM0,324h512v1h-512zM0,325h512v1h-512zM0,326h512v1h-512zM0,327h512v1h-512zM0,328h512v1h-512zM0,329h512v1h-512zM0,330h512v1h-512zM0,331h512v1h-512zM0,332h512v1h-512zM0,333h512v1h-512zM0,334h512v1h-512zM0,335h512v1h-512zM0,336h512v1h-512zM0,337h512v1h-512zM0,338h512v1h-512zM0,339h512v1h-512zM0,340h512v1h-512zM0,341h512v1h-512zM0,342h512v1h-512zM0,343h512v1h-512zM0,344h212v1h-212zM300,344h212v1h-212zM0,345h209v1h-209zM304,345h208v1h-208zM0,346h206v1h-206zM306,346h206v1h-206zM0,347h204v1h-204zM308,347h204v1h-204zM0,348h202v1h-202zM310,348h202v1h-202zM0,349h201v1h-201zM311,349h201v1h-201zM0,350h199v1h-199zM313,350h199v1h-199zM0,351h198v1h-198zM314,351h198v1h-198zM0,352h196v1h-196zM316,352h196v1h-196zM0,353h195v1h-195zM317,353h195v1h-195zM0,354h194v1h-194zM318,354h194v1h-194zM0,355h193v1h-193zM320,355h192v1h-192zM0,356h191v1h-191zM321,356h191v1h-191zM0,357h190v1h-190zM322,357h190v1h-190zM0,358h189v1h-189zM323,358h189v1h-189zM0,359h188v1h-188zM324,359h188v1h-188zM0,360h187v1h-187zM325,360h187v1h-187zM0,361h186v1h-186zM326,361h186v1h-186zM0,362h185v1h-185zM327,362h185v1h-185zM0,363h184v1h-184zM328,363h184v1h-184zM0,364h183v1h-183zM329,364h183v1h-183zM0,365h182v1h-182zM330,365h182v1h-182zM0,366h181v1h-181zM331,366h181v1h-181zM0,367h180v1h-180zM332,367h180v1h-180zM0,368h179v1h-179zM333,368h179v1h-179zM0,369h178v1h-178zM334,369h178v1h-178zM0,370h177v1h-177zM335,370h177v1h-177zM0,371h176v1h-176zM336,371h176v1h-176zM0,372h175v1h-175zM337,372h175v1h-175zM0,373h174v1h-174zM338,373h174v1h-174zM0,374h173v1h-173zM339,374h173v1h-173zM0,375h172v1h-172zM340,375h172v1h-172zM0,376h171v1h-171zM341,376h171v1h-171zM0,377h171v1h-171zM342,377h170v1h-170zM0,378h170v1h-170zM342,378h170v1h-170zM0,379h169v1h-169zM343,379h169v1h-169zM3,380h165v1h-165zM344,380h168v1h-168zM3,381h164v1h-164zM345,381h167v1h-167zM3,382h163v1h-163zM346,382h163v1h-163zM3,383h162v1h-162zM347,383h162v1h-162zM4,384h160v1h-160zM348,384h161v1h-161zM4,385h159v1h-159zM349,385h159v1h-159zM4,386h158v1h-158zM350,386h158v1h-158zM5,387h156v1h-156zM351,387h157v1h-157zM5,388h155v1h-155zM352,388h155v1h-155zM5,389h155v1h-155zM353,389h154v1h-154zM6,390h153v1h-153zM353,390h154v1h-154zM6,391h152v1h-152zM354,391h152v1h-152zM7,392h150v1h-150zM355,392h151v1h-151zM7,393h149v1h-149zM356,393h149v1h-149zM8,394h147v1h-147zM357,394h148v1h-148zM8,395h146v1h-146zM358,395h146v1h-146zM9,396h144v1h-144zM359,396h145v1h-145zM9,397h143v1h-143zM360,397h143v1h-143zM10,398h141v1h-141zM361,398h142v1h-142zM10,399h140v1h-140zM362,399h140v1h-140zM11,400h138v1h-138zM363,400h139v1h-139zM12,401h136v1h-136zM364,401h137v1h-137zM12,402h135v1h-135zM365,402h135v1h-135zM13,403h134v1h-134zM366,403h134v1h-134zM14,404h132v1h-132zM367,404h132v1h-132zM14,405h131v1h-131zM368,405h130v1h-130zM15,406h129v1h-129zM369,406h129v1h-129zM16,407h127v1h-127zM370,407h127v1h-127zM16,408h125v1h-125zM371,408h125v1h-125zM17,409h123v1h-123zM372,409h123v1h-123zM18,410h121v1h-121zM373,410h121v1h-121zM19,411h119v1h-119zM374,411h120v1h-120zM20,412h117v1h-117zM375,412h118v1h-118zM21,413h115v1h-115zM376,413h116v1h-116zM22,414h113v1h-113zM377,414h114v1h-114zM23,415h111v1h-111zM378,415h112v1h-112zM24,416h109v1h-109zM379,416h110v1h-110zM25,417h107v1h-107zM380,417h108v1h-108zM26,418h105v1h-105zM381,418h106v1h-106zM27,419h103v1h-103zM382,419h104v1h-104zM28,420h101v1h-101zM383,420h102v1h-102zM29,421h98v1h-98zM385,421h98v1h-98zM30,422h96v1h-96zM386,422h96v1h-96zM31,423h94v1h-94zM387,423h94v1h-94zM33,424h91v1h-91zM388,424h92v1h-92zM34,425h88v1h-88zM390,425h88v1h-88zM35,426h86v1h-86zM391,426h86v1h-86zM37,427h83v1h-83zM392,427h84v1h-84zM38,428h80v1h-80zM394,428h80v1h-80zM40,429h77v1h-77zM395,429h78v1h-78zM41,430h74v1h-74zM397,430h74v1h-74zM43,431h71v1h-71zM398,431h71v1h-71zM45,432h67v1h-67zM400,432h68v1h-68zM47,433h64v1h-64zM402,433h64v1h-64zM49,434h60v1h-60zM403,434h61v1h-61zM51,435h56v1h-56zM405,435h57v1h-57zM53,436h52v1h-52zM407,436h52v1h-52zM55,437h48v1h-48zM409,437h48v1h-48zM58,438h42v1h-42zM412,438h43v1h-43zM61,439h37v1h-37zM414,439h38v1h-38zM64,440h31v1h-31zM417,440h31v1h-31zM68,441h23v1h-23zM421,441h23v1h-23zM73,442h13v1h-13zM426,442h13v1h-13z"/></svg>