<svg xmlns="http://www.w3.org/2000/svg" viewBox="0 0 512 512" width="512" height="512"><path fill="#000" d="M53,0h22v1h-22zM218,0h76v1h-76zM53,1h22v1h-22zM218,1h76v1h-76zM53,2h22v1h-22zM218,2h76v1h-76zM52,3h24v1h-24zM212,3h88v1h-88zM50,4h28v1h-28zM207,4h99v1h-99zM49,5h30v1h-30zM202,5h109v1h-109zM48,6h32v1h-32zM197,6h118v1h-118zM47,7h34v1h-34zM193,7h126v1h-126zM47,8h34v1h-34zM190,8h133v1h-133zM46,9h36v1h-36zM186,9h140v1h-140zM45,10h38v1h-38zM183,10h147v1h-147zM45,11h38v1h-38zM179,11h154v1h-154zM44,12h40v1h-40zM176,12h160v1h-160zM44,13h40v1h-40zM173,13h166v1h-166zM43,14h42v1h-42zM170,14h172v1h-172zM43,15h42v1h-42zM168,15h177v1h-177zM43,16h42v1h-42zM165,16h182v1h-182zM43,17h42v1h-42zM162,17h188v1h-188zM42,18h44v1h-44zM160,18h193v1h-193zM42,19h44v1h-44zM157,19h198v1h-198zM42,20h44v1h-44zM155,20h202v1h-202zM42,21h44v1h-44zM153,21h207v1h-207zM42,22h44v1h-44zM151,22h211v1h-211zM42,23h44v1h-44zM148,23h216v1h-216zM42,24h44v1h-44zM146,24h220v1h-220zM42,25h44v1h-44zM144,25h224v1h-224zM42,26h44v1h-44zM142,26h228v1h-228zM42,27h44v1h-44zM140,27h232v1h-232zM42,28h44v1h-44zM138,28h236v1h-236zM42,29h44v1h-44zM136,29h240v1h-240zM42,30h44v1h-44zM134,30h244v1h-244zM42,31h44v1h-44zM133,31h247v1h-247zM42,32h44v1h-44zM131,32h251v1h-251zM42,33h44v1h-44zM129,33h254v1h-254zM42,34h44v1h-44zM127,34h258v1h-258zM42,35h44v1h-44zM126,35h261v1h-261zM42,36h44v1h-44zM124,36h264v1h-264zM42,37h44v1h-44zM122,37h268v1h-268zM42,38h44v1h-44zM121,38h271v1h-271zM42,39h44v1h-44zM119,39h274v1h-274zM42,40h44v1h-44zM118,40h277v1h-277zM42,41h44v1h-44zM116,41h280v1h-280zM42,42h44v1h-44zM115,42h283v1h-283zM42,43h44v1h-44zM113,43h286v1h-286zM42,44h44v1h-44zM112,44h125v1h-125zM274,44h127v1h-127zM42,45h44v1h-44zM110,45h118v1h-118zM283,45h119v1h-119zM42,46h44v1h-44zM109,46h112v1h-112zM290,46h114v1h-114zM42,47h44v1h-44zM107,47h109v1h-109zM296,47h109v1h-109zM42,48h44v1h-44zM106,48h105v1h-105zM301,48h106v1h-106zM42,49h44v1h-44zM104,49h102v1h-102zM305,49h103v1h-103zM42,50h44v1h-44zM103,50h99v1h-99zM309,50h100v1h-100zM42,51h44v1h-44zM102,51h96v1h-96zM313,51h98v1h-98zM42,52h44v1h-44zM101,52h94v1h-94zM316,52h96v1h-96zM42,53h44v1h-44zM99,53h93v1h-93zM320,53h93v1h-93zM42,54h44v1h-44zM98,54h91v1h-91zM323,54h91v1h-91zM42,55h44v1h-44zM97,55h89v1h-89zM326,55h90v1h-90zM42,56h44v1h-44zM95,56h88v1h-88zM328,56h89v1h-89zM42,57h44v1h-44zM94,57h86v1h-86zM331,57h87v1h-87zM42,58h44v1h-44zM93,58h85v1h-85zM334,58h85v1h-85zM42,59h44v1h-44zM92,59h83v1h-83zM336,59h85v1h-85zM42,60h44v1h-44zM91,60h82v1h-82zM339,60h83v1h-83zM42,61h128v1h-128zM341,61h82v1h-82zM42,62h126v1h-126zM343,62h81v1h-81zM42,63h124v1h-124zM345,63h80v1h-80zM42,64h122v1h-122zM348,64h78v1h-78zM42,65h120v1h-120zM350,65h78v1h-78zM42,66h118v1h-118zM352,66h77v1h-77zM42,67h116v1h-116zM354,67h76v1h-76zM42,68h114v1h-114zM355,68h76v1h-76zM42,69h112v1h-112zM357,69h75v1h-75zM42,70h110v1h-110zM359,70h74v1h-74zM42,71h109v1h-109zM361,71h73v1h-73zM42,72h107v1h-107zM363,72h72v1h-72zM42,73h105v1h-105zM364,73h72v1h-72zM42,74h103v1h-103zM366,74h71v1h-71zM42,75h102v1h-102zM368,75h70v1h-70zM42,76h100v1h-100zM369,76h70v1h-70zM42,77h99v1h-99zM371,77h69v1h-69zM42,78h97v1h-97zM372,78h69v1h-69zM42,79h96v1h-96zM374,79h68v1h-68zM42,80h94v1h-94zM375,80h68v1h-68zM42,81h93v1h-93zM377,81h67v1h-67zM42,82h91v1h-91zM378,82h67v1h-67zM42,83h90v1h-90zM380,83h66v1h-66zM42,84h88v1h-88zM381,84h66v1h-66zM42,85h87v1h-87zM382,85h65v1h-65zM42,86h86v1h-86zM384,86h64v1h-64zM42,87h84v1h-84zM385,87h64v1h-64zM42,88h83v1h-83zM386,88h64v1h-64zM42,89h82v1h-82zM388,89h63v1h-63zM43,90h80v1h-80zM389,90h63v1h-63zM43,91h78v1h-78zM390,91h63v1h-63zM43,92h77v1h-77zM391,92h62v1h-62zM43,93h76v1h-76zM392,93h62v1h-62zM43,94h75v1h-75zM394,94h61v1h-61zM43,95h74v1h-74zM395,95h61v1h-61zM43,96h72v1h-72zM396,96h61v1h-61zM43,97h71v1h-71zM397,97h60v1h-60zM44,98h69v1h-69zM398,98h60v1h-60zM44,99h68v1h-68zM399,99h60v1h-60zM44,100h67v1h-67zM400,100h60v1h-60zM44,101h66v1h-66zM402,101h59v1h-59zM45,102h65v1h-65zM403,102h58v1h-58zM45,103h65v1h-65zM404,103h58v1h-58zM45,104h65v1h-65zM405,104h58v1h-58zM46,105h64v1h-64zM406,105h58v1h-58zM46,106h128v1h-128zM407,106h57v1h-57zM46,107h132v1h-132zM408,107h57v1h-57zM47,108h133v1h-133zM409,108h57v1h-57zM47,109h135v1h-135zM410,109h56v1h-56zM47,110h136v1h-136zM411,110h56v1h-56zM48,111h137v1h-137zM411,111h57v1h-57zM48,112h138v1h-138zM412,112h56v1h-56zM49,113h138v1h-138zM413,113h56v1h-56zM49,114h139v1h-139zM414,114h56v1h-56zM50,115h138v1h-138zM415,115h55v1h-55zM50,116h139v1h-139zM416,116h55v1h-55zM51,117h139v1h-139zM417,117h55v1h-55zM51,118h139v1h-139zM418,118h54v1h-54zM52,119h139v1h-139zM419,119h54v1h-54zM53,120h138v1h-138zM419,120h55v1h-55zM53,121h138v1h-138zM420,121h54v1h-54zM54,122h138v1h-138zM421,122h54v1h-54zM55,123h137v1h-137zM422,123h53v1h-53zM56,124h136v1h-136zM423,124h53v1h-53zM56,125h136v1h-136zM423,125h54v1h-54zM57,126h135v1h-135zM424,126h53v1h-53zM58,127h134v1h-134zM425,127h53v1h-53zM59,128h133v1h-133zM250,128h12v1h-12zM426,128h52v1h-52zM60,129h132v1h-132zM247,129h18v1h-18zM426,129h53v1h-53zM61,130h131v1h-131zM245,130h22v1h-22zM427,130h53v1h-53zM62,131h130v1h-130zM244,131h24v1h-24zM428,131h52v1h-52zM63,132h129v1h-129zM242,132h28v1h-28zM429,132h52v1h-52zM64,133h128v1h-128zM241,133h30v1h-30zM429,133h52v1h-52zM65,134h126v1h-126zM240,134h32v1h-32zM430,134h52v1h-52zM66,135h125v1h-125zM239,135h34v1h-34zM431,135h51v1h-51zM68,136h123v1h-123zM239,136h34v1h-34zM431,136h52v1h-52zM69,137h121v1h-121zM238,137h36v1h-36zM432,137h51v1h-51zM70,138h120v1h-120zM237,138h38v1h-38zM433,138h51v1h-51zM72,139h117v1h-117zM237,139h38v1h-38zM433,139h51v1h-51zM74,140h114v1h-114zM236,140h40v1h-40zM434,140h51v1h-51zM75,141h113v1h-113zM236,141h40v1h-40zM435,141h50v1h-50zM77,142h110v1h-110zM235,142h42v1h-42zM435,142h51v1h-51zM79,143h107v1h-107zM235,143h42v1h-42zM436,143h50v1h-50zM81,144h104v1h-104zM235,144h42v1h-42zM437,144h50v1h-50zM84,145h99v1h-99zM235,145h42v1h-42zM437,145h50v1h-50zM87,146h95v1h-95zM234,146h44v1h-44zM438,146h50v1h-50zM90,147h90v1h-90zM234,147h44v1h-44zM438,147h50v1h-50zM94,148h84v1h-84zM234,148h44v1h-44zM439,148h50v1h-50zM102,149h72v1h-72zM234,149h44v1h-44zM440,149h49v1h-49zM234,150h44v1h-44zM440,150h50v1h-50zM234,151h44v1h-44zM441,151h49v1h-49zM234,152h44v1h-44zM441,152h49v1h-49zM234,153h44v1h-44zM442,153h49v1h-49zM234,154h44v1h-44zM442,154h49v1h-49zM234,155h44v1h-44zM443,155h49v1h-49zM234,156h44v1h-44zM443,156h49v1h-49zM234,157h44v1h-44zM444,157h49v1h-49zM234,158h44v1h-44zM445,158h48v1h-48zM234,159h44v1h-44zM445,159h48v1h-48zM234,160h44v1h-44zM446,160h48v1h-48zM234,161h44v1h-44zM446,161h48v1h-48zM234,162h44v1h-44zM447,162h48v1h-48zM234,163h44v1h-44zM447,163h48v1h-48zM234,164h44v1h-44zM448,164h47v1h-47zM234,165h44v1h-44zM448,165h48v1h-48zM234,166h44v1h-44zM448,166h48v1h-48zM234,167h44v1h-44zM449,167h48v1h-48zM234,168h44v1h-44zM449,168h48v1h-48zM234,169h44v1h-44zM450,169h47v1h-47zM234,170h44v1h-44zM450,170h48v1h-48zM234,171h44v1h-44zM451,171h47v1h-47zM234,172h44v1h-44zM451,172h47v1h-47zM234,173h44v1h-44zM452,173h47v1h-47zM234,174h44v1h-44zM452,174h47v1h-47zM234,175h44v1h-44zM452,175h47v1h-47zM234,176h44v1h-44zM453,176h47v1h-47zM234,177h44v1h-44zM453,177h47v1h-47zM234,178h44v1h-44zM454,178h46v1h-46zM234,179h44v1h-44zM454,179h47v1h-47zM234,180h44v1h-44zM454,180h47v1h-47zM234,181h44v1h-44zM455,181h46v1h-46zM234,182h44v1h-44zM455,182h47v1h-47zM234,183h44v1h-44zM456,183h46v1h-46zM234,184h44v1h-44zM456,184h46v1h-46zM234,185h44v1h-44zM456,185h46v1h-46zM234,186h44v1h-44zM457,186h46v1h-46zM234,187h44v1h-44zM457,187h46v1h-46zM234,188h44v1h-44zM457,188h46v1h-46zM234,189h44v1h-44zM458,189h46v1h-46zM234,190h44v1h-44zM458,190h46v1h-46zM234,191h44v1h-44zM458,191h46v1h-46zM234,192h44v1h-44zM459,192h45v1h-45zM234,193h44v1h-44zM459,193h46v1h-46zM234,194h44v1h-44zM459,194h46v1h-46zM234,195h44v1h-44zM460,195h45v1h-45zM234,196h44v1h-44zM460,196h45v1h-45zM234,197h44v1h-44zM460,197h46v1h-46zM234,198h44v1h-44zM460,198h46v1h-46zM234,199h44v1h-44zM461,199h45v1h-45zM234,200h44v1h-44zM461,200h45v1h-45zM234,201h44v1h-44zM461,201h45v1h-45zM234,202h44v1h-44zM461,202h46v1h-46zM234,203h44v1h-44zM462,203h45v1h-45zM234,204h44v1h-44zM462,204h45v1h-45zM234,205h44v1h-44zM462,205h45v1h-45zM234,206h44v1h-44zM462,206h46v1h-46zM234,207h44v1h-44zM463,207h45v1h-45zM234,208h44v1h-44zM463,208h45v1h-45zM234,209h44v1h-44zM463,209h45v1h-45zM234,210h44v1h-44zM463,210h45v1h-45zM234,211h44v1h-44zM464,211h44v1h-44zM234,212h44v1h-44zM464,212h45v1h-45zM234,213h44v1h-44zM464,213h45v1h-45zM234,214h44v1h-44zM464,214h45v1h-45zM234,215h44v1h-44zM464,215h45v1h-45zM234,216h44v1h-44zM465,216h44v1h-44zM234,217h44v1h-44zM465,217h44v1h-44zM234,218h44v1h-44zM465,218h47v1h-47zM234,219h44v1h-44zM465,219h47v1h-47zM234,220h44v1h-44zM465,220h47v1h-47zM234,221h44v1h-44zM466,221h46v1h-46zM234,222h44v1h-44zM466,222h46v1h-46zM234,223h44v1h-44zM466,223h46v1h-46zM234,224h44v1h-44zM466,224h46v1h-46zM234,225h44v1h-44zM466,225h46v1h-46zM234,226h44v1h-44zM466,226h46v1h-46zM234,227h44v1h-44zM466,227h46v1h-46zM234,228h44v1h-44zM467,228h45v1h-45zM234,229h44v1h-44zM467,229h45v1h-45zM234,230h44v1h-44zM467,230h45v1h-45zM234,231h44v1h-44zM467,231h45v1h-45zM234,232h44v1h-44zM467,232h45v1h-45zM234,233h44v1h-44zM467,233h45v1h-45zM18,234h6v1h-6zM234,234h44v1h-44zM467,234h45v1h-45zM14,235h14v1h-14zM234,235h44v1h-44zM467,235h45v1h-45zM12,236h19v1h-19zM234,236h44v1h-44zM467,236h45v1h-45zM10,237h23v1h-23zM234,237h44v1h-44zM468,237h44v1h-44zM9,238h25v1h-25zM234,238h44v1h-44zM468,238h44v1h-44zM7,239h28v1h-28zM234,239h44v1h-44zM468,239h44v1h-44zM6,240h31v1h-31zM234,240h44v1h-44zM468,240h44v1h-44zM5,241h32v1h-32zM234,241h44v1h-44zM468,241h44v1h-44zM4,242h34v1h-34zM234,242h44v1h-44zM468,242h44v1h-44zM4,243h35v1h-35zM234,243h44v1h-44zM468,243h44v1h-44zM3,244h37v1h-37zM234,244h44v1h-44zM468,244h44v1h-44zM0,245h40v1h-40zM234,245h44v1h-44zM468,245h44v1h-44zM0,246h41v1h-41zM234,246h44v1h-44zM468,246h44v1h-44zM0,247h41v1h-41zM234,247h44v1h-44zM468,247h44v1h-44zM0,248h42v1h-42zM234,248h45v1h-45zM468,248h44v1h-44zM0,249h42v1h-42zM234,249h46v1h-46zM468,249h44v1h-44zM0,250h42v1h-42zM234,250h47v1h-47zM468,250h44v1h-44zM0,251h43v1h-43zM234,251h48v1h-48zM468,251h44v1h-44zM0,252h43v1h-43zM234,252h49v1h-49zM468,252h44v1h-44zM0,253h43v1h-43zM234,253h50v1h-50zM468,253h44v1h-44zM0,254h43v1h-43zM234,254h51v1h-51zM468,254h44v1h-44zM0,255h43v1h-43zM234,255h52v1h-52zM468,255h44v1h-44zM0,256h43v1h-43zM234,256h53v1h-53zM468,256h44v1h-44zM0,257h43v1h-43zM234,257h54v1h-54zM468,257h44v1h-44zM0,258h43v1h-43zM234,258h55v1h-55zM468,258h44v1h-44zM0,259h43v1h-43zM235,259h55v1h-55zM468,259h44v1h-44zM0,260h43v1h-43zM235,260h56v1h-56zM468,260h44v1h-44zM0,261h43v1h-43zM235,261h57v1h-57zM468,261h44v1h-44zM0,262h43v1h-43zM235,262h58v1h-58zM468,262h44v1h-44zM0,263h43v1h-43zM236,263h58v1h-58zM468,263h44v1h-44zM0,264h43v1h-43zM236,264h59v1h-59zM468,264h44v1h-44zM0,265h43v1h-43zM237,265h59v1h-59zM468,265h44v1h-44zM0,266h43v1h-43zM237,266h60v1h-60zM468,266h44v1h-44zM0,267h43v1h-43zM238,267h60v1h-60zM468,267h44v1h-44zM0,268h43v1h-43zM238,268h61v1h-61zM468,268h44v1h-44zM0,269h43v1h-43zM239,269h61v1h-61zM468,269h44v1h-44zM0,270h44v1h-44zM240,270h61v1h-61zM468,270h44v1h-44zM0,271h44v1h-44zM241,271h61v1h-61zM468,271h44v1h-44zM0,272h44v1h-44zM242,272h61v1h-61zM468,272h44v1h-44zM0,273h44v1h-44zM243,273h61v1h-61zM468,273h44v1h-44zM0,274h44v1h-44zM244,274h61v1h-61zM468,274h44v1h-44zM0,275h44v1h-44zM245,275h61v1h-61zM468,275h44v1h-44zM0,276h44v1h-44zM246,276h61v1h-61zM467,276h45v1h-45zM0,277h44v1h-44zM247,277h61v1h-61zM467,277h45v1h-45zM0,278h44v1h-44zM248,278h61v1h-61zM467,278h45v1h-45zM0,279h44v1h-44zM249,279h61v1h-61zM467,279h45v1h-45zM0,280h44v1h-44zM250,280h61v1h-61zM467,280h45v1h-45zM0,281h45v1h-45zM251,281h61v1h-61zM467,281h45v1h-45zM0,282h45v1h-45zM252,282h61v1h-61zM467,282h45v1h-45zM0,283h45v1h-45zM253,283h61v1h-61zM467,283h45v1h-45zM0,284h45v1h-45zM254,284h61v1h-61zM467,284h45v1h-45zM0,285h45v1h-45zM255,285h61v1h-61zM466,285h46v1h-46zM0,286h45v1h-45zM256,286h61v1h-61zM466,286h46v1h-46zM0,287h45v1h-45zM257,287h61v1h-61zM466,287h46v1h-46zM0,288h46v1h-46zM258,288h61v1h-61zM466,288h46v1h-46zM0,289h46v1h-46zM259,289h61v1h-61zM466,289h46v1h-46zM0,290h46v1h-46zM260,290h61v1h-61zM466,290h46v1h-46zM0,291h46v1h-46zM261,291h61v1h-61zM465,291h47v1h-47zM0,292h46v1h-46zM262,292h61v1h-61zM465,292h47v1h-47zM0,293h46v1h-46zM263,293h61v1h-61zM465,293h47v1h-47zM3,294h43v1h-43zM264,294h61v1h-61zM465,294h44v1h-44zM3,295h44v1h-44zM265,295h61v1h-61zM465,295h44v1h-44zM3,296h44v1h-44zM266,296h61v1h-61zM465,296h44v1h-44zM3,297h44v1h-44zM267,297h61v1h-61zM464,297h45v1h-45zM3,298h44v1h-44zM268,298h61v1h-61zM464,298h45v1h-45zM3,299h44v1h-44zM269,299h61v1h-61zM464,299h45v1h-45zM4,300h44v1h-44zM270,300h61v1h-61zM464,300h44v1h-44zM4,301h44v1h-44zM271,301h61v1h-61zM464,301h44v1h-44zM4,302h44v1h-44zM272,302h61v1h-61zM463,302h45v1h-45zM4,303h44v1h-44zM273,303h61v1h-61zM463,303h45v1h-45zM4,304h45v1h-45zM274,304h61v1h-61zM463,304h45v1h-45zM4,305h45v1h-45zM275,305h61v1h-61zM463,305h45v1h-45zM5,306h44v1h-44zM276,306h61v1h-61zM462,306h45v1h-45zM5,307h44v1h-44zM277,307h61v1h-61zM462,307h45v1h-45zM5,308h45v1h-45zM278,308h60v1h-60zM462,308h45v1h-45zM5,309h45v1h-45zM279,309h60v1h-60zM462,309h45v1h-45zM6,310h44v1h-44zM280,310h59v1h-59zM461,310h45v1h-45zM6,311h44v1h-44zM281,311h59v1h-59zM461,311h45v1h-45zM6,312h45v1h-45zM282,312h58v1h-58zM461,312h45v1h-45zM6,313h45v1h-45zM283,313h58v1h-58zM461,313h45v1h-45zM6,314h45v1h-45zM284,314h57v1h-57zM460,314h46v1h-46zM7,315h44v1h-44zM285,315h56v1h-56zM460,315h45v1h-45zM7,316h45v1h-45zM286,316h55v1h-55zM460,316h45v1h-45zM7,317h45v1h-45zM287,317h54v1h-54zM459,317h46v1h-46zM7,318h45v1h-45zM288,318h53v1h-53zM459,318h46v1h-46zM8,319h45v1h-45zM289,319h52v1h-52zM459,319h45v1h-45zM8,320h45v1h-45zM290,320h51v1h-51zM458,320h46v1h-46zM8,321h45v1h-45zM291,321h50v1h-50zM458,321h46v1h-46zM8,322h46v1h-46zM292,322h49v1h-49zM458,322h46v1h-46zM9,323h45v1h-45zM293,323h48v1h-48zM457,323h46v1h-46zM9,324h45v1h-45zM294,324h47v1h-47zM457,324h46v1h-46zM9,325h46v1h-46zM295,325h46v1h-46zM457,325h46v1h-46zM10,326h45v1h-45zM296,326h44v1h-44zM456,326h46v1h-46zM10,327h45v1h-45zM297,327h43v1h-43zM456,327h46v1h-46zM10,328h46v1h-46zM298,328h42v1h-42zM456,328h46v1h-46zM10,329h46v1h-46zM299,329h40v1h-40zM455,329h47v1h-47zM11,330h45v1h-45zM300,330h39v1h-39zM455,330h46v1h-46zM11,331h46v1h-46zM301,331h37v1h-37zM455,331h46v1h-46zM11,332h46v1h-46zM302,332h35v1h-35zM454,332h47v1h-47zM12,333h46v1h-46zM303,333h33v1h-33zM454,333h46v1h-46zM12,334h46v1h-46zM304,334h32v1h-32zM453,334h47v1h-47zM12,335h46v1h-46zM305,335h30v1h-30zM453,335h47v1h-47zM13,336h46v1h-46zM306,336h27v1h-27zM453,336h46v1h-46zM13,337h46v1h-46zM307,337h25v1h-25zM452,337h47v1h-47zM13,338h47v1h-47zM309,338h22v1h-22zM452,338h47v1h-47zM14,339h46v1h-46zM311,339h18v1h-18zM451,339h47v1h-47zM14,340h46v1h-46zM313,340h13v1h-13zM451,340h47v1h-47zM14,341h47v1h-47zM451,341h47v1h-47zM15,342h46v1h-46zM450,342h47v1h-47zM15,343h47v1h-47zM450,343h47v1h-47zM15,344h47v1h-47zM449,344h48v1h-48zM16,345h47v1h-47zM449,345h47v1h-47zM16,346h47v1h-47zM448,346h48v1h-48zM17,347h47v1h-47zM448,347h47v1h-47zM17,348h47v1h-47zM447,348h48v1h-48zM17,349h48v1h-48zM447,349h48v1h-48zM18,350h47v1h-47zM446,350h48v1h-48zM18,351h48v1h-48zM446,351h48v1h-48zM19,352h47v1h-47zM445,352h48v1h-48zM19,353h48v1h-48zM445,353h48v1h-48zM19,354h48v1h-48zM444,354h49v1h-49zM20,355h48v1h-48zM444,355h48v1h-48zM20,356h48v1h-48zM443,356h49v1h-49zM21,357h48v1h-48zM443,357h48v1h-48zM21,358h48v1h-48zM442,358h49v1h-49zM21,359h49v1h-49zM442,359h49v1h-49zM22,360h48v1h-48zM441,360h49v1h-49zM22,361h49v1h-49zM441,361h49v1h-49zM23,362h48v1h-48zM440,362h49v1h-49zM23,363h49v1h-49zM439,363h50v1h-50zM24,364h49v1h-49zM439,364h49v1h-49zM24,365h49v1h-49zM438,365h50v1h-50zM25,366h49v1h-49zM438,366h49v1h-49zM25,367h49v1h-49zM437,367h50v1h-50zM26,368h49v1h-49zM436,368h50v1h-50zM26,369h50v1h-50zM436,369h50v1h-50zM27,370h49v1h-49zM435,370h50v1h-50zM27,371h50v1h-50zM435,371h50v1h-50zM28,372h50v1h-50zM434,372h50v1h-50zM28,373h50v1h-50zM433,373h51v1h-51zM29,374h50v1h-50zM433,374h50v1h-50zM29,375h51v1h-51zM432,375h51v1h-51zM30,376h50v1h-50zM431,376h51v1h-51zM30,377h51v1h-51zM431,377h51v1h-51zM31,378h51v1h-51zM430,378h51v1h-51zM31,379h51v1h-51zM429,379h52v1h-52zM32,380h51v1h-51zM428,380h52v1h-52zM32,381h52v1h-52zM428,381h52v1h-52zM33,382h52v1h-52zM427,382h52v1h-52zM34,383h51v1h-51zM426,383h52v1h-52zM34,384h52v1h-52zM425,384h53v1h-53zM35,385h52v1h-52zM425,385h52v1h-52zM35,386h53v1h-53zM424,386h53v1h-53zM36,387h52v1h-52zM423,387h53v1h-53zM37,388h52v1h-52zM422,388h53v1h-53zM37,389h53v1h-53zM422,389h53v1h-53zM38,390h53v1h-53zM421,390h53v1h-53zM38,391h54v1h-54zM420,391h54v1h-54zM39,392h53v1h-53zM419,392h54v1h-54zM40,393h53v1h-53zM418,393h54v1h-54zM40,394h54v1h-54zM417,394h55v1h-55zM41,395h54v1h-54zM417,395h54v1h-54zM42,396h54v1h-54zM416,396h54v1h-54zM42,397h55v1h-55zM415,397h55v1h-55zM43,398h55v1h-55zM414,398h55v1h-55zM44,399h55v1h-55zM413,399h55v1h-55zM44,400h55v1h-55zM412,400h56v1h-56zM45,401h55v1h-55zM411,401h56v1h-56zM46,402h55v1h-55zM410,402h56v1h-56zM46,403h56v1h-56zM409,403h57v1h-57zM47,404h56v1h-56zM408,404h57v1h-57zM48,405h56v1h-56zM407,405h57v1h-57zM48,406h57v1h-57zM406,406h58v1h-58zM49,407h57v1h-57zM405,407h58v1h-58zM50,408h57v1h-57zM404,408h58v1h-58zM51,409h57v1h-57zM403,409h58v1h-58zM51,410h58v1h-58zM402,410h59v1h-59zM52,411h58v1h-58zM401,411h59v1h-59zM53,412h58v1h-58zM400,412h59v1h-59zM54,413h58v1h-58zM399,413h59v1h-59zM55,414h59v1h-59zM398,414h59v1h-59zM55,415h60v1h-60zM397,415h60v1h-60zM56,416h60v1h-60zM396,416h60v1h-60zM57,417h60v1h-60zM394,417h61v1h-61zM58,418h60v1h-60zM393,418h61v1h-61zM59,419h60v1h-60zM392,419h61v1h-61zM59,420h62v1h-62zM391,420h62v1h-62zM60,421h62v1h-62zM390,421h62v1h-62zM61,422h62v1h-62zM388,422h63v1h-63zM62,423h62v1h-62zM387,423h63v1h-63zM63,424h63v1h-63zM386,424h63v1h-63zM64,425h63v1h-63zM385,425h63v1h-63zM65,426h63v1h-63zM383,426h64v1h-64zM65,427h64v1h-64zM382,427h64v1h-64zM66,428h65v1h-65zM381,428h65v1h-65zM67,429h65v1h-65zM379,429h66v1h-66zM68,430h66v1h-66zM378,430h66v1h-66zM69,431h66v1h-66zM376,431h67v1h-67zM70,432h67v1h-67zM375,432h67v1h-67zM71,433h67v1h-67zM373,433h68v1h-68zM72,434h68v1h-68zM372,434h68v1h-68zM73,435h68v1h-68zM370,435h69v1h-69zM74,436h69v1h-69zM369,436h69v1h-69zM75,437h69v1h-69zM367,437h70v1h-70zM76,438h70v1h-70zM365,438h71v1h-71zM77,439h71v1h-71zM364,439h71v1h-71zM78,440h71v1h-71zM362,440h72v1h-72zM79,441h72v1h-72zM360,441h73v1h-73zM80,442h73v1h-73zM359,442h73v1h-73zM81,443h74v1h-74zM357,443h74v1h-74zM82,444h75v1h-75zM355,444h75v1h-75zM83,445h76v1h-76zM353,445h76v1h-76zM84,446h76v1h-76zM351,446h76v1h-76zM86,447h76v1h-76zM349,447h77v1h-77zM87,448h78v1h-78zM347,448h78v1h-78zM88,449h79v1h-79zM345,449h79v1h-79zM89,450h80v1h-80zM342,450h81v1h-81zM90,451h81v1h-81zM340,451h82v1h-82zM91,452h83v1h-83zM338,452h83v1h-83zM93,453h83v1h-83zM335,453h84v1h-84zM94,454h84v1h-84zM333,454h85v1h-85zM95,455h86v1h-86zM330,455h87v1h-87zM96,456h88v1h-88zM327,456h89v1h-89zM98,457h89v1h-89zM325,457h89v1h-89zM99,458h91v1h-91zM322,458h91v1h-91zM100,459h93v1h-93zM318,459h94v1h-94zM101,460h95v1h-95zM315,460h96v1h-96zM103,461h97v1h-97zM312,461h97v1h-97zM104,462h100v1h-100zM308,462h100v1h-100zM105,463h103v1h-103zM304,463h103v1h-103zM107,464h105v1h-105zM299,464h106v1h-106zM108,465h110v1h-110zM294,465h110v1h-110zM110,466h113v1h-113zM288,466h114v1h-114zM111,467h120v1h-120zM281,467h120v1h-120zM113,468h128v1h-128zM270,468h129v1h-129zM114,469h284v1h-284zM116,470h280v1h-280zM117,471h278v1h-278zM119,472h274v1h-274zM120,473h272v1h-272zM122,474h268v1h-268zM124,475h264v1h-264zM125,476h262v1h-262zM127,477h258v1h-258zM129,478h254v1h-254zM131,479h251v1h-251zM132,480h248v1h-248zM134,481h244v1h-244zM136,482h240v1h-240zM138,483h236v1h-236zM140,484h232v1h-232zM142,485h228v1h-228zM144,486h224v1h-224zM146,487h220v1h-220zM148,488h216v1h-216zM150,489h212v1h-212zM153,490h207v1h-207zM155,491h202v1h-202zM157,492h198v1h-198zM160,493h192v1h-192zM162,494h188v1h-188zM165,495h182v1h-182zM167,496h178v1h-178zM170,497h172v1h-172zM173,498h166v1h-166zM176,499h160v1h-160zM179,500h154v1h-154zM182,501h148v1h-148zM186,502h140v1h-140zM189,503h134v1h-134zM193,504h126v1h-126zM197,505h118v1h-118zM202,506h108v1h-108zM206,507h100v1h-100zM212,508h88v1h-88zM218,509h76v1h-76zM218,510h76v1h-76zM218,511h76v1h-76z"/></svg>