<svg xmlns="http://www.w3.org/2000/svg" viewBox="0 0 512 512" width="512" height="512"><path fill="#000" d="M250,42h12v1h-12zM240,43h32v1h-32zM235,44h42v1h-42zM231,45h50v1h-50zM227,46h58v1h-58zM224,47h64v1h-64zM221,48h70v1h-70zM218,49h76v1h-76zM216,50h80v1h-80zM214,51h84v1h-84zM211,52h90v1h-90zM209,53h94v1h-94zM208,54h97v1h-97zM206,55h100v1h-100zM204,56h104v1h-104zM202,57h108v1h-108zM201,58h110v1h-110zM199,59h114v1h-114zM198,60h116v1h-116zM196,61h120v1h-120zM195,62h122v1h-122zM193,63h126v1h-126zM192,64h128v1h-128zM191,65h130v1h-130zM190,66h132v1h-132zM188,67h136v1h-136zM187,68h138v1h-138zM186,69h140v1h-140zM185,70h142v1h-142zM184,71h144v1h-144zM182,72h148v1h-148zM181,73h150v1h-150zM180,74h152v1h-152zM179,75h154v1h-154zM178,76h156v1h-156zM176,77h160v1h-160zM175,78h162v1h-162zM174,79h164v1h-164zM173,80h166v1h-166zM172,81h169v1h-169zM170,82h172v1h-172zM169,83h174v1h-174zM168,84h176v1h-176zM167,85h178v1h-178zM165,86h82v1h-82zM265,86h82v1h-82zM164,87h78v1h-78zM270,87h78v1h-78zM163,88h75v1h-75zM274,88h75v1h-75zM162,89h73v1h-73zM277,89h73v1h-73zM161,90h72v1h-72zM279,90h72v1h-72zM159,91h72v1h-72zM282,91h71v1h-71zM158,92h71v1h-71zM283,92h71v1h-71zM157,93h70v1h-70zM285,93h70v1h-70zM156,94h69v1h-69zM287,94h69v1h-69zM155,95h68v1h-68zM289,95h68v1h-68zM153,96h69v1h-69zM290,96h69v1h-69zM152,97h69v1h-69zM292,97h68v1h-68zM151,98h68v1h-68zM293,98h68v1h-68zM150,99h68v1h-68zM294,99h68v1h-68zM149,100h68v1h-68zM295,100h69v1h-69zM147,101h68v1h-68zM297,101h68v1h-68zM146,102h68v1h-68zM298,102h68v1h-68zM145,103h68v1h-68zM299,103h68v1h-68zM144,104h68v1h-68zM300,104h68v1h-68zM143,105h68v1h-68zM301,105h69v1h-69zM141,106h68v1h-68zM303,106h68v1h-68zM140,107h68v1h-68zM304,107h68v1h-68zM139,108h68v1h-68zM305,108h68v1h-68zM138,109h68v1h-68zM306,109h68v1h-68zM136,110h69v1h-69zM307,110h69v1h-69zM135,111h68v1h-68zM309,111h68v1h-68zM134,112h68v1h-68zM310,112h68v1h-68zM133,113h68v1h-68zM311,113h68v1h-68zM132,114h68v1h-68zM312,114h68v1h-68zM130,115h69v1h-69zM314,115h68v1h-68zM129,116h68v1h-68zM315,116h68v1h-68zM128,117h68v1h-68zM316,117h68v1h-68zM127,118h68v1h-68zM317,118h68v1h-68zM126,119h68v1h-68zM318,119h68v1h-68zM124,120h68v1h-68zM320,120h68v1h-68zM123,121h68v1h-68zM321,121h68v1h-68zM122,122h68v1h-68zM322,122h68v1h-68zM121,123h68v1h-68zM323,123h68v1h-68zM120,124h68v1h-68zM324,124h69v1h-69zM118,125h68v1h-68zM326,125h68v1h-68zM117,126h68v1h-68zM327,126h68v1h-68zM116,127h68v1h-68zM328,127h68v1h-68zM115,128h68v1h-68zM329,128h68v1h-68zM113,129h69v1h-69zM330,129h69v1h-69zM112,130h68v1h-68zM332,130h68v1h-68zM111,131h68v1h-68zM333,131h68v1h-68zM110,132h68v1h-68zM334,132h68v1h-68zM109,133h68v1h-68zM335,133h68v1h-68zM107,134h69v1h-69zM337,134h68v1h-68zM106,135h68v1h-68zM338,135h68v1h-68zM105,136h68v1h-68zM339,136h68v1h-68zM104,137h68v1h-68zM340,137h68v1h-68zM103,138h68v1h-68zM341,138h68v1h-68zM101,139h68v1h-68zM343,139h68v1h-68zM100,140h68v1h-68zM344,140h68v1h-68zM99,141h68v1h-68zM345,141h68v1h-68zM98,142h68v1h-68zM346,142h68v1h-68zM97,143h68v1h-68zM347,143h69v1h-69zM95,144h68v1h-68zM349,144h68v1h-68zM94,145h68v1h-68zM350,145h68v1h-68zM93,146h68v1h-68zM351,146h68v1h-68zM92,147h68v1h-68zM352,147h68v1h-68zM90,148h69v1h-69zM353,148h69v1h-69zM89,149h68v1h-68zM355,149h68v1h-68zM88,150h68v1h-68zM356,150h68v1h-68zM87,151h68v1h-68zM357,151h68v1h-68zM86,152h68v1h-68zM358,152h68v1h-68zM84,153h69v1h-69zM360,153h68v1h-68zM83,154h68v1h-68zM361,154h68v1h-68zM82,155h68v1h-68zM362,155h68v1h-68zM81,156h68v1h-68zM363,156h68v1h-68zM80,157h68v1h-68zM364,157h68v1h-68zM78,158h69v1h-69zM366,158h68v1h-68zM77,159h68v1h-68zM367,159h68v1h-68zM76,160h68v1h-68zM368,160h68v1h-68zM75,161h68v1h-68zM369,161h68v1h-68zM74,162h68v1h-68zM370,162h68v1h-68zM72,163h68v1h-68zM372,163h68v1h-68zM71,164h68v1h-68zM373,164h68v1h-68zM70,165h68v1h-68zM374,165h68v1h-68zM69,166h68v1h-68zM375,166h68v1h-68zM68,167h68v1h-68zM376,167h68v1h-68zM67,168h67v1h-67zM378,168h67v1h-67zM66,169h67v1h-67zM379,169h67v1h-67zM65,170h67v1h-67zM380,170h67v1h-67zM65,171h66v1h-66zM381,171h66v1h-66zM64,172h66v1h-66zM382,172h66v1h-66zM63,173h65v1h-65zM384,173h65v1h-65zM62,174h65v1h-65zM385,174h65v1h-65zM61,175h65v1h-65zM386,175h65v1h-65zM61,176h64v1h-64zM387,176h64v1h-64zM60,177h64v1h-64zM389,177h63v1h-63zM59,178h63v1h-63zM390,178h63v1h-63zM58,179h63v1h-63zM391,179h63v1h-63zM58,180h62v1h-62zM392,180h62v1h-62zM57,181h62v1h-62zM393,181h62v1h-62zM56,182h61v1h-61zM395,182h61v1h-61zM56,183h60v1h-60zM396,183h60v1h-60zM55,184h60v1h-60zM397,184h60v1h-60zM55,185h59v1h-59zM398,185h59v1h-59zM54,186h59v1h-59zM399,186h59v1h-59zM53,187h58v1h-58zM401,187h58v1h-58zM53,188h57v1h-57zM402,188h57v1h-57zM52,189h57v1h-57zM403,189h57v1h-57zM52,190h56v1h-56zM404,190h56v1h-56zM51,191h56v1h-56zM405,191h56v1h-56zM51,192h54v1h-54zM407,192h54v1h-54zM51,193h53v1h-53zM408,193h53v1h-53zM50,194h53v1h-53zM409,194h53v1h-53zM50,195h52v1h-52zM410,195h52v1h-52zM49,196h52v1h-52zM411,196h52v1h-52zM49,197h51v1h-51zM412,197h51v1h-51zM48,198h51v1h-51zM413,198h51v1h-51zM48,199h50v1h-50zM414,199h50v1h-50zM48,200h49v1h-49zM415,200h49v1h-49zM47,201h49v1h-49zM416,201h49v1h-49zM47,202h48v1h-48zM417,202h48v1h-48zM47,203h48v1h-48zM417,203h48v1h-48zM46,204h48v1h-48zM418,204h48v1h-48zM46,205h47v1h-47zM419,205h47v1h-47zM46,206h47v1h-47zM419,206h47v1h-47zM46,207h46v1h-46zM420,207h46v1h-46zM45,208h47v1h-47zM420,208h47v1h-47zM45,209h46v1h-46zM421,209h46v1h-46zM45,210h45v1h-45zM422,210h45v1h-45zM45,211h45v1h-45zM422,211h45v1h-45zM44,212h46v1h-46zM422,212h46v1h-46zM44,213h45v1h-45zM423,213h45v1h-45zM44,214h45v1h-45zM423,214h45v1h-45zM44,215h44v1h-44zM424,215h44v1h-44zM44,216h44v1h-44zM424,216h44v1h-44zM43,217h45v1h-45zM424,217h45v1h-45zM43,218h45v1h-45zM424,218h45v1h-45zM43,219h44v1h-44zM425,219h44v1h-44zM43,220h44v1h-44zM425,220h44v1h-44zM43,221h44v1h-44zM425,221h44v1h-44zM43,222h44v1h-44zM425,222h44v1h-44zM43,223h43v1h-43zM426,223h43v1h-43zM43,224h43v1h-43zM426,224h43v1h-43zM43,225h43v1h-43zM426,225h43v1h-43zM42,226h44v1h-44zM426,226h44v1h-44zM42,227h44v1h-44zM426,227h44v1h-44zM42,228h44v1h-44zM426,228h44v1h-44zM42,229h44v1h-44zM426,229h44v1h-44zM42,230h44v1h-44zM426,230h44v1h-44zM42,231h44v1h-44zM426,231h44v1h-44zM42,232h44v1h-44zM426,232h44v1h-44zM42,233h44v1h-44zM426,233h44v1h-44zM42,234h44v1h-44zM426,234h44v1h-44zM42,235h44v1h-44zM426,235h44v1h-44zM42,236h44v1h-44zM426,236h44v1h-44zM42,237h44v1h-44zM426,237h44v1h-44zM42,238h44v1h-44zM426,238h44v1h-44zM42,239h44v1h-44zM426,239h44v1h-44zM42,240h44v1h-44zM426,240h44v1h-44zM42,241h44v1h-44zM426,241h44v1h-44zM42,242h44v1h-44zM426,242h44v1h-44zM42,243h44v1h-44zM426,243h44v1h-44zM42,244h44v1h-44zM426,244h44v1h-44zM42,245h44v1h-44zM426,245h44v1h-44zM42,246h44v1h-44zM426,246h44v1h-44zM42,247h44v1h-44zM426,247h44v1h-44zM42,248h44v1h-44zM426,248h44v1h-44zM42,249h44v1h-44zM426,249h44v1h-44zM42,250h44v1h-44zM426,250h44v1h-44zM42,251h44v1h-44zM426,251h44v1h-44zM42,252h44v1h-44zM426,252h44v1h-44zM42,253h44v1h-44zM426,253h44v1h-44zM42,254h44v1h-44zM426,254h44v1h-44zM42,255h44v1h-44zM426,255h44v1h-44zM42,256h44v1h-44zM426,256h44v1h-44zM42,257h44v1h-44zM426,257h44v1h-44zM42,258h44v1h-44zM426,258h44v1h-44zM42,259h44v1h-44zM426,259h44v1h-44zM42,260h44v1h-44zM426,260h44v1h-44zM42,261h44v1h-44zM426,261h44v1h-44zM42,262h44v1h-44zM426,262h44v1h-44zM42,263h44v1h-44zM426,263h44v1h-44zM42,264h44v1h-44zM426,264h44v1h-44zM42,265h44v1h-44zM426,265h44v1h-44zM42,266h44v1h-44zM426,266h44v1h-44zM42,267h44v1h-44zM426,267h44v1h-44zM42,268h44v1h-44zM243,268h26v1h-26zM426,268h44v1h-44zM42,269h44v1h-44zM238,269h36v1h-36zM426,269h44v1h-44zM42,270h44v1h-44zM234,270h44v1h-44zM426,270h44v1h-44zM42,271h44v1h-44zM231,271h50v1h-50zM426,271h44v1h-44zM42,272h44v1h-44zM228,272h56v1h-56zM426,272h44v1h-44zM42,273h44v1h-44zM225,273h62v1h-62zM426,273h44v1h-44zM42,274h44v1h-44zM223,274h66v1h-66zM426,274h44v1h-44zM42,275h44v1h-44zM221,275h70v1h-70zM426,275h44v1h-44zM42,276h44v1h-44zM219,276h74v1h-74zM426,276h44v1h-44zM42,277h44v1h-44zM217,277h78v1h-78zM426,277h44v1h-44zM42,278h44v1h-44zM215,278h82v1h-82zM426,278h44v1h-44zM42,279h44v1h-44zM213,279h86v1h-86zM426,279h44v1h-44zM42,280h44v1h-44zM212,280h88v1h-88zM426,280h44v1h-44zM42,281h44v1h-44zM210,281h92v1h-92zM426,281h44v1h-44zM42,282h44v1h-44zM209,282h94v1h-94zM426,282h44v1h-44zM42,283h44v1h-44zM207,283h98v1h-98zM426,283h44v1h-44zM42,284h44v1h-44zM206,284h100v1h-100zM426,284h44v1h-44zM42,285h44v1h-44zM205,285h102v1h-102zM426,285h44v1h-44zM42,286h44v1h-44zM203,286h106v1h-106zM426,286h44v1h-44zM42,287h44v1h-44zM202,287h108v1h-108zM426,287h44v1h-44zM42,288h44v1h-44zM201,288h110v1h-110zM426,288h44v1h-44zM42,289h44v1h-44zM200,289h112v1h-112zM426,289h44v1h-44zM42,290h44v1h-44zM199,290h114v1h-114zM426,290h44v1h-44zM42,291h44v1h-44zM198,291h116v1h-116zM426,291h44v1h-44zM42,292h44v1h-44zM197,292h118v1h-118zM426,292h44v1h-44zM42,293h44v1h-44zM196,293h120v1h-120zM426,293h44v1h-44zM42,294h44v1h-44zM195,294h122v1h-122zM426,294h44v1h-44zM42,295h44v1h-44zM194,295h124v1h-124zM426,295h44v1h-44zM42,296h44v1h-44zM193,296h126v1h-126zM426,296h44v1h-44zM42,297h44v1h-44zM192,297h128v1h-128zM426,297h44v1h-44zM42,298h44v1h-44zM191,298h130v1h-130zM426,298h44v1h-44zM42,299h44v1h-44zM190,299h132v1h-132zM426,299h44v1h-44zM42,300h44v1h-44zM190,300h132v1h-132zM426,300h44v1h-44zM42,301h44v1h-44zM189,301h134v1h-134zM426,301h44v1h-44zM42,302h44v1h-44zM188,302h136v1h-136zM426,302h44v1h-44zM42,303h44v1h-44zM187,303h138v1h-138zM426,303h44v1h-44zM42,304h44v1h-44zM187,304h138v1h-138zM426,304h44v1h-44zM42,305h44v1h-44zM186,305h140v1h-140zM426,305h44v1h-44zM42,306h44v1h-44zM185,306h142v1h-142zM426,306h44v1h-44zM42,307h44v1h-44zM185,307h142v1h-142zM426,307h44v1h-44zM42,308h44v1h-44zM184,308h144v1h-144zM426,308h44v1h-44zM42,309h44v1h-44zM184,309h144v1h-144zM426,309h44v1h-44zM42,310h44v1h-44zM183,310h146v1h-146zM426,310h44v1h-44zM42,311h44v1h-44zM182,311h68v1h-68zM262,311h68v1h-68zM426,311h44v1h-44zM42,312h44v1h-44zM182,312h63v1h-63zM267,312h63v1h-63zM426,312h44v1h-44zM42,313h44v1h-44zM181,313h61v1h-61zM270,313h61v1h-61zM426,313h44v1h-44zM42,314h44v1h-44zM181,314h59v1h-59zM272,314h59v1h-59zM426,314h44v1h-44zM42,315h44v1h-44zM180,315h58v1h-58zM274,315h58v1h-58zM426,315h44v1h-44zM42,316h44v1h-44zM180,316h56v1h-56zM276,316h56v1h-56zM426,316h44v1h-44zM42,317h44v1h-44zM179,317h55v1h-55zM278,317h55v1h-55zM426,317h44v1h-44zM42,318h44v1h-44zM179,318h54v1h-54zM279,318h54v1h-54zM426,318h44v1h-44zM42,319h44v1h-44zM178,319h54v1h-54zM280,319h54v1h-54zM426,319h44v1h-44zM42,320h44v1h-44zM178,320h52v1h-52zM282,320h52v1h-52zM426,320h44v1h-44zM42,321h44v1h-44zM177,321h52v1h-52zM283,321h52v1h-52zM426,321h44v1h-44zM42,322h44v1h-44zM177,322h51v1h-51zM284,322h51v1h-51zM426,322h44v1h-44zM42,323h44v1h-44zM177,323h50v1h-50zM285,323h50v1h-50zM426,323h44v1h-44zM42,324h44v1h-44zM176,324h50v1h-50zM286,324h50v1h-50zM426,324h44v1h-44zM42,325h44v1h-44zM176,325h49v1h-49zM287,325h49v1h-49zM426,325h44v1h-44zM42,326h44v1h-44zM176,326h48v1h-48zM288,326h48v1h-48zM426,326h44v1h-44zM42,327h44v1h-44zM175,327h49v1h-49zM288,327h49v1h-49zM426,327h44v1h-44zM42,328h44v1h-44zM175,328h48v1h-48zM289,328h48v1h-48zM426,328h44v1h-44zM42,329h44v1h-44zM175,329h47v1h-47zM290,329h47v1h-47zM426,329h44v1h-44zM42,330h44v1h-44zM174,330h47v1h-47zM291,330h47v1h-47zM426,330h44v1h-44zM42,331h44v1h-44zM174,331h47v1h-47zM291,331h47v1h-47zM426,331h44v1h-44zM42,332h44v1h-44zM174,332h46v1h-46zM292,332h46v1h-46zM426,332h44v1h-44zM42,333h44v1h-44zM173,333h47v1h-47zM292,333h47v1h-47zM426,333h44v1h-44zM42,334h44v1h-44zM173,334h46v1h-46zM293,334h46v1h-46zM426,334h44v1h-44zM42,335h44v1h-44zM173,335h46v1h-46zM293,335h46v1h-46zM426,335h44v1h-44zM42,336h44v1h-44zM173,336h45v1h-45zM294,336h45v1h-45zM426,336h44v1h-44zM42,337h44v1h-44zM172,337h46v1h-46zM294,337h46v1h-46zM426,337h44v1h-44zM42,338h44v1h-44zM172,338h45v1h-45zM295,338h45v1h-45zM426,338h44v1h-44zM42,339h44v1h-44zM172,339h45v1h-45zM295,339h45v1h-45zM426,339h44v1h-44zM42,340h44v1h-44zM172,340h45v1h-45zM295,340h45v1h-45zM426,340h44v1h-44zM42,341h44v1h-44zM172,341h44v1h-44zM296,341h44v1h-44zM426,341h44v1h-44zM42,342h44v1h-44zM171,342h45v1h-45zM296,342h45v1h-45zM426,342h44v1h-44zM42,343h44v1h-44zM171,343h45v1h-45zM296,343h45v1h-45zM426,343h44v1h-44zM42,344h44v1h-44zM171,344h44v1h-44zM297,344h44v1h-44zM426,344h44v1h-44zM42,345h44v1h-44zM171,345h44v1h-44zM297,345h44v1h-44zM426,345h44v1h-44zM42,346h44v1h-44zM171,346h44v1h-44zM297,346h44v1h-44zM426,346h44v1h-44zM42,347h44v1h-44zM171,347h44v1h-44zM297,347h44v1h-44zM426,347h44v1h-44zM42,348h44v1h-44zM171,348h43v1h-43zM298,348h43v1h-43zM426,348h44v1h-44zM42,349h44v1h-44zM171,349h43v1h-43zM298,349h43v1h-43zM426,349h44v1h-44zM42,350h44v1h-44zM171,350h43v1h-43zM298,350h43v1h-43zM426,350h44v1h-44zM42,351h44v1h-44zM170,351h44v1h-44zM298,351h44v1h-44zM426,351h44v1h-44zM42,352h44v1h-44zM170,352h44v1h-44zM298,352h44v1h-44zM426,352h44v1h-44zM42,353h44v1h-44zM170,353h44v1h-44zM298,353h44v1h-44zM426,353h44v1h-44zM42,354h44v1h-44zM170,354h44v1h-44zM298,354h44v1h-44zM426,354h44v1h-44zM42,355h44v1h-44zM170,355h44v1h-44zM298,355h44v1h-44zM426,355h44v1h-44zM42,356h44v1h-44zM170,356h44v1h-44zM298,356h44v1h-44zM426,356h44v1h-44zM42,357h44v1h-44zM170,357h44v1h-44zM298,357h44v1h-44zM426,357h44v1h-44zM42,358h44v1h-44zM170,358h44v1h-44zM298,358h44v1h-44zM426,358h44v1h-44zM42,359h44v1h-44zM170,359h44v1h-44zM298,359h44v1h-44zM426,359h44v1h-44zM42,360h44v1h-44zM170,360h44v1h-44zM298,360h44v1h-44zM426,360h44v1h-44zM42,361h44v1h-44zM170,361h44v1h-44zM298,361h44v1h-44zM426,361h44v1h-44zM42,362h44v1h-44zM170,362h44v1h-44zM298,362h44v1h-44zM426,362h44v1h-44zM42,363h44v1h-44zM170,363h44v1h-44zM298,363h44v1h-44zM426,363h44v1h-44zM42,364h44v1h-44zM170,364h44v1h-44zM298,364h44v1h-44zM426,364h44v1h-44zM42,365h44v1h-44zM170,365h44v1h-44zM298,365h44v1h-44zM426,365h44v1h-44zM42,366h44v1h-44zM170,366h44v1h-44zM298,366h44v1h-44zM426,366h44v1h-44zM42,367h44v1h-44zM170,367h44v1h-44zM298,367h44v1h-44zM426,367h44v1h-44zM42,368h44v1h-44zM170,368h44v1h-44zM298,368h44v1h-44zM426,368h44v1h-44zM42,369h44v1h-44zM170,369h44v1h-44zM298,369h44v1h-44zM426,369h44v1h-44zM42,370h44v1h-44zM170,370h44v1h-44zM298,370h44v1h-44zM426,370h44v1h-44zM42,371h44v1h-44zM170,371h44v1h-44zM298,371h44v1h-44zM426,371h44v1h-44zM42,372h44v1h-44zM170,372h44v1h-44zM298,372h44v1h-44zM426,372h44v1h-44zM42,373h44v1h-44zM170,373h44v1h-44zM298,373h44v1h-44zM426,373h44v1h-44zM42,374h44v1h-44zM170,374h44v1h-44zM298,374h44v1h-44zM426,374h44v1h-44zM42,375h44v1h-44zM170,375h44v1h-44zM298,375h44v1h-44zM426,375h44v1h-44zM42,376h44v1h-44zM170,376h44v1h-44zM298,376h44v1h-44zM426,376h44v1h-44zM42,377h44v1h-44zM170,377h44v1h-44zM298,377h44v1h-44zM426,377h44v1h-44zM42,378h44v1h-44zM170,378h44v1h-44zM298,378h44v1h-44zM426,378h44v1h-44zM42,379h44v1h-44zM170,379h44v1h-44zM298,379h44v1h-44zM426,379h44v1h-44zM42,380h44v1h-44zM170,380h44v1h-44zM298,380h44v1h-44zM426,380h44v1h-44zM42,381h44v1h-44zM170,381h44v1h-44zM298,381h44v1h-44zM426,381h44v1h-44zM42,382h44v1h-44zM170,382h44v1h-44zM298,382h44v1h-44zM426,382h44v1h-44zM42,383h44v1h-44zM170,383h44v1h-44zM298,383h44v1h-44zM426,383h44v1h-44zM42,384h44v1h-44zM170,384h44v1h-44zM298,384h44v1h-44zM426,384h44v1h-44zM42,385h44v1h-44zM170,385h44v1h-44zM298,385h44v1h-44zM426,385h44v1h-44zM43,386h43v1h-43zM170,386h44v1h-44zM298,386h44v1h-44zM426,386h43v1h-43zM43,387h43v1h-43zM170,387h44v1h-44zM298,387h44v1h-44zM426,387h43v1h-43zM43,388h43v1h-43zM170,388h44v1h-44zM298,388h44v1h-44zM426,388h43v1h-43zM43,389h44v1h-44zM170,389h44v1h-44zM298,389h44v1h-44zM425,389h44v1h-44zM43,390h44v1h-44zM170,390h44v1h-44zM298,390h44v1h-44zM425,390h44v1h-44zM43,391h44v1h-44zM170,391h44v1h-44zM298,391h44v1h-44zM425,391h44v1h-44zM43,392h44v1h-44zM170,392h44v1h-44zM298,392h44v1h-44zM425,392h44v1h-44zM43,393h45v1h-45zM170,393h44v1h-44zM298,393h44v1h-44zM424,393h45v1h-45zM43,394h45v1h-45zM170,394h44v1h-44zM298,394h44v1h-44zM424,394h45v1h-45zM44,395h44v1h-44zM170,395h44v1h-44zM298,395h44v1h-44zM424,395h44v1h-44zM44,396h45v1h-45zM170,396h44v1h-44zM298,396h44v1h-44zM424,396h44v1h-44zM44,397h45v1h-45zM170,397h44v1h-44zM298,397h44v1h-44zM423,397h45v1h-45zM44,398h45v1h-45zM170,398h44v1h-44zM298,398h44v1h-44zM423,398h45v1h-45zM44,399h46v1h-46zM170,399h44v1h-44zM298,399h44v1h-44zM422,399h46v1h-46zM45,400h45v1h-45zM170,400h44v1h-44zM298,400h44v1h-44zM422,400h45v1h-45zM45,401h46v1h-46zM170,401h44v1h-44zM298,401h44v1h-44zM421,401h46v1h-46zM45,402h46v1h-46zM170,402h44v1h-44zM298,402h44v1h-44zM421,402h46v1h-46zM45,403h47v1h-47zM170,403h44v1h-44zM298,403h44v1h-44zM420,403h47v1h-47zM46,404h46v1h-46zM170,404h44v1h-44zM298,404h44v1h-44zM420,404h46v1h-46zM46,405h47v1h-47zM170,405h44v1h-44zM298,405h44v1h-44zM419,405h47v1h-47zM46,406h47v1h-47zM170,406h44v1h-44zM298,406h44v1h-44zM419,406h47v1h-47zM46,407h48v1h-48zM170,407h44v1h-44zM298,407h44v1h-44zM418,407h48v1h-48zM47,408h48v1h-48zM170,408h44v1h-44zM298,408h44v1h-44zM417,408h48v1h-48zM47,409h48v1h-48zM170,409h44v1h-44zM298,409h44v1h-44zM417,409h48v1h-48zM47,410h49v1h-49zM170,410h44v1h-44zM298,410h44v1h-44zM416,410h49v1h-49zM48,411h49v1h-49zM170,411h44v1h-44zM298,411h44v1h-44zM415,411h49v1h-49zM48,412h50v1h-50zM170,412h44v1h-44zM298,412h44v1h-44zM414,412h50v1h-50zM49,413h50v1h-50zM170,413h44v1h-44zM298,413h44v1h-44zM413,413h50v1h-50zM49,414h51v1h-51zM170,414h44v1h-44zM298,414h44v1h-44zM412,414h51v1h-51zM49,415h52v1h-52zM170,415h44v1h-44zM298,415h44v1h-44zM411,415h52v1h-52zM50,416h52v1h-52zM170,416h44v1h-44zM298,416h44v1h-44zM410,416h52v1h-52zM50,417h53v1h-53zM170,417h44v1h-44zM298,417h44v1h-44zM409,417h53v1h-53zM51,418h54v1h-54zM170,418h44v1h-44zM298,418h44v1h-44zM407,418h54v1h-54zM51,419h55v1h-55zM170,419h44v1h-44zM298,419h44v1h-44zM406,419h55v1h-55zM52,420h56v1h-56zM170,420h44v1h-44zM298,420h44v1h-44zM404,420h56v1h-56zM52,421h57v1h-57zM170,421h44v1h-44zM298,421h44v1h-44zM403,421h57v1h-57zM53,422h58v1h-58zM170,422h44v1h-44zM298,422h44v1h-44zM401,422h58v1h-58zM53,423h61v1h-61zM170,423h44v1h-44zM298,423h44v1h-44zM398,423h61v1h-61zM54,424h63v1h-63zM170,424h44v1h-44zM298,424h44v1h-44zM395,424h63v1h-63zM54,425h66v1h-66zM170,425h44v1h-44zM298,425h44v1h-44zM392,425h66v1h-66zM55,426h159v1h-159zM298,426h159v1h-159zM55,427h159v1h-159zM298,427h159v1h-159zM56,428h158v1h-158zM298,428h158v1h-158zM57,429h157v1h-157zM298,429h157v1h-157zM57,430h157v1h-157zM298,430h157v1h-157zM58,431h155v1h-155zM299,431h155v1h-155zM59,432h154v1h-154zM299,432h154v1h-154zM59,433h154v1h-154zM299,433h154v1h-154zM60,434h153v1h-153zM299,434h153v1h-153zM61,435h152v1h-152zM299,435h152v1h-152zM61,436h152v1h-152zM299,436h152v1h-152zM62,437h150v1h-150zM300,437h150v1h-150zM63,438h149v1h-149zM300,438h149v1h-149zM64,439h148v1h-148zM300,439h148v1h-148zM65,440h146v1h-146zM301,440h146v1h-146zM66,441h145v1h-145zM301,441h145v1h-145zM67,442h144v1h-144zM301,442h144v1h-144zM67,443h143v1h-143zM302,443h143v1h-143zM68,444h142v1h-142zM302,444h142v1h-142zM69,445h140v1h-140zM303,445h140v1h-140zM70,446h139v1h-139zM303,446h138v1h-138zM72,447h136v1h-136zM304,447h136v1h-136zM73,448h135v1h-135zM304,448h135v1h-135zM74,449h133v1h-133zM305,449h133v1h-133zM75,450h131v1h-131zM306,450h131v1h-131zM76,451h130v1h-130zM306,451h130v1h-130zM78,452h127v1h-127zM307,452h127v1h-127zM79,453h125v1h-125zM308,453h125v1h-125zM80,454h123v1h-123zM309,454h123v1h-123zM82,455h121v1h-121zM309,455h121v1h-121zM83,456h119v1h-119zM310,456h119v1h-119zM85,457h116v1h-116zM311,457h116v1h-116zM86,458h114v1h-114zM312,458h114v1h-114zM88,459h110v1h-110zM314,459h110v1h-110zM90,460h107v1h-107zM315,460h107v1h-107zM92,461h104v1h-104zM316,461h104v1h-104zM94,462h100v1h-100zM318,462h100v1h-100zM97,463h96v1h-96zM319,463h96v1h-96zM99,464h92v1h-92zM321,464h92v1h-92zM102,465h87v1h-87zM323,465h87v1h-87zM105,466h82v1h-82zM325,466h82v1h-82zM109,467h75v1h-75zM328,467h75v1h-75zM114,468h67v1h-67zM331,468h67v1h-67zM122,469h53v1h-53zM337,469h53v1h-53z"/></svg>