<svg xmlns="http://www.w3.org/2000/svg" viewBox="0 0 512 512" width="512" height="512"><path fill="#000" d="M95,86h322v1h-322zM88,87h336v1h-336zM83,88h346v1h-346zM79,89h354v1h-354zM76,90h360v1h-360zM73,91h366v1h-366zM70,92h372v1h-372zM67,93h378v1h-378zM65,94h382v1h-382zM63,95h386v1h-386zM60,96h391v1h-391zM59,97h394v1h-394zM57,98h398v1h-398zM55,99h402v1h-402zM53,100h406v1h-406zM51,101h410v1h-410zM50,102h412v1h-412zM48,103h416v1h-416zM47,104h418v1h-418zM45,105h422v1h-422zM44,106h424v1h-424zM43,107h426v1h-426zM41,108h430v1h-430zM40,109h432v1h-432zM39,110h434v1h-434zM38,111h436v1h-436zM37,112h438v1h-438zM35,113h442v1h-442zM34,114h444v1h-444zM33,115h446v1h-446zM32,116h448v1h-448zM31,117h450v1h-450zM30,118h452v1h-452zM29,119h454v1h-454zM28,120h456v1h-456zM27,121h457v1h-457zM27,122h458v1h-458zM26,123h460v1h-460zM25,124h462v1h-462zM24,125h464v1h-464zM23,126h466v1h-466zM23,127h466v1h-466zM22,128h234v1h-234zM417,128h73v1h-73zM21,129h235v1h-235zM422,129h69v1h-69zM20,130h236v1h-236zM425,130h67v1h-67zM20,131h236v1h-236zM428,131h64v1h-64zM19,132h237v1h-237zM430,132h63v1h-63zM18,133h238v1h-238zM433,133h61v1h-61zM18,134h238v1h-238zM435,134h59v1h-59zM17,135h239v1h-239zM437,135h58v1h-58zM16,136h240v1h-240zM438,136h58v1h-58zM16,137h240v1h-240zM440,137h56v1h-56zM15,138h241v1h-241zM442,138h55v1h-55zM15,139h241v1h-241zM443,139h54v1h-54zM14,140h242v1h-242zM444,140h54v1h-54zM13,141h243v1h-243zM446,141h53v1h-53zM13,142h243v1h-243zM447,142h52v1h-52zM12,143h244v1h-244zM448,143h52v1h-52zM12,144h244v1h-244zM449,144h51v1h-51zM11,145h245v1h-245zM450,145h51v1h-51zM11,146h245v1h-245zM451,146h50v1h-50zM10,147h246v1h-246zM452,147h50v1h-50zM10,148h246v1h-246zM453,148h49v1h-49zM9,149h247v1h-247zM454,149h49v1h-49zM9,150h247v1h-247zM455,150h48v1h-48zM9,151h247v1h-247zM456,151h47v1h-47zM8,152h248v1h-248zM456,152h48v1h-48zM8,153h248v1h-248zM457,153h47v1h-47zM7,154h249v1h-249zM458,154h47v1h-47zM7,155h249v1h-249zM459,155h46v1h-46zM7,156h249v1h-249zM459,156h46v1h-46zM6,157h250v1h-250zM460,157h46v1h-46zM6,158h250v1h-250zM461,158h45v1h-45zM6,159h250v1h-250zM461,159h45v1h-45zM5,160h251v1h-251zM462,160h45v1h-45zM5,161h251v1h-251zM462,161h45v1h-45zM5,162h251v1h-251zM463,162h44v1h-44zM4,163h252v1h-252zM463,163h45v1h-45zM4,164h252v1h-252zM464,164h44v1h-44zM4,165h252v1h-252zM464,165h44v1h-44zM4,166h252v1h-252zM465,166h43v1h-43zM3,167h253v1h-253zM465,167h44v1h-44zM3,168h253v1h-253zM465,168h44v1h-44zM3,169h253v1h-253zM466,169h43v1h-43zM3,170h120v1h-120zM132,170h124v1h-124zM466,170h43v1h-43zM3,171h115v1h-115zM137,171h119v1h-119zM360,171h6v1h-6zM467,171h42v1h-42zM0,172h115v1h-115zM140,172h116v1h-116zM357,172h11v1h-11zM467,172h45v1h-45zM0,173h113v1h-113zM142,173h114v1h-114zM355,173h15v1h-15zM467,173h45v1h-45zM0,174h111v1h-111zM144,174h112v1h-112zM354,174h17v1h-17zM467,174h45v1h-45zM0,175h110v1h-110zM146,175h110v1h-110zM353,175h19v1h-19zM468,175h44v1h-44zM0,176h108v1h-108zM147,176h109v1h-109zM352,176h21v1h-21zM468,176h44v1h-44zM0,177h107v1h-107zM148,177h108v1h-108zM352,177h22v1h-22zM468,177h44v1h-44zM0,178h106v1h-106zM150,178h106v1h-106zM351,178h23v1h-23zM468,178h44v1h-44zM0,179h105v1h-105zM151,179h105v1h-105zM351,179h24v1h-24zM469,179h43v1h-43zM0,180h104v1h-104zM151,180h105v1h-105zM350,180h25v1h-25zM469,180h43v1h-43zM0,181h103v1h-103zM152,181h104v1h-104zM350,181h25v1h-25zM469,181h43v1h-43zM0,182h102v1h-102zM153,182h103v1h-103zM350,182h25v1h-25zM469,182h43v1h-43zM0,183h102v1h-102zM154,183h102v1h-102zM350,183h26v1h-26zM469,183h43v1h-43zM0,184h101v1h-101zM154,184h102v1h-102zM350,184h26v1h-26zM469,184h43v1h-43zM0,185h100v1h-100zM155,185h101v1h-101zM350,185h26v1h-26zM470,185h42v1h-42zM0,186h100v1h-100zM156,186h100v1h-100zM350,186h26v1h-26zM470,186h42v1h-42zM0,187h99v1h-99zM156,187h100v1h-100zM350,187h26v1h-26zM470,187h42v1h-42zM0,188h99v1h-99zM157,188h99v1h-99zM350,188h26v1h-26zM470,188h42v1h-42zM0,189h98v1h-98zM157,189h99v1h-99zM350,189h26v1h-26zM470,189h42v1h-42zM0,190h98v1h-98zM157,190h99v1h-99zM350,190h26v1h-26zM470,190h42v1h-42zM0,191h97v1h-97zM158,191h98v1h-98zM350,191h26v1h-26zM470,191h42v1h-42zM0,192h97v1h-97zM158,192h98v1h-98zM301,192h124v1h-124zM470,192h42v1h-42zM0,193h97v1h-97zM159,193h97v1h-97zM296,193h133v1h-133zM470,193h42v1h-42zM0,194h96v1h-96zM159,194h97v1h-97zM295,194h136v1h-136zM470,194h42v1h-42zM0,195h96v1h-96zM159,195h97v1h-97zM293,195h139v1h-139zM470,195h42v1h-42zM0,196h96v1h-96zM159,196h97v1h-97zM292,196h141v1h-141zM470,196h42v1h-42zM0,197h96v1h-96zM160,197h96v1h-96zM291,197h143v1h-143zM470,197h42v1h-42zM0,198h96v1h-96zM160,198h96v1h-96zM291,198h144v1h-144zM470,198h42v1h-42zM0,199h95v1h-95zM160,199h96v1h-96zM290,199h145v1h-145zM470,199h42v1h-42zM0,200h95v1h-95zM160,200h96v1h-96zM290,200h146v1h-146zM470,200h42v1h-42zM0,201h95v1h-95zM127,201h1v1h-1zM160,201h96v1h-96zM289,201h147v1h-147zM470,201h42v1h-42zM0,202h95v1h-95zM126,202h3v1h-3zM161,202h95v1h-95zM289,202h148v1h-148zM470,202h42v1h-42zM0,203h94v1h-94zM126,203h3v1h-3zM161,203h95v1h-95zM289,203h148v1h-148zM470,203h42v1h-42zM0,204h94v1h-94zM126,204h3v1h-3zM161,204h95v1h-95zM289,204h148v1h-148zM470,204h42v1h-42zM0,205h94v1h-94zM126,205h4v1h-4zM161,205h95v1h-95zM289,205h148v1h-148zM470,205h42v1h-42zM0,206h94v1h-94zM125,206h5v1h-5zM162,206h94v1h-94zM289,206h148v1h-148zM470,206h42v1h-42zM0,207h93v1h-93zM125,207h5v1h-5zM162,207h94v1h-94zM289,207h148v1h-148zM470,207h42v1h-42zM0,208h93v1h-93zM125,208h5v1h-5zM162,208h94v1h-94zM289,208h147v1h-147zM470,208h42v1h-42zM0,209h93v1h-93zM125,209h6v1h-6zM162,209h94v1h-94zM289,209h147v1h-147zM470,209h42v1h-42zM0,210h93v1h-93zM125,210h6v1h-6zM163,210h93v1h-93zM290,210h146v1h-146zM470,210h42v1h-42zM0,211h92v1h-92zM124,211h7v1h-7zM163,211h93v1h-93zM290,211h145v1h-145zM470,211h42v1h-42zM0,212h92v1h-92zM124,212h7v1h-7zM163,212h93v1h-93zM291,212h144v1h-144zM470,212h42v1h-42zM0,213h92v1h-92zM124,213h7v1h-7zM163,213h93v1h-93zM292,213h142v1h-142zM470,213h42v1h-42zM0,214h92v1h-92zM124,214h8v1h-8zM163,214h93v1h-93zM292,214h141v1h-141zM470,214h42v1h-42zM0,215h92v1h-92zM123,215h9v1h-9zM164,215h92v1h-92zM294,215h138v1h-138zM470,215h42v1h-42zM0,216h91v1h-91zM123,216h9v1h-9zM164,216h92v1h-92zM295,216h135v1h-135zM470,216h42v1h-42zM0,217h91v1h-91zM123,217h9v1h-9zM164,217h92v1h-92zM297,217h131v1h-131zM470,217h42v1h-42zM0,218h91v1h-91zM123,218h10v1h-10zM164,218h92v1h-92zM391,218h26v1h-26zM470,218h42v1h-42zM0,219h91v1h-91zM122,219h11v1h-11zM165,219h91v1h-91zM391,219h26v1h-26zM470,219h42v1h-42zM0,220h90v1h-90zM122,220h11v1h-11zM165,220h91v1h-91zM391,220h26v1h-26zM470,220h42v1h-42zM0,221h90v1h-90zM122,221h11v1h-11zM165,221h91v1h-91zM391,221h26v1h-26zM470,221h42v1h-42zM0,222h90v1h-90zM122,222h12v1h-12zM165,222h91v1h-91zM391,222h25v1h-25zM470,222h42v1h-42zM0,223h90v1h-90zM121,223h13v1h-13zM166,223h90v1h-90zM390,223h26v1h-26zM470,223h42v1h-42zM0,224h89v1h-89zM121,224h13v1h-13zM166,224h90v1h-90zM390,224h26v1h-26zM470,224h42v1h-42zM0,225h89v1h-89zM121,225h13v1h-13zM166,225h90v1h-90zM390,225h26v1h-26zM470,225h42v1h-42zM0,226h89v1h-89zM121,226h13v1h-13zM166,226h90v1h-90zM390,226h26v1h-26zM470,226h42v1h-42zM0,227h89v1h-89zM121,227h14v1h-14zM166,227h90v1h-90zM390,227h26v1h-26zM470,227h42v1h-42zM0,228h88v1h-88zM120,228h15v1h-15zM167,228h89v1h-89zM390,228h26v1h-26zM470,228h42v1h-42zM0,229h88v1h-88zM120,229h15v1h-15zM167,229h89v1h-89zM389,229h26v1h-26zM470,229h42v1h-42zM0,230h88v1h-88zM120,230h15v1h-15zM167,230h89v1h-89zM389,230h26v1h-26zM470,230h42v1h-42zM0,231h88v1h-88zM120,231h16v1h-16zM167,231h89v1h-89zM389,231h26v1h-26zM470,231h42v1h-42zM0,232h88v1h-88zM119,232h17v1h-17zM168,232h88v1h-88zM389,232h26v1h-26zM470,232h42v1h-42zM0,233h87v1h-87zM119,233h17v1h-17zM168,233h88v1h-88zM389,233h26v1h-26zM470,233h42v1h-42zM0,234h87v1h-87zM119,234h17v1h-17zM168,234h88v1h-88zM388,234h27v1h-27zM470,234h42v1h-42zM0,235h87v1h-87zM119,235h18v1h-18zM168,235h88v1h-88zM388,235h26v1h-26zM470,235h42v1h-42zM0,236h87v1h-87zM118,236h19v1h-19zM169,236h87v1h-87zM388,236h26v1h-26zM470,236h42v1h-42zM0,237h86v1h-86zM118,237h19v1h-19zM169,237h87v1h-87zM388,237h26v1h-26zM470,237h42v1h-42zM0,238h86v1h-86zM118,238h19v1h-19zM169,238h87v1h-87zM387,238h27v1h-27zM470,238h42v1h-42zM0,239h86v1h-86zM118,239h19v1h-19zM169,239h87v1h-87zM387,239h26v1h-26zM470,239h42v1h-42zM0,240h86v1h-86zM117,240h21v1h-21zM169,240h87v1h-87zM387,240h26v1h-26zM470,240h42v1h-42zM0,241h85v1h-85zM117,241h21v1h-21zM170,241h86v1h-86zM386,241h27v1h-27zM470,241h42v1h-42zM0,242h85v1h-85zM117,242h21v1h-21zM170,242h86v1h-86zM386,242h27v1h-27zM470,242h42v1h-42zM0,243h85v1h-85zM117,243h21v1h-21zM170,243h86v1h-86zM386,243h26v1h-26zM470,243h42v1h-42zM0,244h85v1h-85zM117,244h22v1h-22zM170,244h86v1h-86zM386,244h26v1h-26zM470,244h42v1h-42zM0,245h84v1h-84zM116,245h23v1h-23zM171,245h85v1h-85zM385,245h27v1h-27zM470,245h42v1h-42zM0,246h84v1h-84zM116,246h23v1h-23zM171,246h85v1h-85zM385,246h27v1h-27zM470,246h42v1h-42zM0,247h84v1h-84zM116,247h23v1h-23zM171,247h85v1h-85zM385,247h26v1h-26zM470,247h42v1h-42zM0,248h84v1h-84zM116,248h24v1h-24zM171,248h85v1h-85zM384,248h27v1h-27zM470,248h42v1h-42zM0,249h83v1h-83zM115,249h25v1h-25zM171,249h85v1h-85zM384,249h27v1h-27zM470,249h42v1h-42zM0,250h83v1h-83zM115,250h25v1h-25zM172,250h84v1h-84zM383,250h27v1h-27zM470,250h42v1h-42zM0,251h83v1h-83zM115,251h25v1h-25zM172,251h84v1h-84zM383,251h27v1h-27zM470,251h42v1h-42zM0,252h83v1h-83zM115,252h25v1h-25zM172,252h84v1h-84zM383,252h27v1h-27zM470,252h42v1h-42zM0,253h83v1h-83zM114,253h27v1h-27zM172,253h84v1h-84zM382,253h27v1h-27zM470,253h42v1h-42zM0,254h82v1h-82zM114,254h27v1h-27zM173,254h83v1h-83zM382,254h27v1h-27zM470,254h42v1h-42zM0,255h82v1h-82zM114,255h27v1h-27zM173,255h83v1h-83zM381,255h28v1h-28zM470,255h42v1h-42zM0,256h82v1h-82zM114,256h27v1h-27zM173,256h83v1h-83zM335,256h2v1h-2zM381,256h27v1h-27zM470,256h42v1h-42zM0,257h82v1h-82zM113,257h29v1h-29zM173,257h83v1h-83zM331,257h10v1h-10zM381,257h27v1h-27zM470,257h42v1h-42zM0,258h81v1h-81zM113,258h29v1h-29zM174,258h82v1h-82zM330,258h13v1h-13zM380,258h28v1h-28zM470,258h42v1h-42zM0,259h81v1h-81zM113,259h29v1h-29zM174,259h82v1h-82zM328,259h17v1h-17zM380,259h27v1h-27zM470,259h42v1h-42zM0,260h81v1h-81zM113,260h29v1h-29zM174,260h82v1h-82zM327,260h19v1h-19zM379,260h28v1h-28zM470,260h42v1h-42zM0,261h81v1h-81zM112,261h30v1h-30zM174,261h82v1h-82zM326,261h20v1h-20zM379,261h27v1h-27zM470,261h42v1h-42zM0,262h80v1h-80zM112,262h31v1h-31zM174,262h82v1h-82zM326,262h21v1h-21zM378,262h28v1h-28zM470,262h42v1h-42zM0,263h80v1h-80zM112,263h31v1h-31zM175,263h81v1h-81zM325,263h23v1h-23zM378,263h28v1h-28zM470,263h42v1h-42zM0,264h80v1h-80zM112,264h31v1h-31zM175,264h81v1h-81zM325,264h23v1h-23zM377,264h28v1h-28zM470,264h42v1h-42zM0,265h80v1h-80zM112,265h31v1h-31zM175,265h81v1h-81zM324,265h25v1h-25zM377,265h28v1h-28zM470,265h42v1h-42zM0,266h79v1h-79zM111,266h33v1h-33zM175,266h81v1h-81zM324,266h25v1h-25zM376,266h28v1h-28zM470,266h42v1h-42zM0,267h79v1h-79zM111,267h33v1h-33zM176,267h80v1h-80zM324,267h26v1h-26zM375,267h29v1h-29zM470,267h42v1h-42zM0,268h79v1h-79zM111,268h33v1h-33zM176,268h80v1h-80zM324,268h27v1h-27zM375,268h28v1h-28zM470,268h42v1h-42zM0,269h79v1h-79zM111,269h33v1h-33zM176,269h80v1h-80zM324,269h27v1h-27zM374,269h29v1h-29zM470,269h42v1h-42zM0,270h79v1h-79zM110,270h35v1h-35zM176,270h80v1h-80zM324,270h28v1h-28zM374,270h28v1h-28zM470,270h42v1h-42zM0,271h78v1h-78zM110,271h35v1h-35zM177,271h79v1h-79zM324,271h28v1h-28zM373,271h29v1h-29zM470,271h42v1h-42zM0,272h78v1h-78zM110,272h35v1h-35zM177,272h79v1h-79zM324,272h29v1h-29zM372,272h29v1h-29zM470,272h42v1h-42zM0,273h78v1h-78zM110,273h35v1h-35zM177,273h79v1h-79zM324,273h30v1h-30zM372,273h29v1h-29zM470,273h42v1h-42zM0,274h78v1h-78zM109,274h36v1h-36zM177,274h79v1h-79zM325,274h29v1h-29zM371,274h29v1h-29zM470,274h42v1h-42zM0,275h77v1h-77zM177,275h79v1h-79zM325,275h30v1h-30zM370,275h30v1h-30zM470,275h42v1h-42zM0,276h77v1h-77zM178,276h78v1h-78zM326,276h30v1h-30zM370,276h29v1h-29zM470,276h42v1h-42zM0,277h77v1h-77zM178,277h78v1h-78zM327,277h30v1h-30zM369,277h30v1h-30zM470,277h42v1h-42zM0,278h77v1h-77zM178,278h78v1h-78zM327,278h30v1h-30zM368,278h30v1h-30zM470,278h42v1h-42zM0,279h76v1h-76zM178,279h78v1h-78zM328,279h30v1h-30zM367,279h31v1h-31zM470,279h42v1h-42zM0,280h76v1h-76zM179,280h77v1h-77zM328,280h31v1h-31zM367,280h30v1h-30zM470,280h42v1h-42zM0,281h76v1h-76zM179,281h77v1h-77zM329,281h31v1h-31zM366,281h31v1h-31zM470,281h42v1h-42zM0,282h76v1h-76zM179,282h77v1h-77zM329,282h67v1h-67zM470,282h42v1h-42zM0,283h75v1h-75zM179,283h77v1h-77zM330,283h65v1h-65zM470,283h42v1h-42zM0,284h75v1h-75zM180,284h76v1h-76zM331,284h64v1h-64zM470,284h42v1h-42zM0,285h75v1h-75zM180,285h76v1h-76zM331,285h63v1h-63zM470,285h42v1h-42zM0,286h75v1h-75zM180,286h76v1h-76zM332,286h61v1h-61zM470,286h42v1h-42zM0,287h75v1h-75zM180,287h76v1h-76zM333,287h60v1h-60zM470,287h42v1h-42zM0,288h74v1h-74zM180,288h76v1h-76zM333,288h59v1h-59zM470,288h42v1h-42zM0,289h74v1h-74zM181,289h75v1h-75zM334,289h57v1h-57zM470,289h42v1h-42zM0,290h74v1h-74zM181,290h75v1h-75zM335,290h56v1h-56zM470,290h42v1h-42zM0,291h74v1h-74zM181,291h75v1h-75zM335,291h55v1h-55zM470,291h42v1h-42zM0,292h73v1h-73zM181,292h75v1h-75zM336,292h53v1h-53zM470,292h42v1h-42zM0,293h73v1h-73zM182,293h74v1h-74zM337,293h52v1h-52zM470,293h42v1h-42zM0,294h73v1h-73zM182,294h74v1h-74zM338,294h50v1h-50zM470,294h42v1h-42zM0,295h73v1h-73zM182,295h74v1h-74zM338,295h49v1h-49zM470,295h42v1h-42zM0,296h72v1h-72zM182,296h74v1h-74zM339,296h47v1h-47zM470,296h42v1h-42zM0,297h72v1h-72zM182,297h74v1h-74zM340,297h45v1h-45zM470,297h42v1h-42zM0,298h72v1h-72zM183,298h73v1h-73zM341,298h44v1h-44zM470,298h42v1h-42zM0,299h72v1h-72zM183,299h73v1h-73zM341,299h44v1h-44zM470,299h42v1h-42zM0,300h71v1h-71zM183,300h73v1h-73zM341,300h44v1h-44zM470,300h42v1h-42zM0,301h71v1h-71zM183,301h73v1h-73zM341,301h44v1h-44zM470,301h42v1h-42zM0,302h71v1h-71zM184,302h72v1h-72zM341,302h44v1h-44zM470,302h42v1h-42zM0,303h71v1h-71zM184,303h72v1h-72zM340,303h46v1h-46zM470,303h42v1h-42zM0,304h71v1h-71zM184,304h72v1h-72zM338,304h50v1h-50zM470,304h42v1h-42zM0,305h70v1h-70zM184,305h72v1h-72zM336,305h54v1h-54zM470,305h42v1h-42zM0,306h70v1h-70zM102,306h51v1h-51zM185,306h71v1h-71zM334,306h58v1h-58zM470,306h42v1h-42zM0,307h70v1h-70zM102,307h51v1h-51zM185,307h71v1h-71zM331,307h63v1h-63zM470,307h42v1h-42zM0,308h70v1h-70zM101,308h52v1h-52zM185,308h71v1h-71zM329,308h67v1h-67zM470,308h42v1h-42zM0,309h69v1h-69zM101,309h52v1h-52zM185,309h71v1h-71zM326,309h73v1h-73zM470,309h42v1h-42zM0,310h69v1h-69zM101,310h53v1h-53zM185,310h71v1h-71zM324,310h78v1h-78zM470,310h42v1h-42zM0,311h69v1h-69zM101,311h53v1h-53zM186,311h70v1h-70zM320,311h85v1h-85zM470,311h42v1h-42zM0,312h69v1h-69zM100,312h54v1h-54zM186,312h70v1h-70zM317,312h92v1h-92zM470,312h42v1h-42zM0,313h68v1h-68zM100,313h54v1h-54zM186,313h70v1h-70zM312,313h101v1h-101zM470,313h42v1h-42zM0,314h68v1h-68zM100,314h55v1h-55zM186,314h70v1h-70zM307,314h112v1h-112zM470,314h42v1h-42zM0,315h68v1h-68zM100,315h55v1h-55zM187,315h69v1h-69zM299,315h127v1h-127zM470,315h42v1h-42zM0,316h68v1h-68zM99,316h56v1h-56zM187,316h69v1h-69zM296,316h133v1h-133zM470,316h42v1h-42zM0,317h67v1h-67zM99,317h56v1h-56zM187,317h69v1h-69zM294,317h137v1h-137zM470,317h42v1h-42zM0,318h67v1h-67zM99,318h57v1h-57zM187,318h69v1h-69zM293,318h139v1h-139zM470,318h42v1h-42zM0,319h67v1h-67zM99,319h57v1h-57zM188,319h68v1h-68zM292,319h141v1h-141zM470,319h42v1h-42zM0,320h67v1h-67zM99,320h57v1h-57zM188,320h68v1h-68zM291,320h143v1h-143zM470,320h42v1h-42zM0,321h67v1h-67zM98,321h58v1h-58zM188,321h68v1h-68zM290,321h69v1h-69zM367,321h68v1h-68zM470,321h42v1h-42zM0,322h66v1h-66zM98,322h58v1h-58zM188,322h68v1h-68zM290,322h68v1h-68zM368,322h67v1h-67zM470,322h42v1h-42zM0,323h66v1h-66zM98,323h59v1h-59zM188,323h68v1h-68zM289,323h67v1h-67zM370,323h66v1h-66zM470,323h42v1h-42zM0,324h66v1h-66zM98,324h59v1h-59zM189,324h67v1h-67zM289,324h65v1h-65zM372,324h64v1h-64zM470,324h42v1h-42zM0,325h66v1h-66zM97,325h60v1h-60zM189,325h67v1h-67zM289,325h63v1h-63zM373,325h64v1h-64zM470,325h42v1h-42zM0,326h66v1h-66zM97,326h60v1h-60zM189,326h67v1h-67zM289,326h62v1h-62zM375,326h62v1h-62zM470,326h42v1h-42zM0,327h66v1h-66zM97,327h61v1h-61zM189,327h67v1h-67zM289,327h60v1h-60zM377,327h60v1h-60zM469,327h43v1h-43zM0,328h66v1h-66zM97,328h61v1h-61zM189,328h67v1h-67zM289,328h58v1h-58zM379,328h58v1h-58zM469,328h43v1h-43zM0,329h66v1h-66zM96,329h62v1h-62zM188,329h68v1h-68zM289,329h56v1h-56zM381,329h56v1h-56zM469,329h43v1h-43zM0,330h66v1h-66zM96,330h62v1h-62zM188,330h68v1h-68zM289,330h54v1h-54zM383,330h54v1h-54zM469,330h43v1h-43zM0,331h67v1h-67zM96,331h63v1h-63zM188,331h68v1h-68zM289,331h51v1h-51zM385,331h51v1h-51zM469,331h43v1h-43zM0,332h67v1h-67zM96,332h63v1h-63zM187,332h69v1h-69zM289,332h49v1h-49zM388,332h48v1h-48zM469,332h43v1h-43zM0,333h67v1h-67zM95,333h64v1h-64zM187,333h69v1h-69zM290,333h45v1h-45zM390,333h46v1h-46zM468,333h44v1h-44zM0,334h68v1h-68zM94,334h66v1h-66zM186,334h70v1h-70zM290,334h42v1h-42zM393,334h42v1h-42zM468,334h44v1h-44zM0,335h69v1h-69zM94,335h67v1h-67zM186,335h70v1h-70zM291,335h38v1h-38zM396,335h38v1h-38zM468,335h44v1h-44zM0,336h69v1h-69zM93,336h68v1h-68zM185,336h71v1h-71zM292,336h34v1h-34zM400,336h34v1h-34zM468,336h44v1h-44zM0,337h70v1h-70zM92,337h70v1h-70zM184,337h72v1h-72zM293,337h29v1h-29zM403,337h30v1h-30zM467,337h45v1h-45zM0,338h72v1h-72zM91,338h72v1h-72zM183,338h73v1h-73zM294,338h24v1h-24zM408,338h23v1h-23zM467,338h45v1h-45zM0,339h73v1h-73zM90,339h75v1h-75zM182,339h74v1h-74zM296,339h17v1h-17zM413,339h17v1h-17zM467,339h45v1h-45zM3,340h72v1h-72zM88,340h79v1h-79zM180,340h76v1h-76zM298,340h8v1h-8zM420,340h7v1h-7zM467,340h42v1h-42zM3,341h75v1h-75zM85,341h85v1h-85zM176,341h80v1h-80zM466,341h43v1h-43zM3,342h253v1h-253zM466,342h43v1h-43zM3,343h253v1h-253zM465,343h44v1h-44zM3,344h253v1h-253zM465,344h44v1h-44zM4,345h252v1h-252zM465,345h43v1h-43zM4,346h252v1h-252zM464,346h44v1h-44zM4,347h252v1h-252zM464,347h44v1h-44zM4,348h252v1h-252zM463,348h45v1h-45zM5,349h251v1h-251zM463,349h44v1h-44zM5,350h251v1h-251zM462,350h45v1h-45zM5,351h251v1h-251zM462,351h45v1h-45zM6,352h250v1h-250zM461,352h45v1h-45zM6,353h250v1h-250zM461,353h45v1h-45zM6,354h250v1h-250zM460,354h46v1h-46zM7,355h249v1h-249zM459,355h46v1h-46zM7,356h249v1h-249zM459,356h46v1h-46zM7,357h249v1h-249zM458,357h47v1h-47zM8,358h248v1h-248zM457,358h47v1h-47zM8,359h248v1h-248zM456,359h48v1h-48zM9,360h247v1h-247zM456,360h47v1h-47zM9,361h247v1h-247zM455,361h48v1h-48zM9,362h247v1h-247zM454,362h48v1h-48zM10,363h246v1h-246zM453,363h49v1h-49zM10,364h246v1h-246zM452,364h50v1h-50zM11,365h245v1h-245zM451,365h50v1h-50zM11,366h245v1h-245zM450,366h51v1h-51zM12,367h244v1h-244zM449,367h51v1h-51zM12,368h244v1h-244zM448,368h52v1h-52zM13,369h243v1h-243zM447,369h52v1h-52zM13,370h243v1h-243zM446,370h53v1h-53zM14,371h242v1h-242zM444,371h54v1h-54zM15,372h241v1h-241zM443,372h54v1h-54zM15,373h241v1h-241zM442,373h55v1h-55zM16,374h240v1h-240zM440,374h56v1h-56zM16,375h240v1h-240zM438,375h58v1h-58zM17,376h239v1h-239zM437,376h58v1h-58zM18,377h238v1h-238zM435,377h59v1h-59zM18,378h238v1h-238zM433,378h61v1h-61zM19,379h237v1h-237zM430,379h63v1h-63zM20,380h236v1h-236zM428,380h64v1h-64zM20,381h236v1h-236zM425,381h67v1h-67zM21,382h235v1h-235zM421,382h70v1h-70zM22,383h234v1h-234zM417,383h73v1h-73zM23,384h466v1h-466zM23,385h466v1h-466zM24,386h464v1h-464zM25,387h462v1h-462zM26,388h460v1h-460zM27,389h458v1h-458zM27,390h457v1h-457zM28,391h456v1h-456zM29,392h454v1h-454zM30,393h452v1h-452zM31,394h450v1h-450zM32,395h448v1h-448zM33,396h446v1h-446zM34,397h444v1h-444zM35,398h442v1h-442zM37,399h438v1h-438zM38,400h436v1h-436zM39,401h434v1h-434zM40,402h432v1h-432zM41,403h430v1h-430zM43,404h426v1h-426zM44,405h424v1h-424zM45,406h422v1h-422zM47,407h418v1h-418zM48,408h416v1h-416zM50,409h412v1h-412zM51,410h410v1h-410zM53,411h406v1h-406zM55,412h402v1h-402zM57,413h398v1h-398zM59,414h394v1h-394zM61,415h390v1h-390zM63,416h386v1h-386zM65,417h382v1h-382zM67,418h378v1h-378zM70,419h372v1h-372zM73,420h366v1h-366zM76,421h360v1h-360zM79,422h354v1h-354zM83,423h346v1h-346zM88,424h336v1h-336zM95,425h322v1h-322z"/></svg>