<svg xmlns="http://www.w3.org/2000/svg" viewBox="0 0 512 512" width="512" height="512"><path fill="#000" d="M227,0h58v1h-58zM227,1h58v1h-58zM227,2h58v1h-58zM222,3h68v1h-68zM218,4h76v1h-76zM215,5h83v1h-83zM211,6h90v1h-90zM208,7h96v1h-96zM205,8h102v1h-102zM203,9h106v1h-106zM200,10h112v1h-112zM197,11h117v1h-117zM195,12h122v1h-122zM193,13h126v1h-126zM191,14h130v1h-130zM189,15h134v1h-134zM187,16h138v1h-138zM185,17h142v1h-142zM183,18h146v1h-146zM182,19h149v1h-149zM180,20h152v1h-152zM178,21h156v1h-156zM177,22h159v1h-159zM175,23h162v1h-162zM173,24h166v1h-166zM172,25h168v1h-168zM170,26h172v1h-172zM169,27h174v1h-174zM168,28h176v1h-176zM166,29h180v1h-180zM165,30h182v1h-182zM164,31h184v1h-184zM162,32h188v1h-188zM161,33h190v1h-190zM160,34h192v1h-192zM159,35h194v1h-194zM158,36h196v1h-196zM157,37h198v1h-198zM155,38h202v1h-202zM154,39h204v1h-204zM153,40h206v1h-206zM152,41h208v1h-208zM151,42h210v1h-210zM150,43h96v1h-96zM266,43h96v1h-96zM149,44h89v1h-89zM273,44h90v1h-90zM148,45h85v1h-85zM279,45h85v1h-85zM147,46h82v1h-82zM283,46h82v1h-82zM146,47h79v1h-79zM287,47h79v1h-79zM145,48h77v1h-77zM290,48h77v1h-77zM144,49h75v1h-75zM293,49h75v1h-75zM144,50h73v1h-73zM295,50h73v1h-73zM143,51h71v1h-71zM298,51h71v1h-71zM142,52h70v1h-70zM300,52h70v1h-70zM141,53h69v1h-69zM302,53h69v1h-69zM140,54h68v1h-68zM304,54h68v1h-68zM139,55h67v1h-67zM306,55h67v1h-67zM139,56h65v1h-65zM308,56h65v1h-65zM138,57h65v1h-65zM310,57h64v1h-64zM137,58h64v1h-64zM311,58h64v1h-64zM136,59h63v1h-63zM313,59h63v1h-63zM136,60h62v1h-62zM314,60h62v1h-62zM135,61h61v1h-61zM316,61h61v1h-61zM134,62h61v1h-61zM317,62h61v1h-61zM133,63h60v1h-60zM319,63h60v1h-60zM133,64h59v1h-59zM320,64h59v1h-59zM132,65h59v1h-59zM321,65h59v1h-59zM131,66h58v1h-58zM323,66h58v1h-58zM131,67h57v1h-57zM324,67h57v1h-57zM130,68h57v1h-57zM325,68h57v1h-57zM129,69h57v1h-57zM326,69h57v1h-57zM129,70h56v1h-56zM327,70h56v1h-56zM128,71h56v1h-56zM328,71h56v1h-56zM128,72h55v1h-55zM329,72h55v1h-55zM127,73h55v1h-55zM330,73h55v1h-55zM126,74h55v1h-55zM332,74h54v1h-54zM126,75h54v1h-54zM332,75h54v1h-54zM125,76h54v1h-54zM333,76h54v1h-54zM125,77h53v1h-53zM334,77h53v1h-53zM124,78h53v1h-53zM335,78h53v1h-53zM124,79h52v1h-52zM336,79h52v1h-52zM123,80h52v1h-52zM337,80h52v1h-52zM123,81h51v1h-51zM338,81h51v1h-51zM122,82h51v1h-51zM339,82h51v1h-51zM122,83h51v1h-51zM339,83h51v1h-51zM121,84h51v1h-51zM340,84h51v1h-51zM121,85h50v1h-50zM341,85h50v1h-50zM120,86h50v1h-50zM342,86h50v1h-50zM120,87h50v1h-50zM342,87h50v1h-50zM119,88h50v1h-50zM343,88h50v1h-50zM119,89h49v1h-49zM344,89h49v1h-49zM118,90h49v1h-49zM345,90h49v1h-49zM118,91h49v1h-49zM345,91h49v1h-49zM117,92h49v1h-49zM346,92h49v1h-49zM117,93h49v1h-49zM346,93h49v1h-49zM117,94h48v1h-48zM347,94h48v1h-48zM116,95h48v1h-48zM348,95h48v1h-48zM116,96h48v1h-48zM348,96h48v1h-48zM116,97h47v1h-47zM349,97h47v1h-47zM115,98h48v1h-48zM349,98h48v1h-48zM115,99h47v1h-47zM350,99h47v1h-47zM114,100h48v1h-48zM350,100h48v1h-48zM114,101h47v1h-47zM351,101h47v1h-47zM114,102h47v1h-47zM351,102h47v1h-47zM113,103h47v1h-47zM352,103h47v1h-47zM113,104h47v1h-47zM352,104h47v1h-47zM113,105h46v1h-46zM353,105h46v1h-46zM113,106h46v1h-46zM353,106h46v1h-46zM112,107h46v1h-46zM354,107h46v1h-46zM112,108h46v1h-46zM354,108h46v1h-46zM112,109h45v1h-45zM355,109h45v1h-45zM111,110h46v1h-46zM355,110h46v1h-46zM111,111h46v1h-46zM355,111h46v1h-46zM111,112h45v1h-45zM356,112h45v1h-45zM111,113h45v1h-45zM356,113h45v1h-45zM110,114h46v1h-46zM356,114h46v1h-46zM110,115h45v1h-45zM357,115h45v1h-45zM110,116h45v1h-45zM357,116h45v1h-45zM110,117h45v1h-45zM357,117h45v1h-45zM109,118h45v1h-45zM358,118h45v1h-45zM109,119h45v1h-45zM358,119h45v1h-45zM109,120h45v1h-45zM358,120h45v1h-45zM109,121h44v1h-44zM359,121h44v1h-44zM109,122h44v1h-44zM359,122h44v1h-44zM109,123h44v1h-44zM359,123h44v1h-44zM108,124h45v1h-45zM359,124h45v1h-45zM108,125h44v1h-44zM360,125h44v1h-44zM108,126h44v1h-44zM360,126h44v1h-44zM108,127h44v1h-44zM360,127h44v1h-44zM108,128h44v1h-44zM360,128h44v1h-44zM108,129h44v1h-44zM360,129h44v1h-44zM107,130h44v1h-44zM361,130h43v1h-43zM107,131h44v1h-44zM361,131h44v1h-44zM107,132h44v1h-44zM361,132h44v1h-44zM107,133h44v1h-44zM361,133h44v1h-44zM107,134h44v1h-44zM361,134h44v1h-44zM107,135h44v1h-44zM361,135h44v1h-44zM107,136h44v1h-44zM361,136h44v1h-44zM107,137h43v1h-43zM362,137h43v1h-43zM107,138h43v1h-43zM362,138h43v1h-43zM107,139h43v1h-43zM362,139h43v1h-43zM107,140h43v1h-43zM362,140h43v1h-43zM106,141h44v1h-44zM362,141h44v1h-44zM106,142h44v1h-44zM362,142h44v1h-44zM106,143h44v1h-44zM362,143h44v1h-44zM106,144h44v1h-44zM362,144h44v1h-44zM106,145h44v1h-44zM362,145h44v1h-44zM106,146h44v1h-44zM362,146h44v1h-44zM106,147h44v1h-44zM362,147h44v1h-44zM106,148h44v1h-44zM362,148h44v1h-44zM106,149h44v1h-44zM362,149h44v1h-44zM106,150h44v1h-44zM362,150h44v1h-44zM106,151h44v1h-44zM362,151h44v1h-44zM106,152h44v1h-44zM362,152h44v1h-44zM106,153h44v1h-44zM362,153h44v1h-44zM106,154h44v1h-44zM362,154h44v1h-44zM106,155h44v1h-44zM362,155h44v1h-44zM106,156h44v1h-44zM362,156h44v1h-44zM106,157h44v1h-44zM362,157h44v1h-44zM106,158h44v1h-44zM362,158h44v1h-44zM106,159h44v1h-44zM362,159h44v1h-44zM106,160h44v1h-44zM362,160h44v1h-44zM106,161h44v1h-44zM362,161h44v1h-44zM106,162h44v1h-44zM362,162h44v1h-44zM106,163h44v1h-44zM362,163h44v1h-44zM106,164h44v1h-44zM362,164h44v1h-44zM106,165h44v1h-44zM362,165h44v1h-44zM106,166h44v1h-44zM362,166h44v1h-44zM106,167h44v1h-44zM362,167h44v1h-44zM106,168h44v1h-44zM362,168h44v1h-44zM106,169h44v1h-44zM362,169h44v1h-44zM106,170h300v1h-300zM106,171h300v1h-300zM106,172h300v1h-300zM106,173h300v1h-300zM106,174h300v1h-300zM106,175h300v1h-300zM106,176h300v1h-300zM106,177h300v1h-300zM106,178h300v1h-300zM106,179h300v1h-300zM104,180h304v1h-304zM102,181h308v1h-308zM100,182h312v1h-312zM98,183h316v1h-316zM96,184h320v1h-320zM95,185h322v1h-322zM93,186h326v1h-326zM91,187h330v1h-330zM90,188h332v1h-332zM88,189h336v1h-336zM87,190h338v1h-338zM86,191h340v1h-340zM84,192h344v1h-344zM83,193h346v1h-346zM82,194h348v1h-348zM81,195h351v1h-351zM79,196h354v1h-354zM78,197h356v1h-356zM77,198h358v1h-358zM76,199h360v1h-360zM75,200h362v1h-362zM74,201h364v1h-364zM73,202h366v1h-366zM72,203h368v1h-368zM71,204h370v1h-370zM70,205h372v1h-372zM69,206h374v1h-374zM68,207h376v1h-376zM68,208h376v1h-376zM67,209h378v1h-378zM66,210h380v1h-380zM65,211h382v1h-382zM64,212h384v1h-384zM64,213h384v1h-384zM63,214h76v1h-76zM373,214h76v1h-76zM62,215h72v1h-72zM378,215h72v1h-72zM61,216h70v1h-70zM381,216h70v1h-70zM61,217h67v1h-67zM384,217h67v1h-67zM60,218h65v1h-65zM387,218h65v1h-65zM59,219h64v1h-64zM389,219h64v1h-64zM59,220h62v1h-62zM391,220h62v1h-62zM58,221h61v1h-61zM393,221h61v1h-61zM58,222h59v1h-59zM395,222h59v1h-59zM57,223h58v1h-58zM397,223h58v1h-58zM56,224h58v1h-58zM398,224h58v1h-58zM56,225h56v1h-56zM400,225h56v1h-56zM55,226h56v1h-56zM401,226h56v1h-56zM55,227h55v1h-55zM402,227h55v1h-55zM54,228h55v1h-55zM403,228h55v1h-55zM54,229h53v1h-53zM405,229h53v1h-53zM53,230h53v1h-53zM406,230h53v1h-53zM53,231h52v1h-52zM407,231h52v1h-52zM52,232h52v1h-52zM408,232h52v1h-52zM52,233h51v1h-51zM409,233h51v1h-51zM51,234h51v1h-51zM410,234h51v1h-51zM51,235h50v1h-50zM411,235h50v1h-50zM51,236h50v1h-50zM411,236h50v1h-50zM50,237h50v1h-50zM412,237h50v1h-50zM50,238h49v1h-49zM413,238h49v1h-49zM49,239h49v1h-49zM414,239h49v1h-49zM49,240h48v1h-48zM415,240h48v1h-48zM49,241h48v1h-48zM415,241h48v1h-48zM48,242h48v1h-48zM416,242h48v1h-48zM48,243h47v1h-47zM417,243h47v1h-47zM48,244h47v1h-47zM417,244h47v1h-47zM47,245h47v1h-47zM418,245h47v1h-47zM47,246h47v1h-47zM418,246h47v1h-47zM47,247h46v1h-46zM419,247h46v1h-46zM46,248h47v1h-47zM419,248h47v1h-47zM46,249h46v1h-46zM420,249h46v1h-46zM46,250h46v1h-46zM420,250h46v1h-46zM46,251h45v1h-45zM421,251h45v1h-45zM45,252h46v1h-46zM421,252h46v1h-46zM45,253h45v1h-45zM422,253h45v1h-45zM45,254h45v1h-45zM422,254h45v1h-45zM45,255h45v1h-45zM422,255h45v1h-45zM44,256h45v1h-45zM423,256h45v1h-45zM44,257h45v1h-45zM423,257h45v1h-45zM44,258h45v1h-45zM423,258h45v1h-45zM44,259h44v1h-44zM424,259h44v1h-44zM44,260h44v1h-44zM424,260h44v1h-44zM43,261h45v1h-45zM424,261h45v1h-45zM43,262h44v1h-44zM425,262h44v1h-44zM43,263h44v1h-44zM425,263h44v1h-44zM43,264h44v1h-44zM425,264h44v1h-44zM43,265h44v1h-44zM425,265h44v1h-44zM43,266h44v1h-44zM425,266h44v1h-44zM43,267h43v1h-43zM426,267h43v1h-43zM43,268h43v1h-43zM426,268h43v1h-43zM43,269h43v1h-43zM426,269h43v1h-43zM43,270h43v1h-43zM426,270h43v1h-43zM43,271h43v1h-43zM426,271h43v1h-43zM42,272h44v1h-44zM426,272h44v1h-44zM42,273h44v1h-44zM426,273h44v1h-44zM42,274h44v1h-44zM426,274h44v1h-44zM42,275h44v1h-44zM426,275h44v1h-44zM42,276h44v1h-44zM426,276h44v1h-44zM42,277h44v1h-44zM426,277h44v1h-44zM42,278h44v1h-44zM426,278h44v1h-44zM42,279h44v1h-44zM426,279h44v1h-44zM42,280h44v1h-44zM426,280h44v1h-44zM42,281h44v1h-44zM426,281h44v1h-44zM42,282h44v1h-44zM426,282h44v1h-44zM42,283h44v1h-44zM426,283h44v1h-44zM42,284h44v1h-44zM426,284h44v1h-44zM42,285h44v1h-44zM426,285h44v1h-44zM42,286h44v1h-44zM426,286h44v1h-44zM42,287h44v1h-44zM426,287h44v1h-44zM42,288h44v1h-44zM426,288h44v1h-44zM42,289h44v1h-44zM426,289h44v1h-44zM42,290h44v1h-44zM426,290h44v1h-44zM42,291h44v1h-44zM426,291h44v1h-44zM42,292h44v1h-44zM426,292h44v1h-44zM42,293h44v1h-44zM426,293h44v1h-44zM42,294h44v1h-44zM426,294h44v1h-44zM42,295h44v1h-44zM426,295h44v1h-44zM42,296h44v1h-44zM426,296h44v1h-44zM42,297h44v1h-44zM426,297h44v1h-44zM42,298h44v1h-44zM253,298h6v1h-6zM426,298h44v1h-44zM42,299h44v1h-44zM249,299h14v1h-14zM426,299h44v1h-44zM42,300h44v1h-44zM247,300h18v1h-18zM426,300h44v1h-44zM42,301h44v1h-44zM245,301h22v1h-22zM426,301h44v1h-44zM42,302h44v1h-44zM243,302h26v1h-26zM426,302h44v1h-44zM42,303h44v1h-44zM242,303h28v1h-28zM426,303h44v1h-44zM42,304h44v1h-44zM241,304h30v1h-30zM426,304h44v1h-44zM42,305h44v1h-44zM240,305h32v1h-32zM426,305h44v1h-44zM42,306h44v1h-44zM239,306h34v1h-34zM426,306h44v1h-44zM42,307h44v1h-44zM238,307h36v1h-36zM426,307h44v1h-44zM42,308h44v1h-44zM238,308h36v1h-36zM426,308h44v1h-44zM42,309h44v1h-44zM237,309h38v1h-38zM426,309h44v1h-44zM42,310h44v1h-44zM237,310h38v1h-38zM426,310h44v1h-44zM42,311h44v1h-44zM236,311h40v1h-40zM426,311h44v1h-44zM42,312h44v1h-44zM236,312h40v1h-40zM426,312h44v1h-44zM42,313h44v1h-44zM235,313h42v1h-42zM426,313h44v1h-44zM42,314h44v1h-44zM235,314h42v1h-42zM426,314h44v1h-44zM42,315h44v1h-44zM235,315h42v1h-42zM426,315h44v1h-44zM42,316h44v1h-44zM235,316h42v1h-42zM426,316h44v1h-44zM42,317h44v1h-44zM234,317h44v1h-44zM426,317h44v1h-44zM42,318h44v1h-44zM234,318h44v1h-44zM426,318h44v1h-44zM42,319h44v1h-44zM234,319h44v1h-44zM426,319h44v1h-44zM42,320h44v1h-44zM234,320h44v1h-44zM426,320h44v1h-44zM42,321h44v1h-44zM234,321h44v1h-44zM426,321h44v1h-44zM42,322h44v1h-44zM234,322h44v1h-44zM426,322h44v1h-44zM42,323h44v1h-44zM234,323h44v1h-44zM426,323h44v1h-44zM42,324h44v1h-44zM234,324h44v1h-44zM426,324h44v1h-44zM42,325h44v1h-44zM234,325h44v1h-44zM426,325h44v1h-44zM42,326h44v1h-44zM234,326h44v1h-44zM426,326h44v1h-44zM42,327h44v1h-44zM234,327h44v1h-44zM426,327h44v1h-44zM42,328h44v1h-44zM234,328h44v1h-44zM426,328h44v1h-44zM42,329h44v1h-44zM234,329h44v1h-44zM426,329h44v1h-44zM42,330h44v1h-44zM234,330h44v1h-44zM426,330h44v1h-44zM42,331h44v1h-44zM234,331h44v1h-44zM426,331h44v1h-44zM42,332h44v1h-44zM234,332h44v1h-44zM426,332h44v1h-44zM42,333h44v1h-44zM234,333h44v1h-44zM426,333h44v1h-44zM42,334h44v1h-44zM234,334h44v1h-44zM426,334h44v1h-44zM42,335h44v1h-44zM234,335h44v1h-44zM426,335h44v1h-44zM42,336h44v1h-44zM234,336h44v1h-44zM426,336h44v1h-44zM42,337h44v1h-44zM234,337h44v1h-44zM426,337h44v1h-44zM42,338h44v1h-44zM234,338h44v1h-44zM426,338h44v1h-44zM42,339h44v1h-44zM234,339h44v1h-44zM426,339h44v1h-44zM42,340h44v1h-44zM234,340h44v1h-44zM426,340h44v1h-44zM42,341h44v1h-44zM234,341h44v1h-44zM426,341h44v1h-44zM42,342h44v1h-44zM234,342h44v1h-44zM426,342h44v1h-44zM42,343h44v1h-44zM234,343h44v1h-44zM426,343h44v1h-44zM42,344h44v1h-44zM234,344h44v1h-44zM426,344h44v1h-44zM42,345h44v1h-44zM234,345h44v1h-44zM426,345h44v1h-44zM42,346h44v1h-44zM234,346h44v1h-44zM426,346h44v1h-44zM42,347h44v1h-44zM234,347h44v1h-44zM426,347h44v1h-44zM42,348h44v1h-44zM234,348h44v1h-44zM426,348h44v1h-44zM42,349h44v1h-44zM234,349h44v1h-44zM426,349h44v1h-44zM42,350h44v1h-44zM234,350h44v1h-44zM426,350h44v1h-44zM42,351h44v1h-44zM234,351h44v1h-44zM426,351h44v1h-44zM42,352h44v1h-44zM234,352h44v1h-44zM426,352h44v1h-44zM42,353h44v1h-44zM234,353h44v1h-44zM426,353h44v1h-44zM42,354h44v1h-44zM234,354h44v1h-44zM426,354h44v1h-44zM42,355h44v1h-44zM234,355h44v1h-44zM426,355h44v1h-44zM42,356h44v1h-44zM234,356h44v1h-44zM426,356h44v1h-44zM42,357h44v1h-44zM234,357h44v1h-44zM426,357h44v1h-44zM42,358h44v1h-44zM234,358h44v1h-44zM426,358h44v1h-44zM42,359h44v1h-44zM234,359h44v1h-44zM426,359h44v1h-44zM42,360h44v1h-44zM234,360h44v1h-44zM426,360h44v1h-44zM42,361h44v1h-44zM234,361h44v1h-44zM426,361h44v1h-44zM42,362h44v1h-44zM234,362h44v1h-44zM426,362h44v1h-44zM42,363h44v1h-44zM234,363h44v1h-44zM426,363h44v1h-44zM42,364h44v1h-44zM234,364h44v1h-44zM426,364h44v1h-44zM42,365h44v1h-44zM234,365h43v1h-43zM426,365h44v1h-44zM42,366h44v1h-44zM235,366h42v1h-42zM426,366h44v1h-44zM42,367h44v1h-44zM235,367h42v1h-42zM426,367h44v1h-44zM42,368h44v1h-44zM235,368h42v1h-42zM426,368h44v1h-44zM42,369h44v1h-44zM235,369h42v1h-42zM426,369h44v1h-44zM42,370h44v1h-44zM236,370h40v1h-40zM426,370h44v1h-44zM42,371h44v1h-44zM236,371h40v1h-40zM426,371h44v1h-44zM42,372h44v1h-44zM237,372h38v1h-38zM426,372h44v1h-44zM42,373h44v1h-44zM237,373h38v1h-38zM426,373h44v1h-44zM42,374h44v1h-44zM238,374h36v1h-36zM426,374h44v1h-44zM42,375h44v1h-44zM239,375h34v1h-34zM426,375h44v1h-44zM42,376h44v1h-44zM239,376h34v1h-34zM426,376h44v1h-44zM42,377h44v1h-44zM240,377h32v1h-32zM426,377h44v1h-44zM42,378h44v1h-44zM241,378h30v1h-30zM426,378h44v1h-44zM42,379h44v1h-44zM242,379h28v1h-28zM426,379h44v1h-44zM42,380h44v1h-44zM244,380h24v1h-24zM426,380h44v1h-44zM42,381h44v1h-44zM245,381h22v1h-22zM426,381h44v1h-44zM42,382h44v1h-44zM247,382h18v1h-18zM426,382h44v1h-44zM42,383h44v1h-44zM250,383h12v1h-12zM426,383h44v1h-44zM42,384h44v1h-44zM426,384h44v1h-44zM42,385h44v1h-44zM426,385h44v1h-44zM42,386h44v1h-44zM426,386h44v1h-44zM42,387h44v1h-44zM426,387h44v1h-44zM42,388h44v1h-44zM426,388h44v1h-44zM42,389h44v1h-44zM426,389h44v1h-44zM42,390h44v1h-44zM426,390h44v1h-44zM42,391h44v1h-44zM426,391h44v1h-44zM42,392h44v1h-44zM426,392h44v1h-44zM42,393h44v1h-44zM426,393h44v1h-44zM42,394h44v1h-44zM426,394h44v1h-44zM42,395h44v1h-44zM426,395h44v1h-44zM42,396h44v1h-44zM426,396h44v1h-44zM42,397h44v1h-44zM426,397h44v1h-44zM42,398h44v1h-44zM426,398h44v1h-44zM42,399h44v1h-44zM426,399h44v1h-44zM42,400h44v1h-44zM426,400h44v1h-44zM42,401h44v1h-44zM426,401h44v1h-44zM42,402h44v1h-44zM426,402h44v1h-44zM42,403h44v1h-44zM426,403h44v1h-44zM42,404h44v1h-44zM426,404h44v1h-44zM42,405h44v1h-44zM426,405h44v1h-44zM42,406h44v1h-44zM426,406h44v1h-44zM42,407h44v1h-44zM426,407h44v1h-44zM42,408h44v1h-44zM426,408h44v1h-44zM42,409h44v1h-44zM426,409h44v1h-44zM42,410h44v1h-44zM426,410h44v1h-44zM42,411h44v1h-44zM426,411h44v1h-44zM43,412h43v1h-43zM426,412h43v1h-43zM43,413h43v1h-43zM426,413h43v1h-43zM43,414h43v1h-43zM426,414h43v1h-43zM43,415h44v1h-44zM425,415h44v1h-44zM43,416h44v1h-44zM425,416h44v1h-44zM43,417h44v1h-44zM425,417h44v1h-44zM43,418h44v1h-44zM425,418h44v1h-44zM43,419h44v1h-44zM425,419h44v1h-44zM43,420h45v1h-45zM424,420h45v1h-45zM44,421h44v1h-44zM424,421h44v1h-44zM44,422h44v1h-44zM424,422h44v1h-44zM44,423h44v1h-44zM424,423h44v1h-44zM44,424h45v1h-45zM423,424h45v1h-45zM44,425h45v1h-45zM423,425h45v1h-45zM44,426h45v1h-45zM423,426h45v1h-45zM45,427h45v1h-45zM422,427h45v1h-45zM45,428h45v1h-45zM422,428h45v1h-45zM45,429h45v1h-45zM422,429h45v1h-45zM45,430h46v1h-46zM421,430h46v1h-46zM46,431h45v1h-45zM421,431h45v1h-45zM46,432h46v1h-46zM420,432h46v1h-46zM46,433h46v1h-46zM420,433h46v1h-46zM46,434h47v1h-47zM419,434h47v1h-47zM47,435h46v1h-46zM419,435h46v1h-46zM47,436h47v1h-47zM418,436h47v1h-47zM47,437h47v1h-47zM418,437h47v1h-47zM48,438h47v1h-47zM417,438h47v1h-47zM48,439h48v1h-48zM416,439h48v1h-48zM48,440h48v1h-48zM416,440h48v1h-48zM49,441h48v1h-48zM415,441h48v1h-48zM49,442h49v1h-49zM414,442h49v1h-49zM49,443h49v1h-49zM413,443h50v1h-50zM50,444h49v1h-49zM413,444h49v1h-49zM50,445h50v1h-50zM412,445h50v1h-50zM51,446h50v1h-50zM411,446h50v1h-50zM51,447h51v1h-51zM410,447h51v1h-51zM51,448h52v1h-52zM409,448h52v1h-52zM52,449h52v1h-52zM408,449h52v1h-52zM52,450h53v1h-53zM407,450h53v1h-53zM53,451h53v1h-53zM406,451h53v1h-53zM53,452h54v1h-54zM405,452h54v1h-54zM54,453h54v1h-54zM404,453h54v1h-54zM54,454h55v1h-55zM403,454h55v1h-55zM55,455h55v1h-55zM402,455h55v1h-55zM55,456h57v1h-57zM400,456h57v1h-57zM56,457h57v1h-57zM399,457h57v1h-57zM57,458h57v1h-57zM398,458h57v1h-57zM57,459h59v1h-59zM396,459h59v1h-59zM58,460h60v1h-60zM394,460h60v1h-60zM58,461h61v1h-61zM393,461h61v1h-61zM59,462h63v1h-63zM391,462h62v1h-62zM60,463h64v1h-64zM388,463h64v1h-64zM60,464h66v1h-66zM386,464h66v1h-66zM61,465h68v1h-68zM383,465h68v1h-68zM62,466h70v1h-70zM380,466h70v1h-70zM62,467h74v1h-74zM376,467h74v1h-74zM63,468h79v1h-79zM370,468h79v1h-79zM64,469h384v1h-384zM65,470h382v1h-382zM65,471h382v1h-382zM66,472h380v1h-380zM67,473h378v1h-378zM68,474h376v1h-376zM69,475h374v1h-374zM69,476h374v1h-374zM70,477h372v1h-372zM71,478h370v1h-370zM72,479h368v1h-368zM73,480h366v1h-366zM74,481h364v1h-364zM75,482h362v1h-362zM76,483h360v1h-360zM77,484h358v1h-358zM79,485h354v1h-354zM80,486h352v1h-352zM81,487h350v1h-350zM82,488h348v1h-348zM83,489h346v1h-346zM85,490h342v1h-342zM86,491h340v1h-340zM87,492h338v1h-338zM89,493h334v1h-334zM90,494h332v1h-332zM92,495h328v1h-328zM93,496h326v1h-326zM95,497h322v1h-322zM97,498h318v1h-318zM99,499h314v1h-314zM101,500h311v1h-311zM102,501h308v1h-308zM105,502h302v1h-302zM107,503h298v1h-298zM109,504h294v1h-294zM112,505h288v1h-288zM115,506h283v1h-283zM117,507h278v1h-278zM121,508h270v1h-270zM125,509h262v1h-262zM125,510h262v1h-262zM125,511h262v1h-262z"/></svg>