<svg xmlns="http://www.w3.org/2000/svg" viewBox="0 0 512 512" width="512" height="512"><path fill="#000" d="M202,0h108v1h-108zM202,1h108v1h-108zM202,2h108v1h-108zM199,3h114v1h-114zM197,4h118v1h-118zM195,5h122v1h-122zM193,6h126v1h-126zM192,7h128v1h-128zM190,8h132v1h-132zM189,9h134v1h-134zM188,10h136v1h-136zM187,11h138v1h-138zM186,12h140v1h-140zM185,13h142v1h-142zM184,14h144v1h-144zM183,15h146v1h-146zM182,16h148v1h-148zM182,17h148v1h-148zM181,18h150v1h-150zM180,19h152v1h-152zM180,20h152v1h-152zM179,21h154v1h-154zM179,22h154v1h-154zM178,23h156v1h-156zM178,24h156v1h-156zM177,25h158v1h-158zM177,26h158v1h-158zM177,27h158v1h-158zM176,28h160v1h-160zM176,29h160v1h-160zM176,30h160v1h-160zM175,31h162v1h-162zM175,32h162v1h-162zM175,33h162v1h-162zM175,34h162v1h-162zM175,35h162v1h-162zM175,36h162v1h-162zM174,37h164v1h-164zM174,38h164v1h-164zM174,39h164v1h-164zM174,40h39v1h-39zM299,40h39v1h-39zM174,41h39v1h-39zM299,41h39v1h-39zM174,42h39v1h-39zM299,42h39v1h-39zM173,43h40v1h-40zM299,43h40v1h-40zM173,44h40v1h-40zM299,44h40v1h-40zM173,45h39v1h-39zM300,45h39v1h-39zM173,46h39v1h-39zM300,46h39v1h-39zM173,47h39v1h-39zM300,47h39v1h-39zM173,48h39v1h-39zM300,48h39v1h-39zM172,49h40v1h-40zM300,49h40v1h-40zM172,50h40v1h-40zM300,50h40v1h-40zM172,51h39v1h-39zM301,51h39v1h-39zM172,52h39v1h-39zM301,52h39v1h-39zM172,53h39v1h-39zM301,53h39v1h-39zM172,54h39v1h-39zM301,54h39v1h-39zM171,55h40v1h-40zM301,55h40v1h-40zM171,56h40v1h-40zM301,56h40v1h-40zM171,57h39v1h-39zM302,57h39v1h-39zM171,58h39v1h-39zM302,58h39v1h-39zM171,59h39v1h-39zM302,59h39v1h-39zM171,60h39v1h-39zM302,60h39v1h-39zM170,61h40v1h-40zM302,61h40v1h-40zM170,62h40v1h-40zM302,62h40v1h-40zM170,63h39v1h-39zM303,63h39v1h-39zM170,64h39v1h-39zM303,64h39v1h-39zM169,65h40v1h-40zM303,65h40v1h-40zM169,66h40v1h-40zM303,66h40v1h-40zM169,67h40v1h-40zM303,67h40v1h-40zM168,68h41v1h-41zM303,68h41v1h-41zM168,69h40v1h-40zM304,69h40v1h-40zM167,70h41v1h-41zM304,70h41v1h-41zM167,71h41v1h-41zM304,71h41v1h-41zM84,72h11v1h-11zM166,72h42v1h-42zM304,72h42v1h-42zM417,72h11v1h-11zM80,73h20v1h-20zM165,73h42v1h-42zM305,73h42v1h-42zM412,73h20v1h-20zM77,74h26v1h-26zM164,74h43v1h-43zM305,74h42v1h-42zM409,74h26v1h-26zM74,75h32v1h-32zM164,75h43v1h-43zM305,75h43v1h-43zM406,75h32v1h-32zM72,76h37v1h-37zM163,76h44v1h-44zM305,76h44v1h-44zM403,76h37v1h-37zM70,77h41v1h-41zM162,77h44v1h-44zM306,77h44v1h-44zM401,77h41v1h-41zM69,78h45v1h-45zM161,78h45v1h-45zM306,78h45v1h-45zM398,78h45v1h-45zM67,79h50v1h-50zM160,79h46v1h-46zM306,79h46v1h-46zM395,79h50v1h-50zM66,80h53v1h-53zM158,80h47v1h-47zM307,80h47v1h-47zM393,80h53v1h-53zM65,81h57v1h-57zM157,81h48v1h-48zM307,81h48v1h-48zM390,81h57v1h-57zM63,82h62v1h-62zM155,82h49v1h-49zM308,82h49v1h-49zM387,82h62v1h-62zM62,83h65v1h-65zM153,83h51v1h-51zM308,83h51v1h-51zM385,83h65v1h-65zM61,84h69v1h-69zM151,84h53v1h-53zM308,84h53v1h-53zM382,84h69v1h-69zM60,85h74v1h-74zM147,85h56v1h-56zM309,85h56v1h-56zM378,85h74v1h-74zM60,86h143v1h-143zM309,86h143v1h-143zM59,87h143v1h-143zM310,87h143v1h-143zM58,88h144v1h-144zM310,88h144v1h-144zM57,89h144v1h-144zM311,89h144v1h-144zM57,90h143v1h-143zM312,90h143v1h-143zM56,91h144v1h-144zM312,91h144v1h-144zM55,92h144v1h-144zM313,92h144v1h-144zM55,93h144v1h-144zM313,93h144v1h-144zM54,94h144v1h-144zM314,94h144v1h-144zM54,95h143v1h-143zM315,95h143v1h-143zM53,96h143v1h-143zM316,96h143v1h-143zM53,97h143v1h-143zM316,97h143v1h-143zM52,98h143v1h-143zM317,98h143v1h-143zM51,99h143v1h-143zM318,99h143v1h-143zM51,100h142v1h-142zM319,100h142v1h-142zM50,101h142v1h-142zM320,101h142v1h-142zM50,102h142v1h-142zM320,102h142v1h-142zM49,103h142v1h-142zM321,103h142v1h-142zM49,104h141v1h-141zM322,104h141v1h-141zM48,105h141v1h-141zM323,105h141v1h-141zM47,106h141v1h-141zM324,106h141v1h-141zM47,107h139v1h-139zM325,107h140v1h-140zM46,108h139v1h-139zM327,108h139v1h-139zM46,109h138v1h-138zM328,109h138v1h-138zM45,110h138v1h-138zM329,110h138v1h-138zM45,111h137v1h-137zM330,111h137v1h-137zM44,112h45v1h-45zM94,112h86v1h-86zM332,112h86v1h-86zM423,112h45v1h-45zM43,113h45v1h-45zM97,113h82v1h-82zM333,113h82v1h-82zM424,113h45v1h-45zM43,114h45v1h-45zM99,114h78v1h-78zM335,114h78v1h-78zM424,114h45v1h-45zM42,115h45v1h-45zM102,115h74v1h-74zM336,115h74v1h-74zM425,115h45v1h-45zM42,116h44v1h-44zM105,116h69v1h-69zM338,116h69v1h-69zM426,116h44v1h-44zM41,117h45v1h-45zM107,117h65v1h-65zM340,117h65v1h-65zM426,117h45v1h-45zM40,118h45v1h-45zM110,118h60v1h-60zM342,118h60v1h-60zM427,118h45v1h-45zM40,119h45v1h-45zM113,119h55v1h-55zM344,119h55v1h-55zM427,119h45v1h-45zM39,120h45v1h-45zM115,120h50v1h-50zM347,120h50v1h-50zM428,120h45v1h-45zM39,121h45v1h-45zM118,121h44v1h-44zM350,121h44v1h-44zM428,121h45v1h-45zM38,122h45v1h-45zM121,122h38v1h-38zM353,122h38v1h-38zM429,122h45v1h-45zM38,123h44v1h-44zM125,123h30v1h-30zM357,123h30v1h-30zM430,123h44v1h-44zM37,124h45v1h-45zM131,124h19v1h-19zM362,124h19v1h-19zM430,124h45v1h-45zM36,125h45v1h-45zM431,125h45v1h-45zM36,126h45v1h-45zM431,126h45v1h-45zM35,127h45v1h-45zM432,127h45v1h-45zM35,128h44v1h-44zM433,128h44v1h-44zM34,129h45v1h-45zM433,129h45v1h-45zM34,130h44v1h-44zM434,130h44v1h-44zM33,131h45v1h-45zM434,131h45v1h-45zM32,132h45v1h-45zM435,132h45v1h-45zM32,133h45v1h-45zM435,133h45v1h-45zM31,134h45v1h-45zM436,134h45v1h-45zM31,135h44v1h-44zM437,135h44v1h-44zM30,136h45v1h-45zM437,136h45v1h-45zM30,137h44v1h-44zM438,137h44v1h-44zM29,138h45v1h-45zM438,138h45v1h-45zM28,139h45v1h-45zM439,139h45v1h-45zM28,140h45v1h-45zM439,140h45v1h-45zM27,141h45v1h-45zM440,141h45v1h-45zM27,142h44v1h-44zM441,142h44v1h-44zM26,143h45v1h-45zM441,143h45v1h-45zM25,144h45v1h-45zM442,144h45v1h-45zM25,145h45v1h-45zM442,145h45v1h-45zM24,146h45v1h-45zM443,146h45v1h-45zM24,147h45v1h-45zM443,147h45v1h-45zM23,148h45v1h-45zM444,148h45v1h-45zM23,149h44v1h-44zM445,149h44v1h-44zM22,150h45v1h-45zM445,150h45v1h-45zM21,151h45v1h-45zM446,151h45v1h-45zM21,152h45v1h-45zM446,152h45v1h-45zM20,153h45v1h-45zM447,153h45v1h-45zM20,154h44v1h-44zM448,154h44v1h-44zM19,155h45v1h-45zM448,155h45v1h-45zM19,156h44v1h-44zM449,156h44v1h-44zM18,157h45v1h-45zM449,157h45v1h-45zM17,158h45v1h-45zM245,158h22v1h-22zM450,158h45v1h-45zM17,159h45v1h-45zM238,159h36v1h-36zM450,159h45v1h-45zM16,160h45v1h-45zM234,160h44v1h-44zM451,160h45v1h-45zM16,161h44v1h-44zM230,161h52v1h-52zM452,161h44v1h-44zM15,162h45v1h-45zM226,162h60v1h-60zM452,162h45v1h-45zM15,163h44v1h-44zM223,163h66v1h-66zM453,163h44v1h-44zM14,164h45v1h-45zM221,164h70v1h-70zM453,164h45v1h-45zM13,165h45v1h-45zM218,165h76v1h-76zM454,165h45v1h-45zM13,166h45v1h-45zM216,166h80v1h-80zM454,166h45v1h-45zM12,167h45v1h-45zM214,167h84v1h-84zM455,167h45v1h-45zM12,168h44v1h-44zM212,168h88v1h-88zM456,168h44v1h-44zM11,169h45v1h-45zM210,169h92v1h-92zM456,169h45v1h-45zM11,170h44v1h-44zM208,170h96v1h-96zM457,170h44v1h-44zM11,171h44v1h-44zM206,171h100v1h-100zM457,171h44v1h-44zM10,172h44v1h-44zM205,172h102v1h-102zM458,172h44v1h-44zM10,173h44v1h-44zM203,173h106v1h-106zM459,173h43v1h-43zM10,174h43v1h-43zM202,174h108v1h-108zM459,174h43v1h-43zM9,175h43v1h-43zM200,175h112v1h-112zM460,175h43v1h-43zM9,176h43v1h-43zM199,176h114v1h-114zM460,176h43v1h-43zM9,177h42v1h-42zM197,177h118v1h-118zM461,177h42v1h-42zM9,178h42v1h-42zM196,178h120v1h-120zM461,178h42v1h-42zM9,179h41v1h-41zM195,179h122v1h-122zM462,179h41v1h-41zM9,180h40v1h-40zM194,180h125v1h-125zM463,180h40v1h-40zM8,181h41v1h-41zM192,181h128v1h-128zM463,181h40v1h-40zM8,182h41v1h-41zM191,182h130v1h-130zM463,182h41v1h-41zM8,183h41v1h-41zM190,183h132v1h-132zM463,183h41v1h-41zM8,184h41v1h-41zM189,184h134v1h-134zM463,184h41v1h-41zM8,185h41v1h-41zM188,185h136v1h-136zM463,185h41v1h-41zM8,186h41v1h-41zM187,186h138v1h-138zM463,186h41v1h-41zM9,187h42v1h-42zM186,187h140v1h-140zM461,187h42v1h-42zM9,188h43v1h-43zM185,188h142v1h-142zM460,188h43v1h-43zM9,189h44v1h-44zM184,189h144v1h-144zM459,189h44v1h-44zM9,190h45v1h-45zM183,190h146v1h-146zM458,190h45v1h-45zM9,191h47v1h-47zM182,191h148v1h-148zM456,191h47v1h-47zM9,192h48v1h-48zM181,192h150v1h-150zM455,192h48v1h-48zM10,193h48v1h-48zM181,193h150v1h-150zM454,193h48v1h-48zM10,194h49v1h-49zM180,194h152v1h-152zM453,194h49v1h-49zM10,195h50v1h-50zM179,195h154v1h-154zM452,195h50v1h-50zM10,196h52v1h-52zM178,196h156v1h-156zM450,196h52v1h-52zM11,197h52v1h-52zM177,197h70v1h-70zM265,197h70v1h-70zM449,197h52v1h-52zM11,198h53v1h-53zM177,198h65v1h-65zM270,198h65v1h-65zM448,198h53v1h-53zM12,199h53v1h-53zM176,199h62v1h-62zM274,199h62v1h-62zM447,199h54v1h-54zM12,200h54v1h-54zM175,200h60v1h-60zM277,200h60v1h-60zM446,200h54v1h-54zM12,201h56v1h-56zM175,201h58v1h-58zM279,201h58v1h-58zM444,201h56v1h-56zM13,202h56v1h-56zM174,202h57v1h-57zM281,202h57v1h-57zM443,202h56v1h-56zM13,203h57v1h-57zM173,203h56v1h-56zM283,203h56v1h-56zM442,203h57v1h-57zM14,204h57v1h-57zM173,204h54v1h-54zM285,204h54v1h-54zM441,204h57v1h-57zM15,205h57v1h-57zM172,205h53v1h-53zM287,205h53v1h-53zM440,205h57v1h-57zM15,206h58v1h-58zM171,206h52v1h-52zM289,206h52v1h-52zM439,206h58v1h-58zM16,207h58v1h-58zM171,207h51v1h-51zM290,207h51v1h-51zM438,207h58v1h-58zM17,208h58v1h-58zM170,208h51v1h-51zM291,208h51v1h-51zM437,208h58v1h-58zM18,209h58v1h-58zM170,209h49v1h-49zM293,209h49v1h-49zM436,209h58v1h-58zM18,210h59v1h-59zM169,210h49v1h-49zM294,210h49v1h-49zM435,210h59v1h-59zM19,211h59v1h-59zM169,211h48v1h-48zM295,211h48v1h-48zM434,211h59v1h-59zM20,212h59v1h-59zM168,212h48v1h-48zM296,212h48v1h-48zM433,212h59v1h-59zM21,213h59v1h-59zM168,213h47v1h-47zM297,213h47v1h-47zM432,213h59v1h-59zM23,214h57v1h-57zM167,214h47v1h-47zM298,214h47v1h-47zM432,214h57v1h-57zM24,215h57v1h-57zM167,215h46v1h-46zM299,215h46v1h-46zM431,215h57v1h-57zM25,216h57v1h-57zM166,216h46v1h-46zM300,216h46v1h-46zM430,216h57v1h-57zM26,217h56v1h-56zM166,217h45v1h-45zM301,217h45v1h-45zM430,217h56v1h-56zM27,218h56v1h-56zM165,218h45v1h-45zM302,218h45v1h-45zM429,218h56v1h-56zM29,219h55v1h-55zM165,219h44v1h-44zM303,219h44v1h-44zM428,219h55v1h-55zM30,220h54v1h-54zM165,220h44v1h-44zM303,220h44v1h-44zM428,220h54v1h-54zM31,221h54v1h-54zM164,221h44v1h-44zM304,221h44v1h-44zM427,221h54v1h-54zM32,222h54v1h-54zM164,222h43v1h-43zM305,222h43v1h-43zM426,222h54v1h-54zM33,223h53v1h-53zM163,223h43v1h-43zM306,223h43v1h-43zM426,223h53v1h-53zM35,224h52v1h-52zM163,224h43v1h-43zM306,224h43v1h-43zM425,224h52v1h-52zM36,225h51v1h-51zM163,225h42v1h-42zM307,225h42v1h-42zM425,225h51v1h-51zM37,226h51v1h-51zM162,226h43v1h-43zM307,226h43v1h-43zM424,226h51v1h-51zM38,227h50v1h-50zM162,227h42v1h-42zM308,227h42v1h-42zM424,227h50v1h-50zM39,228h49v1h-49zM162,228h42v1h-42zM308,228h42v1h-42zM424,228h49v1h-49zM41,229h48v1h-48zM162,229h41v1h-41zM309,229h41v1h-41zM423,229h48v1h-48zM42,230h47v1h-47zM161,230h42v1h-42zM309,230h42v1h-42zM423,230h47v1h-47zM43,231h47v1h-47zM161,231h41v1h-41zM310,231h41v1h-41zM422,231h47v1h-47zM44,232h46v1h-46zM161,232h41v1h-41zM310,232h41v1h-41zM422,232h46v1h-46zM45,233h45v1h-45zM161,233h40v1h-40zM311,233h40v1h-40zM422,233h45v1h-45zM47,234h44v1h-44zM160,234h41v1h-41zM311,234h41v1h-41zM421,234h45v1h-45zM47,235h44v1h-44zM160,235h40v1h-40zM312,235h40v1h-40zM421,235h44v1h-44zM48,236h43v1h-43zM160,236h40v1h-40zM312,236h40v1h-40zM421,236h43v1h-43zM49,237h43v1h-43zM160,237h40v1h-40zM312,237h40v1h-40zM420,237h43v1h-43zM50,238h42v1h-42zM159,238h40v1h-40zM313,238h40v1h-40zM420,238h42v1h-42zM50,239h42v1h-42zM159,239h40v1h-40zM313,239h40v1h-40zM420,239h41v1h-41zM51,240h41v1h-41zM159,240h40v1h-40zM313,240h40v1h-40zM420,240h41v1h-41zM52,241h41v1h-41zM159,241h40v1h-40zM313,241h40v1h-40zM419,241h41v1h-41zM52,242h41v1h-41zM159,242h39v1h-39zM314,242h39v1h-39zM419,242h41v1h-41zM53,243h40v1h-40zM159,243h39v1h-39zM314,243h39v1h-39zM419,243h40v1h-40zM53,244h40v1h-40zM159,244h39v1h-39zM314,244h39v1h-39zM419,244h40v1h-40zM53,245h40v1h-40zM158,245h40v1h-40zM314,245h40v1h-40zM419,245h40v1h-40zM54,246h40v1h-40zM158,246h40v1h-40zM314,246h40v1h-40zM418,246h40v1h-40zM54,247h40v1h-40zM158,247h39v1h-39zM315,247h39v1h-39zM418,247h40v1h-40zM54,248h40v1h-40zM158,248h39v1h-39zM315,248h39v1h-39zM418,248h40v1h-40zM55,249h39v1h-39zM158,249h39v1h-39zM315,249h39v1h-39zM418,249h39v1h-39zM55,250h39v1h-39zM158,250h39v1h-39zM315,250h39v1h-39zM418,250h39v1h-39zM55,251h39v1h-39zM158,251h39v1h-39zM315,251h39v1h-39zM418,251h39v1h-39zM55,252h39v1h-39zM158,252h39v1h-39zM315,252h39v1h-39zM418,252h39v1h-39zM55,253h39v1h-39zM158,253h39v1h-39zM315,253h39v1h-39zM418,253h39v1h-39zM55,254h39v1h-39zM158,254h39v1h-39zM315,254h39v1h-39zM418,254h39v1h-39zM55,255h39v1h-39zM158,255h39v1h-39zM315,255h39v1h-39zM418,255h39v1h-39zM55,256h39v1h-39zM158,256h39v1h-39zM315,256h39v1h-39zM418,256h39v1h-39zM55,257h39v1h-39zM158,257h39v1h-39zM315,257h39v1h-39zM418,257h39v1h-39zM55,258h39v1h-39zM158,258h39v1h-39zM315,258h39v1h-39zM418,258h39v1h-39zM55,259h39v1h-39zM158,259h39v1h-39zM315,259h39v1h-39zM418,259h39v1h-39zM55,260h39v1h-39zM158,260h39v1h-39zM315,260h39v1h-39zM418,260h39v1h-39zM55,261h39v1h-39zM158,261h39v1h-39zM315,261h39v1h-39zM418,261h39v1h-39zM55,262h39v1h-39zM158,262h39v1h-39zM315,262h39v1h-39zM418,262h39v1h-39zM54,263h40v1h-40zM158,263h39v1h-39zM315,263h39v1h-39zM418,263h40v1h-40zM54,264h40v1h-40zM158,264h39v1h-39zM315,264h39v1h-39zM418,264h40v1h-40zM54,265h40v1h-40zM158,265h40v1h-40zM314,265h40v1h-40zM418,265h40v1h-40zM53,266h40v1h-40zM158,266h40v1h-40zM314,266h40v1h-40zM419,266h40v1h-40zM53,267h40v1h-40zM159,267h39v1h-39zM314,267h39v1h-39zM419,267h40v1h-40zM53,268h40v1h-40zM159,268h39v1h-39zM314,268h39v1h-39zM419,268h40v1h-40zM52,269h41v1h-41zM159,269h39v1h-39zM314,269h39v1h-39zM419,269h41v1h-41zM52,270h41v1h-41zM159,270h40v1h-40zM313,270h40v1h-40zM419,270h41v1h-41zM51,271h41v1h-41zM159,271h40v1h-40zM313,271h40v1h-40zM420,271h41v1h-41zM50,272h42v1h-42zM159,272h40v1h-40zM313,272h40v1h-40zM420,272h42v1h-42zM50,273h42v1h-42zM159,273h40v1h-40zM313,273h40v1h-40zM420,273h42v1h-42zM49,274h43v1h-43zM160,274h40v1h-40zM312,274h40v1h-40zM420,274h43v1h-43zM48,275h43v1h-43zM160,275h40v1h-40zM312,275h40v1h-40zM421,275h43v1h-43zM47,276h44v1h-44zM160,276h40v1h-40zM312,276h40v1h-40zM421,276h44v1h-44zM47,277h44v1h-44zM160,277h41v1h-41zM311,277h41v1h-41zM421,277h45v1h-45zM45,278h45v1h-45zM161,278h40v1h-40zM311,278h40v1h-40zM422,278h45v1h-45zM44,279h46v1h-46zM161,279h41v1h-41zM310,279h41v1h-41zM422,279h46v1h-46zM43,280h47v1h-47zM161,280h41v1h-41zM310,280h41v1h-41zM422,280h47v1h-47zM42,281h47v1h-47zM161,281h42v1h-42zM309,281h42v1h-42zM423,281h47v1h-47zM41,282h48v1h-48zM162,282h41v1h-41zM309,282h41v1h-41zM423,282h48v1h-48zM39,283h49v1h-49zM162,283h42v1h-42zM308,283h42v1h-42zM424,283h49v1h-49zM38,284h50v1h-50zM162,284h42v1h-42zM308,284h42v1h-42zM424,284h50v1h-50zM37,285h51v1h-51zM162,285h43v1h-43zM307,285h43v1h-43zM424,285h51v1h-51zM36,286h51v1h-51zM163,286h42v1h-42zM307,286h42v1h-42zM425,286h51v1h-51zM35,287h52v1h-52zM163,287h43v1h-43zM306,287h43v1h-43zM425,287h52v1h-52zM33,288h53v1h-53zM163,288h43v1h-43zM306,288h43v1h-43zM426,288h53v1h-53zM32,289h53v1h-53zM164,289h43v1h-43zM305,289h43v1h-43zM426,289h54v1h-54zM31,290h54v1h-54zM164,290h44v1h-44zM304,290h44v1h-44zM427,290h54v1h-54zM30,291h54v1h-54zM165,291h44v1h-44zM303,291h44v1h-44zM428,291h54v1h-54zM29,292h55v1h-55zM165,292h44v1h-44zM303,292h44v1h-44zM428,292h55v1h-55zM27,293h56v1h-56zM165,293h45v1h-45zM302,293h45v1h-45zM429,293h56v1h-56zM26,294h56v1h-56zM166,294h45v1h-45zM301,294h45v1h-45zM430,294h56v1h-56zM25,295h57v1h-57zM166,295h46v1h-46zM300,295h46v1h-46zM430,295h57v1h-57zM24,296h57v1h-57zM167,296h46v1h-46zM299,296h46v1h-46zM431,296h57v1h-57zM23,297h57v1h-57zM167,297h47v1h-47zM298,297h47v1h-47zM432,297h57v1h-57zM21,298h59v1h-59zM168,298h47v1h-47zM297,298h47v1h-47zM432,298h59v1h-59zM20,299h59v1h-59zM168,299h48v1h-48zM296,299h48v1h-48zM433,299h59v1h-59zM19,300h59v1h-59zM169,300h48v1h-48zM295,300h48v1h-48zM434,300h59v1h-59zM18,301h59v1h-59zM169,301h49v1h-49zM294,301h49v1h-49zM435,301h59v1h-59zM18,302h58v1h-58zM170,302h49v1h-49zM293,302h49v1h-49zM436,302h58v1h-58zM17,303h58v1h-58zM170,303h51v1h-51zM291,303h51v1h-51zM437,303h58v1h-58zM16,304h58v1h-58zM171,304h51v1h-51zM290,304h51v1h-51zM438,304h58v1h-58zM15,305h58v1h-58zM171,305h53v1h-53zM289,305h52v1h-52zM439,305h58v1h-58zM15,306h57v1h-57zM172,306h53v1h-53zM287,306h53v1h-53zM440,306h57v1h-57zM14,307h57v1h-57zM173,307h54v1h-54zM285,307h54v1h-54zM441,307h57v1h-57zM13,308h57v1h-57zM173,308h56v1h-56zM283,308h56v1h-56zM442,308h57v1h-57zM13,309h56v1h-56zM174,309h57v1h-57zM281,309h57v1h-57zM443,309h56v1h-56zM12,310h56v1h-56zM175,310h58v1h-58zM279,310h58v1h-58zM444,310h56v1h-56zM12,311h54v1h-54zM175,311h60v1h-60zM277,311h60v1h-60zM446,311h54v1h-54zM11,312h54v1h-54zM176,312h62v1h-62zM274,312h62v1h-62zM447,312h54v1h-54zM11,313h53v1h-53zM177,313h65v1h-65zM270,313h65v1h-65zM448,313h53v1h-53zM11,314h52v1h-52zM177,314h70v1h-70zM265,314h70v1h-70zM449,314h52v1h-52zM10,315h52v1h-52zM178,315h156v1h-156zM450,315h52v1h-52zM10,316h50v1h-50zM179,316h154v1h-154zM452,316h50v1h-50zM10,317h49v1h-49zM180,317h152v1h-152zM453,317h49v1h-49zM10,318h48v1h-48zM181,318h150v1h-150zM454,318h48v1h-48zM9,319h48v1h-48zM181,319h150v1h-150zM455,319h48v1h-48zM9,320h47v1h-47zM182,320h148v1h-148zM456,320h47v1h-47zM9,321h45v1h-45zM183,321h146v1h-146zM458,321h45v1h-45zM9,322h44v1h-44zM184,322h144v1h-144zM459,322h44v1h-44zM9,323h43v1h-43zM185,323h142v1h-142zM460,323h43v1h-43zM9,324h42v1h-42zM186,324h140v1h-140zM461,324h42v1h-42zM8,325h41v1h-41zM187,325h138v1h-138zM463,325h41v1h-41zM8,326h41v1h-41zM188,326h136v1h-136zM463,326h41v1h-41zM8,327h41v1h-41zM189,327h134v1h-134zM463,327h41v1h-41zM8,328h41v1h-41zM190,328h132v1h-132zM463,328h41v1h-41zM8,329h41v1h-41zM191,329h130v1h-130zM463,329h41v1h-41zM8,330h41v1h-41zM192,330h128v1h-128zM463,330h40v1h-40zM9,331h40v1h-40zM194,331h124v1h-124zM463,331h40v1h-40zM9,332h41v1h-41zM195,332h122v1h-122zM462,332h41v1h-41zM9,333h42v1h-42zM196,333h120v1h-120zM461,333h42v1h-42zM9,334h42v1h-42zM197,334h118v1h-118zM461,334h42v1h-42zM9,335h43v1h-43zM199,335h114v1h-114zM460,335h43v1h-43zM9,336h43v1h-43zM200,336h112v1h-112zM460,336h43v1h-43zM10,337h43v1h-43zM202,337h108v1h-108zM459,337h43v1h-43zM10,338h44v1h-44zM203,338h106v1h-106zM458,338h44v1h-44zM10,339h44v1h-44zM205,339h102v1h-102zM458,339h44v1h-44zM11,340h44v1h-44zM206,340h100v1h-100zM457,340h44v1h-44zM11,341h44v1h-44zM208,341h96v1h-96zM457,341h44v1h-44zM11,342h45v1h-45zM210,342h92v1h-92zM456,342h45v1h-45zM12,343h44v1h-44zM212,343h88v1h-88zM456,343h44v1h-44zM12,344h45v1h-45zM214,344h84v1h-84zM455,344h45v1h-45zM13,345h45v1h-45zM216,345h80v1h-80zM454,345h45v1h-45zM13,346h45v1h-45zM218,346h76v1h-76zM454,346h45v1h-45zM14,347h45v1h-45zM221,347h70v1h-70zM453,347h45v1h-45zM15,348h44v1h-44zM223,348h66v1h-66zM453,348h44v1h-44zM15,349h45v1h-45zM226,349h60v1h-60zM452,349h45v1h-45zM16,350h44v1h-44zM230,350h52v1h-52zM452,350h44v1h-44zM16,351h45v1h-45zM234,351h44v1h-44zM451,351h45v1h-45zM17,352h45v1h-45zM238,352h36v1h-36zM450,352h45v1h-45zM17,353h45v1h-45zM245,353h22v1h-22zM450,353h45v1h-45zM18,354h45v1h-45zM449,354h45v1h-45zM19,355h44v1h-44zM449,355h44v1h-44zM19,356h45v1h-45zM448,356h45v1h-45zM20,357h44v1h-44zM448,357h44v1h-44zM20,358h45v1h-45zM447,358h45v1h-45zM21,359h45v1h-45zM446,359h45v1h-45zM21,360h45v1h-45zM446,360h45v1h-45zM22,361h45v1h-45zM445,361h45v1h-45zM23,362h44v1h-44zM445,362h44v1h-44zM23,363h45v1h-45zM444,363h45v1h-45zM24,364h45v1h-45zM443,364h45v1h-45zM24,365h45v1h-45zM443,365h45v1h-45zM25,366h45v1h-45zM442,366h45v1h-45zM25,367h45v1h-45zM442,367h45v1h-45zM26,368h45v1h-45zM441,368h45v1h-45zM27,369h44v1h-44zM441,369h44v1h-44zM27,370h45v1h-45zM440,370h45v1h-45zM28,371h45v1h-45zM439,371h45v1h-45zM28,372h45v1h-45zM439,372h45v1h-45zM29,373h45v1h-45zM438,373h45v1h-45zM30,374h44v1h-44zM438,374h44v1h-44zM30,375h45v1h-45zM437,375h45v1h-45zM31,376h44v1h-44zM437,376h44v1h-44zM31,377h45v1h-45zM436,377h45v1h-45zM32,378h45v1h-45zM435,378h45v1h-45zM32,379h45v1h-45zM435,379h45v1h-45zM33,380h45v1h-45zM434,380h45v1h-45zM34,381h44v1h-44zM434,381h44v1h-44zM34,382h45v1h-45zM433,382h45v1h-45zM35,383h44v1h-44zM433,383h44v1h-44zM35,384h45v1h-45zM432,384h45v1h-45zM36,385h45v1h-45zM431,385h45v1h-45zM36,386h45v1h-45zM431,386h45v1h-45zM37,387h45v1h-45zM131,387h19v1h-19zM362,387h19v1h-19zM430,387h45v1h-45zM38,388h44v1h-44zM125,388h30v1h-30zM356,388h31v1h-31zM430,388h44v1h-44zM38,389h45v1h-45zM121,389h38v1h-38zM353,389h38v1h-38zM429,389h45v1h-45zM39,390h45v1h-45zM118,390h44v1h-44zM349,390h45v1h-45zM428,390h45v1h-45zM39,391h45v1h-45zM115,391h50v1h-50zM347,391h50v1h-50zM428,391h45v1h-45zM40,392h45v1h-45zM113,392h55v1h-55zM344,392h55v1h-55zM427,392h45v1h-45zM40,393h45v1h-45zM110,393h60v1h-60zM342,393h60v1h-60zM427,393h45v1h-45zM41,394h45v1h-45zM107,394h65v1h-65zM340,394h65v1h-65zM426,394h45v1h-45zM42,395h44v1h-44zM105,395h69v1h-69zM338,395h69v1h-69zM426,395h44v1h-44zM42,396h45v1h-45zM102,396h74v1h-74zM336,396h74v1h-74zM425,396h45v1h-45zM43,397h45v1h-45zM99,397h78v1h-78zM335,397h78v1h-78zM424,397h45v1h-45zM43,398h45v1h-45zM97,398h82v1h-82zM333,398h82v1h-82zM424,398h45v1h-45zM44,399h45v1h-45zM94,399h86v1h-86zM332,399h86v1h-86zM423,399h45v1h-45zM45,400h137v1h-137zM330,400h137v1h-137zM45,401h138v1h-138zM329,401h138v1h-138zM46,402h138v1h-138zM328,402h138v1h-138zM46,403h139v1h-139zM327,403h139v1h-139zM47,404h140v1h-140zM325,404h140v1h-140zM47,405h141v1h-141zM324,405h141v1h-141zM48,406h141v1h-141zM323,406h141v1h-141zM49,407h141v1h-141zM322,407h141v1h-141zM49,408h142v1h-142zM321,408h142v1h-142zM50,409h142v1h-142zM320,409h142v1h-142zM50,410h143v1h-143zM319,410h143v1h-143zM51,411h142v1h-142zM319,411h142v1h-142zM51,412h143v1h-143zM318,412h143v1h-143zM52,413h143v1h-143zM317,413h143v1h-143zM53,414h143v1h-143zM316,414h143v1h-143zM53,415h143v1h-143zM315,415h144v1h-144zM54,416h143v1h-143zM315,416h143v1h-143zM54,417h144v1h-144zM314,417h144v1h-144zM55,418h144v1h-144zM313,418h144v1h-144zM56,419h143v1h-143zM313,419h144v1h-144zM56,420h144v1h-144zM312,420h144v1h-144zM57,421h143v1h-143zM312,421h143v1h-143zM57,422h144v1h-144zM311,422h144v1h-144zM58,423h144v1h-144zM310,423h144v1h-144zM59,424h143v1h-143zM310,424h143v1h-143zM60,425h143v1h-143zM309,425h143v1h-143zM60,426h74v1h-74zM147,426h56v1h-56zM309,426h56v1h-56zM378,426h73v1h-73zM61,427h69v1h-69zM151,427h53v1h-53zM308,427h53v1h-53zM382,427h69v1h-69zM62,428h65v1h-65zM153,428h51v1h-51zM308,428h51v1h-51zM385,428h65v1h-65zM63,429h62v1h-62zM155,429h49v1h-49zM308,429h49v1h-49zM387,429h62v1h-62zM65,430h57v1h-57zM157,430h48v1h-48zM307,430h48v1h-48zM390,430h57v1h-57zM66,431h53v1h-53zM158,431h47v1h-47zM307,431h47v1h-47zM393,431h53v1h-53zM67,432h50v1h-50zM160,432h46v1h-46zM306,432h46v1h-46zM395,432h50v1h-50zM69,433h45v1h-45zM161,433h45v1h-45zM306,433h45v1h-45zM398,433h45v1h-45zM70,434h41v1h-41zM162,434h44v1h-44zM306,434h44v1h-44zM401,434h41v1h-41zM72,435h37v1h-37zM163,435h44v1h-44zM305,435h44v1h-44zM403,435h37v1h-37zM74,436h32v1h-32zM164,436h43v1h-43zM305,436h43v1h-43zM406,436h32v1h-32zM77,437h26v1h-26zM165,437h42v1h-42zM305,437h42v1h-42zM409,437h26v1h-26zM80,438h20v1h-20zM165,438h42v1h-42zM305,438h42v1h-42zM412,438h20v1h-20zM84,439h11v1h-11zM166,439h42v1h-42zM304,439h42v1h-42zM417,439h11v1h-11zM167,440h41v1h-41zM304,440h41v1h-41zM167,441h41v1h-41zM304,441h41v1h-41zM168,442h40v1h-40zM304,442h40v1h-40zM168,443h41v1h-41zM303,443h41v1h-41zM169,444h40v1h-40zM303,444h40v1h-40zM169,445h40v1h-40zM303,445h40v1h-40zM169,446h40v1h-40zM303,446h40v1h-40zM170,447h39v1h-39zM303,447h39v1h-39zM170,448h39v1h-39zM303,448h39v1h-39zM170,449h40v1h-40zM302,449h40v1h-40zM170,450h40v1h-40zM302,450h40v1h-40zM171,451h39v1h-39zM302,451h39v1h-39zM171,452h39v1h-39zM302,452h39v1h-39zM171,453h39v1h-39zM302,453h39v1h-39zM171,454h39v1h-39zM302,454h39v1h-39zM171,455h40v1h-40zM301,455h40v1h-40zM171,456h40v1h-40zM301,456h40v1h-40zM172,457h39v1h-39zM301,457h39v1h-39zM172,458h39v1h-39zM301,458h39v1h-39zM172,459h39v1h-39zM301,459h39v1h-39zM172,460h39v1h-39zM301,460h39v1h-39zM172,461h40v1h-40zM300,461h40v1h-40zM172,462h40v1h-40zM300,462h40v1h-40zM173,463h39v1h-39zM300,463h39v1h-39zM173,464h39v1h-39zM300,464h39v1h-39zM173,465h39v1h-39zM300,465h39v1h-39zM173,466h39v1h-39zM300,466h39v1h-39zM173,467h40v1h-40zM299,467h40v1h-40zM173,468h40v1h-40zM299,468h40v1h-40zM174,469h39v1h-39zM299,469h39v1h-39zM174,470h39v1h-39zM299,470h39v1h-39zM174,471h39v1h-39zM299,471h39v1h-39zM174,472h164v1h-164zM174,473h164v1h-164zM174,474h164v1h-164zM175,475h162v1h-162zM175,476h162v1h-162zM175,477h162v1h-162zM175,478h162v1h-162zM175,479h162v1h-162zM175,480h162v1h-162zM176,481h160v1h-160zM176,482h160v1h-160zM176,483h160v1h-160zM177,484h158v1h-158zM177,485h158v1h-158zM177,486h158v1h-158zM178,487h156v1h-156zM178,488h156v1h-156zM179,489h154v1h-154zM179,490h154v1h-154zM180,491h152v1h-152zM180,492h152v1h-152zM181,493h150v1h-150zM182,494h148v1h-148zM182,495h148v1h-148zM183,496h146v1h-146zM184,497h144v1h-144zM185,498h142v1h-142zM186,499h140v1h-140zM187,500h138v1h-138zM188,501h136v1h-136zM189,502h134v1h-134zM190,503h132v1h-132zM192,504h128v1h-128zM193,505h126v1h-126zM195,506h122v1h-122zM197,507h118v1h-118zM199,508h114v1h-114zM202,509h108v1h-108zM202,510h108v1h-108zM202,511h108v1h-108z"/></svg>