<svg viewBox="0 0 512 512" version="1" xmlns="http://www.w3.org/2000/svg" desc="Created with imagetracer.js version 1.6" ><path fill="#000000" stroke="rgb(0,0,0)" stroke-width="0" opacity="1" d="M 481 3 Q 498 2 504 14 Q 510 20 508 35 L 504 43 L 271 276 Q 262 283 247 282 L 235 277 L 7 50 Q 1 43 3 30 L 15 14 L 30 10 L 43 15 L 253 224 L 469 8 L 481 3 Z " /><path fill="#000000" stroke="rgb(0,0,0)" stroke-width="0" opacity="1" d="M 482 220 Q 497 221 503 231 Q 509 237 508 250 L 504 260 L 269 495 L 252 498 L 242 494 L 20 273 L 19 271 L 17 268 L 10 263 Q 2 256 4 240 L 13 226 Q 19 219 35 221 L 42 224 L 237 418 L 255 437 L 338 356 L 341 352 L 343 351 L 349 344 L 351 343 L 353 341 L 413 280 L 415 279 L 417 276 L 470 224 L 482 220 Z " /><path fill="#000000" stroke="rgb(0,0,0)" stroke-width="0" opacity="0" d="M 0 0 L 512 0 L 512 512 L 0 512 L 0 0 Z M 481 3 L 469 8 L 253 224 L 43 15 L 30 10 L 15 14 L 3 30 Q 1 43 7 50 L 235 277 L 247 282 Q 262 283 271 276 L 504 43 L 508 35 Q 510 20 504 14 Q 498 2 481 3 Z M 482 220 L 470 224 L 417 276 L 415 279 L 413 280 L 353 341 L 351 343 L 349 344 L 343 351 L 341 352 L 338 356 L 255 437 L 237 418 L 42 224 L 35 221 Q 19 219 13 226 L 4 240 Q 2 256 10 263 L 17 268 L 19 271 L 20 273 L 242 494 L 252 498 L 269 495 L 504 260 L 508 250 Q 509 237 503 231 Q 497 221 482 220 Z " /></svg>