<svg xmlns="http://www.w3.org/2000/svg" viewBox="0 0 512 512" width="512" height="512"><path fill="#000" d="M260,128h10v1h-10zM257,129h16v1h-16zM254,130h21v1h-21zM253,131h24v1h-24zM251,132h27v1h-27zM250,133h29v1h-29zM249,134h32v1h-32zM248,135h34v1h-34zM248,136h35v1h-35zM247,137h37v1h-37zM246,138h39v1h-39zM246,139h40v1h-40zM245,140h42v1h-42zM245,141h42v1h-42zM244,142h45v1h-45zM244,143h45v1h-45zM244,144h47v1h-47zM244,145h47v1h-47zM243,146h50v1h-50zM243,147h50v1h-50zM243,148h51v1h-51zM243,149h52v1h-52zM243,150h53v1h-53zM243,151h54v1h-54zM243,152h55v1h-55zM244,153h55v1h-55zM244,154h56v1h-56zM244,155h57v1h-57zM244,156h58v1h-58zM245,157h58v1h-58zM245,158h59v1h-59zM246,159h59v1h-59zM246,160h60v1h-60zM247,161h60v1h-60zM247,162h61v1h-61zM248,163h61v1h-61zM249,164h61v1h-61zM250,165h61v1h-61zM251,166h61v1h-61zM252,167h61v1h-61zM253,168h61v1h-61zM254,169h61v1h-61zM255,170h61v1h-61zM256,171h61v1h-61zM257,172h61v1h-61zM258,173h61v1h-61zM259,174h61v1h-61zM260,175h61v1h-61zM261,176h61v1h-61zM262,177h61v1h-61zM263,178h61v1h-61zM264,179h61v1h-61zM265,180h61v1h-61zM266,181h61v1h-61zM267,182h61v1h-61zM268,183h61v1h-61zM269,184h61v1h-61zM270,185h61v1h-61zM271,186h61v1h-61zM272,187h61v1h-61zM273,188h61v1h-61zM274,189h61v1h-61zM275,190h61v1h-61zM276,191h61v1h-61zM277,192h61v1h-61zM278,193h61v1h-61zM279,194h61v1h-61zM280,195h61v1h-61zM281,196h61v1h-61zM282,197h61v1h-61zM283,198h61v1h-61zM284,199h61v1h-61zM285,200h61v1h-61zM286,201h61v1h-61zM287,202h61v1h-61zM288,203h61v1h-61zM289,204h61v1h-61zM290,205h61v1h-61zM291,206h61v1h-61zM292,207h61v1h-61zM293,208h61v1h-61zM294,209h61v1h-61zM295,210h61v1h-61zM296,211h61v1h-61zM297,212h61v1h-61zM298,213h61v1h-61zM299,214h61v1h-61zM300,215h61v1h-61zM301,216h61v1h-61zM302,217h61v1h-61zM303,218h61v1h-61zM304,219h61v1h-61zM305,220h61v1h-61zM306,221h61v1h-61zM307,222h61v1h-61zM308,223h61v1h-61zM309,224h61v1h-61zM310,225h61v1h-61zM311,226h61v1h-61zM312,227h61v1h-61zM313,228h61v1h-61zM314,229h61v1h-61zM314,230h62v1h-62zM314,231h62v1h-62zM314,232h63v1h-63zM314,233h64v1h-64zM104,234h274v1h-274zM100,235h279v1h-279zM97,236h282v1h-282zM95,237h285v1h-285zM94,238h286v1h-286zM93,239h288v1h-288zM91,240h290v1h-290zM91,241h291v1h-291zM90,242h292v1h-292zM89,243h293v1h-293zM88,244h295v1h-295zM88,245h295v1h-295zM87,246h296v1h-296zM87,247h296v1h-296zM86,248h298v1h-298zM86,249h298v1h-298zM86,250h298v1h-298zM85,251h299v1h-299zM85,252h299v1h-299zM85,253h299v1h-299zM85,254h299v1h-299zM85,255h299v1h-299zM85,256h299v1h-299zM85,257h299v1h-299zM85,258h299v1h-299zM85,259h299v1h-299zM85,260h299v1h-299zM86,261h298v1h-298zM86,262h298v1h-298zM86,263h298v1h-298zM87,264h296v1h-296zM87,265h296v1h-296zM88,266h295v1h-295zM88,267h295v1h-295zM89,268h293v1h-293zM90,269h292v1h-292zM91,270h291v1h-291zM91,271h290v1h-290zM93,272h288v1h-288zM94,273h287v1h-287zM95,274h285v1h-285zM97,275h283v1h-283zM100,276h279v1h-279zM104,277h274v1h-274zM314,278h64v1h-64zM314,279h63v1h-63zM314,280h63v1h-63zM314,281h62v1h-62zM314,282h61v1h-61zM313,283h61v1h-61zM312,284h61v1h-61zM311,285h61v1h-61zM310,286h62v1h-62zM309,287h62v1h-62zM308,288h62v1h-62zM307,289h62v1h-62zM306,290h62v1h-62zM305,291h62v1h-62zM304,292h62v1h-62zM303,293h62v1h-62zM302,294h62v1h-62zM301,295h62v1h-62zM300,296h62v1h-62zM299,297h62v1h-62zM298,298h62v1h-62zM297,299h62v1h-62zM296,300h62v1h-62zM295,301h62v1h-62zM294,302h62v1h-62zM293,303h62v1h-62zM292,304h62v1h-62zM291,305h62v1h-62zM290,306h62v1h-62zM289,307h62v1h-62zM288,308h62v1h-62zM287,309h62v1h-62zM286,310h62v1h-62zM285,311h62v1h-62zM284,312h62v1h-62zM283,313h62v1h-62zM282,314h62v1h-62zM281,315h62v1h-62zM280,316h62v1h-62zM279,317h62v1h-62zM278,318h62v1h-62zM277,319h62v1h-62zM276,320h62v1h-62zM275,321h62v1h-62zM274,322h62v1h-62zM273,323h62v1h-62zM272,324h62v1h-62zM271,325h62v1h-62zM270,326h62v1h-62zM269,327h62v1h-62zM268,328h62v1h-62zM267,329h62v1h-62zM266,330h62v1h-62zM265,331h62v1h-62zM264,332h62v1h-62zM263,333h62v1h-62zM262,334h62v1h-62zM261,335h62v1h-62zM260,336h62v1h-62zM259,337h62v1h-62zM258,338h62v1h-62zM257,339h62v1h-62zM256,340h62v1h-62zM255,341h62v1h-62zM254,342h62v1h-62zM253,343h62v1h-62zM252,344h62v1h-62zM251,345h62v1h-62zM250,346h62v1h-62zM249,347h62v1h-62zM248,348h62v1h-62zM248,349h61v1h-61zM247,350h61v1h-61zM246,351h61v1h-61zM246,352h60v1h-60zM245,353h60v1h-60zM245,354h59v1h-59zM244,355h59v1h-59zM244,356h58v1h-58zM244,357h57v1h-57zM244,358h56v1h-56zM243,359h56v1h-56zM243,360h55v1h-55zM243,361h54v1h-54zM243,362h53v1h-53zM243,363h52v1h-52zM243,364h51v1h-51zM243,365h50v1h-50zM243,366h49v1h-49zM244,367h47v1h-47zM244,368h46v1h-46zM244,369h45v1h-45zM245,370h43v1h-43zM245,371h42v1h-42zM245,372h41v1h-41zM246,373h39v1h-39zM247,374h37v1h-37zM247,375h36v1h-36zM248,376h34v1h-34zM249,377h32v1h-32zM250,378h30v1h-30zM251,379h28v1h-28zM252,380h25v1h-25zM254,381h22v1h-22zM256,382h18v1h-18zM259,383h12v1h-12z"/></svg>