<svg xmlns="http://www.w3.org/2000/svg" viewBox="0 0 512 512" width="512" height="512"><path fill="#000" d="M186,85h12v1h-12zM184,86h17v1h-17zM182,87h21v1h-21zM180,88h25v1h-25zM179,89h27v1h-27zM178,90h29v1h-29zM176,91h32v1h-32zM175,92h34v1h-34zM174,93h36v1h-36zM173,94h37v1h-37zM172,95h39v1h-39zM171,96h41v1h-41zM170,97h42v1h-42zM169,98h43v1h-43zM168,99h45v1h-45zM167,100h46v1h-46zM166,101h47v1h-47zM165,102h49v1h-49zM164,103h50v1h-50zM163,104h51v1h-51zM162,105h52v1h-52zM161,106h53v1h-53zM160,107h54v1h-54zM159,108h55v1h-55zM158,109h56v1h-56zM157,110h57v1h-57zM156,111h57v1h-57zM155,112h58v1h-58zM154,113h59v1h-59zM153,114h59v1h-59zM152,115h60v1h-60zM151,116h60v1h-60zM150,117h61v1h-61zM149,118h61v1h-61zM148,119h62v1h-62zM147,120h62v1h-62zM146,121h62v1h-62zM145,122h62v1h-62zM144,123h62v1h-62zM143,124h62v1h-62zM142,125h62v1h-62zM141,126h62v1h-62zM140,127h62v1h-62zM139,128h62v1h-62zM138,129h62v1h-62zM137,130h62v1h-62zM136,131h62v1h-62zM135,132h62v1h-62zM134,133h62v1h-62zM133,134h62v1h-62zM132,135h62v1h-62zM131,136h62v1h-62zM130,137h62v1h-62zM129,138h62v1h-62zM128,139h62v1h-62zM127,140h62v1h-62zM126,141h62v1h-62zM125,142h62v1h-62zM124,143h62v1h-62zM123,144h62v1h-62zM122,145h62v1h-62zM121,146h62v1h-62zM120,147h62v1h-62zM119,148h62v1h-62zM118,149h62v1h-62zM117,150h62v1h-62zM116,151h62v1h-62zM115,152h62v1h-62zM114,153h62v1h-62zM113,154h62v1h-62zM112,155h62v1h-62zM111,156h62v1h-62zM110,157h62v1h-62zM109,158h62v1h-62zM108,159h62v1h-62zM107,160h62v1h-62zM106,161h62v1h-62zM105,162h62v1h-62zM104,163h62v1h-62zM103,164h62v1h-62zM102,165h62v1h-62zM101,166h62v1h-62zM100,167h62v1h-62zM99,168h62v1h-62zM98,169h62v1h-62zM97,170h62v1h-62zM96,171h62v1h-62zM95,172h62v1h-62zM94,173h62v1h-62zM93,174h62v1h-62zM92,175h62v1h-62zM91,176h62v1h-62zM90,177h62v1h-62zM89,178h62v1h-62zM88,179h62v1h-62zM87,180h62v1h-62zM86,181h62v1h-62zM85,182h62v1h-62zM84,183h62v1h-62zM83,184h62v1h-62zM82,185h62v1h-62zM81,186h62v1h-62zM80,187h62v1h-62zM79,188h62v1h-62zM78,189h62v1h-62zM77,190h62v1h-62zM76,191h62v1h-62zM75,192h62v1h-62zM74,193h62v1h-62zM73,194h62v1h-62zM72,195h62v1h-62zM71,196h62v1h-62zM70,197h62v1h-62zM69,198h62v1h-62zM68,199h62v1h-62zM67,200h62v1h-62zM66,201h62v1h-62zM65,202h62v1h-62zM64,203h62v1h-62zM63,204h62v1h-62zM62,205h62v1h-62zM61,206h62v1h-62zM60,207h62v1h-62zM59,208h62v1h-62zM58,209h62v1h-62zM57,210h62v1h-62zM56,211h62v1h-62zM55,212h62v1h-62zM54,213h62v1h-62zM53,214h62v1h-62zM52,215h62v1h-62zM51,216h62v1h-62zM50,217h62v1h-62zM49,218h62v1h-62zM48,219h62v1h-62zM47,220h62v1h-62zM46,221h62v1h-62zM45,222h62v1h-62zM44,223h62v1h-62zM43,224h62v1h-62zM42,225h62v1h-62zM41,226h62v1h-62zM40,227h62v1h-62zM39,228h62v1h-62zM38,229h62v1h-62zM37,230h63v1h-63zM36,231h64v1h-64zM35,232h65v1h-65zM34,233h66v1h-66zM33,234h439v1h-439zM32,235h444v1h-444zM31,236h448v1h-448zM30,237h451v1h-451zM29,238h453v1h-453zM28,239h455v1h-455zM27,240h458v1h-458zM27,241h458v1h-458zM26,242h460v1h-460zM25,243h462v1h-462zM24,244h464v1h-464zM24,245h464v1h-464zM23,246h466v1h-466zM23,247h466v1h-466zM22,248h468v1h-468zM22,249h468v1h-468zM22,250h468v1h-468zM21,251h470v1h-470zM21,252h470v1h-470zM21,253h470v1h-470zM21,254h470v1h-470zM21,255h470v1h-470zM21,256h470v1h-470zM21,257h470v1h-470zM21,258h470v1h-470zM21,259h470v1h-470zM21,260h470v1h-470zM22,261h468v1h-468zM22,262h468v1h-468zM22,263h468v1h-468zM23,264h466v1h-466zM23,265h466v1h-466zM24,266h464v1h-464zM24,267h464v1h-464zM25,268h462v1h-462zM26,269h460v1h-460zM27,270h458v1h-458zM27,271h457v1h-457zM28,272h455v1h-455zM29,273h453v1h-453zM30,274h451v1h-451zM31,275h448v1h-448zM32,276h444v1h-444zM33,277h439v1h-439zM34,278h66v1h-66zM35,279h65v1h-65zM36,280h64v1h-64zM37,281h63v1h-63zM38,282h62v1h-62zM39,283h62v1h-62zM40,284h62v1h-62zM41,285h62v1h-62zM42,286h62v1h-62zM43,287h62v1h-62zM44,288h62v1h-62zM45,289h62v1h-62zM46,290h62v1h-62zM47,291h62v1h-62zM48,292h62v1h-62zM49,293h62v1h-62zM50,294h62v1h-62zM51,295h62v1h-62zM52,296h62v1h-62zM53,297h62v1h-62zM54,298h62v1h-62zM55,299h62v1h-62zM56,300h62v1h-62zM57,301h62v1h-62zM58,302h62v1h-62zM59,303h62v1h-62zM60,304h62v1h-62zM61,305h62v1h-62zM62,306h62v1h-62zM63,307h62v1h-62zM64,308h62v1h-62zM65,309h62v1h-62zM66,310h62v1h-62zM67,311h62v1h-62zM68,312h62v1h-62zM69,313h62v1h-62zM70,314h62v1h-62zM71,315h62v1h-62zM72,316h62v1h-62zM73,317h62v1h-62zM74,318h62v1h-62zM75,319h62v1h-62zM76,320h62v1h-62zM77,321h62v1h-62zM78,322h62v1h-62zM79,323h62v1h-62zM80,324h62v1h-62zM81,325h62v1h-62zM82,326h62v1h-62zM83,327h62v1h-62zM84,328h62v1h-62zM85,329h62v1h-62zM86,330h62v1h-62zM87,331h62v1h-62zM88,332h62v1h-62zM89,333h62v1h-62zM90,334h62v1h-62zM91,335h62v1h-62zM92,336h62v1h-62zM93,337h62v1h-62zM94,338h62v1h-62zM95,339h62v1h-62zM96,340h62v1h-62zM97,341h62v1h-62zM98,342h62v1h-62zM99,343h62v1h-62zM100,344h62v1h-62zM101,345h62v1h-62zM102,346h62v1h-62zM103,347h62v1h-62zM104,348h62v1h-62zM105,349h62v1h-62zM106,350h62v1h-62zM107,351h62v1h-62zM108,352h62v1h-62zM109,353h62v1h-62zM110,354h62v1h-62zM111,355h62v1h-62zM112,356h62v1h-62zM113,357h62v1h-62zM114,358h62v1h-62zM115,359h62v1h-62zM116,360h62v1h-62zM117,361h62v1h-62zM118,362h62v1h-62zM119,363h62v1h-62zM120,364h62v1h-62zM121,365h62v1h-62zM122,366h62v1h-62zM123,367h62v1h-62zM124,368h62v1h-62zM125,369h62v1h-62zM126,370h62v1h-62zM127,371h62v1h-62zM128,372h62v1h-62zM129,373h62v1h-62zM130,374h62v1h-62zM131,375h62v1h-62zM132,376h62v1h-62zM133,377h62v1h-62zM134,378h62v1h-62zM135,379h62v1h-62zM136,380h62v1h-62zM137,381h62v1h-62zM138,382h62v1h-62zM139,383h62v1h-62zM140,384h62v1h-62zM141,385h62v1h-62zM142,386h62v1h-62zM143,387h62v1h-62zM144,388h62v1h-62zM145,389h62v1h-62zM146,390h62v1h-62zM147,391h62v1h-62zM148,392h61v1h-61zM149,393h61v1h-61zM150,394h61v1h-61zM151,395h60v1h-60zM152,396h60v1h-60zM153,397h59v1h-59zM154,398h58v1h-58zM155,399h58v1h-58zM156,400h57v1h-57zM157,401h56v1h-56zM158,402h55v1h-55zM159,403h54v1h-54zM160,404h53v1h-53zM161,405h52v1h-52zM162,406h51v1h-51zM163,407h50v1h-50zM164,408h49v1h-49zM165,409h48v1h-48zM166,410h47v1h-47zM167,411h45v1h-45zM168,412h44v1h-44zM169,413h43v1h-43zM170,414h41v1h-41zM171,415h40v1h-40zM172,416h38v1h-38zM173,417h37v1h-37zM174,418h35v1h-35zM175,419h33v1h-33zM176,420h31v1h-31zM178,421h28v1h-28zM179,422h26v1h-26zM180,423h23v1h-23zM182,424h19v1h-19zM184,425h15v1h-15zM188,426h7v1h-7z"/></svg>