<?xml version="1.0" encoding="UTF-8" standalone="no"?>
<!-- Created with Inkscape (http://www.inkscape.org/) -->

<svg
   version="1.1"
   id="svg900"
   xml:space="preserve"
   width="32"
   height="32"
   viewBox="0 0 32 32"
   xmlns="http://www.w3.org/2000/svg"
   xmlns:svg="http://www.w3.org/2000/svg"><defs
     id="defs904"><clipPath
       clipPathUnits="userSpaceOnUse"
       id="clipPath914"><path
         d="M 0,24 H 24 V 0 H 0 Z"
         id="path912" /></clipPath></defs><g
     id="g906"
     transform="matrix(1.3333333,0,0,-1.3333333,0,32)"><g
       id="g908"><g
         id="g910"
         clip-path="url(#clipPath914)"><g
           id="g916"
           transform="translate(19,14.5771)"><path
             d="m 0,0 c 0,8 -4,8.423 -4,8.423 0,0 -0.933,0 -1.843,-0.638 C -6.537,7.3 -7.463,7.3 -8.157,7.785 -9.067,8.423 -10,8.423 -10,8.423 -10,8.423 -14,8 -14,0 c 0,0 2,-1.577 7,-1.577 5,0 7,1.577 7,1.577 z"
             style="fill:none;stroke:#000000;stroke-width:2;stroke-linecap:round;stroke-linejoin:round;stroke-miterlimit:10;stroke-dasharray:none;stroke-opacity:1"
             id="path918" /></g><g
           id="g920"
           transform="translate(7.5,6)"><path
             d="M 0,0 C 1.381,0 2.5,-1.119 2.5,-2.5 2.5,-3.881 1.381,-5 0,-5 c -1.381,0 -2.5,1.119 -2.5,2.5 0,1.381 1.119,2.5 2.5,2.5"
             style="fill:none;stroke:#000000;stroke-width:2;stroke-linecap:round;stroke-linejoin:round;stroke-miterlimit:10;stroke-dasharray:none;stroke-opacity:1"
             id="path922" /></g><g
           id="g924"
           transform="translate(19,3.5)"><path
             d="M 0,0 C 0,-1.381 -1.119,-2.5 -2.5,-2.5 -3.881,-2.5 -5,-1.381 -5,0 -5,1.381 -3.881,2.5 -2.5,2.5 -1.119,2.5 0,1.381 0,0 Z"
             style="fill:none;stroke:#000000;stroke-width:2;stroke-linecap:round;stroke-linejoin:round;stroke-miterlimit:10;stroke-dasharray:none;stroke-opacity:1"
             id="path926" /></g><g
           id="g928"
           transform="translate(10,3.5)"><path
             d="M 0,0 C 0,0 1,0.5 2,0.5 3,0.5 4,0 4,0"
             style="fill:none;stroke:#000000;stroke-width:2;stroke-linecap:round;stroke-linejoin:round;stroke-miterlimit:10;stroke-dasharray:none;stroke-opacity:1"
             id="path930" /></g><g
           id="g932"
           transform="translate(19,14.5771)"><path
             d="m 0,0 c 1.663,-0.419 4,-1.561 4,-2.577 0,-2.5 -4.925,-3 -11,-3 -6.075,0 -11,0.5 -11,3 0,1.016 2.336,2.158 4,2.577"
             style="fill:none;stroke:#000000;stroke-width:2;stroke-linecap:round;stroke-linejoin:round;stroke-miterlimit:10;stroke-dasharray:none;stroke-opacity:1"
             id="path934" /></g></g></g></g></svg>
