<svg xmlns="http://www.w3.org/2000/svg" viewBox="0 0 512 512" width="512" height="512"><path fill="#000" d="M194,3h26v1h-26zM183,4h48v1h-48zM175,5h64v1h-64zM170,6h74v1h-74zM164,7h86v1h-86zM160,8h94v1h-94zM156,9h102v1h-102zM152,10h110v1h-110zM148,11h117v1h-117zM145,12h124v1h-124zM142,13h130v1h-130zM139,14h136v1h-136zM136,15h142v1h-142zM133,16h147v1h-147zM131,17h152v1h-152zM128,18h157v1h-157zM126,19h162v1h-162zM124,20h166v1h-166zM122,21h170v1h-170zM120,22h174v1h-174zM118,23h178v1h-178zM116,24h182v1h-182zM114,25h186v1h-186zM111,26h191v1h-191zM109,27h195v1h-195zM107,28h199v1h-199zM106,29h202v1h-202zM104,30h206v1h-206zM103,31h208v1h-208zM101,32h212v1h-212zM99,33h216v1h-216zM98,34h218v1h-218zM96,35h222v1h-222zM94,36h226v1h-226zM93,37h228v1h-228zM91,38h232v1h-232zM90,39h234v1h-234zM88,40h237v1h-237zM87,41h240v1h-240zM86,42h242v1h-242zM84,43h245v1h-245zM83,44h248v1h-248zM82,45h250v1h-250zM80,46h253v1h-253zM79,47h256v1h-256zM78,48h258v1h-258zM76,49h261v1h-261zM75,50h264v1h-264zM74,51h266v1h-266zM73,52h268v1h-268zM72,53h270v1h-270zM71,54h272v1h-272zM69,55h275v1h-275zM68,56h277v1h-277zM67,57h280v1h-280zM66,58h282v1h-282zM65,59h284v1h-284zM64,60h286v1h-286zM63,61h288v1h-288zM62,62h290v1h-290zM61,63h292v1h-292zM60,64h294v1h-294zM59,65h296v1h-296zM58,66h298v1h-298zM57,67h300v1h-300zM56,68h302v1h-302zM55,69h304v1h-304zM54,70h306v1h-306zM53,71h142v1h-142zM219,71h141v1h-141zM52,72h135v1h-135zM227,72h134v1h-134zM52,73h128v1h-128zM234,73h128v1h-128zM51,74h125v1h-125zM238,74h125v1h-125zM50,75h122v1h-122zM242,75h122v1h-122zM49,76h119v1h-119zM246,76h119v1h-119zM48,77h116v1h-116zM249,77h117v1h-117zM47,78h115v1h-115zM252,78h115v1h-115zM46,79h113v1h-113zM255,79h113v1h-113zM45,80h111v1h-111zM258,80h110v1h-110zM45,81h109v1h-109zM260,81h109v1h-109zM44,82h107v1h-107zM263,82h107v1h-107zM43,83h106v1h-106zM265,83h106v1h-106zM42,84h105v1h-105zM267,84h104v1h-104zM42,85h103v1h-103zM269,85h103v1h-103zM41,86h102v1h-102zM271,86h102v1h-102zM40,87h101v1h-101zM273,87h101v1h-101zM39,88h100v1h-100zM275,88h99v1h-99zM39,89h98v1h-98zM276,89h99v1h-99zM38,90h98v1h-98zM278,90h98v1h-98zM37,91h97v1h-97zM280,91h97v1h-97zM37,92h95v1h-95zM281,92h96v1h-96zM36,93h95v1h-95zM283,93h95v1h-95zM35,94h94v1h-94zM285,94h94v1h-94zM34,95h94v1h-94zM286,95h93v1h-93zM34,96h92v1h-92zM287,96h93v1h-93zM33,97h92v1h-92zM289,97h92v1h-92zM33,98h91v1h-91zM290,98h91v1h-91zM32,99h90v1h-90zM291,99h91v1h-91zM31,100h90v1h-90zM293,100h89v1h-89zM31,101h89v1h-89zM294,101h89v1h-89zM30,102h88v1h-88zM295,102h89v1h-89zM30,103h87v1h-87zM296,103h88v1h-88zM29,104h87v1h-87zM298,104h87v1h-87zM28,105h87v1h-87zM299,105h86v1h-86zM28,106h86v1h-86zM300,106h86v1h-86zM27,107h86v1h-86zM301,107h86v1h-86zM26,108h86v1h-86zM302,108h85v1h-85zM26,109h85v1h-85zM303,109h85v1h-85zM25,110h85v1h-85zM304,110h84v1h-84zM25,111h84v1h-84zM305,111h84v1h-84zM24,112h84v1h-84zM306,112h84v1h-84zM24,113h83v1h-83zM307,113h83v1h-83zM23,114h83v1h-83zM308,114h83v1h-83zM23,115h82v1h-82zM309,115h82v1h-82zM22,116h82v1h-82zM310,116h82v1h-82zM22,117h81v1h-81zM311,117h81v1h-81zM21,118h81v1h-81zM312,118h80v1h-80zM21,119h80v1h-80zM313,119h80v1h-80zM20,120h80v1h-80zM313,120h80v1h-80zM20,121h79v1h-79zM314,121h80v1h-80zM19,122h80v1h-80zM315,122h79v1h-79zM19,123h79v1h-79zM316,123h79v1h-79zM18,124h79v1h-79zM317,124h78v1h-78zM18,125h78v1h-78zM317,125h79v1h-79zM17,126h79v1h-79zM318,126h78v1h-78zM17,127h78v1h-78zM319,127h78v1h-78zM16,128h78v1h-78zM320,128h77v1h-77zM16,129h77v1h-77zM320,129h78v1h-78zM16,130h77v1h-77zM321,130h77v1h-77zM15,131h77v1h-77zM322,131h77v1h-77zM15,132h76v1h-76zM323,132h76v1h-76zM14,133h77v1h-77zM323,133h76v1h-76zM14,134h76v1h-76zM324,134h76v1h-76zM14,135h75v1h-75zM324,135h76v1h-76zM13,136h76v1h-76zM325,136h76v1h-76zM13,137h75v1h-75zM326,137h75v1h-75zM12,138h75v1h-75zM326,138h75v1h-75zM12,139h75v1h-75zM327,139h75v1h-75zM12,140h74v1h-74zM327,140h75v1h-75zM11,141h75v1h-75zM328,141h74v1h-74zM11,142h74v1h-74zM329,142h74v1h-74zM11,143h73v1h-73zM329,143h74v1h-74zM10,144h74v1h-74zM330,144h73v1h-73zM10,145h73v1h-73zM330,145h74v1h-74zM10,146h73v1h-73zM331,146h73v1h-73zM9,147h73v1h-73zM331,147h73v1h-73zM9,148h73v1h-73zM332,148h73v1h-73zM9,149h73v1h-73zM332,149h73v1h-73zM8,150h73v1h-73zM333,150h72v1h-72zM8,151h73v1h-73zM333,151h73v1h-73zM8,152h72v1h-72zM334,152h72v1h-72zM8,153h72v1h-72zM334,153h72v1h-72zM7,154h72v1h-72zM335,154h71v1h-71zM7,155h72v1h-72zM335,155h72v1h-72zM7,156h71v1h-71zM336,156h71v1h-71zM6,157h72v1h-72zM336,157h71v1h-71zM6,158h71v1h-71zM336,158h72v1h-72zM6,159h71v1h-71zM337,159h71v1h-71zM6,160h71v1h-71zM337,160h71v1h-71zM5,161h71v1h-71zM337,161h71v1h-71zM5,162h71v1h-71zM338,162h71v1h-71zM5,163h71v1h-71zM338,163h71v1h-71zM5,164h70v1h-70zM338,164h71v1h-71zM5,165h70v1h-70zM339,165h70v1h-70zM4,166h71v1h-71zM339,166h70v1h-70zM4,167h70v1h-70zM340,167h70v1h-70zM4,168h70v1h-70zM340,168h70v1h-70zM4,169h70v1h-70zM340,169h70v1h-70zM3,170h70v1h-70zM341,170h69v1h-69zM3,171h70v1h-70zM341,171h69v1h-69zM3,172h70v1h-70zM341,172h70v1h-70zM3,173h69v1h-69zM341,173h70v1h-70zM3,174h69v1h-69zM342,174h69v1h-69zM3,175h69v1h-69zM342,175h69v1h-69zM0,176h72v1h-72zM342,176h69v1h-69zM0,177h71v1h-71zM342,177h70v1h-70zM0,178h71v1h-71zM343,178h69v1h-69zM0,179h71v1h-71zM343,179h69v1h-69zM0,180h71v1h-71zM343,180h69v1h-69zM0,181h70v1h-70zM343,181h69v1h-69zM0,182h70v1h-70zM344,182h68v1h-68zM0,183h70v1h-70zM344,183h68v1h-68zM0,184h70v1h-70zM344,184h68v1h-68zM0,185h70v1h-70zM344,185h69v1h-69zM0,186h70v1h-70zM344,186h69v1h-69zM0,187h69v1h-69zM344,187h69v1h-69zM0,188h69v1h-69zM344,188h69v1h-69zM0,189h69v1h-69zM345,189h68v1h-68zM0,190h69v1h-69zM345,190h68v1h-68zM0,191h69v1h-69zM345,191h68v1h-68zM0,192h69v1h-69zM345,192h68v1h-68zM0,193h69v1h-69zM345,193h68v1h-68zM0,194h68v1h-68zM345,194h68v1h-68zM0,195h68v1h-68zM346,195h68v1h-68zM0,196h68v1h-68zM346,196h68v1h-68zM0,197h68v1h-68zM346,197h68v1h-68zM0,198h68v1h-68zM346,198h68v1h-68zM0,199h68v1h-68zM346,199h68v1h-68zM0,200h68v1h-68zM346,200h68v1h-68zM0,201h68v1h-68zM346,201h68v1h-68zM0,202h68v1h-68zM346,202h68v1h-68zM0,203h68v1h-68zM346,203h68v1h-68zM0,204h68v1h-68zM346,204h68v1h-68zM0,205h68v1h-68zM346,205h68v1h-68zM0,206h68v1h-68zM346,206h68v1h-68zM0,207h68v1h-68zM346,207h68v1h-68zM0,208h68v1h-68zM346,208h68v1h-68zM0,209h68v1h-68zM346,209h68v1h-68zM0,210h68v1h-68zM346,210h68v1h-68zM0,211h68v1h-68zM346,211h68v1h-68zM0,212h68v1h-68zM346,212h68v1h-68zM0,213h68v1h-68zM346,213h68v1h-68zM0,214h68v1h-68zM346,214h68v1h-68zM0,215h68v1h-68zM346,215h68v1h-68zM0,216h68v1h-68zM346,216h68v1h-68zM0,217h68v1h-68zM346,217h68v1h-68zM0,218h68v1h-68zM346,218h68v1h-68zM0,219h68v1h-68zM346,219h68v1h-68zM0,220h68v1h-68zM346,220h68v1h-68zM0,221h68v1h-68zM346,221h68v1h-68zM0,222h68v1h-68zM346,222h68v1h-68zM0,223h68v1h-68zM346,223h68v1h-68zM0,224h68v1h-68zM346,224h68v1h-68zM0,225h68v1h-68zM345,225h69v1h-69zM0,226h68v1h-68zM345,226h68v1h-68zM0,227h69v1h-69zM345,227h68v1h-68zM0,228h69v1h-69zM345,228h68v1h-68zM0,229h69v1h-69zM345,229h68v1h-68zM0,230h69v1h-69zM345,230h68v1h-68zM0,231h69v1h-69zM345,231h68v1h-68zM0,232h69v1h-69zM344,232h69v1h-69zM0,233h69v1h-69zM344,233h69v1h-69zM0,234h70v1h-70zM344,234h69v1h-69zM0,235h70v1h-70zM344,235h69v1h-69zM0,236h70v1h-70zM344,236h68v1h-68zM0,237h70v1h-70zM344,237h68v1h-68zM0,238h70v1h-70zM343,238h69v1h-69zM0,239h71v1h-71zM343,239h69v1h-69zM0,240h71v1h-71zM343,240h69v1h-69zM0,241h71v1h-71zM343,241h69v1h-69zM0,242h71v1h-71zM342,242h70v1h-70zM0,243h72v1h-72zM342,243h69v1h-69zM0,244h72v1h-72zM342,244h69v1h-69zM3,245h69v1h-69zM342,245h69v1h-69zM3,246h69v1h-69zM341,246h70v1h-70zM3,247h70v1h-70zM341,247h70v1h-70zM3,248h70v1h-70zM341,248h69v1h-69zM3,249h70v1h-70zM341,249h69v1h-69zM4,250h69v1h-69zM340,250h70v1h-70zM4,251h70v1h-70zM340,251h70v1h-70zM4,252h70v1h-70zM340,252h70v1h-70zM4,253h70v1h-70zM339,253h71v1h-71zM4,254h71v1h-71zM339,254h70v1h-70zM5,255h70v1h-70zM339,255h70v1h-70zM5,256h70v1h-70zM338,256h71v1h-71zM5,257h71v1h-71zM338,257h71v1h-71zM5,258h71v1h-71zM338,258h70v1h-70zM6,259h70v1h-70zM337,259h71v1h-71zM6,260h71v1h-71zM337,260h71v1h-71zM6,261h71v1h-71zM337,261h71v1h-71zM6,262h72v1h-72zM336,262h71v1h-71zM7,263h71v1h-71zM336,263h71v1h-71zM7,264h71v1h-71zM335,264h72v1h-72zM7,265h72v1h-72zM335,265h72v1h-72zM7,266h72v1h-72zM334,266h72v1h-72zM8,267h72v1h-72zM334,267h72v1h-72zM8,268h72v1h-72zM334,268h72v1h-72zM8,269h73v1h-73zM333,269h73v1h-73zM9,270h72v1h-72zM333,270h72v1h-72zM9,271h73v1h-73zM332,271h73v1h-73zM9,272h73v1h-73zM332,272h73v1h-73zM9,273h74v1h-74zM331,273h73v1h-73zM10,274h73v1h-73zM331,274h73v1h-73zM10,275h74v1h-74zM330,275h74v1h-74zM10,276h74v1h-74zM330,276h73v1h-73zM11,277h74v1h-74zM329,277h74v1h-74zM11,278h74v1h-74zM329,278h74v1h-74zM12,279h74v1h-74zM328,279h74v1h-74zM12,280h74v1h-74zM327,280h75v1h-75zM12,281h75v1h-75zM327,281h75v1h-75zM13,282h75v1h-75zM326,282h75v1h-75zM13,283h75v1h-75zM325,283h76v1h-76zM13,284h76v1h-76zM325,284h75v1h-75zM14,285h76v1h-76zM324,285h76v1h-76zM14,286h76v1h-76zM324,286h76v1h-76zM15,287h76v1h-76zM323,287h76v1h-76zM15,288h76v1h-76zM322,288h77v1h-77zM15,289h77v1h-77zM322,289h76v1h-76zM16,290h77v1h-77zM321,290h77v1h-77zM16,291h78v1h-78zM320,291h77v1h-77zM17,292h77v1h-77zM319,292h78v1h-78zM17,293h78v1h-78zM319,293h78v1h-78zM18,294h78v1h-78zM318,294h78v1h-78zM18,295h79v1h-79zM317,295h79v1h-79zM19,296h78v1h-78zM316,296h79v1h-79zM19,297h79v1h-79zM316,297h79v1h-79zM20,298h79v1h-79zM315,298h79v1h-79zM20,299h80v1h-80zM314,299h80v1h-80zM20,300h81v1h-81zM313,300h80v1h-80zM21,301h80v1h-80zM312,301h81v1h-81zM21,302h81v1h-81zM311,302h81v1h-81zM22,303h81v1h-81zM310,303h82v1h-82zM22,304h82v1h-82zM310,304h81v1h-81zM23,305h82v1h-82zM309,305h82v1h-82zM23,306h83v1h-83zM308,306h82v1h-82zM24,307h83v1h-83zM307,307h83v1h-83zM24,308h84v1h-84zM306,308h83v1h-83zM25,309h84v1h-84zM305,309h84v1h-84zM25,310h85v1h-85zM304,310h84v1h-84zM26,311h85v1h-85zM303,311h85v1h-85zM27,312h85v1h-85zM302,312h85v1h-85zM27,313h86v1h-86zM301,313h85v1h-85zM28,314h86v1h-86zM299,314h87v1h-87zM29,315h86v1h-86zM298,315h87v1h-87zM29,316h88v1h-88zM297,316h88v1h-88zM30,317h88v1h-88zM296,317h88v1h-88zM30,318h89v1h-89zM295,318h89v1h-89zM31,319h89v1h-89zM294,319h90v1h-90zM32,320h90v1h-90zM292,320h92v1h-92zM32,321h91v1h-91zM291,321h93v1h-93zM33,322h91v1h-91zM290,322h95v1h-95zM33,323h93v1h-93zM288,323h98v1h-98zM34,324h93v1h-93zM287,324h100v1h-100zM35,325h93v1h-93zM286,325h102v1h-102zM35,326h95v1h-95zM284,326h105v1h-105zM36,327h95v1h-95zM282,327h108v1h-108zM37,328h96v1h-96zM281,328h110v1h-110zM38,329h97v1h-97zM279,329h113v1h-113zM38,330h98v1h-98zM277,330h116v1h-116zM39,331h99v1h-99zM276,331h118v1h-118zM40,332h100v1h-100zM274,332h121v1h-121zM40,333h101v1h-101zM272,333h124v1h-124zM41,334h103v1h-103zM270,334h127v1h-127zM42,335h104v1h-104zM268,335h130v1h-130zM43,336h105v1h-105zM266,336h133v1h-133zM43,337h107v1h-107zM264,337h136v1h-136zM44,338h108v1h-108zM262,338h139v1h-139zM45,339h109v1h-109zM259,339h143v1h-143zM46,340h111v1h-111zM257,340h146v1h-146zM46,341h114v1h-114zM254,341h150v1h-150zM47,342h116v1h-116zM251,342h154v1h-154zM48,343h117v1h-117zM248,343h158v1h-158zM49,344h120v1h-120zM245,344h162v1h-162zM50,345h123v1h-123zM241,345h167v1h-167zM51,346h126v1h-126zM237,346h172v1h-172zM52,347h130v1h-130zM232,347h178v1h-178zM53,348h136v1h-136zM225,348h186v1h-186zM54,349h147v1h-147zM213,349h199v1h-199zM55,350h358v1h-358zM55,351h359v1h-359zM56,352h359v1h-359zM57,353h359v1h-359zM58,354h359v1h-359zM59,355h359v1h-359zM60,356h359v1h-359zM61,357h359v1h-359zM62,358h359v1h-359zM63,359h359v1h-359zM64,360h359v1h-359zM65,361h359v1h-359zM67,362h358v1h-358zM68,363h358v1h-358zM69,364h358v1h-358zM70,365h358v1h-358zM71,366h358v1h-358zM72,367h358v1h-358zM73,368h358v1h-358zM74,369h358v1h-358zM75,370h358v1h-358zM77,371h357v1h-357zM78,372h357v1h-357zM79,373h357v1h-357zM81,374h356v1h-356zM82,375h356v1h-356zM83,376h356v1h-356zM85,377h355v1h-355zM86,378h355v1h-355zM87,379h355v1h-355zM89,380h354v1h-354zM90,381h354v1h-354zM92,382h230v1h-230zM327,382h118v1h-118zM93,383h227v1h-227zM328,383h118v1h-118zM95,384h224v1h-224zM329,384h118v1h-118zM96,385h221v1h-221zM330,385h118v1h-118zM98,386h218v1h-218zM331,386h118v1h-118zM100,387h214v1h-214zM332,387h118v1h-118zM101,388h212v1h-212zM333,388h118v1h-118zM103,389h208v1h-208zM334,389h118v1h-118zM105,390h204v1h-204zM335,390h118v1h-118zM106,391h201v1h-201zM336,391h118v1h-118zM108,392h197v1h-197zM337,392h118v1h-118zM110,393h194v1h-194zM338,393h118v1h-118zM112,394h190v1h-190zM339,394h118v1h-118zM114,395h186v1h-186zM340,395h118v1h-118zM116,396h182v1h-182zM341,396h118v1h-118zM118,397h178v1h-178zM342,397h118v1h-118zM120,398h173v1h-173zM343,398h118v1h-118zM122,399h169v1h-169zM344,399h118v1h-118zM125,400h164v1h-164zM345,400h118v1h-118zM127,401h160v1h-160zM346,401h118v1h-118zM129,402h156v1h-156zM347,402h118v1h-118zM132,403h150v1h-150zM348,403h118v1h-118zM134,404h145v1h-145zM349,404h118v1h-118zM137,405h139v1h-139zM350,405h118v1h-118zM140,406h134v1h-134zM351,406h118v1h-118zM143,407h128v1h-128zM352,407h118v1h-118zM146,408h121v1h-121zM353,408h118v1h-118zM150,409h114v1h-114zM354,409h118v1h-118zM153,410h107v1h-107zM355,410h118v1h-118zM157,411h100v1h-100zM356,411h118v1h-118zM161,412h91v1h-91zM357,412h118v1h-118zM166,413h81v1h-81zM358,413h118v1h-118zM171,414h71v1h-71zM359,414h118v1h-118zM178,415h58v1h-58zM360,415h118v1h-118zM185,416h42v1h-42zM361,416h118v1h-118zM203,417h7v1h-7zM362,417h118v1h-118zM363,418h118v1h-118zM364,419h118v1h-118zM365,420h118v1h-118zM366,421h118v1h-118zM367,422h118v1h-118zM368,423h118v1h-118zM369,424h118v1h-118zM370,425h118v1h-118zM371,426h118v1h-118zM372,427h118v1h-118zM373,428h118v1h-118zM374,429h118v1h-118zM375,430h118v1h-118zM376,431h118v1h-118zM377,432h118v1h-118zM378,433h118v1h-118zM379,434h118v1h-118zM380,435h118v1h-118zM381,436h118v1h-118zM382,437h118v1h-118zM383,438h118v1h-118zM384,439h118v1h-118zM385,440h117v1h-117zM386,441h117v1h-117zM387,442h117v1h-117zM388,443h117v1h-117zM389,444h117v1h-117zM390,445h116v1h-116zM391,446h116v1h-116zM392,447h115v1h-115zM393,448h115v1h-115zM394,449h114v1h-114zM395,450h114v1h-114zM396,451h113v1h-113zM397,452h115v1h-115zM398,453h114v1h-114zM399,454h113v1h-113zM400,455h112v1h-112zM401,456h111v1h-111zM402,457h110v1h-110zM403,458h109v1h-109zM404,459h108v1h-108zM405,460h107v1h-107zM406,461h106v1h-106zM407,462h105v1h-105zM408,463h104v1h-104zM409,464h103v1h-103zM410,465h102v1h-102zM411,466h101v1h-101zM412,467h100v1h-100zM413,468h99v1h-99zM414,469h98v1h-98zM415,470h97v1h-97zM416,471h96v1h-96zM417,472h95v1h-95zM418,473h94v1h-94zM419,474h93v1h-93zM420,475h92v1h-92zM421,476h91v1h-91zM422,477h90v1h-90zM423,478h89v1h-89zM424,479h88v1h-88zM425,480h87v1h-87zM426,481h86v1h-86zM427,482h82v1h-82zM428,483h81v1h-81zM429,484h79v1h-79zM430,485h78v1h-78zM431,486h76v1h-76zM432,487h75v1h-75zM433,488h73v1h-73zM434,489h72v1h-72zM435,490h70v1h-70zM436,491h68v1h-68zM437,492h67v1h-67zM438,493h65v1h-65zM439,494h63v1h-63zM440,495h61v1h-61zM441,496h59v1h-59zM442,497h57v1h-57zM443,498h55v1h-55zM445,499h52v1h-52zM446,500h49v1h-49zM447,501h47v1h-47zM448,502h45v1h-45zM450,503h41v1h-41zM452,504h37v1h-37zM454,505h33v1h-33zM457,506h27v1h-27zM460,507h21v1h-21zM466,508h9v1h-9z"/></svg>