<svg xmlns="http://www.w3.org/2000/svg" viewBox="0 0 512 512" width="512" height="512"><path fill="#000" d="M172,0h68v1h-68zM172,1h68v1h-68zM172,2h68v1h-68zM167,3h78v1h-78zM162,4h88v1h-88zM157,5h98v1h-98zM153,6h106v1h-106zM150,7h112v1h-112zM146,8h120v1h-120zM143,9h126v1h-126zM140,10h132v1h-132zM137,11h138v1h-138zM134,12h144v1h-144zM132,13h148v1h-148zM129,14h154v1h-154zM127,15h158v1h-158zM124,16h164v1h-164zM122,17h168v1h-168zM120,18h172v1h-172zM118,19h176v1h-176zM116,20h180v1h-180zM114,21h184v1h-184zM112,22h188v1h-188zM110,23h192v1h-192zM108,24h196v1h-196zM106,25h200v1h-200zM104,26h204v1h-204zM103,27h206v1h-206zM101,28h210v1h-210zM99,29h214v1h-214zM97,30h217v1h-217zM96,31h220v1h-220zM94,32h224v1h-224zM93,33h226v1h-226zM91,34h230v1h-230zM90,35h232v1h-232zM88,36h236v1h-236zM87,37h238v1h-238zM85,38h241v1h-241zM84,39h244v1h-244zM83,40h246v1h-246zM81,41h249v1h-249zM80,42h252v1h-252zM79,43h254v1h-254zM78,44h256v1h-256zM76,45h260v1h-260zM75,46h262v1h-262zM74,47h264v1h-264zM73,48h266v1h-266zM71,49h269v1h-269zM70,50h272v1h-272zM69,51h274v1h-274zM68,52h122v1h-122zM222,52h122v1h-122zM67,53h115v1h-115zM230,53h115v1h-115zM66,54h110v1h-110zM236,54h110v1h-110zM65,55h107v1h-107zM240,55h107v1h-107zM64,56h104v1h-104zM245,56h103v1h-103zM63,57h101v1h-101zM248,57h101v1h-101zM62,58h98v1h-98zM252,58h98v1h-98zM61,59h96v1h-96zM255,59h96v1h-96zM60,60h94v1h-94zM258,60h94v1h-94zM59,61h93v1h-93zM260,61h93v1h-93zM58,62h91v1h-91zM263,62h91v1h-91zM57,63h90v1h-90zM266,63h89v1h-89zM56,64h88v1h-88zM268,64h88v1h-88zM55,65h87v1h-87zM270,65h87v1h-87zM54,66h86v1h-86zM272,66h86v1h-86zM53,67h85v1h-85zM274,67h85v1h-85zM52,68h84v1h-84zM276,68h84v1h-84zM51,69h83v1h-83zM278,69h83v1h-83zM50,70h82v1h-82zM280,70h82v1h-82zM50,71h80v1h-80zM282,71h80v1h-80zM49,72h79v1h-79zM284,72h79v1h-79zM48,73h79v1h-79zM285,73h79v1h-79zM47,74h78v1h-78zM287,74h78v1h-78zM46,75h78v1h-78zM289,75h77v1h-77zM45,76h77v1h-77zM290,76h77v1h-77zM45,77h75v1h-75zM292,77h75v1h-75zM44,78h75v1h-75zM293,78h75v1h-75zM43,79h75v1h-75zM295,79h74v1h-74zM42,80h74v1h-74zM296,80h74v1h-74zM42,81h73v1h-73zM297,81h73v1h-73zM41,82h72v1h-72zM299,82h72v1h-72zM40,83h72v1h-72zM300,83h72v1h-72zM39,84h72v1h-72zM301,84h72v1h-72zM39,85h71v1h-71zM303,85h70v1h-70zM38,86h70v1h-70zM304,86h70v1h-70zM37,87h70v1h-70zM305,87h70v1h-70zM36,88h70v1h-70zM306,88h70v1h-70zM36,89h69v1h-69zM307,89h69v1h-69zM35,90h69v1h-69zM309,90h68v1h-68zM34,91h68v1h-68zM310,91h68v1h-68zM34,92h67v1h-67zM311,92h67v1h-67zM33,93h67v1h-67zM312,93h67v1h-67zM32,94h67v1h-67zM313,94h67v1h-67zM32,95h66v1h-66zM314,95h66v1h-66zM31,96h66v1h-66zM315,96h66v1h-66zM30,97h66v1h-66zM316,97h65v1h-65zM30,98h65v1h-65zM317,98h65v1h-65zM29,99h65v1h-65zM318,99h65v1h-65zM29,100h64v1h-64zM319,100h64v1h-64zM28,101h64v1h-64zM320,101h64v1h-64zM28,102h63v1h-63zM321,102h63v1h-63zM27,103h64v1h-64zM321,103h64v1h-64zM26,104h64v1h-64zM322,104h64v1h-64zM26,105h63v1h-63zM323,105h63v1h-63zM25,106h63v1h-63zM324,106h63v1h-63zM25,107h62v1h-62zM325,107h62v1h-62zM24,108h62v1h-62zM326,108h62v1h-62zM24,109h61v1h-61zM327,109h61v1h-61zM23,110h62v1h-62zM327,110h62v1h-62zM23,111h61v1h-61zM328,111h61v1h-61zM22,112h61v1h-61zM329,112h61v1h-61zM22,113h60v1h-60zM330,113h60v1h-60zM21,114h61v1h-61zM330,114h61v1h-61zM21,115h60v1h-60zM331,115h60v1h-60zM20,116h60v1h-60zM332,116h60v1h-60zM20,117h59v1h-59zM333,117h59v1h-59zM19,118h60v1h-60zM333,118h60v1h-60zM19,119h59v1h-59zM334,119h59v1h-59zM18,120h59v1h-59zM335,120h59v1h-59zM18,121h59v1h-59zM335,121h59v1h-59zM17,122h59v1h-59zM336,122h59v1h-59zM17,123h58v1h-58zM337,123h58v1h-58zM16,124h59v1h-59zM337,124h59v1h-59zM16,125h58v1h-58zM338,125h58v1h-58zM16,126h58v1h-58zM338,126h58v1h-58zM15,127h58v1h-58zM339,127h58v1h-58zM15,128h57v1h-57zM340,128h57v1h-57zM14,129h58v1h-58zM340,129h58v1h-58zM14,130h57v1h-57zM341,130h57v1h-57zM14,131h57v1h-57zM341,131h57v1h-57zM13,132h57v1h-57zM342,132h57v1h-57zM13,133h57v1h-57zM342,133h57v1h-57zM12,134h57v1h-57zM343,134h56v1h-56zM12,135h57v1h-57zM343,135h57v1h-57zM12,136h56v1h-56zM344,136h56v1h-56zM11,137h57v1h-57zM344,137h57v1h-57zM11,138h56v1h-56zM345,138h56v1h-56zM11,139h56v1h-56zM345,139h56v1h-56zM10,140h56v1h-56zM346,140h56v1h-56zM10,141h56v1h-56zM346,141h56v1h-56zM10,142h55v1h-55zM347,142h55v1h-55zM9,143h56v1h-56zM347,143h56v1h-56zM9,144h55v1h-55zM348,144h55v1h-55zM9,145h55v1h-55zM348,145h55v1h-55zM8,146h55v1h-55zM349,146h54v1h-54zM8,147h55v1h-55zM349,147h55v1h-55zM8,148h55v1h-55zM349,148h55v1h-55zM8,149h54v1h-54zM350,149h54v1h-54zM7,150h55v1h-55zM350,150h55v1h-55zM7,151h54v1h-54zM351,151h54v1h-54zM7,152h54v1h-54zM351,152h54v1h-54zM6,153h55v1h-55zM351,153h54v1h-54zM6,154h54v1h-54zM352,154h54v1h-54zM6,155h54v1h-54zM352,155h54v1h-54zM6,156h54v1h-54zM352,156h54v1h-54zM5,157h54v1h-54zM353,157h53v1h-53zM5,158h54v1h-54zM353,158h54v1h-54zM5,159h54v1h-54zM353,159h54v1h-54zM5,160h53v1h-53zM354,160h53v1h-53zM4,161h54v1h-54zM354,161h53v1h-53zM4,162h54v1h-54zM354,162h54v1h-54zM4,163h53v1h-53zM354,163h54v1h-54zM4,164h53v1h-53zM355,164h53v1h-53zM4,165h53v1h-53zM355,165h53v1h-53zM3,166h54v1h-54zM355,166h53v1h-53zM3,167h53v1h-53zM356,167h53v1h-53zM3,168h53v1h-53zM356,168h53v1h-53zM3,169h53v1h-53zM356,169h53v1h-53zM3,170h53v1h-53zM356,170h53v1h-53zM3,171h52v1h-52zM357,171h52v1h-52zM0,172h55v1h-55zM357,172h53v1h-53zM0,173h55v1h-55zM357,173h53v1h-53zM0,174h55v1h-55zM357,174h53v1h-53zM0,175h54v1h-54zM357,175h53v1h-53zM0,176h54v1h-54zM358,176h52v1h-52zM0,177h54v1h-54zM358,177h52v1h-52zM0,178h54v1h-54zM358,178h52v1h-52zM0,179h54v1h-54zM358,179h53v1h-53zM0,180h54v1h-54zM358,180h53v1h-53zM0,181h53v1h-53zM358,181h53v1h-53zM0,182h53v1h-53zM359,182h52v1h-52zM0,183h53v1h-53zM359,183h52v1h-52zM0,184h53v1h-53zM359,184h52v1h-52zM0,185h53v1h-53zM359,185h52v1h-52zM0,186h53v1h-53zM359,186h52v1h-52zM0,187h53v1h-53zM359,187h52v1h-52zM0,188h52v1h-52zM359,188h53v1h-53zM0,189h52v1h-52zM360,189h52v1h-52zM0,190h52v1h-52zM360,190h52v1h-52zM0,191h52v1h-52zM360,191h52v1h-52zM0,192h52v1h-52zM360,192h52v1h-52zM0,193h52v1h-52zM360,193h52v1h-52zM0,194h52v1h-52zM360,194h52v1h-52zM0,195h52v1h-52zM360,195h52v1h-52zM0,196h52v1h-52zM360,196h52v1h-52zM0,197h52v1h-52zM360,197h52v1h-52zM0,198h52v1h-52zM360,198h52v1h-52zM0,199h52v1h-52zM360,199h52v1h-52zM0,200h52v1h-52zM360,200h52v1h-52zM0,201h52v1h-52zM360,201h52v1h-52zM0,202h52v1h-52zM360,202h52v1h-52zM0,203h51v1h-51zM360,203h52v1h-52zM0,204h51v1h-51zM360,204h52v1h-52zM0,205h51v1h-51zM360,205h52v1h-52zM0,206h51v1h-51zM360,206h52v1h-52zM0,207h51v1h-51zM360,207h52v1h-52zM0,208h51v1h-51zM360,208h52v1h-52zM0,209h52v1h-52zM360,209h52v1h-52zM0,210h52v1h-52zM360,210h52v1h-52zM0,211h52v1h-52zM360,211h52v1h-52zM0,212h52v1h-52zM360,212h52v1h-52zM0,213h52v1h-52zM360,213h52v1h-52zM0,214h52v1h-52zM360,214h52v1h-52zM0,215h52v1h-52zM360,215h52v1h-52zM0,216h52v1h-52zM360,216h52v1h-52zM0,217h52v1h-52zM360,217h52v1h-52zM0,218h52v1h-52zM360,218h52v1h-52zM0,219h52v1h-52zM360,219h52v1h-52zM0,220h52v1h-52zM360,220h52v1h-52zM0,221h52v1h-52zM360,221h52v1h-52zM0,222h52v1h-52zM360,222h52v1h-52zM0,223h52v1h-52zM359,223h53v1h-53zM0,224h53v1h-53zM359,224h52v1h-52zM0,225h53v1h-53zM359,225h52v1h-52zM0,226h53v1h-53zM359,226h52v1h-52zM0,227h53v1h-53zM359,227h52v1h-52zM0,228h53v1h-53zM359,228h52v1h-52zM0,229h53v1h-53zM359,229h52v1h-52zM0,230h53v1h-53zM358,230h53v1h-53zM0,231h54v1h-54zM358,231h53v1h-53zM0,232h54v1h-54zM358,232h53v1h-53zM0,233h54v1h-54zM358,233h52v1h-52zM0,234h54v1h-54zM358,234h52v1h-52zM0,235h54v1h-54zM358,235h52v1h-52zM0,236h54v1h-54zM357,236h53v1h-53zM0,237h55v1h-55zM357,237h53v1h-53zM0,238h55v1h-55zM357,238h53v1h-53zM0,239h55v1h-55zM357,239h53v1h-53zM3,240h52v1h-52zM357,240h52v1h-52zM3,241h53v1h-53zM356,241h53v1h-53zM3,242h53v1h-53zM356,242h53v1h-53zM3,243h53v1h-53zM356,243h53v1h-53zM3,244h53v1h-53zM356,244h53v1h-53zM3,245h54v1h-54zM355,245h53v1h-53zM4,246h53v1h-53zM355,246h53v1h-53zM4,247h53v1h-53zM355,247h53v1h-53zM4,248h53v1h-53zM355,248h53v1h-53zM4,249h54v1h-54zM354,249h54v1h-54zM4,250h54v1h-54zM354,250h53v1h-53zM5,251h53v1h-53zM354,251h53v1h-53zM5,252h54v1h-54zM353,252h54v1h-54zM5,253h54v1h-54zM353,253h54v1h-54zM5,254h54v1h-54zM353,254h53v1h-53zM6,255h54v1h-54zM352,255h54v1h-54zM6,256h54v1h-54zM352,256h54v1h-54zM6,257h54v1h-54zM352,257h54v1h-54zM6,258h55v1h-55zM351,258h55v1h-55zM7,259h54v1h-54zM351,259h54v1h-54zM7,260h54v1h-54zM351,260h54v1h-54zM7,261h55v1h-55zM350,261h55v1h-55zM8,262h54v1h-54zM350,262h54v1h-54zM8,263h55v1h-55zM349,263h55v1h-55zM8,264h55v1h-55zM349,264h55v1h-55zM8,265h55v1h-55zM349,265h55v1h-55zM9,266h55v1h-55zM348,266h55v1h-55zM9,267h55v1h-55zM348,267h55v1h-55zM9,268h56v1h-56zM347,268h56v1h-56zM10,269h55v1h-55zM347,269h55v1h-55zM10,270h56v1h-56zM346,270h56v1h-56zM10,271h56v1h-56zM346,271h56v1h-56zM11,272h56v1h-56zM345,272h56v1h-56zM11,273h56v1h-56zM345,273h56v1h-56zM11,274h57v1h-57zM344,274h57v1h-57zM12,275h56v1h-56zM344,275h56v1h-56zM12,276h57v1h-57zM343,276h57v1h-57zM12,277h57v1h-57zM343,277h57v1h-57zM13,278h57v1h-57zM342,278h57v1h-57zM13,279h57v1h-57zM342,279h57v1h-57zM14,280h57v1h-57zM341,280h57v1h-57zM14,281h57v1h-57zM341,281h57v1h-57zM14,282h58v1h-58zM340,282h58v1h-58zM15,283h57v1h-57zM340,283h57v1h-57zM15,284h58v1h-58zM339,284h58v1h-58zM16,285h58v1h-58zM338,285h58v1h-58zM16,286h58v1h-58zM338,286h58v1h-58zM16,287h59v1h-59zM337,287h59v1h-59zM17,288h58v1h-58zM337,288h58v1h-58zM17,289h59v1h-59zM336,289h59v1h-59zM18,290h59v1h-59zM335,290h59v1h-59zM18,291h59v1h-59zM335,291h59v1h-59zM19,292h59v1h-59zM334,292h59v1h-59zM19,293h60v1h-60zM333,293h60v1h-60zM20,294h59v1h-59zM333,294h59v1h-59zM20,295h60v1h-60zM332,295h60v1h-60zM21,296h60v1h-60zM331,296h60v1h-60zM21,297h61v1h-61zM330,297h61v1h-61zM22,298h60v1h-60zM330,298h60v1h-60zM22,299h61v1h-61zM329,299h61v1h-61zM23,300h61v1h-61zM328,300h61v1h-61zM23,301h62v1h-62zM327,301h62v1h-62zM24,302h61v1h-61zM327,302h61v1h-61zM24,303h62v1h-62zM326,303h62v1h-62zM25,304h62v1h-62zM325,304h62v1h-62zM25,305h63v1h-63zM324,305h63v1h-63zM26,306h63v1h-63zM323,306h63v1h-63zM26,307h64v1h-64zM322,307h64v1h-64zM27,308h64v1h-64zM322,308h63v1h-63zM27,309h64v1h-64zM321,309h63v1h-63zM28,310h64v1h-64zM320,310h64v1h-64zM29,311h64v1h-64zM319,311h64v1h-64zM29,312h65v1h-65zM318,312h65v1h-65zM30,313h65v1h-65zM317,313h65v1h-65zM30,314h66v1h-66zM316,314h65v1h-65zM31,315h66v1h-66zM315,315h66v1h-66zM32,316h66v1h-66zM314,316h66v1h-66zM32,317h67v1h-67zM313,317h67v1h-67zM33,318h67v1h-67zM312,318h67v1h-67zM34,319h67v1h-67zM311,319h67v1h-67zM34,320h68v1h-68zM310,320h68v1h-68zM35,321h69v1h-69zM309,321h68v1h-68zM36,322h69v1h-69zM307,322h69v1h-69zM36,323h70v1h-70zM306,323h70v1h-70zM37,324h70v1h-70zM305,324h70v1h-70zM38,325h70v1h-70zM304,325h70v1h-70zM38,326h72v1h-72zM303,326h70v1h-70zM39,327h72v1h-72zM301,327h72v1h-72zM40,328h72v1h-72zM300,328h72v1h-72zM41,329h72v1h-72zM299,329h72v1h-72zM41,330h74v1h-74zM297,330h74v1h-74zM42,331h74v1h-74zM296,331h75v1h-75zM43,332h75v1h-75zM295,332h76v1h-76zM44,333h75v1h-75zM293,333h78v1h-78zM45,334h75v1h-75zM292,334h79v1h-79zM45,335h77v1h-77zM290,335h82v1h-82zM46,336h78v1h-78zM289,336h84v1h-84zM47,337h78v1h-78zM287,337h87v1h-87zM48,338h79v1h-79zM285,338h90v1h-90zM49,339h79v1h-79zM284,339h92v1h-92zM50,340h80v1h-80zM282,340h95v1h-95zM50,341h82v1h-82zM280,341h98v1h-98zM51,342h83v1h-83zM278,342h101v1h-101zM52,343h84v1h-84zM276,343h104v1h-104zM53,344h85v1h-85zM274,344h107v1h-107zM54,345h86v1h-86zM272,345h110v1h-110zM55,346h87v1h-87zM270,346h113v1h-113zM56,347h88v1h-88zM268,347h116v1h-116zM57,348h90v1h-90zM266,348h119v1h-119zM58,349h91v1h-91zM263,349h123v1h-123zM59,350h93v1h-93zM261,350h126v1h-126zM60,351h94v1h-94zM258,351h130v1h-130zM61,352h96v1h-96zM255,352h134v1h-134zM62,353h98v1h-98zM252,353h138v1h-138zM63,354h101v1h-101zM248,354h143v1h-143zM64,355h103v1h-103zM245,355h147v1h-147zM65,356h107v1h-107zM241,356h152v1h-152zM66,357h110v1h-110zM236,357h158v1h-158zM67,358h115v1h-115zM230,358h165v1h-165zM68,359h122v1h-122zM223,359h173v1h-173zM69,360h328v1h-328zM70,361h328v1h-328zM72,362h327v1h-327zM73,363h327v1h-327zM74,364h327v1h-327zM75,365h327v1h-327zM76,366h327v1h-327zM78,367h326v1h-326zM79,368h326v1h-326zM80,369h326v1h-326zM82,370h325v1h-325zM83,371h246v1h-246zM335,371h73v1h-73zM84,372h244v1h-244zM336,372h73v1h-73zM86,373h240v1h-240zM337,373h73v1h-73zM87,374h238v1h-238zM338,374h73v1h-73zM88,375h236v1h-236zM339,375h73v1h-73zM90,376h232v1h-232zM340,376h73v1h-73zM91,377h230v1h-230zM341,377h73v1h-73zM93,378h226v1h-226zM342,378h73v1h-73zM94,379h224v1h-224zM343,379h73v1h-73zM96,380h220v1h-220zM344,380h73v1h-73zM98,381h216v1h-216zM345,381h73v1h-73zM99,382h214v1h-214zM346,382h73v1h-73zM101,383h210v1h-210zM347,383h73v1h-73zM103,384h206v1h-206zM348,384h73v1h-73zM104,385h204v1h-204zM349,385h73v1h-73zM106,386h200v1h-200zM350,386h73v1h-73zM108,387h196v1h-196zM351,387h73v1h-73zM110,388h192v1h-192zM352,388h73v1h-73zM112,389h188v1h-188zM353,389h73v1h-73zM114,390h184v1h-184zM354,390h73v1h-73zM116,391h180v1h-180zM355,391h73v1h-73zM118,392h176v1h-176zM356,392h73v1h-73zM120,393h172v1h-172zM357,393h73v1h-73zM122,394h168v1h-168zM358,394h73v1h-73zM125,395h163v1h-163zM359,395h73v1h-73zM127,396h158v1h-158zM360,396h73v1h-73zM129,397h154v1h-154zM361,397h73v1h-73zM132,398h148v1h-148zM362,398h73v1h-73zM135,399h143v1h-143zM363,399h73v1h-73zM137,400h138v1h-138zM364,400h73v1h-73zM140,401h132v1h-132zM365,401h73v1h-73zM143,402h126v1h-126zM366,402h73v1h-73zM146,403h120v1h-120zM367,403h73v1h-73zM150,404h112v1h-112zM368,404h73v1h-73zM153,405h105v1h-105zM369,405h73v1h-73zM158,406h97v1h-97zM370,406h73v1h-73zM162,407h88v1h-88zM371,407h73v1h-73zM167,408h78v1h-78zM372,408h73v1h-73zM172,409h68v1h-68zM373,409h73v1h-73zM179,410h54v1h-54zM374,410h73v1h-73zM188,411h36v1h-36zM375,411h73v1h-73zM376,412h73v1h-73zM377,413h73v1h-73zM378,414h73v1h-73zM379,415h73v1h-73zM380,416h73v1h-73zM381,417h73v1h-73zM382,418h73v1h-73zM383,419h73v1h-73zM384,420h73v1h-73zM385,421h73v1h-73zM386,422h73v1h-73zM387,423h73v1h-73zM388,424h73v1h-73zM389,425h73v1h-73zM390,426h73v1h-73zM391,427h73v1h-73zM392,428h73v1h-73zM393,429h73v1h-73zM394,430h73v1h-73zM395,431h73v1h-73zM396,432h73v1h-73zM397,433h73v1h-73zM398,434h73v1h-73zM399,435h73v1h-73zM400,436h73v1h-73zM401,437h73v1h-73zM402,438h73v1h-73zM403,439h73v1h-73zM404,440h73v1h-73zM405,441h73v1h-73zM406,442h73v1h-73zM407,443h73v1h-73zM408,444h73v1h-73zM409,445h73v1h-73zM410,446h73v1h-73zM411,447h73v1h-73zM412,448h73v1h-73zM413,449h73v1h-73zM414,450h73v1h-73zM415,451h73v1h-73zM416,452h73v1h-73zM417,453h73v1h-73zM418,454h73v1h-73zM419,455h73v1h-73zM420,456h73v1h-73zM421,457h73v1h-73zM422,458h73v1h-73zM423,459h73v1h-73zM424,460h73v1h-73zM425,461h73v1h-73zM426,462h73v1h-73zM427,463h73v1h-73zM428,464h73v1h-73zM429,465h73v1h-73zM430,466h73v1h-73zM431,467h73v1h-73zM432,468h73v1h-73zM433,469h73v1h-73zM434,470h73v1h-73zM435,471h73v1h-73zM436,472h72v1h-72zM437,473h72v1h-72zM438,474h71v1h-71zM439,475h73v1h-73zM440,476h72v1h-72zM441,477h71v1h-71zM442,478h70v1h-70zM443,479h69v1h-69zM444,480h68v1h-68zM445,481h67v1h-67zM446,482h66v1h-66zM447,483h65v1h-65zM448,484h64v1h-64zM449,485h63v1h-63zM450,486h62v1h-62zM451,487h61v1h-61zM452,488h60v1h-60zM453,489h59v1h-59zM454,490h58v1h-58zM455,491h57v1h-57zM456,492h56v1h-56zM457,493h55v1h-55zM458,494h54v1h-54zM459,495h53v1h-53zM460,496h52v1h-52zM461,497h51v1h-51zM462,498h47v1h-47zM463,499h46v1h-46zM464,500h44v1h-44zM465,501h42v1h-42zM466,502h41v1h-41zM467,503h39v1h-39zM468,504h37v1h-37zM469,505h35v1h-35zM470,506h33v1h-33zM471,507h30v1h-30zM473,508h27v1h-27zM475,509h23v1h-23zM475,510h23v1h-23zM475,511h23v1h-23z"/></svg>