<svg xmlns="http://www.w3.org/2000/svg" viewBox="0 0 512 512" width="512" height="512"><path fill="#000" d="M222,0h55v1h-55zM222,1h55v1h-55zM222,2h55v1h-55zM215,3h68v1h-68zM210,4h78v1h-78zM205,5h88v1h-88zM201,6h96v1h-96zM197,7h104v1h-104zM194,8h110v1h-110zM190,9h118v1h-118zM187,10h124v1h-124zM184,11h130v1h-130zM182,12h135v1h-135zM179,13h140v1h-140zM176,14h146v1h-146zM174,15h150v1h-150zM171,16h156v1h-156zM169,17h160v1h-160zM167,18h164v1h-164zM165,19h168v1h-168zM163,20h172v1h-172zM161,21h177v1h-177zM159,22h181v1h-181zM157,23h184v1h-184zM155,24h188v1h-188zM153,25h192v1h-192zM151,26h196v1h-196zM149,27h200v1h-200zM148,28h202v1h-202zM146,29h206v1h-206zM145,30h209v1h-209zM143,31h212v1h-212zM141,32h216v1h-216zM140,33h218v1h-218zM138,34h222v1h-222zM137,35h224v1h-224zM135,36h228v1h-228zM134,37h230v1h-230zM133,38h233v1h-233zM131,39h236v1h-236zM130,40h238v1h-238zM129,41h241v1h-241zM127,42h113v1h-113zM259,42h112v1h-112zM126,43h103v1h-103zM269,43h103v1h-103zM125,44h97v1h-97zM276,44h97v1h-97zM124,45h93v1h-93zM281,45h94v1h-94zM122,46h90v1h-90zM286,46h90v1h-90zM121,47h87v1h-87zM290,47h87v1h-87zM120,48h85v1h-85zM293,48h85v1h-85zM119,49h83v1h-83zM297,49h82v1h-82zM118,50h80v1h-80zM300,50h80v1h-80zM117,51h79v1h-79zM303,51h79v1h-79zM115,52h78v1h-78zM305,52h78v1h-78zM114,53h76v1h-76zM308,53h76v1h-76zM113,54h75v1h-75zM310,54h75v1h-75zM112,55h74v1h-74zM312,55h74v1h-74zM111,56h72v1h-72zM315,56h72v1h-72zM110,57h71v1h-71zM317,57h71v1h-71zM109,58h70v1h-70zM319,58h70v1h-70zM108,59h69v1h-69zM321,59h69v1h-69zM107,60h68v1h-68zM323,60h68v1h-68zM106,61h68v1h-68zM325,61h67v1h-67zM105,62h67v1h-67zM326,62h67v1h-67zM104,63h66v1h-66zM328,63h66v1h-66zM103,64h65v1h-65zM330,64h65v1h-65zM102,65h65v1h-65zM332,65h64v1h-64zM102,66h63v1h-63zM333,66h64v1h-64zM101,67h62v1h-62zM335,67h62v1h-62zM100,68h62v1h-62zM336,68h62v1h-62zM99,69h61v1h-61zM338,69h61v1h-61zM98,70h61v1h-61zM339,70h61v1h-61zM97,71h61v1h-61zM341,71h60v1h-60zM96,72h60v1h-60zM342,72h60v1h-60zM96,73h59v1h-59zM343,73h60v1h-60zM95,74h59v1h-59zM345,74h58v1h-58zM94,75h58v1h-58zM346,75h58v1h-58zM93,76h58v1h-58zM347,76h58v1h-58zM92,77h58v1h-58zM348,77h58v1h-58zM92,78h57v1h-57zM350,78h57v1h-57zM91,79h56v1h-56zM351,79h56v1h-56zM90,80h56v1h-56zM352,80h56v1h-56zM89,81h56v1h-56zM353,81h56v1h-56zM89,82h55v1h-55zM354,82h55v1h-55zM88,83h55v1h-55zM355,83h55v1h-55zM87,84h55v1h-55zM356,84h55v1h-55zM86,85h55v1h-55zM357,85h55v1h-55zM86,86h54v1h-54zM358,86h54v1h-54zM85,87h54v1h-54zM359,87h54v1h-54zM84,88h54v1h-54zM360,88h54v1h-54zM84,89h53v1h-53zM361,89h53v1h-53zM83,90h53v1h-53zM362,90h53v1h-53zM82,91h53v1h-53zM363,91h53v1h-53zM82,92h52v1h-52zM364,92h52v1h-52zM81,93h52v1h-52zM365,93h52v1h-52zM81,94h51v1h-51zM366,94h52v1h-52zM80,95h51v1h-51zM367,95h51v1h-51zM79,96h51v1h-51zM368,96h51v1h-51zM79,97h50v1h-50zM369,97h50v1h-50zM78,98h51v1h-51zM370,98h50v1h-50zM78,99h50v1h-50zM370,99h51v1h-51zM77,100h50v1h-50zM371,100h50v1h-50zM76,101h50v1h-50zM372,101h50v1h-50zM76,102h49v1h-49zM373,102h49v1h-49zM75,103h50v1h-50zM374,103h49v1h-49zM75,104h49v1h-49zM374,104h49v1h-49zM74,105h49v1h-49zM375,105h49v1h-49zM74,106h48v1h-48zM376,106h48v1h-48zM73,107h49v1h-49zM376,107h49v1h-49zM73,108h48v1h-48zM377,108h48v1h-48zM72,109h48v1h-48zM378,109h48v1h-48zM72,110h48v1h-48zM379,110h47v1h-47zM71,111h48v1h-48zM379,111h48v1h-48zM71,112h47v1h-47zM380,112h47v1h-47zM70,113h48v1h-48zM381,113h47v1h-47zM70,114h47v1h-47zM381,114h47v1h-47zM69,115h47v1h-47zM382,115h47v1h-47zM69,116h47v1h-47zM382,116h47v1h-47zM68,117h47v1h-47zM383,117h47v1h-47zM68,118h46v1h-46zM384,118h46v1h-46zM67,119h47v1h-47zM384,119h47v1h-47zM67,120h46v1h-46zM385,120h46v1h-46zM67,121h46v1h-46zM385,121h47v1h-47zM66,122h46v1h-46zM386,122h46v1h-46zM66,123h46v1h-46zM387,123h45v1h-45zM65,124h46v1h-46zM387,124h46v1h-46zM65,125h46v1h-46zM388,125h45v1h-45zM65,126h45v1h-45zM388,126h46v1h-46zM64,127h45v1h-45zM389,127h45v1h-45zM64,128h45v1h-45zM389,128h45v1h-45zM63,129h45v1h-45zM390,129h45v1h-45zM63,130h45v1h-45zM390,130h45v1h-45zM63,131h44v1h-44zM391,131h44v1h-44zM62,132h45v1h-45zM391,132h45v1h-45zM62,133h45v1h-45zM392,133h44v1h-44zM62,134h44v1h-44zM392,134h45v1h-45zM61,135h45v1h-45zM392,135h45v1h-45zM61,136h44v1h-44zM393,136h44v1h-44zM61,137h44v1h-44zM393,137h45v1h-45zM60,138h44v1h-44zM394,138h44v1h-44zM60,139h44v1h-44zM394,139h44v1h-44zM60,140h44v1h-44zM395,140h44v1h-44zM59,141h44v1h-44zM395,141h44v1h-44zM59,142h44v1h-44zM395,142h44v1h-44zM59,143h43v1h-43zM396,143h43v1h-43zM58,144h44v1h-44zM396,144h44v1h-44zM58,145h44v1h-44zM396,145h44v1h-44zM58,146h43v1h-43zM397,146h43v1h-43zM58,147h43v1h-43zM397,147h44v1h-44zM57,148h44v1h-44zM397,148h44v1h-44zM57,149h43v1h-43zM398,149h43v1h-43zM57,150h43v1h-43zM398,150h43v1h-43zM57,151h43v1h-43zM398,151h44v1h-44zM56,152h43v1h-43zM399,152h43v1h-43zM56,153h43v1h-43zM399,153h43v1h-43zM56,154h43v1h-43zM399,154h44v1h-44zM56,155h42v1h-42zM400,155h43v1h-43zM55,156h43v1h-43zM400,156h43v1h-43zM55,157h43v1h-43zM400,157h43v1h-43zM55,158h43v1h-43zM401,158h43v1h-43zM55,159h42v1h-42zM401,159h43v1h-43zM54,160h43v1h-43zM401,160h43v1h-43zM54,161h43v1h-43zM401,161h43v1h-43zM54,162h43v1h-43zM402,162h43v1h-43zM54,163h42v1h-42zM402,163h43v1h-43zM54,164h42v1h-42zM402,164h43v1h-43zM53,165h43v1h-43zM402,165h44v1h-44zM53,166h43v1h-43zM403,166h43v1h-43zM53,167h42v1h-42zM403,167h43v1h-43zM53,168h42v1h-42zM403,168h43v1h-43zM52,169h43v1h-43zM404,169h43v1h-43zM52,170h43v1h-43zM404,170h43v1h-43zM52,171h43v1h-43zM404,171h43v1h-43zM52,172h42v1h-42zM404,172h44v1h-44zM52,173h42v1h-42zM405,173h43v1h-43zM51,174h43v1h-43zM405,174h43v1h-43zM51,175h43v1h-43zM405,175h43v1h-43zM51,176h42v1h-42zM406,176h43v1h-43zM51,177h42v1h-42zM406,177h43v1h-43zM50,178h43v1h-43zM406,178h43v1h-43zM50,179h43v1h-43zM406,179h43v1h-43zM50,180h43v1h-43zM407,180h43v1h-43zM50,181h42v1h-42zM407,181h43v1h-43zM50,182h42v1h-42zM407,182h43v1h-43zM49,183h43v1h-43zM407,183h44v1h-44zM49,184h43v1h-43zM408,184h43v1h-43zM49,185h42v1h-42zM408,185h43v1h-43zM49,186h42v1h-42zM408,186h43v1h-43zM48,187h43v1h-43zM409,187h43v1h-43zM48,188h43v1h-43zM409,188h43v1h-43zM48,189h43v1h-43zM409,189h43v1h-43zM48,190h42v1h-42zM409,190h44v1h-44zM48,191h42v1h-42zM410,191h43v1h-43zM47,192h43v1h-43zM410,192h43v1h-43zM47,193h43v1h-43zM410,193h43v1h-43zM47,194h42v1h-42zM411,194h43v1h-43zM47,195h42v1h-42zM411,195h43v1h-43zM46,196h43v1h-43zM411,196h43v1h-43zM46,197h43v1h-43zM411,197h43v1h-43zM46,198h43v1h-43zM412,198h43v1h-43zM46,199h42v1h-42zM412,199h43v1h-43zM46,200h42v1h-42zM412,200h43v1h-43zM45,201h43v1h-43zM412,201h44v1h-44zM45,202h43v1h-43zM413,202h43v1h-43zM45,203h42v1h-42zM413,203h43v1h-43zM45,204h42v1h-42zM413,204h43v1h-43zM44,205h43v1h-43zM414,205h43v1h-43zM44,206h43v1h-43zM414,206h43v1h-43zM44,207h43v1h-43zM414,207h43v1h-43zM44,208h42v1h-42zM414,208h44v1h-44zM44,209h42v1h-42zM415,209h43v1h-43zM43,210h43v1h-43zM415,210h43v1h-43zM43,211h43v1h-43zM415,211h43v1h-43zM43,212h42v1h-42zM416,212h43v1h-43zM43,213h42v1h-42zM416,213h43v1h-43zM42,214h43v1h-43zM416,214h43v1h-43zM42,215h43v1h-43zM416,215h43v1h-43zM42,216h43v1h-43zM417,216h43v1h-43zM42,217h42v1h-42zM417,217h43v1h-43zM42,218h42v1h-42zM417,218h43v1h-43zM41,219h43v1h-43zM417,219h44v1h-44zM41,220h43v1h-43zM418,220h43v1h-43zM41,221h42v1h-42zM418,221h43v1h-43zM41,222h42v1h-42zM418,222h43v1h-43zM40,223h43v1h-43zM419,223h43v1h-43zM40,224h43v1h-43zM419,224h43v1h-43zM40,225h43v1h-43zM419,225h43v1h-43zM40,226h42v1h-42zM419,226h44v1h-44zM40,227h42v1h-42zM420,227h43v1h-43zM39,228h43v1h-43zM420,228h43v1h-43zM39,229h43v1h-43zM420,229h43v1h-43zM39,230h42v1h-42zM421,230h43v1h-43zM39,231h42v1h-42zM421,231h43v1h-43zM38,232h43v1h-43zM421,232h43v1h-43zM38,233h43v1h-43zM421,233h43v1h-43zM38,234h43v1h-43zM422,234h43v1h-43zM38,235h42v1h-42zM422,235h43v1h-43zM38,236h42v1h-42zM422,236h43v1h-43zM37,237h43v1h-43zM422,237h44v1h-44zM37,238h43v1h-43zM423,238h43v1h-43zM37,239h42v1h-42zM423,239h43v1h-43zM37,240h42v1h-42zM423,240h43v1h-43zM36,241h43v1h-43zM424,241h43v1h-43zM36,242h43v1h-43zM424,242h43v1h-43zM36,243h43v1h-43zM424,243h43v1h-43zM36,244h42v1h-42zM424,244h44v1h-44zM36,245h42v1h-42zM425,245h43v1h-43zM35,246h43v1h-43zM425,246h43v1h-43zM35,247h43v1h-43zM425,247h43v1h-43zM35,248h42v1h-42zM426,248h43v1h-43zM35,249h42v1h-42zM426,249h43v1h-43zM34,250h43v1h-43zM426,250h43v1h-43zM34,251h43v1h-43zM426,251h43v1h-43zM34,252h43v1h-43zM427,252h43v1h-43zM34,253h42v1h-42zM427,253h43v1h-43zM34,254h42v1h-42zM427,254h43v1h-43zM33,255h43v1h-43zM427,255h44v1h-44zM33,256h43v1h-43zM428,256h43v1h-43zM33,257h42v1h-42zM428,257h43v1h-43zM33,258h42v1h-42zM428,258h43v1h-43zM32,259h43v1h-43zM429,259h43v1h-43zM32,260h43v1h-43zM429,260h43v1h-43zM32,261h43v1h-43zM429,261h43v1h-43zM32,262h42v1h-42zM429,262h44v1h-44zM32,263h42v1h-42zM430,263h43v1h-43zM31,264h43v1h-43zM430,264h43v1h-43zM31,265h43v1h-43zM430,265h43v1h-43zM31,266h42v1h-42zM431,266h43v1h-43zM31,267h42v1h-42zM431,267h43v1h-43zM30,268h43v1h-43zM431,268h43v1h-43zM30,269h43v1h-43zM431,269h43v1h-43zM30,270h43v1h-43zM432,270h43v1h-43zM30,271h42v1h-42zM432,271h43v1h-43zM30,272h42v1h-42zM432,272h43v1h-43zM29,273h43v1h-43zM432,273h44v1h-44zM29,274h43v1h-43zM433,274h43v1h-43zM29,275h42v1h-42zM433,275h43v1h-43zM29,276h42v1h-42zM433,276h43v1h-43zM28,277h43v1h-43zM434,277h43v1h-43zM28,278h43v1h-43zM434,278h43v1h-43zM28,279h43v1h-43zM434,279h43v1h-43zM28,280h42v1h-42zM434,280h44v1h-44zM28,281h42v1h-42zM435,281h43v1h-43zM27,282h43v1h-43zM435,282h43v1h-43zM27,283h43v1h-43zM435,283h43v1h-43zM27,284h42v1h-42zM436,284h43v1h-43zM27,285h42v1h-42zM436,285h43v1h-43zM26,286h43v1h-43zM436,286h43v1h-43zM26,287h43v1h-43zM436,287h43v1h-43zM26,288h43v1h-43zM437,288h43v1h-43zM26,289h42v1h-42zM437,289h43v1h-43zM26,290h42v1h-42zM437,290h43v1h-43zM25,291h43v1h-43zM437,291h44v1h-44zM25,292h43v1h-43zM438,292h43v1h-43zM25,293h42v1h-42zM438,293h43v1h-43zM25,294h42v1h-42zM438,294h43v1h-43zM24,295h43v1h-43zM439,295h43v1h-43zM24,296h43v1h-43zM439,296h43v1h-43zM24,297h43v1h-43zM439,297h43v1h-43zM24,298h42v1h-42zM439,298h43v1h-43zM24,299h42v1h-42zM440,299h43v1h-43zM23,300h43v1h-43zM440,300h43v1h-43zM23,301h43v1h-43zM440,301h43v1h-43zM23,302h42v1h-42zM441,302h42v1h-42zM23,303h42v1h-42zM441,303h42v1h-42zM23,304h42v1h-42zM441,304h42v1h-42zM23,305h42v1h-42zM441,305h43v1h-43zM22,306h43v1h-43zM442,306h42v1h-42zM22,307h42v1h-42zM442,307h42v1h-42zM22,308h42v1h-42zM442,308h42v1h-42zM22,309h42v1h-42zM442,309h42v1h-42zM22,310h42v1h-42zM442,310h42v1h-42zM22,311h42v1h-42zM442,311h42v1h-42zM22,312h42v1h-42zM442,312h42v1h-42zM22,313h42v1h-42zM443,313h41v1h-41zM22,314h41v1h-41zM443,314h41v1h-41zM22,315h41v1h-41zM443,315h41v1h-41zM22,316h41v1h-41zM443,316h42v1h-42zM22,317h41v1h-41zM443,317h42v1h-42zM22,318h41v1h-41zM443,318h42v1h-42zM22,319h41v1h-41zM443,319h42v1h-42zM22,320h41v1h-41zM443,320h42v1h-42zM22,321h41v1h-41zM443,321h42v1h-42zM22,322h41v1h-41zM443,322h42v1h-42zM22,323h41v1h-41zM443,323h41v1h-41zM22,324h41v1h-41zM443,324h41v1h-41zM22,325h41v1h-41zM443,325h41v1h-41zM22,326h42v1h-42zM443,326h41v1h-41zM22,327h42v1h-42zM443,327h41v1h-41zM22,328h42v1h-42zM442,328h42v1h-42zM22,329h42v1h-42zM442,329h42v1h-42zM22,330h42v1h-42zM442,330h42v1h-42zM22,331h42v1h-42zM442,331h42v1h-42zM22,332h42v1h-42zM442,332h42v1h-42zM22,333h43v1h-43zM442,333h42v1h-42zM23,334h42v1h-42zM441,334h43v1h-43zM23,335h42v1h-42zM441,335h42v1h-42zM23,336h42v1h-42zM441,336h42v1h-42zM23,337h43v1h-43zM441,337h42v1h-42zM23,338h43v1h-43zM440,338h43v1h-43zM23,339h43v1h-43zM440,339h43v1h-43zM24,340h42v1h-42zM440,340h43v1h-43zM24,341h43v1h-43zM439,341h43v1h-43zM24,342h43v1h-43zM439,342h43v1h-43zM24,343h44v1h-44zM439,343h43v1h-43zM24,344h44v1h-44zM438,344h44v1h-44zM25,345h43v1h-43zM438,345h43v1h-43zM25,346h44v1h-44zM437,346h44v1h-44zM25,347h44v1h-44zM437,347h44v1h-44zM26,348h44v1h-44zM436,348h45v1h-45zM26,349h44v1h-44zM436,349h44v1h-44zM26,350h45v1h-45zM435,350h45v1h-45zM26,351h45v1h-45zM435,351h45v1h-45zM27,352h45v1h-45zM434,352h45v1h-45zM27,353h45v1h-45zM434,353h45v1h-45zM27,354h46v1h-46zM433,354h46v1h-46zM28,355h46v1h-46zM432,355h46v1h-46zM28,356h46v1h-46zM432,356h46v1h-46zM29,357h46v1h-46zM431,357h47v1h-47zM29,358h47v1h-47zM430,358h47v1h-47zM29,359h48v1h-48zM430,359h47v1h-47zM30,360h47v1h-47zM429,360h47v1h-47zM30,361h48v1h-48zM428,361h48v1h-48zM31,362h48v1h-48zM427,362h49v1h-49zM31,363h49v1h-49zM426,363h49v1h-49zM31,364h50v1h-50zM425,364h50v1h-50zM32,365h50v1h-50zM424,365h50v1h-50zM32,366h51v1h-51zM423,366h51v1h-51zM33,367h51v1h-51zM422,367h51v1h-51zM33,368h52v1h-52zM421,368h52v1h-52zM34,369h52v1h-52zM420,369h52v1h-52zM34,370h53v1h-53zM419,370h53v1h-53zM35,371h54v1h-54zM417,371h54v1h-54zM36,372h54v1h-54zM416,372h55v1h-55zM36,373h56v1h-56zM415,373h55v1h-55zM37,374h56v1h-56zM413,374h56v1h-56zM37,375h58v1h-58zM412,375h57v1h-57zM38,376h58v1h-58zM410,376h58v1h-58zM39,377h59v1h-59zM408,377h59v1h-59zM39,378h61v1h-61zM406,378h61v1h-61zM40,379h63v1h-63zM404,379h62v1h-62zM41,380h64v1h-64zM401,380h64v1h-64zM41,381h67v1h-67zM398,381h67v1h-67zM42,382h70v1h-70zM395,382h69v1h-69zM43,383h73v1h-73zM390,383h73v1h-73zM44,384h419v1h-419zM44,385h418v1h-418zM45,386h416v1h-416zM46,387h414v1h-414zM47,388h412v1h-412zM48,389h410v1h-410zM49,390h409v1h-409zM49,391h408v1h-408zM50,392h406v1h-406zM51,393h404v1h-404zM52,394h402v1h-402zM53,395h400v1h-400zM54,396h398v1h-398zM55,397h396v1h-396zM56,398h394v1h-394zM58,399h391v1h-391zM59,400h388v1h-388zM60,401h386v1h-386zM61,402h384v1h-384zM62,403h382v1h-382zM64,404h378v1h-378zM65,405h376v1h-376zM66,406h374v1h-374zM68,407h370v1h-370zM69,408h368v1h-368zM71,409h364v1h-364zM72,410h362v1h-362zM74,411h358v1h-358zM76,412h354v1h-354zM78,413h350v1h-350zM80,414h347v1h-347zM82,415h343v1h-343zM84,416h338v1h-338zM86,417h334v1h-334zM88,418h330v1h-330zM91,419h324v1h-324zM94,420h318v1h-318zM97,421h312v1h-312zM100,422h306v1h-306zM104,423h298v1h-298zM109,424h288v1h-288zM116,425h274v1h-274zM152,426h45v1h-45zM315,426h45v1h-45zM152,427h45v1h-45zM315,427h45v1h-45zM152,428h45v1h-45zM315,428h45v1h-45zM153,429h44v1h-44zM315,429h44v1h-44zM153,430h44v1h-44zM315,430h44v1h-44zM153,431h44v1h-44zM315,431h44v1h-44zM153,432h45v1h-45zM314,432h45v1h-45zM154,433h44v1h-44zM314,433h44v1h-44zM154,434h45v1h-45zM313,434h45v1h-45zM154,435h45v1h-45zM313,435h45v1h-45zM155,436h45v1h-45zM312,436h45v1h-45zM155,437h45v1h-45zM312,437h45v1h-45zM155,438h46v1h-46zM311,438h46v1h-46zM156,439h45v1h-45zM311,439h45v1h-45zM156,440h46v1h-46zM310,440h46v1h-46zM156,441h47v1h-47zM309,441h47v1h-47zM157,442h46v1h-46zM309,442h46v1h-46zM157,443h47v1h-47zM308,443h47v1h-47zM157,444h48v1h-48zM307,444h48v1h-48zM158,445h48v1h-48zM306,445h48v1h-48zM158,446h49v1h-49zM305,446h49v1h-49zM159,447h48v1h-48zM305,447h48v1h-48zM159,448h49v1h-49zM304,448h49v1h-49zM160,449h49v1h-49zM303,449h49v1h-49zM160,450h50v1h-50zM302,450h50v1h-50zM160,451h51v1h-51zM301,451h51v1h-51zM161,452h51v1h-51zM300,452h51v1h-51zM161,453h52v1h-52zM299,453h52v1h-52zM162,454h52v1h-52zM298,454h52v1h-52zM163,455h53v1h-53zM296,455h53v1h-53zM163,456h54v1h-54zM295,456h54v1h-54zM164,457h54v1h-54zM294,457h54v1h-54zM164,458h56v1h-56zM292,458h56v1h-56zM165,459h56v1h-56zM291,459h56v1h-56zM165,460h58v1h-58zM289,460h58v1h-58zM166,461h58v1h-58zM288,461h58v1h-58zM167,462h59v1h-59zM286,462h59v1h-59zM167,463h61v1h-61zM284,463h61v1h-61zM168,464h62v1h-62zM282,464h62v1h-62zM169,465h64v1h-64zM279,465h64v1h-64zM169,466h67v1h-67zM276,466h67v1h-67zM170,467h69v1h-69zM273,467h69v1h-69zM171,468h72v1h-72zM269,468h72v1h-72zM172,469h78v1h-78zM262,469h78v1h-78zM172,470h168v1h-168zM173,471h166v1h-166zM174,472h164v1h-164zM175,473h162v1h-162zM176,474h160v1h-160zM176,475h160v1h-160zM177,476h158v1h-158zM178,477h156v1h-156zM179,478h154v1h-154zM180,479h152v1h-152zM181,480h150v1h-150zM182,481h148v1h-148zM183,482h146v1h-146zM184,483h144v1h-144zM185,484h142v1h-142zM186,485h139v1h-139zM188,486h136v1h-136zM189,487h134v1h-134zM190,488h132v1h-132zM191,489h130v1h-130zM193,490h126v1h-126zM194,491h124v1h-124zM196,492h121v1h-121zM197,493h118v1h-118zM199,494h115v1h-115zM200,495h112v1h-112zM202,496h108v1h-108zM203,497h106v1h-106zM205,498h102v1h-102zM207,499h98v1h-98zM209,500h94v1h-94zM211,501h90v1h-90zM213,502h86v1h-86zM216,503h80v1h-80zM218,504h76v1h-76zM221,505h70v1h-70zM224,506h64v1h-64zM227,507h58v1h-58zM231,508h50v1h-50zM235,509h42v1h-42zM235,510h42v1h-42zM235,511h42v1h-42z"/></svg>