<svg xmlns="http://www.w3.org/2000/svg" viewBox="0 0 512 512" width="512" height="512"><path fill="#000" d="M148,0h45v1h-45zM148,1h45v1h-45zM148,2h45v1h-45zM143,3h55v1h-55zM139,4h63v1h-63zM136,5h70v1h-70zM132,6h77v1h-77zM129,7h83v1h-83zM126,8h89v1h-89zM124,9h93v1h-93zM121,10h99v1h-99zM119,11h103v1h-103zM117,12h107v1h-107zM115,13h111v1h-111zM113,14h115v1h-115zM111,15h119v1h-119zM109,16h123v1h-123zM107,17h127v1h-127zM106,18h130v1h-130zM104,19h133v1h-133zM102,20h137v1h-137zM101,21h139v1h-139zM99,22h143v1h-143zM98,23h145v1h-145zM97,24h148v1h-148zM95,25h151v1h-151zM94,26h154v1h-154zM93,27h156v1h-156zM91,28h159v1h-159zM90,29h161v1h-161zM89,30h164v1h-164zM88,31h166v1h-166zM87,32h168v1h-168zM85,33h171v1h-171zM84,34h173v1h-173zM83,35h175v1h-175zM82,36h177v1h-177zM81,37h179v1h-179zM80,38h181v1h-181zM79,39h183v1h-183zM78,40h185v1h-185zM77,41h187v1h-187zM76,42h87v1h-87zM178,42h87v1h-87zM75,43h80v1h-80zM186,43h80v1h-80zM75,44h76v1h-76zM191,44h76v1h-76zM74,45h73v1h-73zM195,45h73v1h-73zM73,46h71v1h-71zM198,46h70v1h-70zM72,47h69v1h-69zM201,47h68v1h-68zM71,48h67v1h-67zM203,48h67v1h-67zM70,49h66v1h-66zM206,49h65v1h-65zM70,50h64v1h-64zM208,50h64v1h-64zM69,51h63v1h-63zM210,51h62v1h-62zM68,52h62v1h-62zM212,52h61v1h-61zM67,53h61v1h-61zM213,53h61v1h-61zM67,54h59v1h-59zM215,54h60v1h-60zM66,55h59v1h-59zM217,55h58v1h-58zM65,56h58v1h-58zM218,56h58v1h-58zM65,57h57v1h-57zM220,57h57v1h-57zM64,58h56v1h-56zM221,58h56v1h-56zM63,59h56v1h-56zM223,59h55v1h-55zM63,60h55v1h-55zM224,60h55v1h-55zM62,61h54v1h-54zM225,61h54v1h-54zM61,62h54v1h-54zM226,62h54v1h-54zM61,63h53v1h-53zM227,63h53v1h-53zM60,64h53v1h-53zM229,64h52v1h-52zM60,65h52v1h-52zM230,65h52v1h-52zM59,66h52v1h-52zM231,66h51v1h-51zM59,67h51v1h-51zM232,67h51v1h-51zM58,68h51v1h-51zM233,68h50v1h-50zM58,69h50v1h-50zM234,69h50v1h-50zM57,70h50v1h-50zM235,70h49v1h-49zM57,71h49v1h-49zM235,71h50v1h-50zM56,72h49v1h-49zM236,72h49v1h-49zM56,73h48v1h-48zM237,73h49v1h-49zM55,74h48v1h-48zM238,74h48v1h-48zM55,75h48v1h-48zM239,75h48v1h-48zM54,76h48v1h-48zM239,76h48v1h-48zM54,77h47v1h-47zM240,77h48v1h-48zM53,78h47v1h-47zM241,78h47v1h-47zM53,79h47v1h-47zM242,79h46v1h-46zM52,80h47v1h-47zM242,80h47v1h-47zM52,81h46v1h-46zM243,81h46v1h-46zM52,82h46v1h-46zM244,82h46v1h-46zM51,83h46v1h-46zM244,83h46v1h-46zM51,84h46v1h-46zM245,84h45v1h-45zM51,85h45v1h-45zM245,85h46v1h-46zM50,86h45v1h-45zM246,86h45v1h-45zM50,87h45v1h-45zM246,87h45v1h-45zM50,88h44v1h-44zM247,88h45v1h-45zM49,89h45v1h-45zM247,89h45v1h-45zM49,90h44v1h-44zM248,90h44v1h-44zM49,91h44v1h-44zM248,91h45v1h-45zM48,92h44v1h-44zM249,92h44v1h-44zM48,93h44v1h-44zM249,93h44v1h-44zM48,94h44v1h-44zM250,94h44v1h-44zM47,95h44v1h-44zM250,95h44v1h-44zM47,96h44v1h-44zM251,96h43v1h-43zM47,97h43v1h-43zM251,97h43v1h-43zM47,98h43v1h-43zM251,98h44v1h-44zM46,99h44v1h-44zM252,99h43v1h-43zM46,100h43v1h-43zM252,100h43v1h-43zM46,101h43v1h-43zM252,101h43v1h-43zM46,102h43v1h-43zM253,102h43v1h-43zM46,103h42v1h-42zM253,103h43v1h-43zM45,104h43v1h-43zM253,104h43v1h-43zM45,105h43v1h-43zM254,105h42v1h-42zM45,106h42v1h-42zM254,106h42v1h-42zM45,107h42v1h-42zM254,107h42v1h-42zM45,108h42v1h-42zM254,108h43v1h-43zM45,109h42v1h-42zM255,109h42v1h-42zM44,110h43v1h-43zM255,110h42v1h-42zM44,111h42v1h-42zM255,111h42v1h-42zM44,112h42v1h-42zM255,112h42v1h-42zM44,113h42v1h-42zM255,113h42v1h-42zM44,114h42v1h-42zM255,114h42v1h-42zM44,115h42v1h-42zM256,115h42v1h-42zM44,116h42v1h-42zM256,116h42v1h-42zM44,117h41v1h-41zM256,117h42v1h-42zM44,118h41v1h-41zM256,118h42v1h-42zM43,119h42v1h-42zM256,119h42v1h-42zM43,120h42v1h-42zM256,120h42v1h-42zM43,121h42v1h-42zM256,121h42v1h-42zM43,122h42v1h-42zM256,122h42v1h-42zM43,123h42v1h-42zM256,123h42v1h-42zM43,124h42v1h-42zM256,124h42v1h-42zM43,125h42v1h-42zM256,125h42v1h-42zM43,126h42v1h-42zM256,126h42v1h-42zM43,127h42v1h-42zM256,127h42v1h-42zM43,128h42v1h-42zM256,128h42v1h-42zM43,129h42v1h-42zM256,129h42v1h-42zM43,130h42v1h-42zM256,130h42v1h-42zM43,131h42v1h-42zM256,131h42v1h-42zM43,132h42v1h-42zM256,132h42v1h-42zM43,133h42v1h-42zM256,133h42v1h-42zM43,134h42v1h-42zM256,134h42v1h-42zM43,135h42v1h-42zM256,135h42v1h-42zM43,136h42v1h-42zM256,136h42v1h-42zM44,137h41v1h-41zM256,137h42v1h-42zM44,138h41v1h-41zM256,138h42v1h-42zM44,139h42v1h-42zM256,139h42v1h-42zM44,140h42v1h-42zM256,140h42v1h-42zM44,141h42v1h-42zM255,141h42v1h-42zM44,142h42v1h-42zM255,142h42v1h-42zM44,143h42v1h-42zM255,143h42v1h-42zM44,144h42v1h-42zM255,144h42v1h-42zM44,145h43v1h-43zM255,145h42v1h-42zM45,146h42v1h-42zM255,146h42v1h-42zM45,147h42v1h-42zM254,147h43v1h-43zM45,148h42v1h-42zM254,148h42v1h-42zM45,149h42v1h-42zM254,149h42v1h-42zM45,150h43v1h-43zM254,150h42v1h-42zM45,151h43v1h-43zM253,151h43v1h-43zM46,152h42v1h-42zM253,152h43v1h-43zM46,153h43v1h-43zM253,153h43v1h-43zM46,154h43v1h-43zM252,154h43v1h-43zM46,155h43v1h-43zM252,155h43v1h-43zM46,156h44v1h-44zM252,156h43v1h-43zM47,157h43v1h-43zM251,157h44v1h-44zM47,158h43v1h-43zM251,158h43v1h-43zM47,159h44v1h-44zM251,159h43v1h-43zM47,160h44v1h-44zM250,160h44v1h-44zM48,161h44v1h-44zM250,161h44v1h-44zM48,162h44v1h-44zM249,162h44v1h-44zM48,163h44v1h-44zM249,163h44v1h-44zM49,164h44v1h-44zM248,164h45v1h-45zM49,165h44v1h-44zM248,165h44v1h-44zM49,166h45v1h-45zM247,166h45v1h-45zM50,167h44v1h-44zM247,167h45v1h-45zM50,168h45v1h-45zM246,168h45v1h-45zM50,169h45v1h-45zM246,169h45v1h-45zM51,170h45v1h-45zM245,170h46v1h-46zM51,171h46v1h-46zM245,171h45v1h-45zM51,172h46v1h-46zM244,172h46v1h-46zM52,173h46v1h-46zM244,173h46v1h-46zM52,174h46v1h-46zM243,174h46v1h-46zM52,175h47v1h-47zM242,175h47v1h-47zM53,176h47v1h-47zM242,176h46v1h-46zM53,177h47v1h-47zM241,177h47v1h-47zM54,178h47v1h-47zM240,178h48v1h-48zM54,179h48v1h-48zM239,179h48v1h-48zM55,180h48v1h-48zM239,180h48v1h-48zM55,181h48v1h-48zM238,181h48v1h-48zM56,182h48v1h-48zM237,182h49v1h-49zM56,183h49v1h-49zM236,183h49v1h-49zM57,184h49v1h-49zM235,184h50v1h-50zM57,185h50v1h-50zM234,185h50v1h-50zM58,186h50v1h-50zM234,186h50v1h-50zM58,187h51v1h-51zM233,187h50v1h-50zM59,188h51v1h-51zM232,188h51v1h-51zM59,189h52v1h-52zM231,189h51v1h-51zM60,190h52v1h-52zM230,190h52v1h-52zM60,191h53v1h-53zM229,191h52v1h-52zM61,192h53v1h-53zM227,192h53v1h-53zM383,192h2v1h-2zM61,193h54v1h-54zM226,193h54v1h-54zM371,193h26v1h-26zM62,194h54v1h-54zM225,194h54v1h-54zM366,194h36v1h-36zM63,195h55v1h-55zM224,195h55v1h-55zM362,195h44v1h-44zM63,196h56v1h-56zM222,196h56v1h-56zM358,196h52v1h-52zM64,197h56v1h-56zM221,197h56v1h-56zM356,197h56v1h-56zM65,198h57v1h-57zM220,198h57v1h-57zM353,198h62v1h-62zM65,199h58v1h-58zM218,199h58v1h-58zM351,199h66v1h-66zM66,200h59v1h-59zM217,200h58v1h-58zM348,200h72v1h-72zM67,201h59v1h-59zM215,201h60v1h-60zM346,201h76v1h-76zM67,202h61v1h-61zM213,202h61v1h-61zM344,202h80v1h-80zM68,203h62v1h-62zM212,203h61v1h-61zM343,203h83v1h-83zM69,204h63v1h-63zM210,204h62v1h-62zM341,204h86v1h-86zM70,205h64v1h-64zM208,205h64v1h-64zM339,205h90v1h-90zM70,206h66v1h-66zM206,206h65v1h-65zM338,206h92v1h-92zM71,207h67v1h-67zM203,207h67v1h-67zM336,207h96v1h-96zM72,208h69v1h-69zM201,208h68v1h-68zM335,208h98v1h-98zM73,209h71v1h-71zM198,209h70v1h-70zM333,209h102v1h-102zM74,210h73v1h-73zM194,210h74v1h-74zM332,210h104v1h-104zM75,211h76v1h-76zM191,211h76v1h-76zM331,211h106v1h-106zM75,212h81v1h-81zM186,212h80v1h-80zM330,212h108v1h-108zM76,213h87v1h-87zM178,213h87v1h-87zM328,213h112v1h-112zM77,214h187v1h-187zM327,214h114v1h-114zM78,215h185v1h-185zM326,215h116v1h-116zM79,216h183v1h-183zM325,216h118v1h-118zM80,217h181v1h-181zM324,217h120v1h-120zM81,218h179v1h-179zM323,218h122v1h-122zM82,219h177v1h-177zM322,219h124v1h-124zM83,220h175v1h-175zM321,220h126v1h-126zM84,221h173v1h-173zM320,221h128v1h-128zM85,222h171v1h-171zM319,222h129v1h-129zM87,223h168v1h-168zM319,223h130v1h-130zM88,224h166v1h-166zM318,224h132v1h-132zM89,225h164v1h-164zM317,225h134v1h-134zM90,226h161v1h-161zM316,226h136v1h-136zM91,227h159v1h-159zM316,227h136v1h-136zM93,228h156v1h-156zM315,228h138v1h-138zM94,229h154v1h-154zM314,229h140v1h-140zM95,230h151v1h-151zM313,230h142v1h-142zM97,231h148v1h-148zM313,231h142v1h-142zM98,232h145v1h-145zM312,232h144v1h-144zM99,233h143v1h-143zM312,233h144v1h-144zM101,234h139v1h-139zM311,234h68v1h-68zM389,234h68v1h-68zM102,235h137v1h-137zM310,235h63v1h-63zM395,235h63v1h-63zM104,236h133v1h-133zM310,236h60v1h-60zM398,236h60v1h-60zM106,237h130v1h-130zM309,237h58v1h-58zM401,237h58v1h-58zM107,238h127v1h-127zM309,238h56v1h-56zM403,238h56v1h-56zM109,239h123v1h-123zM308,239h55v1h-55zM405,239h55v1h-55zM111,240h119v1h-119zM308,240h53v1h-53zM407,240h53v1h-53zM113,241h115v1h-115zM307,241h53v1h-53zM408,241h53v1h-53zM115,242h111v1h-111zM307,242h51v1h-51zM410,242h51v1h-51zM117,243h107v1h-107zM306,243h51v1h-51zM411,243h51v1h-51zM119,244h103v1h-103zM306,244h50v1h-50zM412,244h50v1h-50zM121,245h99v1h-99zM305,245h50v1h-50zM413,245h50v1h-50zM124,246h93v1h-93zM305,246h49v1h-49zM414,246h49v1h-49zM126,247h89v1h-89zM305,247h48v1h-48zM415,247h48v1h-48zM129,248h83v1h-83zM304,248h48v1h-48zM416,248h48v1h-48zM132,249h77v1h-77zM304,249h47v1h-47zM417,249h47v1h-47zM136,250h70v1h-70zM304,250h46v1h-46zM418,250h46v1h-46zM139,251h63v1h-63zM303,251h46v1h-46zM419,251h46v1h-46zM144,252h54v1h-54zM303,252h46v1h-46zM419,252h46v1h-46zM149,253h44v1h-44zM303,253h45v1h-45zM420,253h45v1h-45zM155,254h31v1h-31zM302,254h45v1h-45zM421,254h45v1h-45zM170,255h2v1h-2zM302,255h45v1h-45zM421,255h45v1h-45zM302,256h44v1h-44zM422,256h44v1h-44zM302,257h44v1h-44zM422,257h44v1h-44zM301,258h44v1h-44zM423,258h44v1h-44zM301,259h44v1h-44zM423,259h44v1h-44zM301,260h43v1h-43zM424,260h43v1h-43zM301,261h43v1h-43zM424,261h43v1h-43zM301,262h42v1h-42zM425,262h42v1h-42zM300,263h43v1h-43zM425,263h43v1h-43zM300,264h43v1h-43zM425,264h43v1h-43zM300,265h42v1h-42zM426,265h42v1h-42zM300,266h42v1h-42zM426,266h42v1h-42zM300,267h42v1h-42zM426,267h42v1h-42zM300,268h42v1h-42zM426,268h42v1h-42zM300,269h42v1h-42zM426,269h42v1h-42zM299,270h42v1h-42zM427,270h42v1h-42zM299,271h42v1h-42zM427,271h42v1h-42zM299,272h42v1h-42zM427,272h42v1h-42zM299,273h42v1h-42zM427,273h42v1h-42zM299,274h42v1h-42zM427,274h42v1h-42zM299,275h42v1h-42zM427,275h42v1h-42zM299,276h42v1h-42zM427,276h42v1h-42zM299,277h42v1h-42zM427,277h42v1h-42zM299,278h42v1h-42zM427,278h42v1h-42zM299,279h42v1h-42zM427,279h42v1h-42zM299,280h42v1h-42zM427,280h42v1h-42zM299,281h42v1h-42zM427,281h42v1h-42zM299,282h42v1h-42zM427,282h42v1h-42zM299,283h42v1h-42zM427,283h42v1h-42zM299,284h42v1h-42zM427,284h42v1h-42zM299,285h42v1h-42zM427,285h42v1h-42zM299,286h42v1h-42zM427,286h42v1h-42zM299,287h42v1h-42zM427,287h42v1h-42zM299,288h42v1h-42zM427,288h42v1h-42zM299,289h42v1h-42zM427,289h42v1h-42zM299,290h42v1h-42zM427,290h42v1h-42zM299,291h42v1h-42zM427,291h42v1h-42zM299,292h42v1h-42zM427,292h42v1h-42zM299,293h42v1h-42zM427,293h42v1h-42zM299,294h42v1h-42zM427,294h42v1h-42zM299,295h42v1h-42zM427,295h42v1h-42zM299,296h42v1h-42zM427,296h42v1h-42zM299,297h42v1h-42zM427,297h42v1h-42zM299,298h42v1h-42zM427,298h42v1h-42zM160,299h21v1h-21zM299,299h170v1h-170zM150,300h42v1h-42zM299,300h170v1h-170zM143,301h54v1h-54zM299,301h170v1h-170zM137,302h63v1h-63zM299,302h170v1h-170zM133,303h69v1h-69zM299,303h170v1h-170zM129,304h75v1h-75zM299,304h170v1h-170zM125,305h80v1h-80zM299,305h170v1h-170zM121,306h85v1h-85zM299,306h170v1h-170zM118,307h89v1h-89zM299,307h170v1h-170zM115,308h93v1h-93zM299,308h170v1h-170zM112,309h97v1h-97zM299,309h170v1h-170zM110,310h100v1h-100zM299,310h170v1h-170zM107,311h103v1h-103zM298,311h172v1h-172zM105,312h106v1h-106zM296,312h176v1h-176zM103,313h108v1h-108zM294,313h180v1h-180zM100,314h112v1h-112zM293,314h182v1h-182zM98,315h114v1h-114zM292,315h184v1h-184zM96,316h116v1h-116zM290,316h188v1h-188zM94,317h118v1h-118zM289,317h190v1h-190zM92,318h121v1h-121zM288,318h192v1h-192zM90,319h123v1h-123zM287,319h194v1h-194zM88,320h125v1h-125zM285,320h198v1h-198zM87,321h126v1h-126zM284,321h200v1h-200zM85,322h128v1h-128zM283,322h202v1h-202zM83,323h130v1h-130zM282,323h204v1h-204zM82,324h131v1h-131zM281,324h206v1h-206zM80,325h132v1h-132zM280,325h208v1h-208zM79,326h133v1h-133zM279,326h210v1h-210zM77,327h135v1h-135zM278,327h212v1h-212zM75,328h137v1h-137zM277,328h214v1h-214zM74,329h137v1h-137zM277,329h214v1h-214zM73,330h138v1h-138zM276,330h216v1h-216zM71,331h139v1h-139zM275,331h218v1h-218zM70,332h140v1h-140zM274,332h220v1h-220zM69,333h140v1h-140zM273,333h222v1h-222zM67,334h141v1h-141zM273,334h222v1h-222zM66,335h141v1h-141zM272,335h224v1h-224zM65,336h141v1h-141zM271,336h226v1h-226zM63,337h142v1h-142zM271,337h226v1h-226zM62,338h142v1h-142zM270,338h228v1h-228zM61,339h141v1h-141zM269,339h230v1h-230zM60,340h140v1h-140zM269,340h230v1h-230zM59,341h98v1h-98zM184,341h14v1h-14zM268,341h66v1h-66zM434,341h66v1h-66zM58,342h92v1h-92zM268,342h61v1h-61zM439,342h61v1h-61zM56,343h88v1h-88zM267,343h59v1h-59zM442,343h59v1h-59zM55,344h85v1h-85zM266,344h58v1h-58zM444,344h58v1h-58zM54,345h82v1h-82zM266,345h56v1h-56zM446,345h56v1h-56zM53,346h80v1h-80zM265,346h55v1h-55zM448,346h55v1h-55zM52,347h78v1h-78zM265,347h53v1h-53zM450,347h53v1h-53zM51,348h76v1h-76zM264,348h53v1h-53zM451,348h53v1h-53zM50,349h74v1h-74zM264,349h51v1h-51zM453,349h51v1h-51zM49,350h73v1h-73zM264,350h50v1h-50zM454,350h50v1h-50zM48,351h71v1h-71zM263,351h50v1h-50zM455,351h50v1h-50zM47,352h70v1h-70zM263,352h49v1h-49zM456,352h49v1h-49zM46,353h69v1h-69zM262,353h49v1h-49zM457,353h49v1h-49zM45,354h68v1h-68zM262,354h48v1h-48zM458,354h48v1h-48zM44,355h67v1h-67zM262,355h47v1h-47zM459,355h47v1h-47zM44,356h65v1h-65zM261,356h47v1h-47zM460,356h47v1h-47zM43,357h64v1h-64zM261,357h46v1h-46zM461,357h46v1h-46zM42,358h64v1h-64zM261,358h45v1h-45zM462,358h45v1h-45zM41,359h63v1h-63zM260,359h46v1h-46zM462,359h46v1h-46zM40,360h62v1h-62zM260,360h45v1h-45zM463,360h45v1h-45zM39,361h62v1h-62zM260,361h44v1h-44zM464,361h44v1h-44zM39,362h60v1h-60zM259,362h45v1h-45zM464,362h45v1h-45zM38,363h60v1h-60zM259,363h44v1h-44zM465,363h44v1h-44zM37,364h59v1h-59zM259,364h44v1h-44zM465,364h44v1h-44zM36,365h59v1h-59zM259,365h43v1h-43zM466,365h43v1h-43zM35,366h58v1h-58zM258,366h44v1h-44zM466,366h46v1h-46zM35,367h57v1h-57zM258,367h43v1h-43zM467,367h45v1h-45zM34,368h57v1h-57zM258,368h43v1h-43zM467,368h45v1h-45zM33,369h57v1h-57zM258,369h43v1h-43zM467,369h45v1h-45zM32,370h56v1h-56zM258,370h42v1h-42zM468,370h44v1h-44zM32,371h55v1h-55zM257,371h43v1h-43zM468,371h44v1h-44zM31,372h55v1h-55zM257,372h43v1h-43zM468,372h44v1h-44zM30,373h55v1h-55zM257,373h42v1h-42zM469,373h43v1h-43zM30,374h54v1h-54zM257,374h42v1h-42zM378,374h12v1h-12zM469,374h43v1h-43zM29,375h54v1h-54zM257,375h42v1h-42zM374,375h20v1h-20zM469,375h43v1h-43zM28,376h54v1h-54zM257,376h42v1h-42zM372,376h24v1h-24zM469,376h43v1h-43zM28,377h53v1h-53zM257,377h42v1h-42zM369,377h30v1h-30zM469,377h43v1h-43zM27,378h53v1h-53zM257,378h42v1h-42zM368,378h32v1h-32zM469,378h43v1h-43zM26,379h53v1h-53zM257,379h41v1h-41zM366,379h36v1h-36zM470,379h42v1h-42zM26,380h52v1h-52zM257,380h41v1h-41zM365,380h38v1h-38zM470,380h42v1h-42zM25,381h52v1h-52zM257,381h41v1h-41zM364,381h40v1h-40zM470,381h42v1h-42zM25,382h51v1h-51zM257,382h41v1h-41zM363,382h42v1h-42zM470,382h42v1h-42zM24,383h51v1h-51zM257,383h41v1h-41zM362,383h44v1h-44zM470,383h42v1h-42zM23,384h51v1h-51zM256,384h42v1h-42zM361,384h46v1h-46zM470,384h42v1h-42zM23,385h50v1h-50zM256,385h42v1h-42zM360,385h48v1h-48zM470,385h42v1h-42zM22,386h50v1h-50zM256,386h42v1h-42zM359,386h50v1h-50zM470,386h42v1h-42zM22,387h49v1h-49zM256,387h42v1h-42zM358,387h52v1h-52zM470,387h42v1h-42zM21,388h50v1h-50zM256,388h42v1h-42zM358,388h52v1h-52zM470,388h42v1h-42zM21,389h49v1h-49zM256,389h42v1h-42zM357,389h54v1h-54zM470,389h42v1h-42zM20,390h49v1h-49zM256,390h42v1h-42zM356,390h56v1h-56zM470,390h42v1h-42zM20,391h48v1h-48zM256,391h42v1h-42zM356,391h56v1h-56zM470,391h42v1h-42zM19,392h49v1h-49zM256,392h42v1h-42zM355,392h58v1h-58zM470,392h42v1h-42zM19,393h48v1h-48zM256,393h42v1h-42zM355,393h58v1h-58zM470,393h42v1h-42zM18,394h48v1h-48zM256,394h42v1h-42zM355,394h58v1h-58zM470,394h42v1h-42zM17,395h48v1h-48zM256,395h42v1h-42zM354,395h60v1h-60zM470,395h42v1h-42zM17,396h48v1h-48zM256,396h42v1h-42zM354,396h60v1h-60zM470,396h42v1h-42zM17,397h47v1h-47zM256,397h42v1h-42zM354,397h60v1h-60zM470,397h42v1h-42zM16,398h47v1h-47zM256,398h42v1h-42zM353,398h62v1h-62zM470,398h42v1h-42zM16,399h47v1h-47zM256,399h42v1h-42zM353,399h62v1h-62zM470,399h42v1h-42zM15,400h47v1h-47zM256,400h42v1h-42zM353,400h62v1h-62zM470,400h42v1h-42zM15,401h46v1h-46zM256,401h42v1h-42zM353,401h62v1h-62zM470,401h42v1h-42zM14,402h47v1h-47zM256,402h42v1h-42zM353,402h62v1h-62zM470,402h42v1h-42zM14,403h46v1h-46zM256,403h42v1h-42zM353,403h62v1h-62zM470,403h42v1h-42zM13,404h47v1h-47zM256,404h42v1h-42zM353,404h62v1h-62zM470,404h42v1h-42zM13,405h46v1h-46zM256,405h42v1h-42zM353,405h62v1h-62zM470,405h42v1h-42zM13,406h45v1h-45zM256,406h42v1h-42zM353,406h62v1h-62zM470,406h42v1h-42zM12,407h46v1h-46zM256,407h42v1h-42zM353,407h62v1h-62zM470,407h42v1h-42zM12,408h45v1h-45zM256,408h42v1h-42zM353,408h62v1h-62zM470,408h42v1h-42zM11,409h46v1h-46zM256,409h42v1h-42zM353,409h62v1h-62zM470,409h42v1h-42zM11,410h45v1h-45zM256,410h42v1h-42zM353,410h62v1h-62zM470,410h42v1h-42zM11,411h45v1h-45zM256,411h42v1h-42zM353,411h62v1h-62zM470,411h42v1h-42zM10,412h45v1h-45zM256,412h42v1h-42zM353,412h62v1h-62zM470,412h42v1h-42zM10,413h45v1h-45zM256,413h42v1h-42zM354,413h60v1h-60zM470,413h42v1h-42zM10,414h44v1h-44zM256,414h42v1h-42zM354,414h60v1h-60zM470,414h42v1h-42zM9,415h45v1h-45zM256,415h42v1h-42zM354,415h60v1h-60zM470,415h42v1h-42zM9,416h44v1h-44zM256,416h42v1h-42zM355,416h58v1h-58zM470,416h42v1h-42zM9,417h44v1h-44zM256,417h42v1h-42zM355,417h58v1h-58zM470,417h42v1h-42zM8,418h45v1h-45zM256,418h42v1h-42zM356,418h56v1h-56zM470,418h42v1h-42zM8,419h44v1h-44zM256,419h42v1h-42zM356,419h56v1h-56zM470,419h42v1h-42zM8,420h44v1h-44zM256,420h42v1h-42zM357,420h54v1h-54zM470,420h42v1h-42zM7,421h44v1h-44zM256,421h42v1h-42zM357,421h54v1h-54zM470,421h42v1h-42zM7,422h44v1h-44zM256,422h42v1h-42zM358,422h52v1h-52zM470,422h42v1h-42zM7,423h44v1h-44zM256,423h42v1h-42zM358,423h52v1h-52zM470,423h42v1h-42zM7,424h43v1h-43zM256,424h42v1h-42zM359,424h50v1h-50zM470,424h42v1h-42zM6,425h44v1h-44zM256,425h42v1h-42zM360,425h48v1h-48zM470,425h42v1h-42zM6,426h43v1h-43zM256,426h42v1h-42zM361,426h46v1h-46zM470,426h42v1h-42zM6,427h43v1h-43zM257,427h41v1h-41zM362,427h44v1h-44zM470,427h42v1h-42zM6,428h43v1h-43zM257,428h41v1h-41zM363,428h42v1h-42zM470,428h42v1h-42zM5,429h43v1h-43zM257,429h41v1h-41zM364,429h40v1h-40zM470,429h42v1h-42zM5,430h43v1h-43zM257,430h41v1h-41zM365,430h38v1h-38zM470,430h42v1h-42zM5,431h43v1h-43zM257,431h41v1h-41zM367,431h34v1h-34zM470,431h42v1h-42zM5,432h42v1h-42zM257,432h42v1h-42zM368,432h32v1h-32zM469,432h43v1h-43zM4,433h43v1h-43zM257,433h42v1h-42zM370,433h28v1h-28zM469,433h43v1h-43zM4,434h43v1h-43zM257,434h42v1h-42zM372,434h24v1h-24zM469,434h43v1h-43zM4,435h43v1h-43zM257,435h42v1h-42zM375,435h18v1h-18zM469,435h43v1h-43zM4,436h42v1h-42zM257,436h42v1h-42zM380,436h8v1h-8zM469,436h43v1h-43zM4,437h42v1h-42zM257,437h43v1h-43zM468,437h44v1h-44zM3,438h43v1h-43zM257,438h43v1h-43zM468,438h44v1h-44zM3,439h43v1h-43zM257,439h43v1h-43zM468,439h44v1h-44zM3,440h42v1h-42zM258,440h42v1h-42zM468,440h44v1h-44zM3,441h42v1h-42zM258,441h43v1h-43zM467,441h45v1h-45zM3,442h42v1h-42zM258,442h43v1h-43zM467,442h45v1h-45zM0,443h45v1h-45zM258,443h43v1h-43zM466,443h46v1h-46zM0,444h45v1h-45zM258,444h44v1h-44zM466,444h46v1h-46zM0,445h44v1h-44zM259,445h43v1h-43zM466,445h43v1h-43zM0,446h44v1h-44zM259,446h44v1h-44zM465,446h44v1h-44zM0,447h44v1h-44zM259,447h44v1h-44zM465,447h44v1h-44zM0,448h44v1h-44zM259,448h45v1h-45zM464,448h45v1h-45zM0,449h44v1h-44zM260,449h45v1h-45zM463,449h45v1h-45zM0,450h44v1h-44zM260,450h45v1h-45zM463,450h45v1h-45zM0,451h43v1h-43zM260,451h46v1h-46zM462,451h46v1h-46zM0,452h43v1h-43zM261,452h46v1h-46zM461,452h46v1h-46zM0,453h43v1h-43zM261,453h46v1h-46zM461,453h46v1h-46zM0,454h43v1h-43zM261,454h47v1h-47zM460,454h47v1h-47zM0,455h43v1h-43zM262,455h47v1h-47zM459,455h47v1h-47zM0,456h43v1h-43zM262,456h48v1h-48zM458,456h48v1h-48zM0,457h43v1h-43zM262,457h49v1h-49zM457,457h49v1h-49zM0,458h43v1h-43zM263,458h49v1h-49zM456,458h49v1h-49zM0,459h43v1h-43zM263,459h50v1h-50zM455,459h50v1h-50zM0,460h42v1h-42zM264,460h50v1h-50zM454,460h50v1h-50zM0,461h42v1h-42zM264,461h52v1h-52zM452,461h52v1h-52zM0,462h42v1h-42zM265,462h52v1h-52zM451,462h52v1h-52zM0,463h42v1h-42zM265,463h54v1h-54zM449,463h54v1h-54zM0,464h42v1h-42zM266,464h54v1h-54zM448,464h54v1h-54zM0,465h42v1h-42zM266,465h56v1h-56zM446,465h56v1h-56zM0,466h42v1h-42zM267,466h58v1h-58zM443,466h58v1h-58zM0,467h42v1h-42zM267,467h60v1h-60zM441,467h60v1h-60zM0,468h42v1h-42zM268,468h63v1h-63zM437,468h63v1h-63zM0,469h42v1h-42zM268,469h68v1h-68zM432,469h68v1h-68zM0,470h42v1h-42zM269,470h230v1h-230zM0,471h42v1h-42zM269,471h229v1h-229zM0,472h42v1h-42zM270,472h228v1h-228zM0,473h42v1h-42zM271,473h226v1h-226zM0,474h42v1h-42zM271,474h226v1h-226zM0,475h42v1h-42zM272,475h224v1h-224zM0,476h42v1h-42zM273,476h222v1h-222zM0,477h42v1h-42zM274,477h220v1h-220zM0,478h42v1h-42zM274,478h220v1h-220zM0,479h42v1h-42zM275,479h218v1h-218zM0,480h42v1h-42zM276,480h216v1h-216zM0,481h42v1h-42zM277,481h214v1h-214zM0,482h42v1h-42zM278,482h212v1h-212zM0,483h42v1h-42zM279,483h210v1h-210zM0,484h42v1h-42zM280,484h208v1h-208zM0,485h42v1h-42zM280,485h208v1h-208zM0,486h42v1h-42zM281,486h206v1h-206zM0,487h42v1h-42zM283,487h203v1h-203zM0,488h42v1h-42zM284,488h200v1h-200zM0,489h42v1h-42zM285,489h198v1h-198zM0,490h42v1h-42zM286,490h196v1h-196zM0,491h42v1h-42zM287,491h194v1h-194zM0,492h42v1h-42zM288,492h192v1h-192zM0,493h42v1h-42zM289,493h190v1h-190zM0,494h42v1h-42zM291,494h186v1h-186zM0,495h42v1h-42zM292,495h184v1h-184zM0,496h41v1h-41zM293,496h182v1h-182zM0,497h41v1h-41zM295,497h178v1h-178zM0,498h41v1h-41zM297,498h174v1h-174zM3,499h37v1h-37zM298,499h172v1h-172zM3,500h37v1h-37zM300,500h168v1h-168zM4,501h35v1h-35zM302,501h164v1h-164zM4,502h34v1h-34zM304,502h160v1h-160zM5,503h33v1h-33zM306,503h156v1h-156zM6,504h31v1h-31zM308,504h152v1h-152zM7,505h29v1h-29zM310,505h148v1h-148zM8,506h27v1h-27zM313,506h142v1h-142zM9,507h24v1h-24zM316,507h136v1h-136zM11,508h21v1h-21zM319,508h130v1h-130zM13,509h17v1h-17zM323,509h122v1h-122zM13,510h17v1h-17zM323,510h122v1h-122zM13,511h17v1h-17zM323,511h122v1h-122z"/></svg>