<?xml version="1.0" standalone="no"?>
<!DOCTYPE svg PUBLIC "-//W3C//DTD SVG 20010904//EN"
 "http://www.w3.org/TR/2001/REC-SVG-20010904/DTD/svg10.dtd">
<svg version="1.0" xmlns="http://www.w3.org/2000/svg"
 width="512px" height="512px" viewBox="0 0 1024.000000 1024.000000"
 preserveAspectRatio="xMidYMid meet">
<metadata>
Created by potrace 1.16, written by Peter Selinger 2001-2019
</metadata>
<g transform="translate(0.000000,1024.000000) scale(0.100000,-0.100000)"
fill="#000000" stroke="none">
<path d="M2447 6103 c-2 -5 -4 -81 -3 -171 0 -89 0 -162 -2 -162 -2 0 -13 5
-24 11 -83 44 -279 57 -386 26 -237 -71 -357 -288 -305 -552 8 -41 49 -112 92
-158 193 -206 583 -189 746 32 19 27 35 55 35 63 0 8 4 18 9 23 24 28 30 120
31 497 l0 398 -94 0 c-52 0 -97 -3 -99 -7z m-157 -477 c128 -27 188 -162 142
-321 -63 -222 -460 -212 -515 12 -53 214 124 361 373 309z M3051 5818 c-122
-19 -262 -116 -304 -210 -6 -16 -15 -28 -18 -28 -3 0 -6 -6 -7 -12 0 -7 -7
-34 -16 -60 -23 -71 -18 -209 10 -280 86 -221 335 -326 599 -254 212 58 344
282 298 506 -48 239 -286 381 -562 338z m174 -189 c148 -34 229 -157 195 -298
-53 -221 -407 -258 -510 -54 -31 60 -34 165 -7 207 10 14 14 26 10 26 -10 0
47 58 81 83 55 39 151 55 231 36z M3725 5820 l-28 -5 1 -260 c0 -367 12 -414
131 -516 130 -112 369 -111 481 1 l21 21 34 -30 c18 -16 43 -32 54 -36 12 -3
21 -10 21 -14 0 -3 8 -7 18 -8 9 -1 33 -5 52 -10 150 -40 344 52 411 196 32
69 33 71 36 374 l4 287 -60 1 c-34 1 -72 1 -86 1 -14 0 -31 0 -38 -1 -10 -1
-13 -58 -14 -271 -1 -230 -4 -276 -18 -306 -52 -111 -232 -121 -297 -17 -22
37 -23 44 -26 316 l-3 277 -32 1 c-58 2 -151 -2 -156 -7 -2 -2 -5 -127 -5
-277 -1 -254 -2 -274 -21 -307 -57 -98 -219 -102 -286 -8 -24 33 -24 35 -25
311 0 152 -3 280 -7 283 -7 8 -125 11 -162 4z M5375 5822 c-99 -12 -206 -73
-276 -159 -25 -30 -58 -123 -67 -183 -6 -44 -8 -402 -3 -495 1 -19 8 -20 96
-21 l95 -2 0 247 c0 272 4 299 55 354 69 75 143 89 292 54 42 -10 90 -51 119
-103 18 -31 24 -73 24 -169 1 -114 0 -107 3 -255 l2 -125 85 -1 c47 0 90 1 96
3 17 6 11 515 -6 568 -68 209 -263 318 -515 287z M6385 5823 c-75 -16 -161
-48 -198 -73 -46 -31 -158 -149 -149 -157 1 -2 -5 -20 -14 -41 -42 -99 -37
-253 13 -357 105 -222 420 -310 672 -187 66 32 153 115 176 168 143 329 -44
634 -398 648 -45 2 -91 2 -102 -1z m210 -212 c25 -11 45 -25 45 -31 0 -6 4 -9
9 -6 5 3 21 -10 35 -29 155 -203 -28 -453 -289 -394 -138 31 -209 119 -204
253 8 183 217 290 404 207z M7407 5824 c-1 -1 -32 -4 -69 -7 -156 -12 -290
-134 -323 -292 -7 -32 -13 -506 -7 -541 3 -19 10 -20 95 -20 l92 1 5 270 c5
295 9 312 67 353 45 31 83 39 176 38 48 -1 88 1 88 4 5 19 3 174 -2 181 -5 8
-115 19 -122 13z M7897 5814 c-183 -43 -316 -181 -343 -359 -38 -245 107 -446
356 -492 33 -6 312 -4 318 2 11 11 8 185 -3 185 -5 1 -77 2 -160 3 -212 3
-287 44 -317 175 -12 57 1 163 22 170 5 2 10 10 10 17 0 7 20 31 45 53 115
101 345 88 431 -26 48 -62 52 -90 54 -337 0 -144 4 -232 11 -236 13 -8 166 -6
174 2 11 11 5 476 -6 531 -49 230 -323 374 -592 312z"/>
</g>
</svg>
