<svg xmlns="http://www.w3.org/2000/svg" viewBox="0 0 512 512" width="512" height="512"><path fill="#000" d="M224,0h64v1h-64zM224,1h64v1h-64zM224,2h64v1h-64zM217,3h78v1h-78zM211,4h90v1h-90zM206,5h100v1h-100zM201,6h110v1h-110zM197,7h118v1h-118zM193,8h126v1h-126zM189,9h134v1h-134zM185,10h142v1h-142zM182,11h148v1h-148zM179,12h154v1h-154zM176,13h160v1h-160zM173,14h166v1h-166zM170,15h172v1h-172zM167,16h178v1h-178zM165,17h182v1h-182zM162,18h188v1h-188zM160,19h192v1h-192zM157,20h198v1h-198zM155,21h202v1h-202zM152,22h208v1h-208zM150,23h212v1h-212zM148,24h216v1h-216zM146,25h220v1h-220zM144,26h224v1h-224zM142,27h228v1h-228zM140,28h232v1h-232zM138,29h236v1h-236zM136,30h240v1h-240zM134,31h244v1h-244zM132,32h248v1h-248zM131,33h250v1h-250zM129,34h254v1h-254zM127,35h258v1h-258zM126,36h260v1h-260zM124,37h264v1h-264zM122,38h268v1h-268zM121,39h270v1h-270zM119,40h274v1h-274zM117,41h277v1h-277zM116,42h140v1h-140zM268,42h128v1h-128zM114,43h142v1h-142zM280,43h118v1h-118zM113,44h143v1h-143zM288,44h111v1h-111zM112,45h144v1h-144zM294,45h106v1h-106zM110,46h146v1h-146zM299,46h103v1h-103zM109,47h147v1h-147zM304,47h99v1h-99zM107,48h149v1h-149zM308,48h97v1h-97zM106,49h150v1h-150zM312,49h94v1h-94zM105,50h151v1h-151zM315,50h92v1h-92zM103,51h153v1h-153zM319,51h90v1h-90zM102,52h154v1h-154zM322,52h88v1h-88zM101,53h155v1h-155zM325,53h86v1h-86zM99,54h157v1h-157zM328,54h85v1h-85zM98,55h158v1h-158zM330,55h84v1h-84zM97,56h159v1h-159zM333,56h82v1h-82zM96,57h160v1h-160zM336,57h81v1h-81zM94,58h162v1h-162zM338,58h80v1h-80zM93,59h163v1h-163zM340,59h79v1h-79zM92,60h164v1h-164zM343,60h77v1h-77zM91,61h165v1h-165zM345,61h76v1h-76zM90,62h166v1h-166zM347,62h75v1h-75zM88,63h168v1h-168zM349,63h75v1h-75zM87,64h169v1h-169zM351,64h74v1h-74zM86,65h170v1h-170zM353,65h73v1h-73zM85,66h171v1h-171zM355,66h72v1h-72zM84,67h172v1h-172zM357,67h71v1h-71zM83,68h173v1h-173zM359,68h70v1h-70zM82,69h174v1h-174zM361,69h69v1h-69zM81,70h175v1h-175zM362,70h69v1h-69zM80,71h176v1h-176zM364,71h68v1h-68zM79,72h177v1h-177zM366,72h67v1h-67zM78,73h178v1h-178zM367,73h67v1h-67zM77,74h179v1h-179zM369,74h67v1h-67zM75,75h181v1h-181zM371,75h66v1h-66zM75,76h181v1h-181zM372,76h66v1h-66zM74,77h182v1h-182zM374,77h64v1h-64zM73,78h183v1h-183zM375,78h64v1h-64zM72,79h184v1h-184zM377,79h63v1h-63zM71,80h185v1h-185zM378,80h63v1h-63zM70,81h186v1h-186zM380,81h62v1h-62zM69,82h187v1h-187zM381,82h62v1h-62zM68,83h188v1h-188zM382,83h62v1h-62zM67,84h189v1h-189zM384,84h61v1h-61zM66,85h190v1h-190zM385,85h61v1h-61zM65,86h191v1h-191zM386,86h61v1h-61zM64,87h192v1h-192zM388,87h60v1h-60zM63,88h193v1h-193zM389,88h60v1h-60zM63,89h193v1h-193zM390,89h59v1h-59zM62,90h194v1h-194zM391,90h59v1h-59zM61,91h195v1h-195zM393,91h58v1h-58zM60,92h196v1h-196zM394,92h58v1h-58zM59,93h197v1h-197zM395,93h58v1h-58zM58,94h198v1h-198zM396,94h58v1h-58zM58,95h198v1h-198zM397,95h57v1h-57zM57,96h199v1h-199zM398,96h57v1h-57zM56,97h200v1h-200zM400,97h56v1h-56zM55,98h201v1h-201zM401,98h56v1h-56zM54,99h202v1h-202zM402,99h56v1h-56zM54,100h202v1h-202zM403,100h55v1h-55zM53,101h203v1h-203zM404,101h55v1h-55zM52,102h204v1h-204zM405,102h55v1h-55zM51,103h205v1h-205zM406,103h55v1h-55zM51,104h205v1h-205zM407,104h54v1h-54zM50,105h206v1h-206zM408,105h54v1h-54zM49,106h207v1h-207zM409,106h54v1h-54zM48,107h208v1h-208zM410,107h54v1h-54zM48,108h208v1h-208zM411,108h53v1h-53zM47,109h209v1h-209zM412,109h53v1h-53zM46,110h210v1h-210zM413,110h53v1h-53zM46,111h210v1h-210zM414,111h52v1h-52zM45,112h211v1h-211zM415,112h52v1h-52zM44,113h212v1h-212zM415,113h53v1h-53zM43,114h213v1h-213zM416,114h53v1h-53zM43,115h213v1h-213zM417,115h52v1h-52zM42,116h214v1h-214zM418,116h52v1h-52zM41,117h215v1h-215zM419,117h51v1h-51zM41,118h215v1h-215zM420,118h51v1h-51zM40,119h216v1h-216zM421,119h51v1h-51zM40,120h216v1h-216zM421,120h51v1h-51zM39,121h217v1h-217zM422,121h51v1h-51zM38,122h218v1h-218zM423,122h51v1h-51zM38,123h218v1h-218zM424,123h50v1h-50zM37,124h219v1h-219zM425,124h50v1h-50zM37,125h219v1h-219zM425,125h50v1h-50zM36,126h220v1h-220zM426,126h50v1h-50zM35,127h221v1h-221zM427,127h50v1h-50zM35,128h221v1h-221zM428,128h49v1h-49zM34,129h222v1h-222zM428,129h50v1h-50zM34,130h222v1h-222zM429,130h49v1h-49zM33,131h223v1h-223zM430,131h49v1h-49zM32,132h224v1h-224zM430,132h50v1h-50zM32,133h224v1h-224zM431,133h49v1h-49zM31,134h225v1h-225zM432,134h49v1h-49zM31,135h225v1h-225zM433,135h48v1h-48zM30,136h226v1h-226zM433,136h49v1h-49zM30,137h226v1h-226zM434,137h48v1h-48zM29,138h227v1h-227zM435,138h48v1h-48zM29,139h227v1h-227zM435,139h48v1h-48zM28,140h228v1h-228zM436,140h48v1h-48zM28,141h228v1h-228zM437,141h47v1h-47zM27,142h229v1h-229zM437,142h48v1h-48zM27,143h229v1h-229zM438,143h47v1h-47zM26,144h230v1h-230zM438,144h48v1h-48zM26,145h230v1h-230zM439,145h47v1h-47zM25,146h231v1h-231zM440,146h47v1h-47zM25,147h231v1h-231zM440,147h47v1h-47zM24,148h232v1h-232zM441,148h47v1h-47zM24,149h232v1h-232zM441,149h47v1h-47zM23,150h233v1h-233zM442,150h47v1h-47zM23,151h233v1h-233zM443,151h46v1h-46zM23,152h233v1h-233zM443,152h47v1h-47zM22,153h234v1h-234zM444,153h46v1h-46zM22,154h234v1h-234zM444,154h46v1h-46zM21,155h235v1h-235zM445,155h46v1h-46zM21,156h235v1h-235zM445,156h46v1h-46zM20,157h236v1h-236zM446,157h46v1h-46zM20,158h236v1h-236zM446,158h46v1h-46zM20,159h236v1h-236zM447,159h45v1h-45zM19,160h237v1h-237zM447,160h46v1h-46zM19,161h237v1h-237zM448,161h45v1h-45zM18,162h238v1h-238zM448,162h46v1h-46zM18,163h238v1h-238zM449,163h45v1h-45zM18,164h238v1h-238zM449,164h45v1h-45zM17,165h239v1h-239zM450,165h45v1h-45zM17,166h239v1h-239zM450,166h45v1h-45zM16,167h240v1h-240zM451,167h45v1h-45zM16,168h240v1h-240zM451,168h45v1h-45zM16,169h240v1h-240zM452,169h44v1h-44zM15,170h241v1h-241zM452,170h45v1h-45zM15,171h241v1h-241zM452,171h45v1h-45zM15,172h241v1h-241zM453,172h44v1h-44zM14,173h242v1h-242zM453,173h45v1h-45zM14,174h242v1h-242zM454,174h44v1h-44zM14,175h242v1h-242zM454,175h44v1h-44zM13,176h243v1h-243zM455,176h44v1h-44zM13,177h243v1h-243zM455,177h44v1h-44zM13,178h243v1h-243zM455,178h44v1h-44zM12,179h244v1h-244zM456,179h44v1h-44zM12,180h244v1h-244zM456,180h44v1h-44zM12,181h244v1h-244zM456,181h44v1h-44zM11,182h245v1h-245zM457,182h44v1h-44zM11,183h245v1h-245zM457,183h44v1h-44zM11,184h245v1h-245zM458,184h43v1h-43zM10,185h246v1h-246zM458,185h44v1h-44zM10,186h246v1h-246zM458,186h44v1h-44zM10,187h246v1h-246zM459,187h43v1h-43zM10,188h246v1h-246zM459,188h43v1h-43zM9,189h247v1h-247zM459,189h44v1h-44zM9,190h247v1h-247zM460,190h43v1h-43zM9,191h247v1h-247zM460,191h43v1h-43zM9,192h247v1h-247zM460,192h43v1h-43zM8,193h248v1h-248zM461,193h43v1h-43zM8,194h248v1h-248zM461,194h43v1h-43zM8,195h248v1h-248zM461,195h43v1h-43zM8,196h248v1h-248zM461,196h43v1h-43zM7,197h249v1h-249zM462,197h43v1h-43zM7,198h249v1h-249zM462,198h43v1h-43zM7,199h249v1h-249zM462,199h43v1h-43zM7,200h249v1h-249zM463,200h42v1h-42zM6,201h250v1h-250zM463,201h43v1h-43zM6,202h250v1h-250zM463,202h43v1h-43zM6,203h250v1h-250zM463,203h43v1h-43zM6,204h250v1h-250zM464,204h42v1h-42zM6,205h250v1h-250zM464,205h42v1h-42zM5,206h251v1h-251zM464,206h43v1h-43zM5,207h251v1h-251zM464,207h43v1h-43zM5,208h251v1h-251zM464,208h43v1h-43zM5,209h251v1h-251zM465,209h42v1h-42zM5,210h251v1h-251zM465,210h42v1h-42zM4,211h252v1h-252zM465,211h43v1h-43zM4,212h252v1h-252zM465,212h43v1h-43zM4,213h252v1h-252zM466,213h42v1h-42zM4,214h252v1h-252zM466,214h42v1h-42zM4,215h252v1h-252zM466,215h42v1h-42zM4,216h252v1h-252zM466,216h42v1h-42zM3,217h253v1h-253zM466,217h43v1h-43zM3,218h253v1h-253zM466,218h43v1h-43zM3,219h253v1h-253zM467,219h42v1h-42zM3,220h253v1h-253zM467,220h42v1h-42zM3,221h253v1h-253zM467,221h42v1h-42zM3,222h253v1h-253zM467,222h42v1h-42zM3,223h253v1h-253zM467,223h42v1h-42zM0,224h256v1h-256zM468,224h44v1h-44zM0,225h256v1h-256zM468,225h44v1h-44zM0,226h256v1h-256zM468,226h44v1h-44zM0,227h256v1h-256zM468,227h44v1h-44zM0,228h256v1h-256zM468,228h44v1h-44zM0,229h256v1h-256zM468,229h44v1h-44zM0,230h256v1h-256zM468,230h44v1h-44zM0,231h256v1h-256zM468,231h44v1h-44zM0,232h256v1h-256zM469,232h43v1h-43zM0,233h256v1h-256zM469,233h43v1h-43zM0,234h256v1h-256zM469,234h43v1h-43zM0,235h256v1h-256zM469,235h43v1h-43zM0,236h256v1h-256zM469,236h43v1h-43zM0,237h256v1h-256zM469,237h43v1h-43zM0,238h256v1h-256zM469,238h43v1h-43zM0,239h256v1h-256zM469,239h43v1h-43zM0,240h256v1h-256zM469,240h43v1h-43zM0,241h256v1h-256zM469,241h43v1h-43zM0,242h256v1h-256zM469,242h43v1h-43zM0,243h256v1h-256zM469,243h43v1h-43zM0,244h256v1h-256zM470,244h42v1h-42zM0,245h256v1h-256zM470,245h42v1h-42zM0,246h256v1h-256zM470,246h42v1h-42zM0,247h256v1h-256zM470,247h42v1h-42zM0,248h256v1h-256zM470,248h42v1h-42zM0,249h256v1h-256zM470,249h42v1h-42zM0,250h256v1h-256zM470,250h42v1h-42zM0,251h256v1h-256zM470,251h42v1h-42zM0,252h256v1h-256zM470,252h42v1h-42zM0,253h256v1h-256zM470,253h42v1h-42zM0,254h256v1h-256zM470,254h42v1h-42zM0,255h256v1h-256zM470,255h42v1h-42zM0,256h256v1h-256zM470,256h42v1h-42zM0,257h256v1h-256zM470,257h42v1h-42zM0,258h256v1h-256zM470,258h42v1h-42zM0,259h256v1h-256zM470,259h42v1h-42zM0,260h256v1h-256zM470,260h42v1h-42zM0,261h256v1h-256zM470,261h42v1h-42zM0,262h256v1h-256zM470,262h42v1h-42zM0,263h256v1h-256zM470,263h42v1h-42zM0,264h256v1h-256zM470,264h42v1h-42zM0,265h256v1h-256zM470,265h42v1h-42zM0,266h256v1h-256zM470,266h42v1h-42zM0,267h256v1h-256zM470,267h42v1h-42zM0,268h256v1h-256zM469,268h43v1h-43zM0,269h256v1h-256zM469,269h43v1h-43zM0,270h256v1h-256zM469,270h43v1h-43zM0,271h256v1h-256zM469,271h43v1h-43zM0,272h256v1h-256zM469,272h43v1h-43zM0,273h256v1h-256zM469,273h43v1h-43zM0,274h256v1h-256zM469,274h43v1h-43zM0,275h256v1h-256zM469,275h43v1h-43zM0,276h256v1h-256zM469,276h43v1h-43zM0,277h256v1h-256zM469,277h43v1h-43zM0,278h256v1h-256zM469,278h43v1h-43zM0,279h256v1h-256zM469,279h43v1h-43zM0,280h256v1h-256zM468,280h44v1h-44zM0,281h256v1h-256zM468,281h44v1h-44zM0,282h256v1h-256zM468,282h44v1h-44zM0,283h256v1h-256zM468,283h44v1h-44zM0,284h256v1h-256zM468,284h44v1h-44zM0,285h256v1h-256zM468,285h44v1h-44zM0,286h256v1h-256zM468,286h44v1h-44zM0,287h256v1h-256zM468,287h44v1h-44zM3,288h253v1h-253zM467,288h42v1h-42zM3,289h253v1h-253zM467,289h42v1h-42zM3,290h253v1h-253zM467,290h42v1h-42zM3,291h253v1h-253zM467,291h42v1h-42zM3,292h253v1h-253zM467,292h42v1h-42zM3,293h253v1h-253zM466,293h43v1h-43zM3,294h253v1h-253zM466,294h43v1h-43zM4,295h252v1h-252zM466,295h42v1h-42zM4,296h252v1h-252zM466,296h42v1h-42zM4,297h252v1h-252zM466,297h42v1h-42zM4,298h252v1h-252zM466,298h42v1h-42zM4,299h252v1h-252zM465,299h43v1h-43zM4,300h252v1h-252zM465,300h43v1h-43zM5,301h251v1h-251zM465,301h42v1h-42zM5,302h251v1h-251zM465,302h42v1h-42zM5,303h251v1h-251zM464,303h43v1h-43zM5,304h251v1h-251zM464,304h43v1h-43zM5,305h251v1h-251zM464,305h43v1h-43zM6,306h250v1h-250zM464,306h42v1h-42zM6,307h250v1h-250zM464,307h42v1h-42zM6,308h250v1h-250zM463,308h43v1h-43zM6,309h250v1h-250zM463,309h43v1h-43zM6,310h250v1h-250zM463,310h43v1h-43zM7,311h249v1h-249zM463,311h42v1h-42zM7,312h249v1h-249zM462,312h43v1h-43zM7,313h249v1h-249zM462,313h43v1h-43zM7,314h249v1h-249zM462,314h43v1h-43zM8,315h248v1h-248zM461,315h43v1h-43zM8,316h248v1h-248zM461,316h43v1h-43zM8,317h248v1h-248zM461,317h43v1h-43zM8,318h248v1h-248zM461,318h43v1h-43zM9,319h247v1h-247zM460,319h43v1h-43zM9,320h247v1h-247zM460,320h43v1h-43zM9,321h247v1h-247zM460,321h43v1h-43zM9,322h247v1h-247zM459,322h44v1h-44zM10,323h246v1h-246zM459,323h43v1h-43zM10,324h246v1h-246zM459,324h43v1h-43zM10,325h246v1h-246zM458,325h44v1h-44zM10,326h246v1h-246zM458,326h44v1h-44zM11,327h245v1h-245zM458,327h43v1h-43zM11,328h245v1h-245zM457,328h44v1h-44zM11,329h245v1h-245zM457,329h44v1h-44zM12,330h244v1h-244zM456,330h44v1h-44zM12,331h244v1h-244zM456,331h44v1h-44zM12,332h244v1h-244zM456,332h44v1h-44zM13,333h243v1h-243zM455,333h44v1h-44zM13,334h243v1h-243zM455,334h44v1h-44zM13,335h243v1h-243zM455,335h44v1h-44zM14,336h242v1h-242zM454,336h44v1h-44zM14,337h242v1h-242zM454,337h44v1h-44zM14,338h242v1h-242zM453,338h45v1h-45zM15,339h241v1h-241zM453,339h44v1h-44zM15,340h241v1h-241zM452,340h45v1h-45zM15,341h241v1h-241zM452,341h45v1h-45zM16,342h240v1h-240zM452,342h44v1h-44zM16,343h240v1h-240zM451,343h45v1h-45zM16,344h240v1h-240zM451,344h45v1h-45zM17,345h239v1h-239zM450,345h45v1h-45zM17,346h239v1h-239zM450,346h45v1h-45zM18,347h238v1h-238zM449,347h45v1h-45zM18,348h238v1h-238zM449,348h45v1h-45zM18,349h238v1h-238zM448,349h46v1h-46zM19,350h237v1h-237zM448,350h45v1h-45zM19,351h237v1h-237zM447,351h46v1h-46zM20,352h236v1h-236zM447,352h45v1h-45zM20,353h236v1h-236zM446,353h46v1h-46zM20,354h236v1h-236zM446,354h46v1h-46zM21,355h235v1h-235zM445,355h46v1h-46zM21,356h235v1h-235zM445,356h46v1h-46zM22,357h234v1h-234zM444,357h46v1h-46zM22,358h234v1h-234zM444,358h46v1h-46zM23,359h233v1h-233zM443,359h46v1h-46zM23,360h233v1h-233zM443,360h46v1h-46zM23,361h233v1h-233zM442,361h47v1h-47zM24,362h232v1h-232zM441,362h47v1h-47zM24,363h232v1h-232zM441,363h47v1h-47zM25,364h231v1h-231zM440,364h47v1h-47zM25,365h231v1h-231zM440,365h47v1h-47zM26,366h230v1h-230zM439,366h47v1h-47zM26,367h230v1h-230zM438,367h48v1h-48zM27,368h229v1h-229zM438,368h47v1h-47zM27,369h229v1h-229zM437,369h48v1h-48zM28,370h228v1h-228zM437,370h47v1h-47zM28,371h228v1h-228zM436,371h48v1h-48zM29,372h227v1h-227zM435,372h48v1h-48zM29,373h227v1h-227zM435,373h48v1h-48zM30,374h226v1h-226zM434,374h48v1h-48zM30,375h226v1h-226zM433,375h49v1h-49zM31,376h225v1h-225zM433,376h48v1h-48zM31,377h225v1h-225zM432,377h49v1h-49zM32,378h224v1h-224zM431,378h49v1h-49zM33,379h223v1h-223zM430,379h49v1h-49zM33,380h223v1h-223zM430,380h49v1h-49zM34,381h222v1h-222zM429,381h49v1h-49zM34,382h222v1h-222zM428,382h50v1h-50zM35,383h221v1h-221zM428,383h49v1h-49zM35,384h221v1h-221zM427,384h50v1h-50zM36,385h220v1h-220zM426,385h50v1h-50zM37,386h219v1h-219zM425,386h50v1h-50zM37,387h219v1h-219zM425,387h50v1h-50zM38,388h218v1h-218zM424,388h50v1h-50zM38,389h218v1h-218zM423,389h51v1h-51zM39,390h217v1h-217zM422,390h51v1h-51zM40,391h216v1h-216zM421,391h51v1h-51zM40,392h216v1h-216zM421,392h51v1h-51zM41,393h215v1h-215zM420,393h51v1h-51zM42,394h214v1h-214zM419,394h51v1h-51zM42,395h214v1h-214zM418,395h52v1h-52zM43,396h213v1h-213zM417,396h52v1h-52zM43,397h213v1h-213zM416,397h52v1h-52zM44,398h212v1h-212zM415,398h53v1h-53zM45,399h211v1h-211zM414,399h53v1h-53zM46,400h210v1h-210zM414,400h52v1h-52zM46,401h210v1h-210zM413,401h53v1h-53zM47,402h209v1h-209zM412,402h53v1h-53zM48,403h208v1h-208zM411,403h53v1h-53zM48,404h208v1h-208zM410,404h54v1h-54zM49,405h207v1h-207zM409,405h54v1h-54zM50,406h206v1h-206zM408,406h54v1h-54zM51,407h205v1h-205zM407,407h54v1h-54zM51,408h205v1h-205zM406,408h55v1h-55zM52,409h204v1h-204zM405,409h55v1h-55zM53,410h203v1h-203zM404,410h55v1h-55zM54,411h202v1h-202zM403,411h55v1h-55zM54,412h202v1h-202zM402,412h56v1h-56zM55,413h201v1h-201zM401,413h56v1h-56zM56,414h200v1h-200zM400,414h56v1h-56zM57,415h199v1h-199zM398,415h57v1h-57zM58,416h198v1h-198zM397,416h57v1h-57zM58,417h198v1h-198zM396,417h58v1h-58zM59,418h197v1h-197zM395,418h58v1h-58zM60,419h196v1h-196zM394,419h58v1h-58zM61,420h195v1h-195zM393,420h58v1h-58zM62,421h194v1h-194zM391,421h59v1h-59zM63,422h193v1h-193zM390,422h59v1h-59zM63,423h193v1h-193zM389,423h60v1h-60zM64,424h192v1h-192zM388,424h60v1h-60zM65,425h191v1h-191zM386,425h61v1h-61zM66,426h190v1h-190zM385,426h61v1h-61zM67,427h189v1h-189zM384,427h61v1h-61zM68,428h188v1h-188zM382,428h62v1h-62zM69,429h187v1h-187zM381,429h62v1h-62zM70,430h186v1h-186zM380,430h62v1h-62zM71,431h185v1h-185zM378,431h63v1h-63zM72,432h184v1h-184zM377,432h63v1h-63zM73,433h183v1h-183zM375,433h64v1h-64zM74,434h182v1h-182zM374,434h64v1h-64zM75,435h181v1h-181zM372,435h65v1h-65zM75,436h181v1h-181zM371,436h66v1h-66zM77,437h179v1h-179zM369,437h67v1h-67zM78,438h178v1h-178zM367,438h67v1h-67zM79,439h177v1h-177zM366,439h67v1h-67zM80,440h176v1h-176zM364,440h68v1h-68zM81,441h175v1h-175zM362,441h69v1h-69zM82,442h174v1h-174zM361,442h69v1h-69zM83,443h173v1h-173zM359,443h70v1h-70zM84,444h172v1h-172zM357,444h71v1h-71zM85,445h171v1h-171zM355,445h72v1h-72zM86,446h170v1h-170zM353,446h73v1h-73zM87,447h169v1h-169zM351,447h74v1h-74zM88,448h168v1h-168zM349,448h75v1h-75zM90,449h166v1h-166zM347,449h75v1h-75zM91,450h165v1h-165zM345,450h76v1h-76zM92,451h164v1h-164zM343,451h77v1h-77zM93,452h163v1h-163zM340,452h79v1h-79zM94,453h162v1h-162zM338,453h80v1h-80zM96,454h160v1h-160zM336,454h81v1h-81zM97,455h159v1h-159zM333,455h82v1h-82zM98,456h158v1h-158zM330,456h84v1h-84zM99,457h157v1h-157zM328,457h85v1h-85zM101,458h155v1h-155zM325,458h86v1h-86zM102,459h154v1h-154zM322,459h88v1h-88zM103,460h153v1h-153zM319,460h90v1h-90zM105,461h151v1h-151zM315,461h92v1h-92zM106,462h150v1h-150zM312,462h94v1h-94zM107,463h149v1h-149zM308,463h97v1h-97zM109,464h147v1h-147zM303,464h100v1h-100zM110,465h146v1h-146zM299,465h103v1h-103zM112,466h144v1h-144zM293,466h107v1h-107zM113,467h143v1h-143zM288,467h111v1h-111zM114,468h142v1h-142zM280,468h117v1h-117zM116,469h140v1h-140zM268,469h128v1h-128zM118,470h276v1h-276zM119,471h274v1h-274zM121,472h270v1h-270zM122,473h268v1h-268zM124,474h264v1h-264zM126,475h260v1h-260zM127,476h258v1h-258zM129,477h254v1h-254zM131,478h250v1h-250zM133,479h246v1h-246zM134,480h244v1h-244zM136,481h240v1h-240zM138,482h236v1h-236zM140,483h232v1h-232zM142,484h228v1h-228zM144,485h224v1h-224zM146,486h220v1h-220zM148,487h216v1h-216zM150,488h212v1h-212zM153,489h206v1h-206zM155,490h202v1h-202zM157,491h198v1h-198zM160,492h192v1h-192zM162,493h188v1h-188zM165,494h182v1h-182zM167,495h178v1h-178zM170,496h172v1h-172zM173,497h166v1h-166zM176,498h160v1h-160zM179,499h154v1h-154zM182,500h148v1h-148zM185,501h142v1h-142zM189,502h134v1h-134zM193,503h126v1h-126zM197,504h118v1h-118zM201,505h110v1h-110zM206,506h100v1h-100zM211,507h90v1h-90zM217,508h78v1h-78zM224,509h64v1h-64zM224,510h64v1h-64zM224,511h64v1h-64z"/></svg>