<svg xmlns="http://www.w3.org/2000/svg" viewBox="0 0 512 512" width="512" height="512"><path fill="#000" d="M140,0h18v1h-18zM140,1h18v1h-18zM140,2h18v1h-18zM139,3h21v1h-21zM137,4h25v1h-25zM136,5h27v1h-27zM135,6h29v1h-29zM134,7h31v1h-31zM133,8h33v1h-33zM132,9h35v1h-35zM132,10h36v1h-36zM131,11h38v1h-38zM130,12h40v1h-40zM130,13h41v1h-41zM130,14h42v1h-42zM129,15h44v1h-44zM129,16h45v1h-45zM129,17h46v1h-46zM129,18h47v1h-47zM129,19h48v1h-48zM128,20h50v1h-50zM128,21h51v1h-51zM128,22h52v1h-52zM129,23h52v1h-52zM129,24h53v1h-53zM129,25h54v1h-54zM129,26h55v1h-55zM129,27h56v1h-56zM130,28h56v1h-56zM130,29h57v1h-57zM131,30h57v1h-57zM131,31h58v1h-58zM132,32h58v1h-58zM132,33h59v1h-59zM133,34h59v1h-59zM134,35h59v1h-59zM135,36h59v1h-59zM136,37h59v1h-59zM137,38h59v1h-59zM138,39h59v1h-59zM139,40h59v1h-59zM140,41h59v1h-59zM141,42h59v1h-59zM142,43h59v1h-59zM143,44h59v1h-59zM144,45h59v1h-59zM145,46h59v1h-59zM146,47h59v1h-59zM147,48h59v1h-59zM148,49h59v1h-59zM149,50h59v1h-59zM150,51h59v1h-59zM151,52h59v1h-59zM152,53h59v1h-59zM153,54h59v1h-59zM154,55h59v1h-59zM155,56h59v1h-59zM156,57h59v1h-59zM157,58h59v1h-59zM158,59h59v1h-59zM159,60h59v1h-59zM160,61h59v1h-59zM161,62h59v1h-59zM162,63h59v1h-59zM163,64h59v1h-59zM164,65h59v1h-59zM165,66h59v1h-59zM166,67h59v1h-59zM167,68h59v1h-59zM168,69h59v1h-59zM169,70h59v1h-59zM170,71h59v1h-59zM171,72h59v1h-59zM172,73h59v1h-59zM173,74h59v1h-59zM174,75h59v1h-59zM175,76h59v1h-59zM176,77h59v1h-59zM177,78h59v1h-59zM178,79h59v1h-59zM179,80h59v1h-59zM180,81h59v1h-59zM181,82h59v1h-59zM182,83h59v1h-59zM183,84h59v1h-59zM184,85h59v1h-59zM185,86h59v1h-59zM186,87h59v1h-59zM187,88h59v1h-59zM188,89h59v1h-59zM189,90h59v1h-59zM190,91h59v1h-59zM191,92h59v1h-59zM192,93h59v1h-59zM193,94h59v1h-59zM194,95h59v1h-59zM195,96h59v1h-59zM196,97h59v1h-59zM197,98h59v1h-59zM198,99h59v1h-59zM199,100h59v1h-59zM200,101h59v1h-59zM201,102h59v1h-59zM202,103h59v1h-59zM203,104h59v1h-59zM204,105h59v1h-59zM205,106h59v1h-59zM206,107h59v1h-59zM207,108h59v1h-59zM208,109h59v1h-59zM209,110h59v1h-59zM210,111h59v1h-59zM211,112h59v1h-59zM212,113h59v1h-59zM213,114h59v1h-59zM214,115h59v1h-59zM215,116h59v1h-59zM216,117h59v1h-59zM217,118h59v1h-59zM218,119h59v1h-59zM219,120h59v1h-59zM220,121h59v1h-59zM221,122h59v1h-59zM222,123h59v1h-59zM223,124h59v1h-59zM224,125h59v1h-59zM225,126h59v1h-59zM226,127h59v1h-59zM227,128h59v1h-59zM228,129h59v1h-59zM229,130h59v1h-59zM230,131h59v1h-59zM231,132h59v1h-59zM232,133h59v1h-59zM233,134h59v1h-59zM234,135h59v1h-59zM235,136h59v1h-59zM236,137h59v1h-59zM237,138h59v1h-59zM238,139h59v1h-59zM239,140h59v1h-59zM240,141h59v1h-59zM241,142h59v1h-59zM242,143h59v1h-59zM243,144h59v1h-59zM244,145h59v1h-59zM245,146h59v1h-59zM246,147h59v1h-59zM247,148h59v1h-59zM248,149h59v1h-59zM249,150h59v1h-59zM250,151h59v1h-59zM251,152h59v1h-59zM252,153h59v1h-59zM253,154h59v1h-59zM254,155h59v1h-59zM255,156h59v1h-59zM256,157h59v1h-59zM257,158h59v1h-59zM258,159h59v1h-59zM259,160h59v1h-59zM260,161h59v1h-59zM261,162h59v1h-59zM262,163h59v1h-59zM263,164h59v1h-59zM264,165h59v1h-59zM265,166h59v1h-59zM266,167h59v1h-59zM267,168h59v1h-59zM268,169h59v1h-59zM269,170h59v1h-59zM270,171h59v1h-59zM271,172h59v1h-59zM272,173h59v1h-59zM273,174h59v1h-59zM274,175h59v1h-59zM275,176h59v1h-59zM276,177h59v1h-59zM277,178h59v1h-59zM278,179h59v1h-59zM279,180h59v1h-59zM280,181h59v1h-59zM281,182h59v1h-59zM282,183h59v1h-59zM283,184h59v1h-59zM284,185h59v1h-59zM285,186h59v1h-59zM286,187h58v1h-58zM287,188h58v1h-58zM288,189h58v1h-58zM289,190h58v1h-58zM290,191h58v1h-58zM291,192h57v1h-57zM292,193h57v1h-57zM293,194h57v1h-57zM294,195h57v1h-57zM295,196h56v1h-56zM296,197h56v1h-56zM297,198h56v1h-56zM298,199h55v1h-55zM299,200h55v1h-55zM300,201h54v1h-54zM301,202h54v1h-54zM302,203h54v1h-54zM303,204h53v1h-53zM304,205h53v1h-53zM305,206h52v1h-52zM306,207h52v1h-52zM307,208h51v1h-51zM308,209h51v1h-51zM309,210h50v1h-50zM310,211h50v1h-50zM311,212h49v1h-49zM312,213h49v1h-49zM313,214h48v1h-48zM314,215h47v1h-47zM314,216h48v1h-48zM315,217h47v1h-47zM316,218h47v1h-47zM317,219h46v1h-46zM317,220h46v1h-46zM318,221h46v1h-46zM318,222h46v1h-46zM319,223h45v1h-45zM320,224h45v1h-45zM320,225h45v1h-45zM321,226h44v1h-44zM321,227h45v1h-45zM322,228h44v1h-44zM322,229h44v1h-44zM323,230h43v1h-43zM323,231h44v1h-44zM323,232h44v1h-44zM324,233h43v1h-43zM324,234h43v1h-43zM324,235h44v1h-44zM325,236h43v1h-43zM325,237h43v1h-43zM325,238h43v1h-43zM326,239h42v1h-42zM326,240h42v1h-42zM326,241h43v1h-43zM326,242h43v1h-43zM327,243h42v1h-42zM327,244h42v1h-42zM327,245h42v1h-42zM327,246h42v1h-42zM327,247h42v1h-42zM327,248h42v1h-42zM327,249h42v1h-42zM327,250h42v1h-42zM327,251h42v1h-42zM328,252h42v1h-42zM328,253h42v1h-42zM328,254h42v1h-42zM328,255h42v1h-42zM328,256h42v1h-42zM328,257h42v1h-42zM328,258h42v1h-42zM328,259h42v1h-42zM327,260h42v1h-42zM327,261h42v1h-42zM327,262h42v1h-42zM327,263h42v1h-42zM327,264h42v1h-42zM327,265h42v1h-42zM327,266h42v1h-42zM327,267h42v1h-42zM327,268h42v1h-42zM326,269h43v1h-43zM326,270h43v1h-43zM326,271h42v1h-42zM326,272h42v1h-42zM325,273h43v1h-43zM325,274h43v1h-43zM325,275h43v1h-43zM324,276h44v1h-44zM324,277h43v1h-43zM324,278h43v1h-43zM323,279h44v1h-44zM323,280h44v1h-44zM323,281h43v1h-43zM322,282h44v1h-44zM322,283h44v1h-44zM321,284h45v1h-45zM321,285h44v1h-44zM320,286h45v1h-45zM320,287h45v1h-45zM319,288h45v1h-45zM318,289h46v1h-46zM318,290h46v1h-46zM317,291h46v1h-46zM317,292h46v1h-46zM316,293h47v1h-47zM315,294h47v1h-47zM314,295h48v1h-48zM314,296h47v1h-47zM313,297h48v1h-48zM312,298h49v1h-49zM311,299h49v1h-49zM310,300h50v1h-50zM309,301h50v1h-50zM308,302h51v1h-51zM307,303h51v1h-51zM306,304h52v1h-52zM305,305h52v1h-52zM304,306h53v1h-53zM303,307h53v1h-53zM302,308h54v1h-54zM301,309h54v1h-54zM300,310h54v1h-54zM299,311h55v1h-55zM298,312h55v1h-55zM297,313h56v1h-56zM296,314h56v1h-56zM295,315h56v1h-56zM294,316h56v1h-56zM293,317h57v1h-57zM292,318h57v1h-57zM291,319h57v1h-57zM290,320h58v1h-58zM289,321h58v1h-58zM288,322h58v1h-58zM287,323h58v1h-58zM286,324h58v1h-58zM285,325h58v1h-58zM284,326h59v1h-59zM283,327h59v1h-59zM282,328h59v1h-59zM281,329h59v1h-59zM280,330h59v1h-59zM279,331h59v1h-59zM278,332h59v1h-59zM277,333h59v1h-59zM276,334h59v1h-59zM275,335h59v1h-59zM274,336h59v1h-59zM273,337h59v1h-59zM272,338h59v1h-59zM271,339h59v1h-59zM270,340h59v1h-59zM269,341h59v1h-59zM268,342h59v1h-59zM267,343h59v1h-59zM266,344h59v1h-59zM265,345h59v1h-59zM264,346h59v1h-59zM263,347h59v1h-59zM262,348h59v1h-59zM261,349h59v1h-59zM260,350h59v1h-59zM259,351h59v1h-59zM258,352h59v1h-59zM257,353h59v1h-59zM256,354h59v1h-59zM255,355h59v1h-59zM254,356h59v1h-59zM253,357h59v1h-59zM252,358h59v1h-59zM251,359h59v1h-59zM250,360h59v1h-59zM249,361h59v1h-59zM248,362h59v1h-59zM247,363h59v1h-59zM246,364h59v1h-59zM245,365h59v1h-59zM244,366h59v1h-59zM243,367h59v1h-59zM242,368h59v1h-59zM241,369h59v1h-59zM240,370h59v1h-59zM239,371h59v1h-59zM238,372h59v1h-59zM237,373h59v1h-59zM236,374h59v1h-59zM235,375h59v1h-59zM234,376h59v1h-59zM233,377h59v1h-59zM232,378h59v1h-59zM231,379h59v1h-59zM230,380h59v1h-59zM229,381h59v1h-59zM228,382h59v1h-59zM227,383h59v1h-59zM226,384h59v1h-59zM225,385h59v1h-59zM224,386h59v1h-59zM223,387h59v1h-59zM222,388h59v1h-59zM221,389h59v1h-59zM220,390h59v1h-59zM219,391h59v1h-59zM218,392h59v1h-59zM217,393h59v1h-59zM216,394h59v1h-59zM215,395h59v1h-59zM214,396h59v1h-59zM213,397h59v1h-59zM212,398h59v1h-59zM211,399h59v1h-59zM210,400h59v1h-59zM209,401h59v1h-59zM208,402h59v1h-59zM207,403h59v1h-59zM206,404h59v1h-59zM205,405h59v1h-59zM204,406h59v1h-59zM203,407h59v1h-59zM202,408h59v1h-59zM201,409h59v1h-59zM200,410h59v1h-59zM199,411h59v1h-59zM198,412h59v1h-59zM197,413h59v1h-59zM196,414h59v1h-59zM195,415h59v1h-59zM194,416h59v1h-59zM193,417h59v1h-59zM192,418h59v1h-59zM191,419h59v1h-59zM190,420h59v1h-59zM189,421h59v1h-59zM188,422h59v1h-59zM187,423h59v1h-59zM186,424h59v1h-59zM185,425h59v1h-59zM184,426h59v1h-59zM183,427h59v1h-59zM182,428h59v1h-59zM181,429h59v1h-59zM180,430h59v1h-59zM179,431h59v1h-59zM178,432h59v1h-59zM177,433h59v1h-59zM176,434h59v1h-59zM175,435h59v1h-59zM174,436h59v1h-59zM173,437h59v1h-59zM172,438h59v1h-59zM171,439h59v1h-59zM170,440h59v1h-59zM169,441h59v1h-59zM168,442h59v1h-59zM167,443h59v1h-59zM166,444h59v1h-59zM165,445h59v1h-59zM164,446h59v1h-59zM163,447h59v1h-59zM162,448h59v1h-59zM161,449h59v1h-59zM160,450h59v1h-59zM159,451h59v1h-59zM158,452h59v1h-59zM157,453h59v1h-59zM156,454h59v1h-59zM155,455h59v1h-59zM154,456h59v1h-59zM153,457h59v1h-59zM152,458h59v1h-59zM151,459h59v1h-59zM150,460h59v1h-59zM149,461h59v1h-59zM148,462h59v1h-59zM147,463h59v1h-59zM146,464h59v1h-59zM145,465h59v1h-59zM144,466h59v1h-59zM143,467h59v1h-59zM142,468h59v1h-59zM141,469h59v1h-59zM140,470h59v1h-59zM139,471h59v1h-59zM138,472h59v1h-59zM137,473h59v1h-59zM136,474h59v1h-59zM135,475h59v1h-59zM134,476h59v1h-59zM133,477h59v1h-59zM132,478h59v1h-59zM132,479h58v1h-58zM131,480h58v1h-58zM131,481h57v1h-57zM130,482h57v1h-57zM130,483h56v1h-56zM129,484h56v1h-56zM129,485h55v1h-55zM129,486h54v1h-54zM129,487h53v1h-53zM129,488h52v1h-52zM128,489h52v1h-52zM128,490h51v1h-51zM128,491h50v1h-50zM128,492h49v1h-49zM129,493h47v1h-47zM129,494h46v1h-46zM129,495h45v1h-45zM129,496h44v1h-44zM130,497h42v1h-42zM130,498h41v1h-41zM130,499h40v1h-40zM131,500h38v1h-38zM132,501h36v1h-36zM132,502h35v1h-35zM133,503h33v1h-33zM134,504h31v1h-31zM135,505h29v1h-29zM136,506h27v1h-27zM137,507h24v1h-24zM139,508h21v1h-21zM141,509h17v1h-17zM141,510h17v1h-17zM141,511h17v1h-17z"/></svg>