<?xml version="1.0" standalone="no"?>
<!DOCTYPE svg PUBLIC "-//W3C//DTD SVG 20010904//EN"
 "http://www.w3.org/TR/2001/REC-SVG-20010904/DTD/svg10.dtd">
<svg version="1.0" xmlns="http://www.w3.org/2000/svg"
 width="1254.000000pt" height="1254.000000pt" viewBox="0 0 1254.000000 1254.000000"
 preserveAspectRatio="xMidYMid meet">
<metadata>
Created by potrace 1.16, written by Peter Selinger 2001-2019
</metadata>
<g transform="translate(0.000000,1254.000000) scale(0.100000,-0.100000)"
fill="#000000" stroke="none">
<path d="M0 6270 l0 -6270 3814 0 c2533 0 3817 3 3821 10 3 5 14 10 23 9 14 0
13 -2 -3 -9 -11 -4 1084 -9 2432 -9 l2453 -1 0 6270 0 6270 -6270 0 -6270 0 0
-6270z m6010 5133 c-25 -20 -526 -517 -1115 -1104 -588 -588 -1074 -1072
-1080 -1076 -5 -4 460 464 1035 1041 930 933 1178 1176 1199 1176 3 0 -14 -17
-39 -37z m-2005 -785 c-90 -94 -1524 -1536 -2190 -2203 -352 -352 -368 -367
-80 -75 198 201 755 761 1237 1245 481 484 926 933 988 998 62 64 115 117 119
117 3 0 -30 -37 -74 -82z m1279 -1163 c-521 -525 -950 -955 -953 -955 -3 0
179 186 404 413 947 952 1490 1497 1493 1497 2 0 -423 -430 -944 -955z m3766
-219 c0 -2 -35 -29 -77 -61 -52 -37 -740 -720 -2028 -2009 -1072 -1074 -1500
-1500 -950 -947 2092 2103 2901 2909 2975 2965 76 56 80 59 80 52z m-5270 -59
c0 -1 -620 -621 -1377 -1377 l-1378 -1375 1375 1378 c756 757 1376 1377 1377
1377 2 0 3 -1 3 -3z m5952 -1770 c-106 -106 -189 -197 -185 -202 4 -4 3 -5 -3
-2 -6 3 -468 -452 -1027 -1011 -558 -559 -1012 -1011 -1008 -1004 10 17 2404
2412 2411 2412 3 0 -82 -87 -188 -193z m-2762 -1560 c-1360 -1358 -1680 -1671
-1680 -1643 0 2 24 21 53 42 61 44 1198 1174 1192 1185 -3 4 2 12 10 19 8 7
15 9 15 4 0 -4 13 5 30 21 16 15 27 32 24 37 -3 5 0 7 8 6 7 -2 12 3 10 10 -1
8 1 11 6 8 5 -3 22 8 37 24 16 17 25 30 20 30 -5 0 2 11 15 25 12 13 26 22 31
20 8 -5 24 13 24 28 0 4 5 7 10 8 18 1 35 21 28 33 -3 6 -3 8 2 4 11 -10 37
11 29 23 -3 5 0 8 8 7 7 -2 12 3 10 10 -1 6 3 11 10 10 7 -2 12 3 13 10 0 6 5
12 10 12 17 1 174 163 168 173 -3 6 -2 7 4 4 5 -3 342 327 749 734 406 406
741 739 744 739 3 0 -708 -712 -1580 -1583z m3920 1260 c0 -1 -1029 -1030
-2287 -2287 l-2288 -2285 2285 2288 c1257 1258 2286 2287 2287 2287 2 0 3 -1
3 -3z m744 -469 c-26 -35 -1082 -1099 -2348 -2365 -1936 -1937 -2306 -2311
-2331 -2359 -28 -53 -30 -66 -30 -159 0 -93 2 -105 33 -167 22 -45 52 -84 90
-119 31 -29 43 -43 26 -31 -49 34 -104 100 -133 161 -23 49 -26 69 -26 157 0
92 2 105 30 158 25 49 386 414 2331 2360 1266 1265 2322 2329 2348 2364 26 34
49 62 52 62 3 0 -16 -28 -42 -62z"/>
</g>
</svg>
