<svg xmlns="http://www.w3.org/2000/svg" viewBox="0 0 512 512" width="512" height="512"><path fill="#000" d="M253,0h177v1h-177zM253,1h177v1h-177zM253,2h177v1h-177zM249,3h185v1h-185zM245,4h192v1h-192zM242,5h198v1h-198zM240,6h203v1h-203zM237,7h209v1h-209zM235,8h213v1h-213zM233,9h217v1h-217zM230,10h222v1h-222zM228,11h226v1h-226zM226,12h230v1h-230zM225,13h233v1h-233zM223,14h237v1h-237zM221,15h240v1h-240zM220,16h243v1h-243zM218,17h246v1h-246zM217,18h249v1h-249zM215,19h252v1h-252zM214,20h255v1h-255zM213,21h257v1h-257zM211,22h260v1h-260zM210,23h263v1h-263zM209,24h265v1h-265zM208,25h267v1h-267zM207,26h269v1h-269zM205,27h272v1h-272zM204,28h274v1h-274zM203,29h276v1h-276zM202,30h278v1h-278zM201,31h280v1h-280zM200,32h282v1h-282zM199,33h284v1h-284zM198,34h286v1h-286zM197,35h288v1h-288zM197,36h289v1h-289zM196,37h291v1h-291zM195,38h293v1h-293zM194,39h295v1h-295zM193,40h296v1h-296zM192,41h298v1h-298zM192,42h299v1h-299zM191,43h79v1h-79zM413,43h79v1h-79zM190,44h74v1h-74zM419,44h73v1h-73zM190,45h70v1h-70zM423,45h70v1h-70zM189,46h68v1h-68zM426,46h68v1h-68zM188,47h66v1h-66zM429,47h65v1h-65zM188,48h64v1h-64zM431,48h64v1h-64zM187,49h62v1h-62zM433,49h63v1h-63zM186,50h61v1h-61zM435,50h61v1h-61zM186,51h60v1h-60zM437,51h60v1h-60zM185,52h59v1h-59zM439,52h59v1h-59zM184,53h58v1h-58zM440,53h58v1h-58zM184,54h57v1h-57zM442,54h57v1h-57zM183,55h57v1h-57zM443,55h56v1h-56zM183,56h55v1h-55zM444,56h56v1h-56zM182,57h55v1h-55zM446,57h54v1h-54zM182,58h54v1h-54zM447,58h54v1h-54zM181,59h54v1h-54zM448,59h53v1h-53zM181,60h53v1h-53zM449,60h53v1h-53zM180,61h53v1h-53zM450,61h52v1h-52zM180,62h52v1h-52zM451,62h52v1h-52zM179,63h52v1h-52zM452,63h51v1h-51zM179,64h51v1h-51zM453,64h51v1h-51zM179,65h50v1h-50zM454,65h50v1h-50zM178,66h50v1h-50zM455,66h50v1h-50zM178,67h49v1h-49zM455,67h50v1h-50zM177,68h50v1h-50zM456,68h49v1h-49zM177,69h49v1h-49zM457,69h49v1h-49zM177,70h48v1h-48zM458,70h48v1h-48zM176,71h48v1h-48zM458,71h48v1h-48zM176,72h48v1h-48zM459,72h48v1h-48zM176,73h47v1h-47zM460,73h47v1h-47zM175,74h48v1h-48zM460,74h47v1h-47zM175,75h47v1h-47zM461,75h47v1h-47zM175,76h46v1h-46zM461,76h47v1h-47zM174,77h47v1h-47zM462,77h46v1h-46zM174,78h46v1h-46zM462,78h47v1h-47zM174,79h46v1h-46zM463,79h46v1h-46zM174,80h45v1h-45zM463,80h46v1h-46zM173,81h46v1h-46zM464,81h45v1h-45zM173,82h45v1h-45zM464,82h48v1h-48zM173,83h45v1h-45zM465,83h47v1h-47zM173,84h45v1h-45zM465,84h47v1h-47zM172,85h45v1h-45zM465,85h47v1h-47zM172,86h45v1h-45zM466,86h46v1h-46zM172,87h45v1h-45zM466,87h46v1h-46zM172,88h44v1h-44zM466,88h46v1h-46zM172,89h44v1h-44zM467,89h45v1h-45zM172,90h44v1h-44zM467,90h45v1h-45zM171,91h45v1h-45zM467,91h45v1h-45zM171,92h44v1h-44zM467,92h45v1h-45zM171,93h44v1h-44zM468,93h44v1h-44zM171,94h44v1h-44zM468,94h44v1h-44zM171,95h44v1h-44zM468,95h44v1h-44zM171,96h44v1h-44zM468,96h44v1h-44zM171,97h43v1h-43zM468,97h44v1h-44zM171,98h43v1h-43zM468,98h44v1h-44zM171,99h43v1h-43zM469,99h43v1h-43zM170,100h44v1h-44zM469,100h43v1h-43zM170,101h44v1h-44zM469,101h43v1h-43zM170,102h44v1h-44zM469,102h43v1h-43zM170,103h44v1h-44zM469,103h43v1h-43zM170,104h44v1h-44zM469,104h43v1h-43zM170,105h44v1h-44zM469,105h43v1h-43zM170,106h44v1h-44zM469,106h43v1h-43zM170,107h44v1h-44zM469,107h43v1h-43zM170,108h44v1h-44zM469,108h43v1h-43zM170,109h44v1h-44zM469,109h43v1h-43zM170,110h44v1h-44zM469,110h43v1h-43zM170,111h44v1h-44zM469,111h43v1h-43zM170,112h44v1h-44zM469,112h43v1h-43zM170,113h44v1h-44zM469,113h43v1h-43zM170,114h44v1h-44zM469,114h43v1h-43zM170,115h44v1h-44zM469,115h43v1h-43zM170,116h44v1h-44zM469,116h43v1h-43zM170,117h44v1h-44zM469,117h43v1h-43zM170,118h44v1h-44zM469,118h43v1h-43zM170,119h44v1h-44zM469,119h43v1h-43zM170,120h44v1h-44zM469,120h43v1h-43zM170,121h44v1h-44zM469,121h43v1h-43zM170,122h44v1h-44zM469,122h43v1h-43zM170,123h44v1h-44zM469,123h43v1h-43zM170,124h44v1h-44zM469,124h43v1h-43zM170,125h44v1h-44zM469,125h43v1h-43zM170,126h44v1h-44zM469,126h43v1h-43zM170,127h44v1h-44zM469,127h43v1h-43zM170,128h44v1h-44zM469,128h43v1h-43zM170,129h44v1h-44zM469,129h43v1h-43zM170,130h44v1h-44zM469,130h43v1h-43zM170,131h44v1h-44zM469,131h43v1h-43zM170,132h44v1h-44zM469,132h43v1h-43zM170,133h44v1h-44zM469,133h43v1h-43zM170,134h44v1h-44zM469,134h43v1h-43zM170,135h44v1h-44zM469,135h43v1h-43zM170,136h44v1h-44zM469,136h43v1h-43zM170,137h44v1h-44zM469,137h43v1h-43zM170,138h44v1h-44zM469,138h43v1h-43zM170,139h44v1h-44zM469,139h43v1h-43zM170,140h44v1h-44zM469,140h43v1h-43zM170,141h44v1h-44zM469,141h43v1h-43zM170,142h44v1h-44zM469,142h43v1h-43zM170,143h44v1h-44zM469,143h43v1h-43zM170,144h44v1h-44zM469,144h43v1h-43zM170,145h44v1h-44zM469,145h43v1h-43zM170,146h44v1h-44zM469,146h43v1h-43zM170,147h44v1h-44zM469,147h43v1h-43zM170,148h44v1h-44zM469,148h43v1h-43zM170,149h44v1h-44zM469,149h43v1h-43zM170,150h44v1h-44zM469,150h43v1h-43zM170,151h44v1h-44zM469,151h43v1h-43zM170,152h44v1h-44zM469,152h43v1h-43zM170,153h44v1h-44zM469,153h43v1h-43zM170,154h44v1h-44zM469,154h43v1h-43zM170,155h44v1h-44zM469,155h43v1h-43zM170,156h44v1h-44zM469,156h43v1h-43zM170,157h44v1h-44zM469,157h43v1h-43zM170,158h44v1h-44zM469,158h43v1h-43zM170,159h44v1h-44zM469,159h43v1h-43zM170,160h44v1h-44zM469,160h43v1h-43zM170,161h44v1h-44zM469,161h43v1h-43zM170,162h44v1h-44zM469,162h43v1h-43zM170,163h44v1h-44zM469,163h43v1h-43zM170,164h44v1h-44zM469,164h43v1h-43zM170,165h44v1h-44zM469,165h43v1h-43zM170,166h44v1h-44zM469,166h43v1h-43zM170,167h44v1h-44zM469,167h43v1h-43zM170,168h44v1h-44zM469,168h43v1h-43zM170,169h44v1h-44zM469,169h43v1h-43zM100,170h10v1h-10zM170,170h44v1h-44zM469,170h43v1h-43zM91,171h23v1h-23zM170,171h44v1h-44zM469,171h43v1h-43zM85,172h31v1h-31zM170,172h44v1h-44zM469,172h43v1h-43zM81,173h37v1h-37zM170,173h44v1h-44zM469,173h43v1h-43zM77,174h42v1h-42zM170,174h44v1h-44zM469,174h43v1h-43zM74,175h47v1h-47zM170,175h44v1h-44zM469,175h43v1h-43zM71,176h51v1h-51zM170,176h44v1h-44zM469,176h43v1h-43zM68,177h55v1h-55zM170,177h44v1h-44zM469,177h43v1h-43zM66,178h58v1h-58zM170,178h44v1h-44zM469,178h43v1h-43zM63,179h61v1h-61zM170,179h44v1h-44zM469,179h43v1h-43zM61,180h64v1h-64zM170,180h44v1h-44zM469,180h43v1h-43zM59,181h67v1h-67zM170,181h44v1h-44zM469,181h43v1h-43zM57,182h69v1h-69zM170,182h44v1h-44zM469,182h43v1h-43zM55,183h72v1h-72zM170,183h44v1h-44zM469,183h43v1h-43zM54,184h73v1h-73zM170,184h44v1h-44zM469,184h43v1h-43zM52,185h75v1h-75zM170,185h44v1h-44zM469,185h43v1h-43zM50,186h78v1h-78zM170,186h44v1h-44zM469,186h43v1h-43zM49,187h79v1h-79zM170,187h44v1h-44zM469,187h43v1h-43zM47,188h81v1h-81zM170,188h44v1h-44zM469,188h43v1h-43zM46,189h82v1h-82zM170,189h44v1h-44zM469,189h43v1h-43zM44,190h84v1h-84zM170,190h44v1h-44zM469,190h43v1h-43zM43,191h85v1h-85zM170,191h44v1h-44zM469,191h43v1h-43zM42,192h86v1h-86zM170,192h44v1h-44zM469,192h43v1h-43zM40,193h88v1h-88zM170,193h44v1h-44zM469,193h43v1h-43zM39,194h89v1h-89zM170,194h44v1h-44zM469,194h43v1h-43zM38,195h90v1h-90zM170,195h44v1h-44zM469,195h43v1h-43zM37,196h91v1h-91zM170,196h44v1h-44zM469,196h43v1h-43zM35,197h93v1h-93zM170,197h44v1h-44zM469,197h43v1h-43zM34,198h93v1h-93zM170,198h44v1h-44zM469,198h43v1h-43zM33,199h94v1h-94zM170,199h44v1h-44zM469,199h43v1h-43zM32,200h95v1h-95zM170,200h44v1h-44zM469,200h43v1h-43zM31,201h95v1h-95zM170,201h44v1h-44zM469,201h43v1h-43zM30,202h96v1h-96zM170,202h44v1h-44zM469,202h43v1h-43zM29,203h96v1h-96zM170,203h44v1h-44zM469,203h43v1h-43zM28,204h96v1h-96zM170,204h44v1h-44zM469,204h43v1h-43zM27,205h97v1h-97zM170,205h44v1h-44zM469,205h43v1h-43zM27,206h96v1h-96zM170,206h44v1h-44zM469,206h43v1h-43zM26,207h96v1h-96zM170,207h44v1h-44zM469,207h43v1h-43zM25,208h96v1h-96zM170,208h44v1h-44zM469,208h43v1h-43zM24,209h95v1h-95zM170,209h44v1h-44zM469,209h43v1h-43zM23,210h95v1h-95zM170,210h44v1h-44zM469,210h43v1h-43zM22,211h94v1h-94zM170,211h44v1h-44zM469,211h43v1h-43zM22,212h92v1h-92zM170,212h44v1h-44zM469,212h43v1h-43zM21,213h89v1h-89zM170,213h44v1h-44zM469,213h43v1h-43zM20,214h77v1h-77zM170,214h44v1h-44zM469,214h43v1h-43zM19,215h73v1h-73zM170,215h44v1h-44zM469,215h43v1h-43zM19,216h69v1h-69zM170,216h44v1h-44zM469,216h43v1h-43zM18,217h67v1h-67zM170,217h44v1h-44zM469,217h43v1h-43zM17,218h65v1h-65zM170,218h44v1h-44zM469,218h43v1h-43zM17,219h63v1h-63zM170,219h44v1h-44zM469,219h43v1h-43zM16,220h62v1h-62zM170,220h44v1h-44zM469,220h43v1h-43zM15,221h61v1h-61zM170,221h44v1h-44zM469,221h43v1h-43zM15,222h60v1h-60zM170,222h44v1h-44zM469,222h43v1h-43zM14,223h59v1h-59zM170,223h44v1h-44zM469,223h43v1h-43zM14,224h57v1h-57zM170,224h44v1h-44zM469,224h43v1h-43zM13,225h57v1h-57zM170,225h44v1h-44zM469,225h43v1h-43zM12,226h57v1h-57zM170,226h44v1h-44zM469,226h43v1h-43zM12,227h55v1h-55zM170,227h44v1h-44zM469,227h43v1h-43zM11,228h55v1h-55zM170,228h44v1h-44zM469,228h43v1h-43zM11,229h54v1h-54zM170,229h44v1h-44zM469,229h43v1h-43zM10,230h54v1h-54zM170,230h44v1h-44zM469,230h43v1h-43zM10,231h53v1h-53zM170,231h44v1h-44zM469,231h43v1h-43zM10,232h52v1h-52zM170,232h44v1h-44zM469,232h43v1h-43zM9,233h52v1h-52zM170,233h44v1h-44zM469,233h43v1h-43zM9,234h51v1h-51zM170,234h44v1h-44zM469,234h43v1h-43zM8,235h51v1h-51zM170,235h44v1h-44zM469,235h43v1h-43zM8,236h50v1h-50zM170,236h44v1h-44zM469,236h43v1h-43zM7,237h50v1h-50zM170,237h44v1h-44zM469,237h43v1h-43zM7,238h49v1h-49zM170,238h44v1h-44zM469,238h43v1h-43zM7,239h49v1h-49zM170,239h44v1h-44zM469,239h43v1h-43zM6,240h49v1h-49zM170,240h44v1h-44zM469,240h43v1h-43zM6,241h48v1h-48zM171,241h43v1h-43zM469,241h43v1h-43zM5,242h48v1h-48zM171,242h43v1h-43zM468,242h44v1h-44zM5,243h48v1h-48zM171,243h43v1h-43zM468,243h44v1h-44zM5,244h47v1h-47zM171,244h43v1h-43zM468,244h44v1h-44zM4,245h48v1h-48zM171,245h44v1h-44zM468,245h44v1h-44zM4,246h47v1h-47zM171,246h44v1h-44zM468,246h44v1h-44zM4,247h46v1h-46zM171,247h44v1h-44zM468,247h44v1h-44zM4,248h46v1h-46zM171,248h44v1h-44zM467,248h45v1h-45zM3,249h46v1h-46zM171,249h44v1h-44zM467,249h45v1h-45zM3,250h46v1h-46zM171,250h45v1h-45zM467,250h45v1h-45zM3,251h46v1h-46zM172,251h44v1h-44zM467,251h45v1h-45zM3,252h45v1h-45zM172,252h44v1h-44zM466,252h46v1h-46zM0,253h48v1h-48zM172,253h45v1h-45zM466,253h46v1h-46zM0,254h47v1h-47zM172,254h45v1h-45zM466,254h46v1h-46zM0,255h47v1h-47zM172,255h45v1h-45zM465,255h47v1h-47zM0,256h47v1h-47zM173,256h45v1h-45zM465,256h47v1h-47zM0,257h46v1h-46zM173,257h45v1h-45zM465,257h47v1h-47zM0,258h46v1h-46zM173,258h45v1h-45zM464,258h48v1h-48zM0,259h46v1h-46zM173,259h46v1h-46zM464,259h45v1h-45zM0,260h45v1h-45zM173,260h46v1h-46zM463,260h46v1h-46zM0,261h45v1h-45zM174,261h46v1h-46zM463,261h46v1h-46zM0,262h45v1h-45zM174,262h46v1h-46zM463,262h46v1h-46zM0,263h45v1h-45zM174,263h47v1h-47zM462,263h46v1h-46zM0,264h44v1h-44zM175,264h46v1h-46zM462,264h46v1h-46zM0,265h44v1h-44zM175,265h47v1h-47zM461,265h47v1h-47zM0,266h44v1h-44zM175,266h47v1h-47zM460,266h48v1h-48zM0,267h44v1h-44zM175,267h48v1h-48zM460,267h47v1h-47zM0,268h44v1h-44zM176,268h48v1h-48zM459,268h48v1h-48zM0,269h44v1h-44zM176,269h48v1h-48zM459,269h48v1h-48zM0,270h43v1h-43zM176,270h49v1h-49zM458,270h48v1h-48zM0,271h43v1h-43zM177,271h49v1h-49zM457,271h49v1h-49zM0,272h43v1h-43zM177,272h49v1h-49zM456,272h49v1h-49zM0,273h43v1h-43zM178,273h49v1h-49zM456,273h49v1h-49zM0,274h43v1h-43zM178,274h50v1h-50zM455,274h50v1h-50zM0,275h43v1h-43zM178,275h51v1h-51zM454,275h50v1h-50zM0,276h43v1h-43zM179,276h51v1h-51zM453,276h51v1h-51zM0,277h43v1h-43zM179,277h51v1h-51zM452,277h51v1h-51zM0,278h43v1h-43zM180,278h51v1h-51zM451,278h52v1h-52zM0,279h43v1h-43zM180,279h52v1h-52zM450,279h52v1h-52zM0,280h43v1h-43zM181,280h52v1h-52zM449,280h53v1h-53zM0,281h43v1h-43zM181,281h53v1h-53zM448,281h54v1h-54zM0,282h43v1h-43zM182,282h54v1h-54zM447,282h54v1h-54zM0,283h43v1h-43zM182,283h55v1h-55zM446,283h55v1h-55zM0,284h43v1h-43zM183,284h55v1h-55zM445,284h55v1h-55zM0,285h43v1h-43zM183,285h56v1h-56zM443,285h56v1h-56zM0,286h43v1h-43zM184,286h57v1h-57zM442,286h57v1h-57zM0,287h43v1h-43zM184,287h58v1h-58zM441,287h57v1h-57zM0,288h43v1h-43zM185,288h58v1h-58zM439,288h59v1h-59zM0,289h43v1h-43zM185,289h60v1h-60zM438,289h59v1h-59zM0,290h43v1h-43zM186,290h61v1h-61zM436,290h61v1h-61zM0,291h43v1h-43zM187,291h62v1h-62zM434,291h62v1h-62zM0,292h43v1h-43zM187,292h64v1h-64zM432,292h63v1h-63zM0,293h43v1h-43zM188,293h65v1h-65zM430,293h65v1h-65zM0,294h43v1h-43zM189,294h67v1h-67zM427,294h67v1h-67zM0,295h43v1h-43zM189,295h70v1h-70zM424,295h69v1h-69zM0,296h43v1h-43zM190,296h72v1h-72zM420,296h73v1h-73zM0,297h43v1h-43zM191,297h76v1h-76zM415,297h77v1h-77zM0,298h43v1h-43zM191,298h300v1h-300zM0,299h43v1h-43zM192,299h298v1h-298zM0,300h43v1h-43zM193,300h297v1h-297zM0,301h43v1h-43zM194,301h295v1h-295zM0,302h43v1h-43zM195,302h293v1h-293zM0,303h43v1h-43zM195,303h292v1h-292zM0,304h43v1h-43zM196,304h290v1h-290zM0,305h43v1h-43zM197,305h288v1h-288zM0,306h43v1h-43zM198,306h287v1h-287zM0,307h43v1h-43zM199,307h285v1h-285zM0,308h43v1h-43zM200,308h283v1h-283zM0,309h43v1h-43zM201,309h281v1h-281zM0,310h43v1h-43zM202,310h279v1h-279zM0,311h43v1h-43zM203,311h277v1h-277zM0,312h43v1h-43zM204,312h275v1h-275zM0,313h43v1h-43zM205,313h273v1h-273zM0,314h43v1h-43zM206,314h271v1h-271zM0,315h43v1h-43zM207,315h268v1h-268zM0,316h43v1h-43zM208,316h266v1h-266zM0,317h43v1h-43zM210,317h263v1h-263zM0,318h43v1h-43zM211,318h261v1h-261zM0,319h43v1h-43zM212,319h258v1h-258zM0,320h43v1h-43zM213,320h256v1h-256zM0,321h43v1h-43zM215,321h253v1h-253zM0,322h43v1h-43zM216,322h250v1h-250zM0,323h43v1h-43zM218,323h247v1h-247zM0,324h43v1h-43zM219,324h244v1h-244zM0,325h43v1h-43zM221,325h241v1h-241zM0,326h43v1h-43zM222,326h238v1h-238zM0,327h43v1h-43zM224,327h235v1h-235zM0,328h43v1h-43zM226,328h231v1h-231zM0,329h43v1h-43zM228,329h227v1h-227zM0,330h43v1h-43zM230,330h223v1h-223zM0,331h43v1h-43zM232,331h219v1h-219zM0,332h43v1h-43zM234,332h215v1h-215zM0,333h43v1h-43zM236,333h210v1h-210zM0,334h43v1h-43zM239,334h205v1h-205zM0,335h43v1h-43zM242,335h199v1h-199zM0,336h43v1h-43zM244,336h194v1h-194zM0,337h43v1h-43zM248,337h187v1h-187zM0,338h43v1h-43zM252,338h179v1h-179zM0,339h43v1h-43zM256,339h171v1h-171zM0,340h43v1h-43zM261,340h160v1h-160zM0,341h43v1h-43zM271,341h141v1h-141zM0,342h43v1h-43zM0,343h43v1h-43zM0,344h43v1h-43zM0,345h43v1h-43zM0,346h43v1h-43zM0,347h43v1h-43zM0,348h43v1h-43zM0,349h43v1h-43zM0,350h43v1h-43zM0,351h43v1h-43zM0,352h43v1h-43zM0,353h43v1h-43zM0,354h43v1h-43zM0,355h43v1h-43zM0,356h43v1h-43zM0,357h43v1h-43zM0,358h43v1h-43zM0,359h43v1h-43zM0,360h43v1h-43zM0,361h43v1h-43zM0,362h43v1h-43zM0,363h43v1h-43zM0,364h43v1h-43zM0,365h43v1h-43zM0,366h43v1h-43zM0,367h43v1h-43zM0,368h43v1h-43zM0,369h43v1h-43zM0,370h43v1h-43zM0,371h43v1h-43zM0,372h43v1h-43zM0,373h43v1h-43zM0,374h43v1h-43zM0,375h43v1h-43zM0,376h43v1h-43zM0,377h43v1h-43zM0,378h43v1h-43zM0,379h43v1h-43zM0,380h43v1h-43zM0,381h43v1h-43zM0,382h43v1h-43zM0,383h43v1h-43zM0,384h43v1h-43zM314,384h12v1h-12zM0,385h43v1h-43zM311,385h18v1h-18zM0,386h43v1h-43zM309,386h22v1h-22zM0,387h43v1h-43zM308,387h24v1h-24zM0,388h43v1h-43zM306,388h28v1h-28zM0,389h43v1h-43zM305,389h30v1h-30zM0,390h43v1h-43zM304,390h32v1h-32zM0,391h43v1h-43zM303,391h34v1h-34zM0,392h43v1h-43zM303,392h34v1h-34zM0,393h43v1h-43zM302,393h36v1h-36zM0,394h43v1h-43zM301,394h38v1h-38zM0,395h43v1h-43zM301,395h38v1h-38zM0,396h43v1h-43zM300,396h40v1h-40zM0,397h43v1h-43zM300,397h40v1h-40zM0,398h43v1h-43zM299,398h42v1h-42zM0,399h43v1h-43zM299,399h42v1h-42zM0,400h43v1h-43zM299,400h42v1h-42zM0,401h43v1h-43zM299,401h42v1h-42zM0,402h43v1h-43zM298,402h44v1h-44zM0,403h43v1h-43zM298,403h44v1h-44zM0,404h43v1h-43zM298,404h44v1h-44zM0,405h43v1h-43zM298,405h44v1h-44zM0,406h43v1h-43zM298,406h44v1h-44zM0,407h43v1h-43zM298,407h44v1h-44zM0,408h43v1h-43zM298,408h44v1h-44zM0,409h43v1h-43zM298,409h44v1h-44zM0,410h43v1h-43zM298,410h44v1h-44zM0,411h43v1h-43zM298,411h44v1h-44zM0,412h43v1h-43zM298,412h43v1h-43zM0,413h44v1h-44zM298,413h43v1h-43zM0,414h44v1h-44zM298,414h43v1h-43zM0,415h44v1h-44zM297,415h44v1h-44zM0,416h44v1h-44zM297,416h44v1h-44zM0,417h44v1h-44zM297,417h44v1h-44zM0,418h44v1h-44zM297,418h44v1h-44zM0,419h45v1h-45zM297,419h44v1h-44zM0,420h45v1h-45zM296,420h45v1h-45zM0,421h45v1h-45zM296,421h44v1h-44zM0,422h45v1h-45zM296,422h44v1h-44zM0,423h46v1h-46zM296,423h44v1h-44zM0,424h46v1h-46zM295,424h45v1h-45zM0,425h46v1h-46zM295,425h45v1h-45zM0,426h47v1h-47zM295,426h45v1h-45zM0,427h47v1h-47zM294,427h45v1h-45zM0,428h47v1h-47zM294,428h45v1h-45zM0,429h48v1h-48zM294,429h45v1h-45zM3,430h45v1h-45zM293,430h46v1h-46zM3,431h46v1h-46zM293,431h45v1h-45zM3,432h46v1h-46zM292,432h46v1h-46zM3,433h47v1h-47zM292,433h46v1h-46zM4,434h46v1h-46zM291,434h47v1h-47zM4,435h47v1h-47zM291,435h46v1h-46zM4,436h47v1h-47zM290,436h47v1h-47zM5,437h47v1h-47zM290,437h47v1h-47zM5,438h47v1h-47zM289,438h47v1h-47zM5,439h48v1h-48zM288,439h48v1h-48zM6,440h48v1h-48zM288,440h48v1h-48zM6,441h48v1h-48zM287,441h48v1h-48zM6,442h49v1h-49zM286,442h49v1h-49zM7,443h49v1h-49zM285,443h50v1h-50zM7,444h50v1h-50zM285,444h49v1h-49zM7,445h50v1h-50zM284,445h50v1h-50zM8,446h50v1h-50zM283,446h50v1h-50zM8,447h51v1h-51zM282,447h51v1h-51zM9,448h51v1h-51zM281,448h52v1h-52zM9,449h52v1h-52zM280,449h52v1h-52zM10,450h52v1h-52zM279,450h53v1h-53zM10,451h53v1h-53zM278,451h53v1h-53zM11,452h53v1h-53zM277,452h54v1h-54zM11,453h54v1h-54zM276,453h54v1h-54zM12,454h54v1h-54zM275,454h55v1h-55zM12,455h56v1h-56zM274,455h55v1h-55zM13,456h56v1h-56zM272,456h57v1h-57zM13,457h57v1h-57zM271,457h57v1h-57zM14,458h58v1h-58zM270,458h57v1h-57zM14,459h59v1h-59zM268,459h59v1h-59zM15,460h60v1h-60zM266,460h60v1h-60zM16,461h61v1h-61zM265,461h61v1h-61zM16,462h63v1h-63zM263,462h62v1h-62zM17,463h64v1h-64zM260,463h64v1h-64zM18,464h65v1h-65zM258,464h66v1h-66zM18,465h68v1h-68zM255,465h68v1h-68zM19,466h70v1h-70zM252,466h70v1h-70zM20,467h73v1h-73zM248,467h74v1h-74zM20,468h79v1h-79zM242,468h79v1h-79zM21,469h299v1h-299zM22,470h297v1h-297zM23,471h296v1h-296zM23,472h295v1h-295zM24,473h293v1h-293zM25,474h291v1h-291zM26,475h289v1h-289zM27,476h288v1h-288zM28,477h286v1h-286zM29,478h284v1h-284zM30,479h282v1h-282zM31,480h280v1h-280zM32,481h278v1h-278zM33,482h276v1h-276zM34,483h274v1h-274zM35,484h272v1h-272zM36,485h269v1h-269zM37,486h267v1h-267zM38,487h265v1h-265zM39,488h263v1h-263zM41,489h260v1h-260zM42,490h257v1h-257zM43,491h255v1h-255zM45,492h252v1h-252zM46,493h249v1h-249zM48,494h246v1h-246zM49,495h243v1h-243zM51,496h240v1h-240zM52,497h237v1h-237zM54,498h233v1h-233zM56,499h229v1h-229zM58,500h226v1h-226zM60,501h222v1h-222zM62,502h217v1h-217zM64,503h213v1h-213zM67,504h208v1h-208zM69,505h203v1h-203zM72,506h198v1h-198zM75,507h192v1h-192zM78,508h185v1h-185zM82,509h177v1h-177zM82,510h177v1h-177zM82,511h177v1h-177z"/></svg>