<svg xmlns="http://www.w3.org/2000/svg" viewBox="0 0 512 512" width="512" height="512"><path fill="#000" d="M129,68h14v1h-14zM369,68h15v1h-15zM119,69h32v1h-32zM361,69h32v1h-32zM113,70h43v1h-43zM356,70h43v1h-43zM108,71h52v1h-52zM352,71h52v1h-52zM104,72h59v1h-59zM349,72h59v1h-59zM101,73h65v1h-65zM346,73h65v1h-65zM98,74h71v1h-71zM343,74h71v1h-71zM95,75h77v1h-77zM340,75h77v1h-77zM92,76h82v1h-82zM338,76h82v1h-82zM90,77h86v1h-86zM335,77h87v1h-87zM87,78h92v1h-92zM333,78h91v1h-91zM85,79h96v1h-96zM331,79h96v1h-96zM83,80h101v1h-101zM328,80h101v1h-101zM81,81h105v1h-105zM326,81h105v1h-105zM79,82h109v1h-109zM324,82h109v1h-109zM77,83h114v1h-114zM321,83h113v1h-113zM76,84h118v1h-118zM318,84h118v1h-118zM74,85h122v1h-122zM316,85h122v1h-122zM72,86h127v1h-127zM312,86h127v1h-127zM71,87h132v1h-132zM309,87h132v1h-132zM69,88h138v1h-138zM305,88h137v1h-137zM68,89h144v1h-144zM300,89h144v1h-144zM66,90h152v1h-152zM294,90h151v1h-151zM65,91h381v1h-381zM64,92h384v1h-384zM63,93h386v1h-386zM61,94h389v1h-389zM60,95h391v1h-391zM59,96h394v1h-394zM58,97h396v1h-396zM57,98h398v1h-398zM56,99h400v1h-400zM55,100h402v1h-402zM54,101h404v1h-404zM53,102h406v1h-406zM52,103h408v1h-408zM51,104h410v1h-410zM50,105h412v1h-412zM49,106h414v1h-414zM48,107h80v1h-80zM143,107h225v1h-225zM385,107h79v1h-79zM47,108h74v1h-74zM148,108h215v1h-215zM391,108h73v1h-73zM46,109h70v1h-70zM152,109h208v1h-208zM396,109h69v1h-69zM45,110h67v1h-67zM155,110h202v1h-202zM400,110h66v1h-66zM45,111h64v1h-64zM157,111h197v1h-197zM403,111h64v1h-64zM44,112h63v1h-63zM160,112h192v1h-192zM405,112h63v1h-63zM43,113h61v1h-61zM162,113h188v1h-188zM408,113h60v1h-60zM42,114h60v1h-60zM165,114h182v1h-182zM410,114h59v1h-59zM42,115h58v1h-58zM167,115h178v1h-178zM412,115h58v1h-58zM41,116h57v1h-57zM169,116h174v1h-174zM414,116h57v1h-57zM40,117h56v1h-56zM172,117h168v1h-168zM416,117h55v1h-55zM39,118h55v1h-55zM174,118h164v1h-164zM417,118h55v1h-55zM39,119h54v1h-54zM177,119h158v1h-158zM419,119h54v1h-54zM38,120h53v1h-53zM179,120h154v1h-154zM420,120h53v1h-53zM38,121h52v1h-52zM182,121h148v1h-148zM422,121h52v1h-52zM37,122h51v1h-51zM185,122h142v1h-142zM423,122h52v1h-52zM36,123h51v1h-51zM188,123h136v1h-136zM424,123h51v1h-51zM36,124h50v1h-50zM191,124h129v1h-129zM426,124h50v1h-50zM35,125h50v1h-50zM195,125h122v1h-122zM427,125h49v1h-49zM35,126h48v1h-48zM199,126h114v1h-114zM428,126h49v1h-49zM34,127h48v1h-48zM204,127h104v1h-104zM429,127h48v1h-48zM33,128h48v1h-48zM210,128h92v1h-92zM430,128h48v1h-48zM33,129h47v1h-47zM218,129h76v1h-76zM431,129h48v1h-48zM32,130h47v1h-47zM432,130h47v1h-47zM32,131h46v1h-46zM433,131h47v1h-47zM31,132h47v1h-47zM434,132h46v1h-46zM31,133h46v1h-46zM435,133h46v1h-46zM30,134h46v1h-46zM435,134h46v1h-46zM30,135h45v1h-45zM436,135h46v1h-46zM30,136h44v1h-44zM437,136h45v1h-45zM29,137h45v1h-45zM438,137h44v1h-44zM29,138h44v1h-44zM439,138h44v1h-44zM28,139h44v1h-44zM439,139h44v1h-44zM28,140h43v1h-43zM440,140h44v1h-44zM27,141h44v1h-44zM441,141h43v1h-43zM27,142h43v1h-43zM441,142h44v1h-44zM27,143h43v1h-43zM442,143h43v1h-43zM26,144h43v1h-43zM443,144h42v1h-42zM26,145h42v1h-42zM443,145h43v1h-43zM26,146h42v1h-42zM138,146h9v1h-9zM444,146h42v1h-42zM25,147h42v1h-42zM135,147h15v1h-15zM391,147h12v1h-12zM444,147h42v1h-42zM25,148h42v1h-42zM133,148h19v1h-19zM387,148h19v1h-19zM445,148h42v1h-42zM25,149h41v1h-41zM132,149h22v1h-22zM385,149h24v1h-24zM445,149h42v1h-42zM24,150h42v1h-42zM130,150h25v1h-25zM383,150h28v1h-28zM446,150h41v1h-41zM24,151h41v1h-41zM129,151h27v1h-27zM381,151h32v1h-32zM446,151h42v1h-42zM24,152h41v1h-41zM128,152h29v1h-29zM380,152h34v1h-34zM447,152h41v1h-41zM24,153h40v1h-40zM127,153h31v1h-31zM379,153h36v1h-36zM447,153h41v1h-41zM23,154h41v1h-41zM127,154h32v1h-32zM378,154h38v1h-38zM448,154h41v1h-41zM23,155h41v1h-41zM126,155h33v1h-33zM376,155h41v1h-41zM448,155h41v1h-41zM23,156h40v1h-40zM125,156h35v1h-35zM376,156h42v1h-42zM448,156h41v1h-41zM22,157h41v1h-41zM125,157h35v1h-35zM375,157h44v1h-44zM449,157h40v1h-40zM22,158h40v1h-40zM125,158h36v1h-36zM374,158h46v1h-46zM449,158h41v1h-41zM22,159h40v1h-40zM124,159h37v1h-37zM373,159h48v1h-48zM450,159h40v1h-40zM22,160h40v1h-40zM124,160h37v1h-37zM373,160h48v1h-48zM450,160h40v1h-40zM22,161h40v1h-40zM124,161h38v1h-38zM372,161h50v1h-50zM450,161h40v1h-40zM21,162h40v1h-40zM124,162h38v1h-38zM371,162h51v1h-51zM451,162h40v1h-40zM21,163h40v1h-40zM123,163h39v1h-39zM371,163h52v1h-52zM451,163h40v1h-40zM21,164h40v1h-40zM123,164h39v1h-39zM371,164h52v1h-52zM451,164h40v1h-40zM21,165h39v1h-39zM123,165h39v1h-39zM370,165h54v1h-54zM451,165h40v1h-40zM21,166h39v1h-39zM123,166h39v1h-39zM370,166h54v1h-54zM452,166h39v1h-39zM21,167h39v1h-39zM123,167h39v1h-39zM370,167h54v1h-54zM452,167h39v1h-39zM20,168h40v1h-40zM123,168h39v1h-39zM369,168h56v1h-56zM452,168h40v1h-40zM20,169h40v1h-40zM123,169h39v1h-39zM369,169h56v1h-56zM452,169h40v1h-40zM20,170h39v1h-39zM123,170h39v1h-39zM369,170h56v1h-56zM453,170h39v1h-39zM20,171h39v1h-39zM123,171h39v1h-39zM369,171h56v1h-56zM453,171h39v1h-39zM20,172h39v1h-39zM123,172h39v1h-39zM369,172h56v1h-56zM453,172h39v1h-39zM19,173h40v1h-40zM123,173h39v1h-39zM368,173h57v1h-57zM453,173h40v1h-40zM19,174h40v1h-40zM123,174h39v1h-39zM368,174h57v1h-57zM453,174h40v1h-40zM19,175h39v1h-39zM123,175h39v1h-39zM368,175h57v1h-57zM453,175h40v1h-40zM19,176h39v1h-39zM123,176h39v1h-39zM368,176h57v1h-57zM454,176h39v1h-39zM19,177h39v1h-39zM123,177h39v1h-39zM369,177h56v1h-56zM454,177h39v1h-39zM19,178h39v1h-39zM123,178h39v1h-39zM369,178h56v1h-56zM454,178h39v1h-39zM18,179h40v1h-40zM123,179h39v1h-39zM369,179h56v1h-56zM454,179h40v1h-40zM18,180h40v1h-40zM123,180h39v1h-39zM369,180h56v1h-56zM454,180h40v1h-40zM18,181h39v1h-39zM123,181h39v1h-39zM369,181h56v1h-56zM455,181h39v1h-39zM18,182h39v1h-39zM123,182h39v1h-39zM369,182h55v1h-55zM455,182h39v1h-39zM18,183h39v1h-39zM123,183h39v1h-39zM370,183h54v1h-54zM455,183h39v1h-39zM17,184h40v1h-40zM123,184h39v1h-39zM370,184h54v1h-54zM455,184h40v1h-40zM17,185h40v1h-40zM123,185h39v1h-39zM370,185h53v1h-53zM455,185h40v1h-40zM17,186h39v1h-39zM123,186h39v1h-39zM371,186h52v1h-52zM455,186h40v1h-40zM17,187h39v1h-39zM123,187h39v1h-39zM371,187h52v1h-52zM456,187h39v1h-39zM17,188h39v1h-39zM123,188h39v1h-39zM372,188h50v1h-50zM456,188h39v1h-39zM17,189h39v1h-39zM123,189h39v1h-39zM372,189h50v1h-50zM456,189h39v1h-39zM16,190h40v1h-40zM123,190h39v1h-39zM373,190h48v1h-48zM456,190h40v1h-40zM16,191h40v1h-40zM123,191h39v1h-39zM374,191h46v1h-46zM456,191h40v1h-40zM16,192h39v1h-39zM123,192h39v1h-39zM374,192h46v1h-46zM457,192h39v1h-39zM16,193h39v1h-39zM93,193h100v1h-100zM375,193h44v1h-44zM457,193h39v1h-39zM16,194h39v1h-39zM89,194h108v1h-108zM376,194h42v1h-42zM457,194h39v1h-39zM16,195h39v1h-39zM86,195h113v1h-113zM377,195h40v1h-40zM457,195h39v1h-39zM15,196h40v1h-40zM85,196h116v1h-116zM378,196h38v1h-38zM457,196h39v1h-39zM15,197h40v1h-40zM83,197h119v1h-119zM379,197h36v1h-36zM457,197h40v1h-40zM15,198h39v1h-39zM82,198h121v1h-121zM381,198h32v1h-32zM458,198h39v1h-39zM15,199h39v1h-39zM81,199h123v1h-123zM382,199h30v1h-30zM458,199h39v1h-39zM15,200h39v1h-39zM80,200h125v1h-125zM384,200h26v1h-26zM458,200h39v1h-39zM15,201h39v1h-39zM80,201h126v1h-126zM386,201h22v1h-22zM458,201h39v1h-39zM15,202h39v1h-39zM79,202h127v1h-127zM389,202h16v1h-16zM458,202h39v1h-39zM14,203h40v1h-40zM78,203h129v1h-129zM393,203h7v1h-7zM458,203h40v1h-40zM14,204h39v1h-39zM78,204h130v1h-130zM459,204h39v1h-39zM14,205h39v1h-39zM77,205h131v1h-131zM459,205h39v1h-39zM14,206h39v1h-39zM77,206h131v1h-131zM459,206h39v1h-39zM14,207h39v1h-39zM77,207h132v1h-132zM459,207h39v1h-39zM14,208h39v1h-39zM76,208h133v1h-133zM459,208h39v1h-39zM13,209h40v1h-40zM76,209h133v1h-133zM459,209h40v1h-40zM13,210h39v1h-39zM76,210h133v1h-133zM459,210h40v1h-40zM13,211h39v1h-39zM76,211h133v1h-133zM460,211h39v1h-39zM13,212h39v1h-39zM76,212h133v1h-133zM460,212h39v1h-39zM13,213h39v1h-39zM76,213h133v1h-133zM460,213h39v1h-39zM13,214h39v1h-39zM76,214h133v1h-133zM460,214h39v1h-39zM12,215h40v1h-40zM76,215h133v1h-133zM460,215h39v1h-39zM12,216h39v1h-39zM76,216h133v1h-133zM460,216h40v1h-40zM12,217h39v1h-39zM77,217h132v1h-132zM461,217h39v1h-39zM12,218h39v1h-39zM77,218h131v1h-131zM461,218h39v1h-39zM12,219h39v1h-39zM77,219h131v1h-131zM461,219h39v1h-39zM12,220h39v1h-39zM78,220h130v1h-130zM461,220h39v1h-39zM12,221h39v1h-39zM78,221h129v1h-129zM461,221h39v1h-39zM11,222h40v1h-40zM79,222h128v1h-128zM343,222h14v1h-14zM461,222h39v1h-39zM11,223h39v1h-39zM79,223h127v1h-127zM340,223h20v1h-20zM462,223h39v1h-39zM11,224h39v1h-39zM80,224h125v1h-125zM338,224h25v1h-25zM462,224h39v1h-39zM11,225h39v1h-39zM81,225h124v1h-124zM336,225h28v1h-28zM462,225h39v1h-39zM11,226h39v1h-39zM82,226h122v1h-122zM334,226h32v1h-32zM462,226h39v1h-39zM11,227h39v1h-39zM83,227h119v1h-119zM333,227h34v1h-34zM462,227h39v1h-39zM11,228h39v1h-39zM84,228h117v1h-117zM332,228h37v1h-37zM462,228h39v1h-39zM10,229h40v1h-40zM86,229h114v1h-114zM331,229h39v1h-39zM462,229h39v1h-39zM10,230h39v1h-39zM88,230h110v1h-110zM330,230h41v1h-41zM462,230h40v1h-40zM10,231h39v1h-39zM91,231h103v1h-103zM329,231h43v1h-43zM463,231h39v1h-39zM10,232h39v1h-39zM123,232h39v1h-39zM328,232h45v1h-45zM463,232h39v1h-39zM10,233h39v1h-39zM123,233h39v1h-39zM327,233h46v1h-46zM463,233h39v1h-39zM10,234h39v1h-39zM123,234h39v1h-39zM326,234h48v1h-48zM463,234h39v1h-39zM10,235h39v1h-39zM123,235h39v1h-39zM326,235h49v1h-49zM463,235h39v1h-39zM9,236h40v1h-40zM123,236h39v1h-39zM325,236h50v1h-50zM463,236h39v1h-39zM9,237h39v1h-39zM123,237h39v1h-39zM325,237h51v1h-51zM463,237h40v1h-40zM9,238h39v1h-39zM123,238h39v1h-39zM324,238h52v1h-52zM464,238h39v1h-39zM9,239h39v1h-39zM123,239h39v1h-39zM324,239h53v1h-53zM464,239h39v1h-39zM9,240h39v1h-39zM123,240h39v1h-39zM323,240h54v1h-54zM464,240h39v1h-39zM9,241h39v1h-39zM123,241h39v1h-39zM323,241h54v1h-54zM464,241h39v1h-39zM9,242h39v1h-39zM123,242h39v1h-39zM323,242h55v1h-55zM464,242h39v1h-39zM9,243h39v1h-39zM123,243h39v1h-39zM323,243h55v1h-55zM464,243h39v1h-39zM8,244h39v1h-39zM123,244h39v1h-39zM322,244h56v1h-56zM464,244h39v1h-39zM8,245h39v1h-39zM123,245h39v1h-39zM322,245h56v1h-56zM465,245h39v1h-39zM8,246h39v1h-39zM123,246h39v1h-39zM322,246h56v1h-56zM465,246h39v1h-39zM8,247h39v1h-39zM123,247h39v1h-39zM322,247h57v1h-57zM465,247h39v1h-39zM8,248h39v1h-39zM123,248h39v1h-39zM322,248h57v1h-57zM465,248h39v1h-39zM8,249h39v1h-39zM123,249h39v1h-39zM322,249h57v1h-57zM465,249h39v1h-39zM8,250h39v1h-39zM123,250h39v1h-39zM322,250h57v1h-57zM465,250h39v1h-39zM8,251h39v1h-39zM123,251h39v1h-39zM322,251h57v1h-57zM465,251h39v1h-39zM8,252h39v1h-39zM123,252h39v1h-39zM322,252h57v1h-57zM465,252h39v1h-39zM7,253h39v1h-39zM123,253h39v1h-39zM322,253h56v1h-56zM466,253h39v1h-39zM7,254h39v1h-39zM123,254h39v1h-39zM322,254h56v1h-56zM466,254h39v1h-39zM7,255h39v1h-39zM123,255h39v1h-39zM322,255h56v1h-56zM466,255h39v1h-39zM7,256h39v1h-39zM123,256h39v1h-39zM322,256h56v1h-56zM466,256h39v1h-39zM7,257h39v1h-39zM123,257h39v1h-39zM323,257h55v1h-55zM466,257h39v1h-39zM7,258h39v1h-39zM123,258h39v1h-39zM323,258h54v1h-54zM466,258h39v1h-39zM7,259h39v1h-39zM123,259h39v1h-39zM323,259h54v1h-54zM466,259h39v1h-39zM7,260h39v1h-39zM123,260h39v1h-39zM324,260h53v1h-53zM466,260h39v1h-39zM6,261h39v1h-39zM123,261h39v1h-39zM324,261h52v1h-52zM466,261h40v1h-40zM6,262h39v1h-39zM123,262h39v1h-39zM325,262h51v1h-51zM467,262h39v1h-39zM6,263h39v1h-39zM124,263h38v1h-38zM325,263h50v1h-50zM467,263h39v1h-39zM6,264h39v1h-39zM124,264h37v1h-37zM326,264h49v1h-49zM467,264h39v1h-39zM6,265h39v1h-39zM124,265h37v1h-37zM326,265h48v1h-48zM467,265h39v1h-39zM6,266h39v1h-39zM124,266h37v1h-37zM327,266h46v1h-46zM467,266h39v1h-39zM6,267h39v1h-39zM125,267h36v1h-36zM328,267h45v1h-45zM467,267h39v1h-39zM6,268h39v1h-39zM125,268h35v1h-35zM329,268h43v1h-43zM467,268h39v1h-39zM6,269h38v1h-38zM126,269h34v1h-34zM329,269h42v1h-42zM467,269h39v1h-39zM5,270h39v1h-39zM126,270h33v1h-33zM330,270h40v1h-40zM468,270h38v1h-38zM5,271h39v1h-39zM127,271h31v1h-31zM332,271h37v1h-37zM468,271h39v1h-39zM5,272h39v1h-39zM128,272h29v1h-29zM333,272h35v1h-35zM468,272h39v1h-39zM5,273h39v1h-39zM129,273h28v1h-28zM334,273h32v1h-32zM468,273h39v1h-39zM5,274h39v1h-39zM130,274h25v1h-25zM336,274h29v1h-29zM468,274h39v1h-39zM5,275h39v1h-39zM131,275h23v1h-23zM337,275h26v1h-26zM468,275h39v1h-39zM5,276h39v1h-39zM133,276h20v1h-20zM340,276h21v1h-21zM468,276h39v1h-39zM5,277h39v1h-39zM134,277h17v1h-17zM343,277h15v1h-15zM468,277h39v1h-39zM5,278h39v1h-39zM137,278h11v1h-11zM349,278h2v1h-2zM468,278h39v1h-39zM5,279h39v1h-39zM468,279h39v1h-39zM4,280h39v1h-39zM469,280h38v1h-38zM4,281h39v1h-39zM469,281h39v1h-39zM4,282h39v1h-39zM469,282h39v1h-39zM4,283h39v1h-39zM469,283h39v1h-39zM4,284h39v1h-39zM469,284h39v1h-39zM4,285h39v1h-39zM469,285h39v1h-39zM4,286h39v1h-39zM469,286h39v1h-39zM4,287h39v1h-39zM469,287h39v1h-39zM4,288h39v1h-39zM469,288h39v1h-39zM4,289h39v1h-39zM469,289h39v1h-39zM4,290h38v1h-38zM470,290h38v1h-38zM3,291h39v1h-39zM470,291h39v1h-39zM3,292h39v1h-39zM470,292h39v1h-39zM3,293h39v1h-39zM470,293h39v1h-39zM3,294h39v1h-39zM470,294h39v1h-39zM3,295h39v1h-39zM470,295h39v1h-39zM3,296h39v1h-39zM470,296h39v1h-39zM3,297h39v1h-39zM470,297h39v1h-39zM3,298h39v1h-39zM470,298h39v1h-39zM3,299h39v1h-39zM470,299h39v1h-39zM3,300h39v1h-39zM470,300h39v1h-39zM3,301h39v1h-39zM470,301h39v1h-39zM3,302h38v1h-38zM470,302h39v1h-39zM3,303h38v1h-38zM471,303h38v1h-38zM0,304h41v1h-41zM471,304h41v1h-41zM0,305h41v1h-41zM471,305h41v1h-41zM0,306h41v1h-41zM211,306h90v1h-90zM471,306h41v1h-41zM0,307h41v1h-41zM204,307h104v1h-104zM471,307h41v1h-41zM0,308h41v1h-41zM200,308h112v1h-112zM471,308h41v1h-41zM0,309h41v1h-41zM197,309h118v1h-118zM471,309h41v1h-41zM0,310h41v1h-41zM194,310h124v1h-124zM471,310h41v1h-41zM0,311h41v1h-41zM192,311h128v1h-128zM471,311h41v1h-41zM0,312h41v1h-41zM190,312h132v1h-132zM471,312h41v1h-41zM0,313h41v1h-41zM188,313h136v1h-136zM471,313h41v1h-41zM0,314h41v1h-41zM186,314h140v1h-140zM471,314h41v1h-41zM0,315h40v1h-40zM184,315h144v1h-144zM471,315h41v1h-41zM0,316h40v1h-40zM182,316h148v1h-148zM472,316h40v1h-40zM0,317h40v1h-40zM181,317h150v1h-150zM472,317h40v1h-40zM0,318h40v1h-40zM179,318h154v1h-154zM472,318h40v1h-40zM0,319h40v1h-40zM178,319h156v1h-156zM472,319h40v1h-40zM0,320h40v1h-40zM176,320h160v1h-160zM472,320h40v1h-40zM0,321h40v1h-40zM175,321h162v1h-162zM472,321h40v1h-40zM0,322h40v1h-40zM173,322h165v1h-165zM472,322h40v1h-40zM0,323h40v1h-40zM172,323h168v1h-168zM472,323h40v1h-40zM0,324h40v1h-40zM171,324h170v1h-170zM472,324h40v1h-40zM0,325h40v1h-40zM170,325h172v1h-172zM472,325h40v1h-40zM0,326h40v1h-40zM168,326h175v1h-175zM472,326h40v1h-40zM0,327h40v1h-40zM167,327h178v1h-178zM472,327h40v1h-40zM0,328h40v1h-40zM166,328h180v1h-180zM472,328h40v1h-40zM0,329h40v1h-40zM165,329h182v1h-182zM472,329h40v1h-40zM0,330h40v1h-40zM164,330h184v1h-184zM472,330h40v1h-40zM0,331h40v1h-40zM163,331h186v1h-186zM472,331h40v1h-40zM0,332h40v1h-40zM162,332h188v1h-188zM472,332h40v1h-40zM0,333h39v1h-39zM161,333h190v1h-190zM472,333h40v1h-40zM0,334h39v1h-39zM160,334h192v1h-192zM473,334h39v1h-39zM0,335h39v1h-39zM159,335h194v1h-194zM473,335h39v1h-39zM0,336h39v1h-39zM158,336h196v1h-196zM473,336h39v1h-39zM0,337h39v1h-39zM157,337h198v1h-198zM473,337h39v1h-39zM0,338h39v1h-39zM156,338h200v1h-200zM473,338h39v1h-39zM0,339h39v1h-39zM155,339h202v1h-202zM473,339h39v1h-39zM0,340h39v1h-39zM154,340h204v1h-204zM473,340h39v1h-39zM0,341h39v1h-39zM153,341h206v1h-206zM473,341h39v1h-39zM0,342h39v1h-39zM152,342h208v1h-208zM473,342h39v1h-39zM0,343h39v1h-39zM151,343h210v1h-210zM473,343h39v1h-39zM0,344h39v1h-39zM150,344h212v1h-212zM473,344h39v1h-39zM0,345h39v1h-39zM149,345h63v1h-63zM300,345h63v1h-63zM473,345h39v1h-39zM0,346h39v1h-39zM148,346h61v1h-61zM303,346h61v1h-61zM473,346h39v1h-39zM0,347h39v1h-39zM147,347h59v1h-59zM306,347h59v1h-59zM473,347h39v1h-39zM0,348h39v1h-39zM146,348h58v1h-58zM308,348h58v1h-58zM473,348h39v1h-39zM0,349h39v1h-39zM145,349h58v1h-58zM309,349h58v1h-58zM473,349h39v1h-39zM0,350h39v1h-39zM144,350h57v1h-57zM311,350h57v1h-57zM473,350h39v1h-39zM0,351h39v1h-39zM143,351h56v1h-56zM313,351h56v1h-56zM473,351h39v1h-39zM0,352h39v1h-39zM142,352h56v1h-56zM314,352h56v1h-56zM473,352h39v1h-39zM0,353h39v1h-39zM141,353h56v1h-56zM315,353h56v1h-56zM473,353h39v1h-39zM0,354h39v1h-39zM140,354h55v1h-55zM317,354h55v1h-55zM473,354h39v1h-39zM0,355h39v1h-39zM140,355h54v1h-54zM318,355h54v1h-54zM473,355h39v1h-39zM0,356h39v1h-39zM139,356h54v1h-54zM319,356h54v1h-54zM473,356h39v1h-39zM0,357h39v1h-39zM138,357h54v1h-54zM320,357h54v1h-54zM473,357h39v1h-39zM0,358h39v1h-39zM137,358h54v1h-54zM321,358h54v1h-54zM473,358h39v1h-39zM0,359h39v1h-39zM136,359h54v1h-54zM322,359h54v1h-54zM473,359h39v1h-39zM0,360h38v1h-38zM135,360h53v1h-53zM324,360h53v1h-53zM473,360h39v1h-39zM0,361h38v1h-38zM134,361h53v1h-53zM325,361h53v1h-53zM473,361h39v1h-39zM0,362h38v1h-38zM133,362h53v1h-53zM326,362h53v1h-53zM474,362h38v1h-38zM0,363h38v1h-38zM132,363h53v1h-53zM327,363h53v1h-53zM474,363h38v1h-38zM0,364h38v1h-38zM131,364h53v1h-53zM328,364h53v1h-53zM474,364h38v1h-38zM0,365h38v1h-38zM130,365h53v1h-53zM329,365h53v1h-53zM474,365h38v1h-38zM0,366h38v1h-38zM130,366h52v1h-52zM330,366h52v1h-52zM474,366h38v1h-38zM0,367h39v1h-39zM129,367h52v1h-52zM331,367h52v1h-52zM474,367h38v1h-38zM0,368h39v1h-39zM128,368h52v1h-52zM332,368h52v1h-52zM473,368h39v1h-39zM0,369h39v1h-39zM127,369h52v1h-52zM333,369h52v1h-52zM473,369h39v1h-39zM0,370h39v1h-39zM126,370h52v1h-52zM334,370h52v1h-52zM473,370h39v1h-39zM0,371h39v1h-39zM125,371h53v1h-53zM334,371h53v1h-53zM473,371h39v1h-39zM0,372h40v1h-40zM124,372h53v1h-53zM335,372h53v1h-53zM473,372h39v1h-39zM0,373h40v1h-40zM123,373h53v1h-53zM336,373h53v1h-53zM473,373h39v1h-39zM0,374h40v1h-40zM122,374h53v1h-53zM337,374h53v1h-53zM472,374h40v1h-40zM0,375h41v1h-41zM121,375h53v1h-53zM338,375h53v1h-53zM472,375h40v1h-40zM0,376h41v1h-41zM120,376h53v1h-53zM339,376h53v1h-53zM471,376h41v1h-41zM0,377h41v1h-41zM119,377h53v1h-53zM340,377h53v1h-53zM471,377h41v1h-41zM0,378h42v1h-42zM118,378h53v1h-53zM341,378h53v1h-53zM471,378h41v1h-41zM0,379h42v1h-42zM117,379h53v1h-53zM342,379h53v1h-53zM470,379h42v1h-42zM0,380h43v1h-43zM116,380h53v1h-53zM343,380h53v1h-53zM470,380h42v1h-42zM0,381h44v1h-44zM115,381h53v1h-53zM344,381h53v1h-53zM469,381h43v1h-43zM0,382h44v1h-44zM114,382h53v1h-53zM345,382h53v1h-53zM468,382h44v1h-44zM0,383h45v1h-45zM113,383h53v1h-53zM346,383h53v1h-53zM468,383h44v1h-44zM3,384h43v1h-43zM112,384h54v1h-54zM346,384h54v1h-54zM467,384h45v1h-45zM3,385h43v1h-43zM111,385h54v1h-54zM347,385h54v1h-54zM466,385h43v1h-43zM3,386h44v1h-44zM110,386h54v1h-54zM348,386h54v1h-54zM465,386h44v1h-44zM4,387h44v1h-44zM109,387h54v1h-54zM349,387h54v1h-54zM464,387h45v1h-45zM4,388h45v1h-45zM108,388h54v1h-54zM350,388h54v1h-54zM463,388h45v1h-45zM4,389h46v1h-46zM107,389h54v1h-54zM351,389h54v1h-54zM463,389h45v1h-45zM5,390h46v1h-46zM106,390h54v1h-54zM352,390h54v1h-54zM462,390h46v1h-46zM5,391h47v1h-47zM104,391h55v1h-55zM353,391h54v1h-54zM460,391h47v1h-47zM6,392h47v1h-47zM103,392h55v1h-55zM354,392h55v1h-55zM459,392h48v1h-48zM6,393h48v1h-48zM102,393h55v1h-55zM355,393h55v1h-55zM458,393h48v1h-48zM7,394h48v1h-48zM101,394h55v1h-55zM356,394h55v1h-55zM457,394h49v1h-49zM7,395h50v1h-50zM100,395h55v1h-55zM357,395h55v1h-55zM455,395h50v1h-50zM8,396h50v1h-50zM98,396h57v1h-57zM357,396h57v1h-57zM454,396h51v1h-51zM8,397h52v1h-52zM97,397h57v1h-57zM358,397h57v1h-57zM453,397h51v1h-51zM9,398h52v1h-52zM95,398h58v1h-58zM359,398h58v1h-58zM451,398h53v1h-53zM9,399h54v1h-54zM94,399h58v1h-58zM360,399h58v1h-58zM449,399h54v1h-54zM10,400h55v1h-55zM92,400h59v1h-59zM361,400h59v1h-59zM447,400h56v1h-56zM10,401h57v1h-57zM91,401h59v1h-59zM362,401h59v1h-59zM445,401h57v1h-57zM11,402h58v1h-58zM89,402h60v1h-60zM363,402h60v1h-60zM443,402h58v1h-58zM12,403h60v1h-60zM86,403h62v1h-62zM364,403h61v1h-61zM440,403h61v1h-61zM12,404h63v1h-63zM84,404h63v1h-63zM365,404h63v1h-63zM437,404h63v1h-63zM13,405h133v1h-133zM366,405h134v1h-134zM14,406h131v1h-131zM367,406h132v1h-132zM14,407h130v1h-130zM368,407h130v1h-130zM15,408h128v1h-128zM369,408h128v1h-128zM16,409h126v1h-126zM370,409h127v1h-127zM17,410h124v1h-124zM371,410h125v1h-125zM18,411h122v1h-122zM372,411h123v1h-123zM18,412h121v1h-121zM373,412h121v1h-121zM19,413h119v1h-119zM374,413h119v1h-119zM20,414h117v1h-117zM375,414h117v1h-117zM21,415h115v1h-115zM376,415h115v1h-115zM22,416h113v1h-113zM377,416h113v1h-113zM23,417h111v1h-111zM378,417h111v1h-111zM24,418h108v1h-108zM380,418h108v1h-108zM25,419h106v1h-106zM381,419h106v1h-106zM26,420h104v1h-104zM382,420h104v1h-104zM27,421h102v1h-102zM383,421h102v1h-102zM28,422h100v1h-100zM384,422h100v1h-100zM30,423h97v1h-97zM385,423h98v1h-98zM31,424h94v1h-94zM387,424h94v1h-94zM32,425h92v1h-92zM388,425h92v1h-92zM34,426h89v1h-89zM389,426h90v1h-90zM35,427h86v1h-86zM391,427h86v1h-86zM36,428h84v1h-84zM392,428h84v1h-84zM38,429h81v1h-81zM393,429h81v1h-81zM39,430h78v1h-78zM395,430h78v1h-78zM41,431h75v1h-75zM396,431h75v1h-75zM43,432h71v1h-71zM398,432h72v1h-72zM44,433h69v1h-69zM399,433h69v1h-69zM46,434h65v1h-65zM401,434h65v1h-65zM48,435h61v1h-61zM403,435h61v1h-61zM50,436h57v1h-57zM405,436h57v1h-57zM52,437h53v1h-53zM407,437h53v1h-53zM55,438h48v1h-48zM409,438h48v1h-48zM57,439h44v1h-44zM411,439h44v1h-44zM60,440h38v1h-38zM414,440h38v1h-38zM63,441h32v1h-32zM417,441h32v1h-32zM68,442h23v1h-23zM421,442h24v1h-24zM73,443h13v1h-13zM426,443h13v1h-13z"/></svg>