<svg xmlns="http://www.w3.org/2000/svg" viewBox="0 0 512 512" width="512" height="512"><path fill="#000" d="M250,42h12v1h-12zM240,43h32v1h-32zM235,44h42v1h-42zM231,45h50v1h-50zM227,46h58v1h-58zM224,47h64v1h-64zM221,48h70v1h-70zM218,49h76v1h-76zM216,50h80v1h-80zM214,51h84v1h-84zM211,52h90v1h-90zM209,53h94v1h-94zM208,54h97v1h-97zM206,55h100v1h-100zM204,56h104v1h-104zM202,57h108v1h-108zM201,58h110v1h-110zM199,59h114v1h-114zM198,60h116v1h-116zM196,61h120v1h-120zM195,62h122v1h-122zM193,63h126v1h-126zM192,64h128v1h-128zM191,65h130v1h-130zM190,66h132v1h-132zM188,67h136v1h-136zM187,68h138v1h-138zM186,69h140v1h-140zM185,70h142v1h-142zM184,71h144v1h-144zM182,72h148v1h-148zM181,73h150v1h-150zM180,74h152v1h-152zM179,75h154v1h-154zM178,76h156v1h-156zM176,77h160v1h-160zM175,78h162v1h-162zM174,79h164v1h-164zM173,80h166v1h-166zM172,81h169v1h-169zM170,82h172v1h-172zM169,83h174v1h-174zM168,84h176v1h-176zM167,85h178v1h-178zM165,86h182v1h-182zM164,87h184v1h-184zM163,88h186v1h-186zM162,89h188v1h-188zM161,90h190v1h-190zM159,91h194v1h-194zM158,92h196v1h-196zM157,93h198v1h-198zM156,94h200v1h-200zM155,95h202v1h-202zM153,96h206v1h-206zM152,97h208v1h-208zM151,98h210v1h-210zM150,99h212v1h-212zM149,100h215v1h-215zM147,101h218v1h-218zM146,102h220v1h-220zM145,103h222v1h-222zM144,104h224v1h-224zM143,105h227v1h-227zM141,106h230v1h-230zM140,107h232v1h-232zM139,108h234v1h-234zM138,109h236v1h-236zM136,110h240v1h-240zM135,111h242v1h-242zM134,112h244v1h-244zM133,113h246v1h-246zM132,114h248v1h-248zM130,115h252v1h-252zM129,116h254v1h-254zM128,117h256v1h-256zM127,118h258v1h-258zM126,119h260v1h-260zM124,120h264v1h-264zM123,121h266v1h-266zM122,122h268v1h-268zM121,123h270v1h-270zM120,124h273v1h-273zM118,125h276v1h-276zM117,126h278v1h-278zM116,127h280v1h-280zM115,128h282v1h-282zM113,129h286v1h-286zM112,130h288v1h-288zM111,131h290v1h-290zM110,132h292v1h-292zM109,133h294v1h-294zM107,134h298v1h-298zM106,135h300v1h-300zM105,136h302v1h-302zM104,137h304v1h-304zM103,138h306v1h-306zM101,139h310v1h-310zM100,140h312v1h-312zM99,141h314v1h-314zM98,142h316v1h-316zM97,143h319v1h-319zM95,144h322v1h-322zM94,145h324v1h-324zM93,146h326v1h-326zM92,147h328v1h-328zM90,148h332v1h-332zM89,149h334v1h-334zM88,150h336v1h-336zM87,151h338v1h-338zM86,152h340v1h-340zM84,153h344v1h-344zM83,154h346v1h-346zM82,155h348v1h-348zM81,156h350v1h-350zM80,157h352v1h-352zM78,158h356v1h-356zM77,159h358v1h-358zM76,160h360v1h-360zM75,161h362v1h-362zM74,162h364v1h-364zM72,163h368v1h-368zM71,164h370v1h-370zM70,165h372v1h-372zM69,166h374v1h-374zM68,167h376v1h-376zM67,168h378v1h-378zM66,169h380v1h-380zM65,170h382v1h-382zM65,171h382v1h-382zM64,172h384v1h-384zM63,173h386v1h-386zM62,174h388v1h-388zM61,175h390v1h-390zM61,176h390v1h-390zM60,177h392v1h-392zM59,178h394v1h-394zM58,179h396v1h-396zM58,180h396v1h-396zM57,181h398v1h-398zM56,182h400v1h-400zM56,183h400v1h-400zM55,184h402v1h-402zM55,185h402v1h-402zM54,186h404v1h-404zM53,187h406v1h-406zM53,188h406v1h-406zM52,189h408v1h-408zM52,190h408v1h-408zM51,191h410v1h-410zM51,192h410v1h-410zM51,193h410v1h-410zM50,194h412v1h-412zM50,195h412v1h-412zM49,196h414v1h-414zM49,197h414v1h-414zM48,198h416v1h-416zM48,199h416v1h-416zM48,200h416v1h-416zM47,201h418v1h-418zM47,202h418v1h-418zM47,203h418v1h-418zM46,204h420v1h-420zM46,205h420v1h-420zM46,206h420v1h-420zM46,207h420v1h-420zM45,208h422v1h-422zM45,209h422v1h-422zM45,210h422v1h-422zM45,211h422v1h-422zM44,212h424v1h-424zM44,213h424v1h-424zM44,214h424v1h-424zM44,215h424v1h-424zM44,216h424v1h-424zM43,217h426v1h-426zM43,218h426v1h-426zM43,219h426v1h-426zM43,220h426v1h-426zM43,221h426v1h-426zM43,222h426v1h-426zM43,223h426v1h-426zM43,224h426v1h-426zM43,225h426v1h-426zM42,226h428v1h-428zM42,227h428v1h-428zM42,228h428v1h-428zM42,229h428v1h-428zM42,230h428v1h-428zM42,231h428v1h-428zM42,232h428v1h-428zM42,233h428v1h-428zM42,234h428v1h-428zM42,235h428v1h-428zM42,236h428v1h-428zM42,237h428v1h-428zM42,238h428v1h-428zM42,239h428v1h-428zM42,240h428v1h-428zM42,241h428v1h-428zM42,242h428v1h-428zM42,243h428v1h-428zM42,244h428v1h-428zM42,245h428v1h-428zM42,246h428v1h-428zM42,247h428v1h-428zM42,248h428v1h-428zM42,249h428v1h-428zM42,250h428v1h-428zM42,251h428v1h-428zM42,252h428v1h-428zM42,253h428v1h-428zM42,254h428v1h-428zM42,255h428v1h-428zM42,256h428v1h-428zM42,257h428v1h-428zM42,258h428v1h-428zM42,259h428v1h-428zM42,260h428v1h-428zM42,261h428v1h-428zM42,262h428v1h-428zM42,263h428v1h-428zM42,264h428v1h-428zM42,265h428v1h-428zM42,266h428v1h-428zM42,267h428v1h-428zM42,268h428v1h-428zM42,269h428v1h-428zM42,270h428v1h-428zM42,271h428v1h-428zM42,272h428v1h-428zM42,273h428v1h-428zM42,274h428v1h-428zM42,275h428v1h-428zM42,276h428v1h-428zM42,277h428v1h-428zM42,278h428v1h-428zM42,279h428v1h-428zM42,280h428v1h-428zM42,281h428v1h-428zM42,282h428v1h-428zM42,283h428v1h-428zM42,284h428v1h-428zM42,285h428v1h-428zM42,286h428v1h-428zM42,287h428v1h-428zM42,288h428v1h-428zM42,289h428v1h-428zM42,290h428v1h-428zM42,291h428v1h-428zM42,292h428v1h-428zM42,293h428v1h-428zM42,294h428v1h-428zM42,295h428v1h-428zM42,296h428v1h-428zM42,297h428v1h-428zM42,298h428v1h-428zM42,299h428v1h-428zM42,300h428v1h-428zM42,301h428v1h-428zM42,302h428v1h-428zM42,303h428v1h-428zM42,304h428v1h-428zM42,305h428v1h-428zM42,306h428v1h-428zM42,307h428v1h-428zM42,308h428v1h-428zM42,309h428v1h-428zM42,310h428v1h-428zM42,311h208v1h-208zM262,311h208v1h-208zM42,312h203v1h-203zM267,312h203v1h-203zM42,313h200v1h-200zM270,313h200v1h-200zM42,314h198v1h-198zM272,314h198v1h-198zM42,315h196v1h-196zM274,315h196v1h-196zM42,316h194v1h-194zM276,316h194v1h-194zM42,317h192v1h-192zM278,317h192v1h-192zM42,318h191v1h-191zM279,318h191v1h-191zM42,319h190v1h-190zM280,319h190v1h-190zM42,320h188v1h-188zM282,320h188v1h-188zM42,321h187v1h-187zM283,321h187v1h-187zM42,322h186v1h-186zM284,322h186v1h-186zM42,323h185v1h-185zM285,323h185v1h-185zM42,324h184v1h-184zM286,324h184v1h-184zM42,325h183v1h-183zM287,325h183v1h-183zM42,326h182v1h-182zM288,326h182v1h-182zM42,327h182v1h-182zM288,327h182v1h-182zM42,328h181v1h-181zM289,328h181v1h-181zM42,329h180v1h-180zM290,329h180v1h-180zM42,330h179v1h-179zM291,330h179v1h-179zM42,331h179v1h-179zM291,331h179v1h-179zM42,332h178v1h-178zM292,332h178v1h-178zM42,333h178v1h-178zM292,333h178v1h-178zM42,334h177v1h-177zM293,334h177v1h-177zM42,335h177v1h-177zM293,335h177v1h-177zM42,336h176v1h-176zM294,336h176v1h-176zM42,337h176v1h-176zM294,337h176v1h-176zM42,338h175v1h-175zM295,338h175v1h-175zM42,339h175v1h-175zM295,339h175v1h-175zM42,340h175v1h-175zM295,340h175v1h-175zM42,341h174v1h-174zM296,341h174v1h-174zM42,342h174v1h-174zM296,342h174v1h-174zM42,343h174v1h-174zM296,343h174v1h-174zM42,344h173v1h-173zM297,344h173v1h-173zM42,345h173v1h-173zM297,345h173v1h-173zM42,346h173v1h-173zM297,346h173v1h-173zM42,347h173v1h-173zM297,347h173v1h-173zM42,348h172v1h-172zM298,348h172v1h-172zM42,349h172v1h-172zM298,349h172v1h-172zM42,350h172v1h-172zM298,350h172v1h-172zM42,351h172v1h-172zM298,351h172v1h-172zM42,352h172v1h-172zM298,352h172v1h-172zM42,353h172v1h-172zM298,353h172v1h-172zM42,354h172v1h-172zM298,354h172v1h-172zM42,355h172v1h-172zM298,355h172v1h-172zM42,356h172v1h-172zM298,356h172v1h-172zM42,357h172v1h-172zM298,357h172v1h-172zM42,358h172v1h-172zM298,358h172v1h-172zM42,359h172v1h-172zM298,359h172v1h-172zM42,360h172v1h-172zM298,360h172v1h-172zM42,361h172v1h-172zM298,361h172v1h-172zM42,362h172v1h-172zM298,362h172v1h-172zM42,363h172v1h-172zM298,363h172v1h-172zM42,364h172v1h-172zM298,364h172v1h-172zM42,365h172v1h-172zM298,365h172v1h-172zM42,366h172v1h-172zM298,366h172v1h-172zM42,367h172v1h-172zM298,367h172v1h-172zM42,368h172v1h-172zM298,368h172v1h-172zM42,369h172v1h-172zM298,369h172v1h-172zM42,370h172v1h-172zM298,370h172v1h-172zM42,371h172v1h-172zM298,371h172v1h-172zM42,372h172v1h-172zM298,372h172v1h-172zM42,373h172v1h-172zM298,373h172v1h-172zM42,374h172v1h-172zM298,374h172v1h-172zM42,375h172v1h-172zM298,375h172v1h-172zM42,376h172v1h-172zM298,376h172v1h-172zM42,377h172v1h-172zM298,377h172v1h-172zM42,378h172v1h-172zM298,378h172v1h-172zM42,379h172v1h-172zM298,379h172v1h-172zM42,380h172v1h-172zM298,380h172v1h-172zM42,381h172v1h-172zM298,381h172v1h-172zM42,382h172v1h-172zM298,382h172v1h-172zM42,383h172v1h-172zM298,383h172v1h-172zM42,384h172v1h-172zM298,384h172v1h-172zM42,385h172v1h-172zM298,385h172v1h-172zM43,386h171v1h-171zM298,386h171v1h-171zM43,387h171v1h-171zM298,387h171v1h-171zM43,388h171v1h-171zM298,388h171v1h-171zM43,389h171v1h-171zM298,389h171v1h-171zM43,390h171v1h-171zM298,390h171v1h-171zM43,391h171v1h-171zM298,391h171v1h-171zM43,392h171v1h-171zM298,392h171v1h-171zM43,393h171v1h-171zM298,393h171v1h-171zM43,394h171v1h-171zM298,394h171v1h-171zM44,395h170v1h-170zM298,395h170v1h-170zM44,396h170v1h-170zM298,396h170v1h-170zM44,397h170v1h-170zM298,397h170v1h-170zM44,398h170v1h-170zM298,398h170v1h-170zM44,399h170v1h-170zM298,399h170v1h-170zM45,400h169v1h-169zM298,400h169v1h-169zM45,401h169v1h-169zM298,401h169v1h-169zM45,402h169v1h-169zM298,402h169v1h-169zM45,403h169v1h-169zM298,403h169v1h-169zM46,404h168v1h-168zM298,404h168v1h-168zM46,405h168v1h-168zM298,405h168v1h-168zM46,406h168v1h-168zM298,406h168v1h-168zM46,407h168v1h-168zM298,407h168v1h-168zM47,408h167v1h-167zM298,408h167v1h-167zM47,409h167v1h-167zM298,409h167v1h-167zM47,410h167v1h-167zM298,410h167v1h-167zM48,411h166v1h-166zM298,411h166v1h-166zM48,412h166v1h-166zM298,412h166v1h-166zM49,413h165v1h-165zM298,413h165v1h-165zM49,414h165v1h-165zM298,414h165v1h-165zM49,415h165v1h-165zM298,415h165v1h-165zM50,416h164v1h-164zM298,416h164v1h-164zM50,417h164v1h-164zM298,417h164v1h-164zM51,418h163v1h-163zM298,418h163v1h-163zM51,419h163v1h-163zM298,419h163v1h-163zM52,420h162v1h-162zM298,420h162v1h-162zM52,421h162v1h-162zM298,421h162v1h-162zM53,422h161v1h-161zM298,422h161v1h-161zM53,423h161v1h-161zM298,423h161v1h-161zM54,424h160v1h-160zM298,424h160v1h-160zM54,425h160v1h-160zM298,425h160v1h-160zM55,426h159v1h-159zM298,426h159v1h-159zM55,427h159v1h-159zM298,427h159v1h-159zM56,428h158v1h-158zM298,428h158v1h-158zM57,429h157v1h-157zM298,429h157v1h-157zM57,430h157v1h-157zM298,430h157v1h-157zM58,431h155v1h-155zM299,431h155v1h-155zM59,432h154v1h-154zM299,432h154v1h-154zM59,433h154v1h-154zM299,433h154v1h-154zM60,434h153v1h-153zM299,434h153v1h-153zM61,435h152v1h-152zM299,435h152v1h-152zM61,436h152v1h-152zM299,436h152v1h-152zM62,437h150v1h-150zM300,437h150v1h-150zM63,438h149v1h-149zM300,438h149v1h-149zM64,439h148v1h-148zM300,439h148v1h-148zM65,440h146v1h-146zM301,440h146v1h-146zM66,441h145v1h-145zM301,441h145v1h-145zM67,442h144v1h-144zM301,442h144v1h-144zM67,443h143v1h-143zM302,443h143v1h-143zM68,444h142v1h-142zM302,444h142v1h-142zM69,445h140v1h-140zM303,445h140v1h-140zM70,446h139v1h-139zM303,446h138v1h-138zM72,447h136v1h-136zM304,447h136v1h-136zM73,448h135v1h-135zM304,448h135v1h-135zM74,449h133v1h-133zM305,449h133v1h-133zM75,450h131v1h-131zM306,450h131v1h-131zM76,451h130v1h-130zM306,451h130v1h-130zM78,452h127v1h-127zM307,452h127v1h-127zM79,453h125v1h-125zM308,453h125v1h-125zM80,454h123v1h-123zM309,454h123v1h-123zM82,455h121v1h-121zM309,455h121v1h-121zM83,456h119v1h-119zM310,456h119v1h-119zM85,457h116v1h-116zM311,457h116v1h-116zM86,458h114v1h-114zM312,458h114v1h-114zM88,459h110v1h-110zM314,459h110v1h-110zM90,460h107v1h-107zM315,460h107v1h-107zM92,461h104v1h-104zM316,461h104v1h-104zM94,462h100v1h-100zM318,462h100v1h-100zM97,463h96v1h-96zM319,463h96v1h-96zM99,464h92v1h-92zM321,464h92v1h-92zM102,465h87v1h-87zM323,465h87v1h-87zM105,466h82v1h-82zM325,466h82v1h-82zM109,467h75v1h-75zM328,467h75v1h-75zM114,468h67v1h-67zM331,468h67v1h-67zM122,469h53v1h-53zM337,469h53v1h-53z"/></svg>