<svg xmlns="http://www.w3.org/2000/svg" viewBox="0 0 512 512" width="512" height="512" preserveAspectRatio="xMidYMid meet"><path d="M20 120L492 120L492 121L495 121L495 122L497 122L497 123L499 123L499 124L500 124L500 125L502 125L502 126L503 126L503 127L504 127L504 128L505 128L505 129L506 129L506 130L507 130L507 132L508 132L508 133L509 133L509 135L510 135L510 137L511 137L511 140L512 140L512 154L511 154L511 157L510 157L510 160L509 160L509 162L508 162L508 163L507 163L507 164L506 164L506 166L505 166L505 167L504 167L504 168L503 168L503 169L501 169L501 170L500 170L500 171L498 171L498 172L496 172L496 173L494 173L494 174L490 174L490 175L22 175L22 174L18 174L18 173L16 173L16 172L14 172L14 171L12 171L12 170L11 170L11 169L9 169L9 168L8 168L8 167L7 167L7 166L6 166L6 164L5 164L5 163L4 163L4 162L3 162L3 160L2 160L2 157L1 157L1 154L0 154L0 140L1 140L1 137L2 137L2 135L3 135L3 133L4 133L4 132L5 132L5 130L6 130L6 129L7 129L7 128L8 128L8 127L9 127L9 126L10 126L10 125L12 125L12 124L13 124L13 123L15 123L15 122L17 122L17 121L20 121Z M23 229L489 229L489 230L493 230L493 231L496 231L496 232L498 232L498 233L500 233L500 234L501 234L501 235L502 235L502 236L504 236L504 237L505 237L505 239L506 239L506 240L507 240L507 241L508 241L508 243L509 243L509 244L510 244L510 247L511 247L511 250L512 250L512 264L511 264L511 267L510 267L510 269L509 269L509 271L508 271L508 273L507 273L507 274L506 274L506 275L505 275L505 276L504 276L504 277L503 277L503 278L502 278L502 279L501 279L501 280L499 280L499 281L497 281L497 282L495 282L495 283L492 283L492 284L487 284L487 285L25 285L25 284L20 284L20 283L17 283L17 282L15 282L15 281L13 281L13 280L11 280L11 279L10 279L10 278L9 278L9 277L8 277L8 276L7 276L7 275L6 275L6 274L5 274L5 273L4 273L4 271L3 271L3 269L2 269L2 267L1 267L1 264L0 264L0 250L1 250L1 247L2 247L2 245L3 245L3 243L4 243L4 241L5 241L5 240L6 240L6 239L7 239L7 237L8 237L8 236L10 236L10 235L11 235L11 234L12 234L12 233L14 233L14 232L16 232L16 231L19 231L19 230L23 230Z M22 337L490 337L490 338L494 338L494 339L496 339L496 340L498 340L498 341L500 341L500 342L501 342L501 343L503 343L503 344L504 344L504 345L505 345L505 346L506 346L506 348L507 348L507 349L508 349L508 350L509 350L509 352L510 352L510 355L511 355L511 358L512 358L512 372L511 372L511 375L510 375L510 377L509 377L509 379L508 379L508 380L507 380L507 382L506 382L506 383L505 383L505 384L504 384L504 385L503 385L503 386L502 386L502 387L500 387L500 388L499 388L499 389L497 389L497 390L495 390L495 391L492 391L492 392L20 392L20 391L17 391L17 390L15 390L15 389L13 389L13 388L12 388L12 387L10 387L10 386L9 386L9 385L8 385L8 384L7 384L7 383L6 383L6 382L5 382L5 380L4 380L4 379L3 379L3 377L2 377L2 375L1 375L1 372L0 372L0 358L1 358L1 355L2 355L2 352L3 352L3 350L4 350L4 349L5 349L5 348L6 348L6 346L7 346L7 345L8 345L8 344L9 344L9 343L11 343L11 342L12 342L12 341L14 341L14 340L16 340L16 339L18 339L18 338L22 338Z" fill="#000000" fill-rule="evenodd"/></svg>