<svg xmlns="http://www.w3.org/2000/svg" viewBox="0 0 512 512" width="512" height="512"><path fill="#000" d="M239,0h34v1h-34zM239,1h34v1h-34zM239,2h34v1h-34zM236,3h40v1h-40zM234,4h44v1h-44zM232,5h48v1h-48zM230,6h52v1h-52zM228,7h56v1h-56zM226,8h60v1h-60zM225,9h62v1h-62zM224,10h64v1h-64zM222,11h68v1h-68zM221,12h70v1h-70zM220,13h72v1h-72zM219,14h74v1h-74zM218,15h76v1h-76zM217,16h78v1h-78zM216,17h80v1h-80zM215,18h82v1h-82zM214,19h84v1h-84zM214,20h84v1h-84zM213,21h86v1h-86zM212,22h88v1h-88zM211,23h90v1h-90zM211,24h90v1h-90zM210,25h92v1h-92zM210,26h92v1h-92zM209,27h94v1h-94zM208,28h96v1h-96zM208,29h96v1h-96zM207,30h98v1h-98zM207,31h98v1h-98zM206,32h99v1h-99zM206,33h100v1h-100zM206,34h100v1h-100zM205,35h102v1h-102zM205,36h102v1h-102zM205,37h102v1h-102zM204,38h104v1h-104zM204,39h104v1h-104zM204,40h104v1h-104zM204,41h104v1h-104zM203,42h106v1h-106zM203,43h106v1h-106zM203,44h106v1h-106zM203,45h106v1h-106zM203,46h106v1h-106zM203,47h106v1h-106zM203,48h106v1h-106zM202,49h108v1h-108zM202,50h108v1h-108zM202,51h108v1h-108zM202,52h108v1h-108zM202,53h108v1h-108zM202,54h108v1h-108zM202,55h108v1h-108zM202,56h108v1h-108zM202,57h108v1h-108zM203,58h106v1h-106zM203,59h106v1h-106zM203,60h106v1h-106zM203,61h106v1h-106zM203,62h106v1h-106zM203,63h106v1h-106zM203,64h106v1h-106zM204,65h104v1h-104zM204,66h104v1h-104zM204,67h104v1h-104zM205,68h102v1h-102zM205,69h102v1h-102zM205,70h102v1h-102zM206,71h100v1h-100zM206,72h100v1h-100zM206,73h100v1h-100zM207,74h98v1h-98zM207,75h98v1h-98zM208,76h96v1h-96zM208,77h96v1h-96zM209,78h94v1h-94zM209,79h94v1h-94zM210,80h92v1h-92zM210,81h92v1h-92zM211,82h90v1h-90zM212,83h88v1h-88zM212,84h88v1h-88zM213,85h86v1h-86zM214,86h84v1h-84zM215,87h82v1h-82zM216,88h81v1h-81zM216,89h80v1h-80zM217,90h78v1h-78zM218,91h76v1h-76zM219,92h74v1h-74zM220,93h72v1h-72zM222,94h68v1h-68zM223,95h66v1h-66zM224,96h64v1h-64zM225,97h61v1h-61zM227,98h58v1h-58zM229,99h54v1h-54zM230,100h52v1h-52zM232,101h48v1h-48zM234,102h44v1h-44zM237,103h38v1h-38zM240,104h32v1h-32zM243,105h26v1h-26zM249,106h14v1h-14zM252,202h8v1h-8zM245,203h22v1h-22zM241,204h30v1h-30zM238,205h36v1h-36zM235,206h42v1h-42zM233,207h46v1h-46zM231,208h50v1h-50zM229,209h54v1h-54zM228,210h56v1h-56zM226,211h60v1h-60zM225,212h62v1h-62zM223,213h66v1h-66zM222,214h68v1h-68zM221,215h70v1h-70zM220,216h72v1h-72zM219,217h74v1h-74zM218,218h76v1h-76zM217,219h78v1h-78zM216,220h80v1h-80zM215,221h82v1h-82zM214,222h84v1h-84zM213,223h86v1h-86zM213,224h86v1h-86zM212,225h88v1h-88zM211,226h90v1h-90zM211,227h90v1h-90zM210,228h92v1h-92zM209,229h94v1h-94zM209,230h94v1h-94zM208,231h96v1h-96zM208,232h96v1h-96zM207,233h98v1h-98zM207,234h98v1h-98zM206,235h100v1h-100zM206,236h100v1h-100zM206,237h100v1h-100zM205,238h102v1h-102zM205,239h102v1h-102zM205,240h102v1h-102zM204,241h104v1h-104zM204,242h104v1h-104zM204,243h104v1h-104zM204,244h104v1h-104zM203,245h106v1h-106zM203,246h106v1h-106zM203,247h106v1h-106zM203,248h106v1h-106zM203,249h106v1h-106zM203,250h106v1h-106zM203,251h106v1h-106zM202,252h108v1h-108zM202,253h108v1h-108zM202,254h108v1h-108zM202,255h108v1h-108zM202,256h108v1h-108zM202,257h108v1h-108zM202,258h108v1h-108zM202,259h108v1h-108zM203,260h106v1h-106zM203,261h106v1h-106zM203,262h106v1h-106zM203,263h106v1h-106zM203,264h106v1h-106zM203,265h106v1h-106zM203,266h106v1h-106zM204,267h104v1h-104zM204,268h104v1h-104zM204,269h104v1h-104zM204,270h104v1h-104zM205,271h102v1h-102zM205,272h102v1h-102zM205,273h102v1h-102zM206,274h100v1h-100zM206,275h100v1h-100zM206,276h100v1h-100zM207,277h98v1h-98zM207,278h98v1h-98zM208,279h96v1h-96zM208,280h96v1h-96zM209,281h94v1h-94zM209,282h94v1h-94zM210,283h92v1h-92zM211,284h90v1h-90zM211,285h90v1h-90zM212,286h88v1h-88zM213,287h86v1h-86zM213,288h86v1h-86zM214,289h84v1h-84zM215,290h82v1h-82zM216,291h80v1h-80zM217,292h78v1h-78zM218,293h76v1h-76zM219,294h74v1h-74zM220,295h72v1h-72zM221,296h70v1h-70zM222,297h68v1h-68zM223,298h66v1h-66zM225,299h62v1h-62zM226,300h60v1h-60zM228,301h56v1h-56zM229,302h54v1h-54zM231,303h50v1h-50zM233,304h46v1h-46zM235,305h42v1h-42zM238,306h36v1h-36zM241,307h30v1h-30zM245,308h22v1h-22zM252,309h8v1h-8zM249,405h14v1h-14zM243,406h26v1h-26zM240,407h32v1h-32zM237,408h38v1h-38zM234,409h44v1h-44zM232,410h48v1h-48zM230,411h52v1h-52zM229,412h54v1h-54zM227,413h58v1h-58zM225,414h62v1h-62zM224,415h64v1h-64zM223,416h66v1h-66zM222,417h68v1h-68zM220,418h72v1h-72zM219,419h74v1h-74zM218,420h76v1h-76zM217,421h78v1h-78zM216,422h80v1h-80zM215,423h82v1h-82zM215,424h82v1h-82zM214,425h84v1h-84zM213,426h86v1h-86zM212,427h88v1h-88zM212,428h88v1h-88zM211,429h90v1h-90zM210,430h92v1h-92zM210,431h92v1h-92zM209,432h94v1h-94zM209,433h94v1h-94zM208,434h96v1h-96zM208,435h96v1h-96zM207,436h98v1h-98zM207,437h98v1h-98zM206,438h100v1h-100zM206,439h100v1h-100zM206,440h100v1h-100zM205,441h102v1h-102zM205,442h102v1h-102zM205,443h102v1h-102zM204,444h104v1h-104zM204,445h104v1h-104zM204,446h104v1h-104zM203,447h106v1h-106zM203,448h106v1h-106zM203,449h106v1h-106zM203,450h106v1h-106zM203,451h106v1h-106zM203,452h106v1h-106zM203,453h106v1h-106zM202,454h108v1h-108zM202,455h108v1h-108zM202,456h108v1h-108zM202,457h108v1h-108zM202,458h108v1h-108zM202,459h108v1h-108zM202,460h108v1h-108zM202,461h108v1h-108zM202,462h108v1h-108zM203,463h106v1h-106zM203,464h106v1h-106zM203,465h106v1h-106zM203,466h106v1h-106zM203,467h106v1h-106zM203,468h106v1h-106zM203,469h106v1h-106zM204,470h104v1h-104zM204,471h104v1h-104zM204,472h104v1h-104zM204,473h104v1h-104zM205,474h102v1h-102zM205,475h102v1h-102zM205,476h102v1h-102zM206,477h100v1h-100zM206,478h100v1h-100zM207,479h98v1h-98zM207,480h98v1h-98zM207,481h98v1h-98zM208,482h96v1h-96zM208,483h96v1h-96zM209,484h94v1h-94zM210,485h92v1h-92zM210,486h92v1h-92zM211,487h90v1h-90zM211,488h90v1h-90zM212,489h88v1h-88zM213,490h86v1h-86zM214,491h84v1h-84zM214,492h84v1h-84zM215,493h82v1h-82zM216,494h80v1h-80zM217,495h78v1h-78zM218,496h76v1h-76zM219,497h74v1h-74zM220,498h72v1h-72zM221,499h70v1h-70zM222,500h68v1h-68zM224,501h64v1h-64zM225,502h62v1h-62zM227,503h59v1h-59zM228,504h56v1h-56zM230,505h52v1h-52zM232,506h48v1h-48zM234,507h44v1h-44zM236,508h40v1h-40zM239,509h34v1h-34zM239,510h34v1h-34zM239,511h34v1h-34z"/></svg>