<?xml version="1.0" standalone="no"?>
<!DOCTYPE svg PUBLIC "-//W3C//DTD SVG 20010904//EN"
 "http://www.w3.org/TR/2001/REC-SVG-20010904/DTD/svg10.dtd">
<svg version="1.0" xmlns="http://www.w3.org/2000/svg"
 width="512px" height="512px" viewBox="0 0 512.000000 512.000000"
 preserveAspectRatio="xMidYMid meet">
<metadata>
Created by potrace 1.16, written by Peter Selinger 2001-2019
</metadata>
<g transform="translate(0.000000,512.000000) scale(0.100000,-0.100000)"
fill="#000000" stroke="none">
<path d="M2458 5106 c-1 -2 -46 -6 -98 -10 -732 -52 -1430 -440 -1856 -1031
-32 -44 -61 -82 -64 -85 -23 -20 -175 -299 -223 -410 -8 -19 -24 -55 -34 -80
-31 -69 -100 -294 -119 -385 -43 -209 -63 -418 -58 -605 4 -116 6 -152 20
-285 6 -66 30 -192 50 -268 9 -34 18 -71 20 -82 10 -54 82 -252 126 -350 46
-100 51 -118 54 -195 6 -185 -91 -576 -232 -930 -65 -166 -44 -277 70 -355
l51 -35 1355 0 c854 1 1373 5 1405 11 28 5 68 12 90 15 58 8 227 50 320 79
736 233 1334 791 1613 1505 49 126 124 386 136 475 3 22 10 65 16 95 6 30 13
170 15 310 5 249 3 281 -31 510 -54 366 -264 826 -523 1148 -441 547 -1042
871 -1759 947 -60 6 -338 15 -344 11z m352 -520 c14 -2 59 -10 100 -16 279
-41 624 -186 865 -365 444 -328 761 -853 821 -1360 3 -27 9 -76 13 -107 9 -67
7 -328 -3 -413 -13 -104 -23 -167 -38 -220 -5 -22 -12 -51 -15 -65 -22 -128
-169 -465 -269 -617 -93 -140 -277 -348 -383 -433 -24 -19 -48 -39 -55 -45
-102 -91 -355 -241 -496 -296 -148 -57 -390 -124 -490 -134 -25 -3 -67 -8 -95
-12 -48 -6 -2123 -13 -2136 -7 -3 2 11 61 33 131 50 164 81 297 103 438 3 22
9 49 12 59 3 10 7 76 8 147 4 172 -13 256 -80 404 -46 102 -53 118 -79 193
-131 370 -149 803 -50 1192 90 357 299 715 563 964 69 66 67 64 126 111 27 22
56 46 64 53 12 12 96 68 189 126 167 105 505 231 672 252 19 3 46 7 60 9 14 3
52 8 85 11 33 4 62 8 64 10 5 5 382 -4 411 -10z M2470 3294 c-125 -54 -154
-113 -159 -322 -2 -111 -7 -165 -15 -167 -6 -2 -81 -5 -166 -7 -135 -3 -160
-7 -196 -26 -184 -96 -176 -368 13 -454 40 -19 68 -23 178 -25 72 -1 142 -2
157 -2 l26 -1 4 -162 c3 -177 10 -203 67 -265 118 -130 334 -96 412 65 22 43
24 60 24 204 0 133 2 158 15 159 8 0 80 1 160 3 110 2 155 7 185 20 162 69
203 286 79 410 -62 62 -91 70 -269 74 -88 2 -162 6 -164 8 -2 2 -5 75 -6 161
-2 175 -9 202 -76 271 -63 66 -186 92 -269 56z"/>
</g>
</svg>
