<svg xmlns="http://www.w3.org/2000/svg" viewBox="0 0 512 512" width="512" height="512"><path fill="#000" d="M245,4h22v1h-22zM241,5h31v1h-31zM237,6h38v1h-38zM233,7h46v1h-46zM231,8h50v1h-50zM228,9h56v1h-56zM226,10h60v1h-60zM224,11h64v1h-64zM222,12h68v1h-68zM221,13h71v1h-71zM219,14h74v1h-74zM217,15h78v1h-78zM216,16h80v1h-80zM215,17h82v1h-82zM213,18h86v1h-86zM212,19h88v1h-88zM211,20h90v1h-90zM210,21h92v1h-92zM209,22h94v1h-94zM208,23h96v1h-96zM207,24h98v1h-98zM206,25h100v1h-100zM205,26h102v1h-102zM204,27h104v1h-104zM203,28h106v1h-106zM202,29h108v1h-108zM201,30h110v1h-110zM201,31h110v1h-110zM200,32h112v1h-112zM199,33h114v1h-114zM198,34h116v1h-116zM198,35h116v1h-116zM197,36h118v1h-118zM197,37h118v1h-118zM196,38h120v1h-120zM195,39h122v1h-122zM195,40h122v1h-122zM194,41h124v1h-124zM194,42h124v1h-124zM193,43h126v1h-126zM193,44h126v1h-126zM192,45h128v1h-128zM192,46h128v1h-128zM192,47h60v1h-60zM260,47h60v1h-60zM191,48h57v1h-57zM264,48h57v1h-57zM191,49h54v1h-54zM267,49h54v1h-54zM191,50h52v1h-52zM269,50h52v1h-52zM190,51h52v1h-52zM270,51h52v1h-52zM190,52h50v1h-50zM272,52h50v1h-50zM190,53h49v1h-49zM273,53h49v1h-49zM189,54h49v1h-49zM274,54h49v1h-49zM189,55h48v1h-48zM275,55h48v1h-48zM189,56h47v1h-47zM276,56h47v1h-47zM188,57h47v1h-47zM277,57h47v1h-47zM188,58h47v1h-47zM277,58h47v1h-47zM188,59h46v1h-46zM278,59h46v1h-46zM187,60h46v1h-46zM279,60h46v1h-46zM187,61h46v1h-46zM279,61h46v1h-46zM187,62h45v1h-45zM280,62h45v1h-45zM186,63h46v1h-46zM280,63h46v1h-46zM186,64h46v1h-46zM280,64h46v1h-46zM186,65h45v1h-45zM281,65h45v1h-45zM185,66h46v1h-46zM281,66h46v1h-46zM185,67h46v1h-46zM281,67h46v1h-46zM185,68h45v1h-45zM282,68h45v1h-45zM184,69h46v1h-46zM282,69h46v1h-46zM184,70h46v1h-46zM282,70h46v1h-46zM184,71h45v1h-45zM283,71h45v1h-45zM183,72h46v1h-46zM283,72h46v1h-46zM183,73h46v1h-46zM283,73h46v1h-46zM183,74h45v1h-45zM284,74h45v1h-45zM182,75h46v1h-46zM284,75h46v1h-46zM182,76h46v1h-46zM284,76h46v1h-46zM182,77h45v1h-45zM285,77h45v1h-45zM182,78h45v1h-45zM285,78h45v1h-45zM181,79h46v1h-46zM285,79h46v1h-46zM181,80h45v1h-45zM286,80h45v1h-45zM181,81h45v1h-45zM286,81h45v1h-45zM180,82h46v1h-46zM286,82h46v1h-46zM180,83h46v1h-46zM287,83h45v1h-45zM180,84h45v1h-45zM287,84h45v1h-45zM179,85h46v1h-46zM287,85h46v1h-46zM179,86h46v1h-46zM287,86h46v1h-46zM179,87h45v1h-45zM288,87h45v1h-45zM178,88h46v1h-46zM288,88h46v1h-46zM178,89h46v1h-46zM288,89h46v1h-46zM178,90h45v1h-45zM289,90h45v1h-45zM177,91h46v1h-46zM289,91h46v1h-46zM177,92h46v1h-46zM289,92h46v1h-46zM177,93h45v1h-45zM290,93h45v1h-45zM176,94h46v1h-46zM290,94h46v1h-46zM176,95h46v1h-46zM290,95h46v1h-46zM176,96h45v1h-45zM291,96h45v1h-45zM175,97h46v1h-46zM291,97h46v1h-46zM175,98h46v1h-46zM291,98h46v1h-46zM175,99h45v1h-45zM292,99h45v1h-45zM174,100h46v1h-46zM292,100h46v1h-46zM174,101h46v1h-46zM292,101h46v1h-46zM174,102h45v1h-45zM293,102h45v1h-45zM173,103h46v1h-46zM293,103h46v1h-46zM173,104h46v1h-46zM293,104h46v1h-46zM173,105h45v1h-45zM294,105h45v1h-45zM173,106h45v1h-45zM294,106h45v1h-45zM172,107h46v1h-46zM294,107h46v1h-46zM172,108h46v1h-46zM295,108h45v1h-45zM172,109h45v1h-45zM295,109h45v1h-45zM171,110h46v1h-46zM295,110h46v1h-46zM171,111h46v1h-46zM296,111h45v1h-45zM171,112h45v1h-45zM296,112h45v1h-45zM170,113h46v1h-46zM296,113h46v1h-46zM170,114h46v1h-46zM296,114h46v1h-46zM170,115h45v1h-45zM297,115h45v1h-45zM169,116h46v1h-46zM297,116h46v1h-46zM169,117h46v1h-46zM297,117h46v1h-46zM169,118h45v1h-45zM298,118h45v1h-45zM168,119h46v1h-46zM298,119h46v1h-46zM168,120h46v1h-46zM298,120h46v1h-46zM168,121h45v1h-45zM299,121h45v1h-45zM167,122h46v1h-46zM299,122h46v1h-46zM167,123h46v1h-46zM299,123h46v1h-46zM167,124h45v1h-45zM300,124h45v1h-45zM166,125h46v1h-46zM300,125h46v1h-46zM166,126h46v1h-46zM300,126h46v1h-46zM166,127h45v1h-45zM301,127h45v1h-45zM165,128h46v1h-46zM301,128h46v1h-46zM165,129h46v1h-46zM301,129h46v1h-46zM165,130h45v1h-45zM302,130h45v1h-45zM165,131h45v1h-45zM302,131h45v1h-45zM164,132h46v1h-46zM302,132h46v1h-46zM164,133h45v1h-45zM303,133h45v1h-45zM164,134h45v1h-45zM303,134h45v1h-45zM163,135h46v1h-46zM303,135h46v1h-46zM163,136h46v1h-46zM304,136h45v1h-45zM163,137h45v1h-45zM304,137h45v1h-45zM162,138h46v1h-46zM304,138h46v1h-46zM162,139h46v1h-46zM304,139h46v1h-46zM59,140h148v1h-148zM305,140h149v1h-149zM54,141h153v1h-153zM305,141h154v1h-154zM50,142h157v1h-157zM305,142h158v1h-158zM47,143h159v1h-159zM306,143h160v1h-160zM44,144h162v1h-162zM306,144h163v1h-163zM41,145h165v1h-165zM306,145h165v1h-165zM39,146h166v1h-166zM307,146h166v1h-166zM37,147h168v1h-168zM307,147h168v1h-168zM35,148h170v1h-170zM307,148h170v1h-170zM34,149h170v1h-170zM308,149h171v1h-171zM32,150h172v1h-172zM308,150h172v1h-172zM31,151h173v1h-173zM308,151h174v1h-174zM29,152h174v1h-174zM309,152h174v1h-174zM28,153h175v1h-175zM309,153h176v1h-176zM26,154h177v1h-177zM309,154h177v1h-177zM25,155h177v1h-177zM310,155h177v1h-177zM24,156h178v1h-178zM310,156h179v1h-179zM23,157h179v1h-179zM310,157h180v1h-180zM22,158h179v1h-179zM311,158h180v1h-180zM21,159h180v1h-180zM311,159h181v1h-181zM20,160h181v1h-181zM311,160h182v1h-182zM19,161h182v1h-182zM312,161h182v1h-182zM18,162h182v1h-182zM312,162h183v1h-183zM17,163h183v1h-183zM312,163h184v1h-184zM16,164h184v1h-184zM312,164h184v1h-184zM15,165h184v1h-184zM313,165h184v1h-184zM14,166h185v1h-185zM313,166h185v1h-185zM14,167h185v1h-185zM313,167h186v1h-186zM13,168h185v1h-185zM314,168h185v1h-185zM12,169h186v1h-186zM314,169h186v1h-186zM12,170h185v1h-185zM315,170h186v1h-186zM11,171h186v1h-186zM315,171h186v1h-186zM10,172h186v1h-186zM316,172h186v1h-186zM10,173h186v1h-186zM316,173h187v1h-187zM9,174h186v1h-186zM317,174h186v1h-186zM8,175h186v1h-186zM318,175h186v1h-186zM8,176h185v1h-185zM319,176h185v1h-185zM7,177h185v1h-185zM320,177h185v1h-185zM7,178h184v1h-184zM321,178h184v1h-184zM6,179h184v1h-184zM322,179h184v1h-184zM6,180h182v1h-182zM324,180h182v1h-182zM6,181h180v1h-180zM326,181h181v1h-181zM5,182h178v1h-178zM329,182h178v1h-178zM5,183h60v1h-60zM447,183h60v1h-60zM4,184h57v1h-57zM451,184h57v1h-57zM4,185h54v1h-54zM454,185h54v1h-54zM4,186h52v1h-52zM456,186h52v1h-52zM3,187h52v1h-52zM457,187h52v1h-52zM3,188h50v1h-50zM459,188h50v1h-50zM3,189h49v1h-49zM460,189h49v1h-49zM0,190h51v1h-51zM461,190h51v1h-51zM0,191h50v1h-50zM462,191h50v1h-50zM0,192h49v1h-49zM463,192h49v1h-49zM0,193h48v1h-48zM464,193h48v1h-48zM0,194h48v1h-48zM464,194h48v1h-48zM0,195h47v1h-47zM465,195h47v1h-47zM0,196h46v1h-46zM466,196h46v1h-46zM0,197h46v1h-46zM466,197h46v1h-46zM0,198h45v1h-45zM467,198h45v1h-45zM0,199h45v1h-45zM467,199h45v1h-45zM0,200h45v1h-45zM467,200h45v1h-45zM0,201h44v1h-44zM468,201h44v1h-44zM0,202h44v1h-44zM468,202h44v1h-44zM0,203h44v1h-44zM468,203h44v1h-44zM0,204h44v1h-44zM468,204h44v1h-44zM0,205h43v1h-43zM469,205h43v1h-43zM0,206h43v1h-43zM469,206h43v1h-43zM0,207h43v1h-43zM469,207h43v1h-43zM0,208h43v1h-43zM469,208h43v1h-43zM0,209h43v1h-43zM469,209h43v1h-43zM0,210h43v1h-43zM469,210h43v1h-43zM0,211h43v1h-43zM469,211h43v1h-43zM0,212h43v1h-43zM469,212h43v1h-43zM0,213h44v1h-44zM468,213h44v1h-44zM0,214h44v1h-44zM468,214h44v1h-44zM0,215h44v1h-44zM468,215h44v1h-44zM0,216h44v1h-44zM468,216h44v1h-44zM0,217h45v1h-45zM467,217h45v1h-45zM0,218h45v1h-45zM467,218h45v1h-45zM0,219h45v1h-45zM467,219h45v1h-45zM0,220h46v1h-46zM466,220h46v1h-46zM0,221h46v1h-46zM466,221h46v1h-46zM0,222h47v1h-47zM465,222h47v1h-47zM0,223h48v1h-48zM464,223h48v1h-48zM0,224h48v1h-48zM464,224h48v1h-48zM0,225h49v1h-49zM463,225h49v1h-49zM0,226h50v1h-50zM462,226h50v1h-50zM0,227h51v1h-51zM461,227h51v1h-51zM3,228h49v1h-49zM460,228h52v1h-52zM3,229h50v1h-50zM459,229h50v1h-50zM3,230h52v1h-52zM457,230h52v1h-52zM4,231h52v1h-52zM456,231h53v1h-53zM4,232h53v1h-53zM455,232h53v1h-53zM4,233h55v1h-55zM453,233h55v1h-55zM5,234h55v1h-55zM452,234h56v1h-56zM5,235h57v1h-57zM450,235h57v1h-57zM6,236h57v1h-57zM449,236h58v1h-58zM6,237h58v1h-58zM448,237h58v1h-58zM6,238h60v1h-60zM446,238h60v1h-60zM7,239h60v1h-60zM445,239h60v1h-60zM7,240h61v1h-61zM444,240h61v1h-61zM8,241h62v1h-62zM442,241h62v1h-62zM9,242h62v1h-62zM441,242h63v1h-63zM9,243h63v1h-63zM440,243h63v1h-63zM10,244h64v1h-64zM438,244h65v1h-65zM10,245h65v1h-65zM437,245h65v1h-65zM11,246h66v1h-66zM435,246h66v1h-66zM12,247h66v1h-66zM434,247h67v1h-67zM12,248h67v1h-67zM433,248h67v1h-67zM13,249h68v1h-68zM431,249h68v1h-68zM14,250h68v1h-68zM430,250h69v1h-69zM15,251h68v1h-68zM429,251h69v1h-69zM15,252h70v1h-70zM427,252h70v1h-70zM16,253h70v1h-70zM426,253h70v1h-70zM17,254h71v1h-71zM424,254h71v1h-71zM18,255h71v1h-71zM423,255h71v1h-71zM19,256h71v1h-71zM422,256h71v1h-71zM20,257h72v1h-72zM420,257h73v1h-73zM21,258h72v1h-72zM419,258h72v1h-72zM22,259h72v1h-72zM418,259h72v1h-72zM23,260h73v1h-73zM416,260h73v1h-73zM24,261h73v1h-73zM415,261h73v1h-73zM25,262h73v1h-73zM414,262h73v1h-73zM27,263h73v1h-73zM412,263h74v1h-74zM28,264h73v1h-73zM411,264h73v1h-73zM29,265h74v1h-74zM409,265h74v1h-74zM30,266h74v1h-74zM408,266h74v1h-74zM32,267h73v1h-73zM407,267h73v1h-73zM33,268h74v1h-74zM405,268h74v1h-74zM35,269h73v1h-73zM404,269h74v1h-74zM36,270h73v1h-73zM403,270h73v1h-73zM37,271h74v1h-74zM401,271h74v1h-74zM39,272h73v1h-73zM400,272h73v1h-73zM40,273h74v1h-74zM399,273h73v1h-73zM41,274h74v1h-74zM397,274h74v1h-74zM43,275h73v1h-73zM396,275h73v1h-73zM44,276h74v1h-74zM394,276h74v1h-74zM46,277h73v1h-73zM393,277h74v1h-74zM47,278h73v1h-73zM392,278h73v1h-73zM48,279h74v1h-74zM390,279h74v1h-74zM50,280h73v1h-73zM389,280h73v1h-73zM51,281h73v1h-73zM388,281h73v1h-73zM52,282h74v1h-74zM386,282h74v1h-74zM54,283h73v1h-73zM385,283h73v1h-73zM55,284h74v1h-74zM383,284h74v1h-74zM56,285h74v1h-74zM382,285h74v1h-74zM58,286h73v1h-73zM381,286h73v1h-73zM59,287h74v1h-74zM379,287h74v1h-74zM61,288h73v1h-73zM378,288h74v1h-74zM62,289h73v1h-73zM377,289h73v1h-73zM63,290h74v1h-74zM375,290h74v1h-74zM65,291h73v1h-73zM374,291h73v1h-73zM66,292h74v1h-74zM373,292h73v1h-73zM67,293h74v1h-74zM371,293h74v1h-74zM69,294h73v1h-73zM370,294h73v1h-73zM70,295h73v1h-73zM369,295h73v1h-73zM71,296h74v1h-74zM367,296h74v1h-74zM73,297h72v1h-72zM367,297h72v1h-72zM74,298h72v1h-72zM366,298h72v1h-72zM76,299h71v1h-71zM365,299h71v1h-71zM77,300h71v1h-71zM364,300h71v1h-71zM78,301h70v1h-70zM364,301h70v1h-70zM80,302h69v1h-69zM363,302h69v1h-69zM81,303h68v1h-68zM363,303h68v1h-68zM82,304h68v1h-68zM362,304h68v1h-68zM84,305h66v1h-66zM362,305h66v1h-66zM85,306h65v1h-65zM362,306h65v1h-65zM87,307h64v1h-64zM361,307h64v1h-64zM88,308h63v1h-63zM361,308h63v1h-63zM89,309h62v1h-62zM361,309h62v1h-62zM91,310h60v1h-60zM361,310h60v1h-60zM92,311h59v1h-59zM361,311h59v1h-59zM93,312h58v1h-58zM361,312h58v1h-58zM95,313h56v1h-56zM361,313h56v1h-56zM96,314h55v1h-55zM361,314h55v1h-55zM97,315h54v1h-54zM361,315h54v1h-54zM99,316h51v1h-51zM362,316h51v1h-51zM100,317h50v1h-50zM362,317h50v1h-50zM102,318h48v1h-48zM362,318h48v1h-48zM103,319h47v1h-47zM362,319h47v1h-47zM103,320h46v1h-46zM363,320h46v1h-46zM103,321h46v1h-46zM363,321h46v1h-46zM103,322h46v1h-46zM363,322h46v1h-46zM103,323h45v1h-45zM364,323h45v1h-45zM102,324h46v1h-46zM364,324h46v1h-46zM102,325h46v1h-46zM364,325h46v1h-46zM102,326h45v1h-45zM365,326h45v1h-45zM101,327h46v1h-46zM365,327h46v1h-46zM101,328h46v1h-46zM365,328h46v1h-46zM101,329h45v1h-45zM366,329h45v1h-45zM100,330h46v1h-46zM366,330h46v1h-46zM100,331h46v1h-46zM366,331h46v1h-46zM100,332h45v1h-45zM367,332h45v1h-45zM100,333h45v1h-45zM367,333h45v1h-45zM99,334h46v1h-46zM367,334h46v1h-46zM99,335h45v1h-45zM368,335h45v1h-45zM99,336h45v1h-45zM368,336h45v1h-45zM98,337h46v1h-46zM368,337h46v1h-46zM98,338h46v1h-46zM368,338h46v1h-46zM98,339h45v1h-45zM369,339h45v1h-45zM97,340h46v1h-46zM369,340h46v1h-46zM97,341h46v1h-46zM369,341h46v1h-46zM97,342h45v1h-45zM370,342h45v1h-45zM96,343h46v1h-46zM370,343h46v1h-46zM96,344h46v1h-46zM370,344h46v1h-46zM96,345h45v1h-45zM371,345h45v1h-45zM95,346h46v1h-46zM371,346h46v1h-46zM95,347h46v1h-46zM371,347h46v1h-46zM95,348h45v1h-45zM372,348h45v1h-45zM94,349h46v1h-46zM372,349h46v1h-46zM94,350h46v1h-46zM372,350h46v1h-46zM94,351h45v1h-45zM373,351h45v1h-45zM93,352h46v1h-46zM373,352h46v1h-46zM93,353h46v1h-46zM373,353h46v1h-46zM93,354h45v1h-45zM374,354h45v1h-45zM92,355h46v1h-46zM374,355h46v1h-46zM92,356h46v1h-46zM374,356h46v1h-46zM92,357h45v1h-45zM375,357h45v1h-45zM91,358h46v1h-46zM375,358h46v1h-46zM91,359h46v1h-46zM375,359h46v1h-46zM91,360h45v1h-45zM376,360h45v1h-45zM90,361h46v1h-46zM376,361h46v1h-46zM90,362h46v1h-46zM376,362h46v1h-46zM90,363h45v1h-45zM377,363h45v1h-45zM90,364h45v1h-45zM377,364h46v1h-46zM89,365h46v1h-46zM377,365h46v1h-46zM89,366h45v1h-45zM378,366h45v1h-45zM89,367h45v1h-45zM378,367h45v1h-45zM88,368h46v1h-46zM378,368h46v1h-46zM88,369h45v1h-45zM379,369h45v1h-45zM88,370h45v1h-45zM379,370h45v1h-45zM87,371h46v1h-46zM379,371h46v1h-46zM87,372h45v1h-45zM379,372h46v1h-46zM87,373h45v1h-45zM380,373h45v1h-45zM86,374h46v1h-46zM380,374h46v1h-46zM86,375h46v1h-46zM380,375h46v1h-46zM86,376h45v1h-45zM381,376h45v1h-45zM85,377h46v1h-46zM381,377h46v1h-46zM85,378h46v1h-46zM381,378h46v1h-46zM85,379h45v1h-45zM382,379h45v1h-45zM84,380h46v1h-46zM382,380h46v1h-46zM84,381h46v1h-46zM382,381h46v1h-46zM84,382h45v1h-45zM383,382h45v1h-45zM83,383h46v1h-46zM252,383h8v1h-8zM383,383h46v1h-46zM83,384h46v1h-46zM248,384h16v1h-16zM383,384h46v1h-46zM83,385h45v1h-45zM246,385h20v1h-20zM384,385h45v1h-45zM82,386h46v1h-46zM244,386h24v1h-24zM384,386h46v1h-46zM82,387h46v1h-46zM243,387h26v1h-26zM384,387h46v1h-46zM82,388h45v1h-45zM241,388h30v1h-30zM385,388h45v1h-45zM81,389h46v1h-46zM240,389h32v1h-32zM385,389h46v1h-46zM81,390h46v1h-46zM239,390h34v1h-34zM385,390h46v1h-46zM81,391h45v1h-45zM237,391h38v1h-38zM386,391h45v1h-45zM80,392h46v1h-46zM236,392h40v1h-40zM386,392h46v1h-46zM80,393h46v1h-46zM235,393h42v1h-42zM386,393h46v1h-46zM80,394h45v1h-45zM233,394h46v1h-46zM387,394h45v1h-45zM79,395h46v1h-46zM232,395h48v1h-48zM387,395h46v1h-46zM79,396h46v1h-46zM231,396h50v1h-50zM387,396h46v1h-46zM79,397h45v1h-45zM229,397h54v1h-54zM388,397h45v1h-45zM79,398h45v1h-45zM228,398h56v1h-56zM388,398h45v1h-45zM78,399h46v1h-46zM226,399h60v1h-60zM388,399h46v1h-46zM78,400h45v1h-45zM225,400h62v1h-62zM389,400h45v1h-45zM78,401h45v1h-45zM224,401h64v1h-64zM389,401h45v1h-45zM77,402h46v1h-46zM222,402h68v1h-68zM389,402h46v1h-46zM77,403h45v1h-45zM221,403h70v1h-70zM389,403h46v1h-46zM77,404h45v1h-45zM220,404h72v1h-72zM390,404h45v1h-45zM76,405h46v1h-46zM218,405h76v1h-76zM390,405h46v1h-46zM76,406h45v1h-45zM217,406h78v1h-78zM390,406h46v1h-46zM76,407h45v1h-45zM216,407h80v1h-80zM391,407h45v1h-45zM75,408h46v1h-46zM214,408h84v1h-84zM391,408h46v1h-46zM75,409h45v1h-45zM213,409h86v1h-86zM391,409h46v1h-46zM75,410h45v1h-45zM212,410h88v1h-88zM392,410h45v1h-45zM74,411h46v1h-46zM210,411h92v1h-92zM392,411h46v1h-46zM74,412h46v1h-46zM209,412h94v1h-94zM392,412h46v1h-46zM74,413h45v1h-45zM207,413h98v1h-98zM393,413h45v1h-45zM74,414h45v1h-45zM206,414h100v1h-100zM393,414h45v1h-45zM73,415h46v1h-46zM205,415h102v1h-102zM393,415h46v1h-46zM73,416h45v1h-45zM203,416h106v1h-106zM394,416h45v1h-45zM73,417h45v1h-45zM202,417h108v1h-108zM394,417h45v1h-45zM73,418h45v1h-45zM201,418h110v1h-110zM394,418h45v1h-45zM72,419h45v1h-45zM199,419h114v1h-114zM395,419h44v1h-44zM72,420h45v1h-45zM198,420h116v1h-116zM395,420h45v1h-45zM72,421h45v1h-45zM197,421h118v1h-118zM395,421h45v1h-45zM72,422h44v1h-44zM195,422h122v1h-122zM396,422h44v1h-44zM72,423h44v1h-44zM194,423h124v1h-124zM396,423h44v1h-44zM72,424h44v1h-44zM193,424h126v1h-126zM396,424h44v1h-44zM72,425h43v1h-43zM191,425h130v1h-130zM396,425h44v1h-44zM72,426h43v1h-43zM190,426h132v1h-132zM397,426h43v1h-43zM72,427h43v1h-43zM188,427h136v1h-136zM397,427h43v1h-43zM72,428h43v1h-43zM187,428h138v1h-138zM397,428h43v1h-43zM72,429h43v1h-43zM186,429h140v1h-140zM397,429h43v1h-43zM71,430h44v1h-44zM184,430h144v1h-144zM397,430h43v1h-43zM72,431h43v1h-43zM183,431h146v1h-146zM397,431h43v1h-43zM72,432h43v1h-43zM182,432h148v1h-148zM397,432h43v1h-43zM72,433h43v1h-43zM180,433h152v1h-152zM397,433h43v1h-43zM72,434h43v1h-43zM179,434h73v1h-73zM260,434h73v1h-73zM397,434h43v1h-43zM72,435h43v1h-43zM178,435h73v1h-73zM261,435h73v1h-73zM396,435h44v1h-44zM72,436h44v1h-44zM176,436h74v1h-74zM262,436h74v1h-74zM396,436h44v1h-44zM72,437h44v1h-44zM175,437h73v1h-73zM264,437h73v1h-73zM396,437h44v1h-44zM72,438h44v1h-44zM174,438h73v1h-73zM265,438h73v1h-73zM396,438h44v1h-44zM72,439h45v1h-45zM172,439h74v1h-74zM267,439h73v1h-73zM395,439h45v1h-45zM72,440h45v1h-45zM171,440h73v1h-73zM268,440h73v1h-73zM395,440h45v1h-45zM72,441h45v1h-45zM169,441h74v1h-74zM269,441h74v1h-74zM394,441h45v1h-45zM73,442h45v1h-45zM168,442h73v1h-73zM271,442h73v1h-73zM394,442h45v1h-45zM73,443h45v1h-45zM167,443h73v1h-73zM272,443h73v1h-73zM393,443h46v1h-46zM73,444h46v1h-46zM165,444h74v1h-74zM273,444h74v1h-74zM393,444h46v1h-46zM73,445h47v1h-47zM164,445h73v1h-73zM275,445h73v1h-73zM392,445h47v1h-47zM73,446h48v1h-48zM163,446h73v1h-73zM276,446h73v1h-73zM391,446h47v1h-47zM74,447h47v1h-47zM161,447h74v1h-74zM277,447h74v1h-74zM390,447h48v1h-48zM74,448h48v1h-48zM160,448h73v1h-73zM279,448h73v1h-73zM389,448h49v1h-49zM74,449h49v1h-49zM159,449h73v1h-73zM280,449h73v1h-73zM388,449h50v1h-50zM74,450h50v1h-50zM157,450h74v1h-74zM281,450h74v1h-74zM387,450h50v1h-50zM75,451h51v1h-51zM156,451h73v1h-73zM283,451h73v1h-73zM386,451h51v1h-51zM75,452h52v1h-52zM154,452h74v1h-74zM284,452h74v1h-74zM384,452h53v1h-53zM75,453h54v1h-54zM153,453h74v1h-74zM286,453h74v1h-74zM383,453h53v1h-53zM76,454h55v1h-55zM150,454h75v1h-75zM287,454h75v1h-75zM380,454h56v1h-56zM76,455h58v1h-58zM147,455h77v1h-77zM288,455h77v1h-77zM377,455h59v1h-59zM77,456h145v1h-145zM290,456h145v1h-145zM77,457h144v1h-144zM291,457h144v1h-144zM77,458h143v1h-143zM292,458h142v1h-142zM78,459h140v1h-140zM294,459h140v1h-140zM78,460h139v1h-139zM295,460h138v1h-138zM79,461h137v1h-137zM296,461h137v1h-137zM79,462h135v1h-135zM298,462h134v1h-134zM80,463h133v1h-133zM299,463h133v1h-133zM80,464h132v1h-132zM301,464h130v1h-130zM81,465h129v1h-129zM302,465h129v1h-129zM82,466h127v1h-127zM303,466h127v1h-127zM82,467h126v1h-126zM305,467h125v1h-125zM83,468h123v1h-123zM306,468h123v1h-123zM84,469h121v1h-121zM307,469h121v1h-121zM84,470h119v1h-119zM309,470h118v1h-118zM85,471h117v1h-117zM310,471h117v1h-117zM86,472h115v1h-115zM311,472h115v1h-115zM86,473h113v1h-113zM313,473h112v1h-112zM87,474h111v1h-111zM314,474h110v1h-110zM88,475h109v1h-109zM315,475h109v1h-109zM89,476h106v1h-106zM317,476h106v1h-106zM90,477h104v1h-104zM318,477h104v1h-104zM91,478h102v1h-102zM320,478h101v1h-101zM92,479h99v1h-99zM321,479h99v1h-99zM93,480h97v1h-97zM322,480h97v1h-97zM94,481h94v1h-94zM324,481h94v1h-94zM95,482h92v1h-92zM325,482h92v1h-92zM96,483h90v1h-90zM326,483h90v1h-90zM98,484h86v1h-86zM328,484h86v1h-86zM99,485h84v1h-84zM329,485h84v1h-84zM100,486h82v1h-82zM330,486h82v1h-82zM102,487h78v1h-78zM332,487h78v1h-78zM103,488h76v1h-76zM333,488h76v1h-76zM105,489h72v1h-72zM335,489h72v1h-72zM106,490h70v1h-70zM337,490h68v1h-68zM108,491h66v1h-66zM339,491h65v1h-65zM110,492h62v1h-62zM340,492h62v1h-62zM112,493h58v1h-58zM343,493h57v1h-57zM114,494h54v1h-54zM345,494h52v1h-52zM117,495h48v1h-48zM348,495h47v1h-47zM119,496h44v1h-44zM350,496h42v1h-42zM123,497h36v1h-36zM354,497h34v1h-34zM127,498h28v1h-28zM359,498h25v1h-25zM133,499h16v1h-16zM366,499h10v1h-10z"/></svg>