<svg xmlns="http://www.w3.org/2000/svg" viewBox="0 0 512 512" width="512" height="512"><path fill="#000" d="M198,0h233v1h-233zM198,1h233v1h-233zM198,2h233v1h-233zM194,3h241v1h-241zM191,4h247v1h-247zM188,5h253v1h-253zM185,6h259v1h-259zM183,7h263v1h-263zM180,8h268v1h-268zM178,9h273v1h-273zM176,10h277v1h-277zM174,11h281v1h-281zM172,12h285v1h-285zM170,13h288v1h-288zM169,14h291v1h-291zM167,15h295v1h-295zM165,16h298v1h-298zM164,17h301v1h-301zM162,18h304v1h-304zM161,19h307v1h-307zM160,20h309v1h-309zM158,21h312v1h-312zM157,22h315v1h-315zM156,23h317v1h-317zM154,24h320v1h-320zM153,25h322v1h-322zM152,26h324v1h-324zM151,27h327v1h-327zM150,28h329v1h-329zM149,29h331v1h-331zM148,30h333v1h-333zM147,31h335v1h-335zM146,32h337v1h-337zM145,33h339v1h-339zM144,34h341v1h-341zM143,35h342v1h-342zM142,36h344v1h-344zM141,37h346v1h-346zM141,38h347v1h-347zM140,39h349v1h-349zM139,40h351v1h-351zM138,41h352v1h-352zM137,42h354v1h-354zM137,43h79v1h-79zM413,43h79v1h-79zM136,44h74v1h-74zM419,44h74v1h-74zM135,45h71v1h-71zM423,45h70v1h-70zM134,46h69v1h-69zM426,46h68v1h-68zM134,47h66v1h-66zM428,47h67v1h-67zM133,48h65v1h-65zM431,48h64v1h-64zM133,49h62v1h-62zM433,49h63v1h-63zM132,50h61v1h-61zM435,50h62v1h-62zM131,51h61v1h-61zM437,51h60v1h-60zM131,52h59v1h-59zM438,52h60v1h-60zM130,53h58v1h-58zM440,53h58v1h-58zM130,54h57v1h-57zM441,54h58v1h-58zM129,55h56v1h-56zM443,55h56v1h-56zM129,56h55v1h-55zM444,56h56v1h-56zM128,57h55v1h-55zM445,57h55v1h-55zM128,58h54v1h-54zM447,58h54v1h-54zM128,59h53v1h-53zM448,59h54v1h-54zM128,60h51v1h-51zM449,60h53v1h-53zM128,61h50v1h-50zM450,61h52v1h-52zM128,62h49v1h-49zM451,62h52v1h-52zM127,63h49v1h-49zM452,63h51v1h-51zM127,64h49v1h-49zM453,64h51v1h-51zM128,65h47v1h-47zM453,65h51v1h-51zM128,66h46v1h-46zM454,66h51v1h-51zM128,67h45v1h-45zM455,67h50v1h-50zM128,68h44v1h-44zM456,68h49v1h-49zM128,69h44v1h-44zM457,69h49v1h-49zM129,70h42v1h-42zM457,70h49v1h-49zM129,71h41v1h-41zM458,71h48v1h-48zM129,72h40v1h-40zM459,72h48v1h-48zM130,73h39v1h-39zM459,73h48v1h-48zM130,74h38v1h-38zM460,74h48v1h-48zM131,75h37v1h-37zM460,75h48v1h-48zM132,76h35v1h-35zM461,76h47v1h-47zM132,77h34v1h-34zM462,77h46v1h-46zM133,78h32v1h-32zM462,78h47v1h-47zM134,79h30v1h-30zM463,79h46v1h-46zM135,80h28v1h-28zM463,80h46v1h-46zM136,81h26v1h-26zM464,81h45v1h-45zM138,82h22v1h-22zM464,82h48v1h-48zM140,83h19v1h-19zM464,83h48v1h-48zM142,84h14v1h-14zM465,84h47v1h-47zM147,85h5v1h-5zM465,85h47v1h-47zM465,86h47v1h-47zM466,87h46v1h-46zM466,88h46v1h-46zM466,89h46v1h-46zM467,90h45v1h-45zM467,91h45v1h-45zM467,92h45v1h-45zM467,93h45v1h-45zM468,94h44v1h-44zM468,95h44v1h-44zM468,96h44v1h-44zM468,97h44v1h-44zM468,98h44v1h-44zM468,99h44v1h-44zM468,100h44v1h-44zM469,101h43v1h-43zM469,102h43v1h-43zM469,103h43v1h-43zM469,104h43v1h-43zM469,105h43v1h-43zM469,106h43v1h-43zM469,107h43v1h-43zM469,108h43v1h-43zM469,109h43v1h-43zM469,110h43v1h-43zM469,111h43v1h-43zM469,112h43v1h-43zM469,113h43v1h-43zM469,114h43v1h-43zM469,115h43v1h-43zM469,116h43v1h-43zM469,117h43v1h-43zM469,118h43v1h-43zM469,119h43v1h-43zM469,120h43v1h-43zM469,121h43v1h-43zM469,122h43v1h-43zM469,123h43v1h-43zM469,124h43v1h-43zM469,125h43v1h-43zM469,126h43v1h-43zM469,127h43v1h-43zM93,128h198v1h-198zM469,128h43v1h-43zM87,129h210v1h-210zM469,129h43v1h-43zM82,130h220v1h-220zM469,130h43v1h-43zM78,131h228v1h-228zM469,131h43v1h-43zM75,132h234v1h-234zM469,132h43v1h-43zM72,133h240v1h-240zM469,133h43v1h-43zM69,134h246v1h-246zM469,134h43v1h-43zM66,135h252v1h-252zM469,135h43v1h-43zM64,136h256v1h-256zM469,136h43v1h-43zM62,137h260v1h-260zM469,137h43v1h-43zM60,138h264v1h-264zM469,138h43v1h-43zM58,139h268v1h-268zM469,139h43v1h-43zM56,140h272v1h-272zM469,140h43v1h-43zM54,141h276v1h-276zM469,141h43v1h-43zM52,142h280v1h-280zM469,142h43v1h-43zM51,143h282v1h-282zM469,143h43v1h-43zM49,144h286v1h-286zM469,144h43v1h-43zM47,145h290v1h-290zM469,145h43v1h-43zM46,146h292v1h-292zM469,146h43v1h-43zM45,147h294v1h-294zM469,147h43v1h-43zM43,148h298v1h-298zM469,148h43v1h-43zM42,149h300v1h-300zM469,149h43v1h-43zM41,150h302v1h-302zM469,150h43v1h-43zM39,151h306v1h-306zM469,151h43v1h-43zM38,152h308v1h-308zM469,152h43v1h-43zM37,153h310v1h-310zM469,153h43v1h-43zM36,154h312v1h-312zM469,154h43v1h-43zM35,155h314v1h-314zM469,155h43v1h-43zM34,156h316v1h-316zM469,156h43v1h-43zM33,157h318v1h-318zM469,157h43v1h-43zM32,158h320v1h-320zM469,158h43v1h-43zM31,159h322v1h-322zM469,159h43v1h-43zM30,160h324v1h-324zM469,160h43v1h-43zM29,161h326v1h-326zM469,161h43v1h-43zM28,162h328v1h-328zM469,162h43v1h-43zM27,163h330v1h-330zM469,163h43v1h-43zM26,164h332v1h-332zM469,164h43v1h-43zM25,165h334v1h-334zM469,165h43v1h-43zM24,166h336v1h-336zM469,166h43v1h-43zM23,167h338v1h-338zM469,167h43v1h-43zM23,168h338v1h-338zM469,168h43v1h-43zM22,169h340v1h-340zM469,169h43v1h-43zM21,170h342v1h-342zM469,170h43v1h-43zM20,171h79v1h-79zM285,171h79v1h-79zM469,171h43v1h-43zM20,172h73v1h-73zM291,172h73v1h-73zM469,172h43v1h-43zM19,173h70v1h-70zM295,173h70v1h-70zM469,173h43v1h-43zM18,174h68v1h-68zM298,174h68v1h-68zM469,174h43v1h-43zM17,175h66v1h-66zM301,175h65v1h-65zM469,175h43v1h-43zM17,176h64v1h-64zM303,176h64v1h-64zM469,176h43v1h-43zM16,177h63v1h-63zM305,177h63v1h-63zM469,177h43v1h-43zM16,178h61v1h-61zM307,178h61v1h-61zM469,178h43v1h-43zM15,179h60v1h-60zM309,179h60v1h-60zM469,179h43v1h-43zM14,180h60v1h-60zM311,180h59v1h-59zM469,180h43v1h-43zM14,181h58v1h-58zM312,181h58v1h-58zM469,181h43v1h-43zM13,182h57v1h-57zM314,182h57v1h-57zM469,182h43v1h-43zM13,183h56v1h-56zM315,183h56v1h-56zM469,183h43v1h-43zM12,184h56v1h-56zM316,184h56v1h-56zM469,184h43v1h-43zM12,185h54v1h-54zM318,185h54v1h-54zM469,185h43v1h-43zM11,186h54v1h-54zM319,186h54v1h-54zM469,186h43v1h-43zM11,187h53v1h-53zM320,187h53v1h-53zM469,187h43v1h-43zM10,188h53v1h-53zM321,188h53v1h-53zM469,188h43v1h-43zM10,189h52v1h-52zM322,189h52v1h-52zM469,189h43v1h-43zM9,190h52v1h-52zM323,190h52v1h-52zM469,190h43v1h-43zM9,191h51v1h-51zM324,191h51v1h-51zM469,191h43v1h-43zM8,192h51v1h-51zM325,192h51v1h-51zM469,192h43v1h-43zM8,193h50v1h-50zM326,193h50v1h-50zM469,193h43v1h-43zM7,194h50v1h-50zM327,194h50v1h-50zM469,194h43v1h-43zM7,195h50v1h-50zM327,195h50v1h-50zM469,195h43v1h-43zM7,196h49v1h-49zM328,196h49v1h-49zM469,196h43v1h-43zM6,197h49v1h-49zM329,197h49v1h-49zM469,197h43v1h-43zM6,198h48v1h-48zM330,198h48v1h-48zM469,198h43v1h-43zM6,199h48v1h-48zM330,199h48v1h-48zM469,199h43v1h-43zM5,200h48v1h-48zM331,200h48v1h-48zM469,200h43v1h-43zM5,201h48v1h-48zM331,201h48v1h-48zM469,201h43v1h-43zM5,202h47v1h-47zM332,202h47v1h-47zM469,202h43v1h-43zM4,203h47v1h-47zM333,203h47v1h-47zM469,203h43v1h-43zM4,204h47v1h-47zM333,204h47v1h-47zM469,204h43v1h-43zM4,205h46v1h-46zM334,205h46v1h-46zM469,205h43v1h-43zM3,206h47v1h-47zM334,206h47v1h-47zM469,206h43v1h-43zM3,207h46v1h-46zM335,207h46v1h-46zM469,207h43v1h-43zM3,208h46v1h-46zM335,208h46v1h-46zM469,208h43v1h-43zM3,209h45v1h-45zM336,209h45v1h-45zM469,209h43v1h-43zM0,210h48v1h-48zM336,210h46v1h-46zM469,210h43v1h-43zM0,211h47v1h-47zM337,211h45v1h-45zM469,211h43v1h-43zM0,212h47v1h-47zM337,212h45v1h-45zM469,212h43v1h-43zM0,213h47v1h-47zM337,213h45v1h-45zM469,213h43v1h-43zM0,214h46v1h-46zM338,214h44v1h-44zM469,214h43v1h-43zM0,215h46v1h-46zM338,215h45v1h-45zM469,215h43v1h-43zM0,216h46v1h-46zM338,216h45v1h-45zM469,216h43v1h-43zM0,217h45v1h-45zM339,217h44v1h-44zM469,217h43v1h-43zM0,218h45v1h-45zM339,218h44v1h-44zM469,218h43v1h-43zM0,219h45v1h-45zM339,219h44v1h-44zM469,219h43v1h-43zM0,220h45v1h-45zM339,220h44v1h-44zM469,220h43v1h-43zM0,221h44v1h-44zM340,221h44v1h-44zM469,221h43v1h-43zM0,222h44v1h-44zM340,222h44v1h-44zM469,222h43v1h-43zM0,223h44v1h-44zM340,223h44v1h-44zM469,223h43v1h-43zM0,224h44v1h-44zM340,224h44v1h-44zM469,224h43v1h-43zM0,225h44v1h-44zM340,225h44v1h-44zM469,225h43v1h-43zM0,226h44v1h-44zM340,226h44v1h-44zM469,226h43v1h-43zM0,227h43v1h-43zM341,227h43v1h-43zM469,227h43v1h-43zM0,228h43v1h-43zM341,228h43v1h-43zM469,228h43v1h-43zM0,229h43v1h-43zM341,229h43v1h-43zM469,229h43v1h-43zM0,230h43v1h-43zM341,230h43v1h-43zM469,230h43v1h-43zM0,231h43v1h-43zM341,231h43v1h-43zM469,231h43v1h-43zM0,232h43v1h-43zM341,232h43v1h-43zM469,232h43v1h-43zM0,233h43v1h-43zM341,233h43v1h-43zM469,233h43v1h-43zM0,234h384v1h-384zM469,234h43v1h-43zM0,235h384v1h-384zM469,235h43v1h-43zM0,236h384v1h-384zM469,236h43v1h-43zM0,237h384v1h-384zM469,237h43v1h-43zM0,238h384v1h-384zM469,238h43v1h-43zM0,239h384v1h-384zM469,239h43v1h-43zM0,240h384v1h-384zM469,240h43v1h-43zM0,241h384v1h-384zM469,241h43v1h-43zM0,242h384v1h-384zM469,242h43v1h-43zM0,243h384v1h-384zM469,243h43v1h-43zM0,244h384v1h-384zM469,244h43v1h-43zM0,245h384v1h-384zM469,245h43v1h-43zM0,246h384v1h-384zM469,246h43v1h-43zM0,247h384v1h-384zM469,247h43v1h-43zM0,248h384v1h-384zM469,248h43v1h-43zM0,249h384v1h-384zM469,249h43v1h-43zM0,250h384v1h-384zM469,250h43v1h-43zM0,251h384v1h-384zM469,251h43v1h-43zM0,252h384v1h-384zM469,252h43v1h-43zM0,253h384v1h-384zM469,253h43v1h-43zM0,254h384v1h-384zM469,254h43v1h-43zM0,255h384v1h-384zM469,255h43v1h-43zM0,256h384v1h-384zM469,256h43v1h-43zM0,257h384v1h-384zM469,257h43v1h-43zM0,258h384v1h-384zM469,258h43v1h-43zM0,259h384v1h-384zM469,259h43v1h-43zM0,260h384v1h-384zM469,260h43v1h-43zM0,261h384v1h-384zM469,261h43v1h-43zM0,262h384v1h-384zM469,262h43v1h-43zM0,263h384v1h-384zM469,263h43v1h-43zM0,264h384v1h-384zM469,264h43v1h-43zM0,265h384v1h-384zM469,265h43v1h-43zM0,266h384v1h-384zM469,266h43v1h-43zM0,267h384v1h-384zM469,267h43v1h-43zM0,268h384v1h-384zM469,268h43v1h-43zM0,269h384v1h-384zM469,269h43v1h-43zM0,270h384v1h-384zM469,270h43v1h-43zM0,271h384v1h-384zM469,271h43v1h-43zM0,272h384v1h-384zM469,272h43v1h-43zM0,273h384v1h-384zM469,273h43v1h-43zM0,274h384v1h-384zM469,274h43v1h-43zM0,275h384v1h-384zM469,275h43v1h-43zM0,276h384v1h-384zM469,276h43v1h-43zM0,277h384v1h-384zM469,277h43v1h-43zM0,278h43v1h-43zM341,278h43v1h-43zM469,278h43v1h-43zM0,279h43v1h-43zM341,279h43v1h-43zM469,279h43v1h-43zM0,280h43v1h-43zM341,280h43v1h-43zM469,280h43v1h-43zM0,281h43v1h-43zM341,281h43v1h-43zM469,281h43v1h-43zM0,282h43v1h-43zM341,282h43v1h-43zM469,282h43v1h-43zM0,283h43v1h-43zM341,283h43v1h-43zM469,283h43v1h-43zM0,284h43v1h-43zM341,284h43v1h-43zM469,284h43v1h-43zM0,285h43v1h-43zM341,285h43v1h-43zM469,285h43v1h-43zM0,286h43v1h-43zM341,286h43v1h-43zM469,286h43v1h-43zM0,287h43v1h-43zM341,287h43v1h-43zM469,287h43v1h-43zM0,288h43v1h-43zM341,288h43v1h-43zM469,288h43v1h-43zM0,289h43v1h-43zM341,289h43v1h-43zM469,289h43v1h-43zM0,290h43v1h-43zM341,290h43v1h-43zM469,290h43v1h-43zM0,291h43v1h-43zM341,291h43v1h-43zM469,291h43v1h-43zM0,292h43v1h-43zM341,292h43v1h-43zM469,292h43v1h-43zM0,293h43v1h-43zM341,293h43v1h-43zM469,293h43v1h-43zM0,294h43v1h-43zM341,294h43v1h-43zM468,294h44v1h-44zM0,295h43v1h-43zM341,295h43v1h-43zM468,295h44v1h-44zM0,296h43v1h-43zM341,296h43v1h-43zM468,296h44v1h-44zM0,297h43v1h-43zM341,297h43v1h-43zM468,297h44v1h-44zM0,298h43v1h-43zM341,298h43v1h-43zM468,298h44v1h-44zM0,299h43v1h-43zM341,299h43v1h-43zM468,299h44v1h-44zM0,300h43v1h-43zM341,300h43v1h-43zM468,300h44v1h-44zM0,301h43v1h-43zM341,301h43v1h-43zM467,301h45v1h-45zM0,302h43v1h-43zM341,302h43v1h-43zM467,302h45v1h-45zM0,303h43v1h-43zM341,303h43v1h-43zM467,303h45v1h-45zM0,304h43v1h-43zM341,304h43v1h-43zM467,304h45v1h-45zM0,305h43v1h-43zM341,305h43v1h-43zM466,305h46v1h-46zM0,306h43v1h-43zM341,306h43v1h-43zM466,306h46v1h-46zM0,307h43v1h-43zM341,307h43v1h-43zM466,307h46v1h-46zM0,308h43v1h-43zM341,308h43v1h-43zM466,308h46v1h-46zM0,309h43v1h-43zM341,309h43v1h-43zM465,309h47v1h-47zM0,310h43v1h-43zM341,310h43v1h-43zM465,310h47v1h-47zM0,311h43v1h-43zM341,311h43v1h-43zM464,311h48v1h-48zM0,312h43v1h-43zM341,312h43v1h-43zM464,312h48v1h-48zM0,313h43v1h-43zM341,313h43v1h-43zM464,313h45v1h-45zM0,314h43v1h-43zM341,314h43v1h-43zM463,314h46v1h-46zM0,315h43v1h-43zM341,315h43v1h-43zM463,315h46v1h-46zM0,316h43v1h-43zM341,316h43v1h-43zM462,316h47v1h-47zM0,317h43v1h-43zM341,317h43v1h-43zM462,317h46v1h-46zM0,318h43v1h-43zM341,318h43v1h-43zM461,318h47v1h-47zM0,319h43v1h-43zM341,319h43v1h-43zM461,319h47v1h-47zM0,320h43v1h-43zM341,320h43v1h-43zM460,320h47v1h-47zM0,321h43v1h-43zM341,321h43v1h-43zM460,321h47v1h-47zM0,322h43v1h-43zM341,322h43v1h-43zM459,322h48v1h-48zM0,323h43v1h-43zM341,323h43v1h-43zM458,323h49v1h-49zM0,324h43v1h-43zM341,324h43v1h-43zM458,324h48v1h-48zM0,325h43v1h-43zM341,325h43v1h-43zM457,325h49v1h-49zM0,326h43v1h-43zM341,326h43v1h-43zM456,326h49v1h-49zM0,327h43v1h-43zM341,327h43v1h-43zM455,327h50v1h-50zM0,328h43v1h-43zM341,328h43v1h-43zM455,328h50v1h-50zM0,329h43v1h-43zM341,329h43v1h-43zM454,329h50v1h-50zM0,330h43v1h-43zM341,330h43v1h-43zM453,330h51v1h-51zM0,331h43v1h-43zM341,331h43v1h-43zM452,331h51v1h-51zM0,332h43v1h-43zM341,332h43v1h-43zM451,332h52v1h-52zM0,333h43v1h-43zM341,333h43v1h-43zM450,333h52v1h-52zM0,334h43v1h-43zM341,334h43v1h-43zM449,334h53v1h-53zM0,335h43v1h-43zM341,335h43v1h-43zM448,335h54v1h-54zM0,336h43v1h-43zM341,336h43v1h-43zM447,336h54v1h-54zM0,337h43v1h-43zM341,337h43v1h-43zM446,337h55v1h-55zM0,338h43v1h-43zM341,338h43v1h-43zM445,338h55v1h-55zM0,339h43v1h-43zM341,339h43v1h-43zM443,339h56v1h-56zM0,340h43v1h-43zM341,340h43v1h-43zM442,340h57v1h-57zM0,341h43v1h-43zM341,341h43v1h-43zM441,341h57v1h-57zM0,342h43v1h-43zM341,342h43v1h-43zM439,342h59v1h-59zM0,343h43v1h-43zM341,343h43v1h-43zM437,343h60v1h-60zM0,344h43v1h-43zM341,344h43v1h-43zM436,344h61v1h-61zM0,345h43v1h-43zM341,345h43v1h-43zM434,345h62v1h-62zM0,346h43v1h-43zM341,346h43v1h-43zM433,346h62v1h-62zM0,347h43v1h-43zM341,347h43v1h-43zM432,347h63v1h-63zM0,348h43v1h-43zM341,348h43v1h-43zM431,348h63v1h-63zM0,349h43v1h-43zM341,349h43v1h-43zM431,349h62v1h-62zM0,350h43v1h-43zM341,350h43v1h-43zM430,350h63v1h-63zM0,351h43v1h-43zM341,351h43v1h-43zM429,351h63v1h-63zM0,352h43v1h-43zM341,352h43v1h-43zM429,352h62v1h-62zM0,353h43v1h-43zM341,353h43v1h-43zM428,353h63v1h-63zM0,354h43v1h-43zM341,354h43v1h-43zM428,354h62v1h-62zM0,355h43v1h-43zM341,355h43v1h-43zM427,355h62v1h-62zM0,356h43v1h-43zM341,356h43v1h-43zM427,356h61v1h-61zM0,357h43v1h-43zM341,357h43v1h-43zM427,357h60v1h-60zM0,358h43v1h-43zM341,358h43v1h-43zM427,358h59v1h-59zM0,359h43v1h-43zM341,359h43v1h-43zM426,359h60v1h-60zM0,360h43v1h-43zM341,360h43v1h-43zM426,360h59v1h-59zM0,361h43v1h-43zM341,361h43v1h-43zM426,361h58v1h-58zM0,362h43v1h-43zM341,362h43v1h-43zM426,362h57v1h-57zM0,363h43v1h-43zM341,363h43v1h-43zM426,363h56v1h-56zM0,364h43v1h-43zM341,364h43v1h-43zM426,364h55v1h-55zM0,365h43v1h-43zM341,365h43v1h-43zM426,365h54v1h-54zM0,366h43v1h-43zM341,366h43v1h-43zM427,366h52v1h-52zM0,367h43v1h-43zM341,367h43v1h-43zM427,367h51v1h-51zM0,368h43v1h-43zM341,368h43v1h-43zM427,368h50v1h-50zM0,369h43v1h-43zM341,369h43v1h-43zM427,369h49v1h-49zM0,370h43v1h-43zM341,370h43v1h-43zM428,370h46v1h-46zM0,371h43v1h-43zM341,371h43v1h-43zM428,371h45v1h-45zM0,372h43v1h-43zM341,372h43v1h-43zM429,372h43v1h-43zM0,373h43v1h-43zM341,373h43v1h-43zM429,373h42v1h-42zM0,374h43v1h-43zM341,374h43v1h-43zM430,374h39v1h-39zM0,375h43v1h-43zM341,375h43v1h-43zM430,375h38v1h-38zM0,376h43v1h-43zM341,376h43v1h-43zM431,376h36v1h-36zM0,377h43v1h-43zM341,377h43v1h-43zM432,377h33v1h-33zM0,378h43v1h-43zM341,378h43v1h-43zM433,378h31v1h-31zM0,379h43v1h-43zM341,379h43v1h-43zM434,379h28v1h-28zM0,380h43v1h-43zM341,380h43v1h-43zM436,380h25v1h-25zM0,381h43v1h-43zM341,381h43v1h-43zM437,381h22v1h-22zM0,382h43v1h-43zM341,382h43v1h-43zM439,382h18v1h-18zM0,383h43v1h-43zM341,383h43v1h-43zM442,383h12v1h-12zM0,384h43v1h-43zM341,384h43v1h-43zM0,385h43v1h-43zM341,385h43v1h-43zM0,386h43v1h-43zM341,386h43v1h-43zM0,387h43v1h-43zM341,387h43v1h-43zM0,388h43v1h-43zM341,388h43v1h-43zM0,389h43v1h-43zM341,389h43v1h-43zM0,390h43v1h-43zM341,390h43v1h-43zM0,391h43v1h-43zM341,391h43v1h-43zM0,392h43v1h-43zM341,392h43v1h-43zM0,393h43v1h-43zM341,393h43v1h-43zM0,394h43v1h-43zM341,394h43v1h-43zM0,395h43v1h-43zM341,395h43v1h-43zM0,396h43v1h-43zM341,396h43v1h-43zM0,397h43v1h-43zM341,397h43v1h-43zM0,398h43v1h-43zM341,398h43v1h-43zM0,399h43v1h-43zM341,399h43v1h-43zM0,400h43v1h-43zM341,400h43v1h-43zM0,401h43v1h-43zM341,401h43v1h-43zM0,402h43v1h-43zM341,402h43v1h-43zM0,403h43v1h-43zM341,403h43v1h-43zM0,404h43v1h-43zM341,404h43v1h-43zM0,405h43v1h-43zM341,405h43v1h-43zM0,406h43v1h-43zM341,406h43v1h-43zM0,407h43v1h-43zM341,407h43v1h-43zM0,408h43v1h-43zM341,408h43v1h-43zM0,409h43v1h-43zM341,409h43v1h-43zM0,410h43v1h-43zM341,410h43v1h-43zM0,411h43v1h-43zM341,411h43v1h-43zM0,412h43v1h-43zM341,412h43v1h-43zM0,413h44v1h-44zM340,413h44v1h-44zM0,414h44v1h-44zM340,414h44v1h-44zM0,415h44v1h-44zM340,415h44v1h-44zM0,416h44v1h-44zM340,416h44v1h-44zM0,417h44v1h-44zM340,417h44v1h-44zM0,418h44v1h-44zM340,418h44v1h-44zM0,419h45v1h-45zM339,419h44v1h-44zM0,420h45v1h-45zM339,420h44v1h-44zM0,421h45v1h-45zM339,421h44v1h-44zM0,422h45v1h-45zM339,422h44v1h-44zM0,423h46v1h-46zM338,423h45v1h-45zM0,424h46v1h-46zM338,424h45v1h-45zM0,425h46v1h-46zM338,425h44v1h-44zM0,426h47v1h-47zM337,426h45v1h-45zM0,427h47v1h-47zM337,427h45v1h-45zM0,428h47v1h-47zM337,428h45v1h-45zM0,429h48v1h-48zM336,429h46v1h-46zM3,430h45v1h-45zM336,430h45v1h-45zM3,431h46v1h-46zM335,431h46v1h-46zM3,432h46v1h-46zM335,432h46v1h-46zM3,433h47v1h-47zM334,433h47v1h-47zM4,434h46v1h-46zM334,434h46v1h-46zM4,435h47v1h-47zM333,435h47v1h-47zM4,436h47v1h-47zM333,436h47v1h-47zM5,437h47v1h-47zM332,437h47v1h-47zM5,438h47v1h-47zM332,438h47v1h-47zM5,439h48v1h-48zM331,439h48v1h-48zM6,440h48v1h-48zM330,440h48v1h-48zM6,441h48v1h-48zM330,441h48v1h-48zM6,442h49v1h-49zM329,442h49v1h-49zM7,443h49v1h-49zM328,443h49v1h-49zM7,444h50v1h-50zM327,444h50v1h-50zM7,445h50v1h-50zM327,445h50v1h-50zM8,446h50v1h-50zM326,446h50v1h-50zM8,447h51v1h-51zM325,447h51v1h-51zM9,448h51v1h-51zM324,448h51v1h-51zM9,449h52v1h-52zM323,449h52v1h-52zM10,450h52v1h-52zM322,450h52v1h-52zM10,451h53v1h-53zM321,451h53v1h-53zM11,452h53v1h-53zM320,452h53v1h-53zM11,453h54v1h-54zM319,453h54v1h-54zM12,454h54v1h-54zM318,454h54v1h-54zM12,455h56v1h-56zM316,455h56v1h-56zM13,456h56v1h-56zM315,456h56v1h-56zM13,457h57v1h-57zM314,457h57v1h-57zM14,458h58v1h-58zM312,458h58v1h-58zM14,459h60v1h-60zM311,459h59v1h-59zM15,460h60v1h-60zM309,460h60v1h-60zM16,461h61v1h-61zM307,461h61v1h-61zM16,462h63v1h-63zM305,462h63v1h-63zM17,463h64v1h-64zM303,463h64v1h-64zM17,464h66v1h-66zM301,464h65v1h-65zM18,465h68v1h-68zM298,465h68v1h-68zM19,466h70v1h-70zM295,466h70v1h-70zM20,467h73v1h-73zM291,467h73v1h-73zM20,468h79v1h-79zM285,468h79v1h-79zM21,469h342v1h-342zM22,470h340v1h-340zM23,471h338v1h-338zM23,472h338v1h-338zM24,473h336v1h-336zM25,474h334v1h-334zM26,475h332v1h-332zM27,476h330v1h-330zM28,477h328v1h-328zM29,478h326v1h-326zM30,479h324v1h-324zM31,480h322v1h-322zM32,481h320v1h-320zM33,482h318v1h-318zM34,483h316v1h-316zM35,484h314v1h-314zM36,485h312v1h-312zM37,486h310v1h-310zM38,487h308v1h-308zM39,488h306v1h-306zM41,489h302v1h-302zM42,490h300v1h-300zM43,491h298v1h-298zM45,492h294v1h-294zM46,493h292v1h-292zM48,494h289v1h-289zM49,495h286v1h-286zM51,496h282v1h-282zM52,497h280v1h-280zM54,498h276v1h-276zM56,499h272v1h-272zM58,500h268v1h-268zM60,501h264v1h-264zM62,502h260v1h-260zM64,503h256v1h-256zM66,504h252v1h-252zM69,505h246v1h-246zM72,506h240v1h-240zM75,507h234v1h-234zM78,508h228v1h-228zM82,509h220v1h-220zM82,510h220v1h-220zM82,511h220v1h-220z"/></svg>