<?xml version="1.0" standalone="no"?>
<!DOCTYPE svg PUBLIC "-//W3C//DTD SVG 20010904//EN"
 "http://www.w3.org/TR/2001/REC-SVG-20010904/DTD/svg10.dtd">
<svg version="1.0" xmlns="http://www.w3.org/2000/svg"
 width="980px" height="980px" viewBox="0 0 980.000000 980.000000"
 preserveAspectRatio="xMidYMid meet">
<metadata>
Created by potrace 1.16, written by Peter Selinger 2001-2019
</metadata>
<g transform="translate(0.000000,980.000000) scale(0.100000,-0.100000)"
fill="#000000" stroke="none">
<path d="M2965 8593 c-525 -10 -812 -75 -1073 -240 -354 -225 -589 -590 -651
-1013 -31 -205 -30 -119 -34 -2650 -3 -1598 1 -1926 22 -2140 72 -710 568
-1223 1271 -1314 195 -25 375 -27 2330 -30 1839 -3 2205 1 2435 24 695 70
1212 580 1300 1283 27 210 30 505 29 2532 0 2035 -4 2256 -43 2365 -5 14 -12
39 -16 55 -69 333 -311 685 -595 867 -279 178 -512 240 -960 254 -168 5 -3790
11 -4015 7z m3485 -288 c680 -7 830 -16 1005 -67 427 -123 737 -468 814 -908
39 -223 46 -603 46 -2390 -1 -2329 -7 -2468 -127 -2744 -100 -229 -347 -485
-553 -571 -202 -85 -391 -119 -690 -125 -49 -1 -106 -3 -125 -5 -238 -24
-3493 -24 -3817 0 -32 2 -125 7 -208 10 -474 18 -728 116 -973 374 -91 96
-232 328 -232 381 0 9 -4 20 -9 25 -31 34 -66 259 -76 481 -3 76 -8 168 -10
204 -25 396 -25 3401 0 3830 2 41 7 138 10 215 9 236 24 340 66 473 108 337
332 573 689 725 143 61 373 85 910 93 217 4 397 9 400 11 5 5 1991 -3 2880
-12z M4710 7408 c-306 -30 -586 -102 -828 -214 -41 -19 -75 -34 -77 -34 -41 0
-401 -239 -540 -359 -434 -374 -774 -992 -840 -1527 -69 -565 19 -1076 267
-1545 l41 -79 -20 -77 c-12 -43 -30 -112 -41 -153 -12 -41 -28 -100 -36 -130
-18 -70 -151 -554 -210 -769 -25 -91 -44 -166 -43 -167 1 -1 103 25 227 57
124 33 317 84 430 113 113 30 309 81 436 115 l231 61 109 -54 c493 -243 1073
-311 1646 -191 42 8 271 74 293 84 82 36 144 61 151 61 15 0 248 122 328 172
290 182 533 414 742 708 33 47 63 92 67 100 4 8 20 38 37 65 96 155 208 428
260 632 347 1364 -471 2729 -1840 3068 -231 57 -572 84 -790 63z m405 -428
c282 -26 568 -117 845 -271 452 -251 826 -741 965 -1264 101 -379 89 -869 -29
-1183 -8 -20 -29 -75 -46 -122 -117 -310 -351 -629 -635 -863 -40 -32 -204
-147 -211 -147 -3 0 -18 -8 -32 -19 -113 -79 -372 -184 -602 -242 -481 -123
-1122 -15 -1558 262 -25 16 -50 25 -55 22 -6 -4 -34 -12 -61 -19 -64 -15 -354
-91 -551 -144 -82 -22 -153 -40 -157 -40 -4 0 2 30 13 68 11 37 27 92 35 122
8 30 46 170 84 311 39 141 70 260 70 265 0 5 -21 41 -46 79 -126 193 -230 458
-280 715 -24 123 -50 415 -40 448 3 9 6 46 7 82 1 86 25 243 54 360 125 501
414 920 840 1219 270 189 644 331 940 356 44 4 82 9 84 11 8 8 259 4 366 -6z
M3945 6123 c-61 -18 -194 -147 -244 -235 -169 -299 -121 -630 152 -1059 316
-496 694 -849 1087 -1013 25 -11 73 -32 107 -47 303 -137 480 -169 708 -125
79 15 272 131 329 198 63 73 101 178 113 310 7 83 -12 106 -148 177 -46 24
-106 56 -134 71 -329 180 -372 189 -443 100 -22 -28 -75 -89 -118 -136 -44
-48 -81 -90 -84 -95 -78 -122 -579 202 -829 536 -79 105 -156 228 -172 272
-16 46 13 101 106 203 81 89 115 143 115 184 0 26 -176 510 -209 575 -47 91
-193 128 -336 84z"/>
</g>
</svg>
